<?xml version="1.0" standalone="no"?>
<!DOCTYPE svg PUBLIC "-//W3C//DTD SVG 1.1//EN" "http://www.w3.org/Graphics/SVG/1.1/DTD/svg11.dtd" >
<svg xmlns="http://www.w3.org/2000/svg">
<metadata></metadata>
<defs>
<font id="corporate_a_cond_proRgIt" horiz-adv-x="845" >
<font-face units-per-em="2048" ascent="1389" descent="-659" />
<missing-glyph horiz-adv-x="409" />
<glyph unicode="&#xfb01;" horiz-adv-x="956" d="M-203 -377l13 53q82 18 134 69.5t92.5 155t82.5 294.5l166 696h-111l14 63h19q61 4 83.5 29.5t51.5 122.5q27 86 41.5 121t38.5 71q65 97 188 97q73 0 116.5 -35.5t43.5 -95.5q0 -51 -27 -83t-69 -32q-28 0 -45 16t-17 43q0 14 13 47q18 37 18 50q0 38 -37 38 q-35 0 -64.5 -62t-64.5 -212l-24 -104h176l-19 -74h-176l-178 -752q-64 -278 -170 -397t-289 -119zM590 106q0 49 28 173l132 512q14 57 14 73q0 25 -20.5 35t-75.5 10l10 39q113 3 278 53l-194 -753q-23 -94 -23 -125q0 -22 7.5 -35.5t19.5 -13.5q22 0 43 26t49 86l39 -30 q-44 -97 -85.5 -135.5t-102.5 -38.5q-53 0 -86 34.5t-33 89.5zM823 1251q0 47 34.5 82t80.5 35q41 0 69.5 -29.5t28.5 -72.5q0 -49 -33 -84t-79 -35q-43 0 -72 30t-29 74z" />
<glyph unicode="&#xfb02;" horiz-adv-x="956" d="M-203 -377l13 53q82 18 134 69.5t92.5 155.5t82.5 296l166 694h-111l14 63h19q61 4 83.5 29.5t51.5 122.5q27 86 41.5 121t38.5 71q65 97 188 97q96 0 138 -60q99 -3 303 54l-277 -1110q-29 -113 -29 -154q0 -22 10 -36.5t25 -14.5q22 0 42 22.5t50 83.5l37 -24 q-46 -102 -85.5 -138t-106.5 -36q-55 0 -89 35t-34 92t45 235l209 834q10 52 10 67q0 29 -19 40t-73 11q4 -24 4 -32q0 -51 -26.5 -83t-69.5 -32q-28 0 -45 16t-17 43q0 14 13 47q16 35 16 50q0 38 -37 38q-35 0 -63.5 -61t-63.5 -213l-24 -104h176l-19 -74h-176l-178 -750 q-64 -280 -170 -399t-289 -119z" />
<glyph unicode="&#xfb03;" horiz-adv-x="1439" d="M-203 -377l13 53q82 18 134 69.5t92.5 155t82.5 294.5l166 696h-111l14 63h19q61 4 83.5 29.5t51.5 122.5q27 86 41.5 121t38.5 71q65 97 188 97q73 0 116.5 -35.5t43.5 -95.5q0 -51 -27 -83t-69 -32q-28 0 -45 16t-17 43q0 14 13 47q18 37 18 50q0 38 -37 38 q-35 0 -64.5 -62t-64.5 -212l-24 -104h176l-19 -74h-176l-178 -752q-64 -278 -170 -397t-289 -119zM285 -377l12 53q82 18 134 69.5t92.5 155t82.5 294.5l164 696h-108l14 63h18q42 3 63 14.5t36.5 40.5t35.5 97q27 86 41.5 121t38.5 71q63 97 189 97q73 0 116 -35.5 t43 -95.5q0 -51 -27 -83t-69 -32q-28 0 -44.5 15.5t-16.5 43.5q0 17 12 47q18 37 18 50q0 38 -36 38q-35 0 -64.5 -62t-64.5 -212l-25 -104h176l-18 -74h-176l-25 -103l-154 -649q-65 -278 -170 -397t-288 -119zM1073 106q0 49 31 173l129 512q14 49 14 73q0 25 -20.5 35 t-73.5 10l8 39q114 3 279 53l-195 -753q-22 -99 -22 -125q0 -49 26 -49q22 0 43 26t49 86l39 -30q-43 -97 -84.5 -135.5t-103.5 -38.5q-53 0 -86 34.5t-33 89.5zM1307 1251q0 47 34.5 82t81.5 35q41 0 70 -29.5t29 -72.5q0 -49 -34.5 -84t-80.5 -35q-43 0 -71.5 30t-28.5 74 z" />
<glyph unicode="&#xfb04;" horiz-adv-x="1441" d="M-203 -377l13 53q82 18 134 69.5t92.5 155t82.5 294.5l166 696h-111l14 63h19q61 4 83.5 29.5t51.5 122.5q27 86 41.5 121t38.5 71q65 97 188 97q73 0 116.5 -35.5t43.5 -95.5q0 -51 -27 -83t-69 -32q-28 0 -45 16t-17 43q0 14 13 47q18 37 18 50q0 38 -37 38 q-35 0 -64.5 -62t-64.5 -212l-24 -104h176l-19 -74h-176l-178 -752q-64 -278 -170 -397t-289 -119zM283 -377l12 53q120 26 183 132.5t126 388.5l166 694h-111l15 63h18q61 4 83.5 29.5t51.5 122.5q27 86 41.5 121t38.5 71q65 97 189 97q95 0 137 -60q99 -3 303 54 l-276 -1110q-29 -113 -29 -154q0 -22 10 -36.5t25 -14.5q22 0 42 22.5t50 83.5l37 -24q-46 -102 -86 -138t-107 -36q-55 0 -89 35t-34 92q0 56 45 235l209 834q10 52 10 67q0 29 -19 40t-73 11q4 -24 4 -32q0 -51 -26.5 -83t-69.5 -32q-28 0 -44.5 15.5t-16.5 43.5 q0 17 12 47q16 35 16 50q0 38 -36 38q-35 0 -63.5 -61t-63.5 -213l-25 -104h176l-18 -74h-176l-179 -750q-65 -280 -170 -399t-288 -119z" />
<glyph horiz-adv-x="2048" />
<glyph horiz-adv-x="2048" />
<glyph unicode="&#xd;" horiz-adv-x="2048" />
<glyph unicode=" "  horiz-adv-x="409" />
<glyph unicode="&#x09;" horiz-adv-x="409" />
<glyph unicode="&#xa0;" horiz-adv-x="409" />
<glyph unicode="!" horiz-adv-x="421" d="M31 94q0 52 37.5 89.5t89.5 37.5q44 0 75 -32t31 -78q0 -53 -37 -91t-88 -38q-46 0 -77 32.5t-31 79.5zM156 410l194 929h172l-260 -929h-106z" />
<glyph unicode="&#x22;" horiz-adv-x="618" d="M262 817l109 549h145l-166 -549h-88zM492 817l108 549h143l-163 -549h-88z" />
<glyph unicode="#" horiz-adv-x="993" d="M74 434l41 111h176l110 301h-174l41 110h176l154 410h123l-154 -410h215l154 410h125l-154 -410h174l-43 -110h-174l-112 -301h174l-41 -111h-185l-153 -434h-123l162 434h-215l-164 -434h-121l162 434h-174zM414 545h217l110 301h-217z" />
<glyph unicode="$" horiz-adv-x="841" d="M57 154l64 297h55q-12 -91 -12 -140q0 -219 141 -260l152 608l-21 17q-115 101 -151.5 160t-36.5 143q0 106 51 202.5t137 155.5q79 53 203 56l39 157h67l-43 -166q37 -7 103 -41q33 -20 55 -20q12 0 51 23l-77 -357h-58q12 77 12 129q0 158 -102 199l-129 -516l49 -43 q99 -87 134.5 -148t35.5 -145q0 -198 -127 -345.5t-297 -146.5l-41 -157h-65l41 164q-69 14 -124 55t-106 119zM369 45q87 6 151 64q52 47 86.5 129.5t34.5 160.5q0 84 -61 148q-32 32 -70 65zM383 1051q0 -55 25 -97.5t96 -105.5l119 479q-100 -2 -170 -82t-70 -194z" />
<glyph unicode="%" horiz-adv-x="1019" d="M92 0l887 1335h88l-887 -1335h-88zM201 915q0 116 44.5 223t117.5 172.5t151 65.5q67 0 105 -49t38 -137q0 -137 -63 -266q-46 -95 -110.5 -147t-135.5 -52q-69 0 -108 50.5t-39 139.5zM307 864q0 -92 51 -92q71 0 129 162q66 179 66 303q0 90 -53 90q-64 0 -125 -156 q-30 -77 -49 -163t-19 -144zM518 180q0 116 44.5 223t117.5 172.5t151 65.5q68 0 106 -49t38 -137q0 -116 -44 -224.5t-116 -174.5t-149 -66q-69 0 -108.5 50.5t-39.5 139.5zM625 129q0 -92 51 -92q71 0 129 162q65 182 65 305q0 41 -14 64.5t-39 23.5q-63 0 -125 -156 q-29 -77 -48 -163t-19 -144z" />
<glyph unicode="&#x26;" horiz-adv-x="935" d="M35 252q0 190 133 338q59 64 190 170l-8 26q-37 142 -37 218q0 136 92.5 237.5t215.5 101.5q83 0 132.5 -50.5t49.5 -133.5q0 -93 -49 -186q-28 -54 -71.5 -102.5t-129.5 -120.5l-25 -21l142 -444q46 66 76 134.5t30 106.5q0 24 -15 34t-54 11l14 60q64 -10 121 -10 q59 0 125 10l-15 -60q-53 -5 -71 -20t-41 -76q-53 -141 -146 -264l23 -68q22 -61 46.5 -79.5t82.5 -18.5l-10 -51q-79 8 -123 8q-46 0 -111 -8l-31 94q-142 -111 -274 -111q-120 0 -191 75t-71 200zM174 229q0 -82 40 -130t108 -48q108 0 229 103l-152 473 q-62 -51 -94 -84.5t-57 -71.5q-74 -110 -74 -242zM442 1044q0 -65 43 -190q113 92 161 167.5t48 162.5q0 46 -19.5 74t-51.5 28q-66 0 -123.5 -76.5t-57.5 -165.5z" />
<glyph unicode="'" horiz-adv-x="389" d="M262 817l109 549h145l-166 -549h-88z" />
<glyph unicode="(" horiz-adv-x="503" d="M72 156q0 346 154.5 692.5t400.5 550.5h55q-214 -257 -341.5 -631.5t-127.5 -747.5q0 -232 72 -452h-52q-161 228 -161 588z" />
<glyph unicode=")" horiz-adv-x="503" d="M-127 -432q218 261 346.5 633.5t128.5 742.5q0 237 -74 455h52q161 -228 161 -586q0 -345 -154 -689t-403 -556h-57z" />
<glyph unicode="*" horiz-adv-x="819" d="M307 821l221 193l-211 35l62 114l178 -96l31 258h119l-99 -258l228 96l4 -114l-230 -35l125 -193l-114 -71l-60 229l-174 -229z" />
<glyph unicode="+" d="M145 631l31 121h277l88 356h127l-88 -356h276l-29 -121h-278l-90 -359h-127l90 359h-277z" />
<glyph unicode="," horiz-adv-x="413" d="M-78 -410q61 67 114 167.5t79 199.5q-46 2 -71.5 28t-25.5 72q0 62 39.5 105t96.5 43q49 0 78.5 -33t29.5 -86q0 -105 -77.5 -245.5t-196.5 -250.5h-66z" />
<glyph unicode="-" horiz-adv-x="319" d="M27 483l26 109h322l-29 -109h-319z" />
<glyph unicode="." horiz-adv-x="413" d="M25 94q0 52 37.5 89.5t89.5 37.5q44 0 75 -32t31 -78q0 -53 -37 -91t-88 -38q-46 0 -77 32.5t-31 79.5z" />
<glyph unicode="/" horiz-adv-x="731" d="M-92 -397l866 1763h103l-867 -1763h-102z" />
<glyph unicode="0" d="M111 297q0 192 60.5 421.5t152.5 387.5q141 250 333 250q107 0 164.5 -82t57.5 -236q0 -183 -51.5 -391.5t-137.5 -370.5q-79 -152 -165.5 -223t-192.5 -71t-163.5 82t-57.5 233zM258 213q0 -78 24.5 -125t65.5 -47q67 0 129 102t133 328q123 397 123 649q0 83 -25 129.5 t-71 46.5q-63 0 -123 -101.5t-131 -324.5q-57 -181 -91 -358.5t-34 -298.5z" />
<glyph unicode="1" d="M109 -6l14 53q102 11 139 45t62 139l223 893l-168 -4l12 49q96 3 185 66.5t139 163.5h55l-287 -1151q-20 -71 -20 -113q0 -38 29.5 -59.5t95.5 -28.5l-13 -53q-137 14 -225 14q-86 0 -241 -14z" />
<glyph unicode="2" d="M14 0l29 111l61 71q279 317 465 568q83 113 119.5 194t36.5 154q0 64 -31 102.5t-82 38.5q-82 0 -147.5 -69t-124.5 -216h-66q56 203 151 301.5t234 98.5q104 0 167 -64t63 -170q0 -120 -66.5 -234.5t-263.5 -334.5q-293 -324 -377 -408h477l-51 -143h-594z" />
<glyph unicode="3" d="M68 324q0 28 2 55h73q1 -89 11.5 -137t35.5 -88q45 -70 134 -70q114 0 188 133q66 119 66 248q0 106 -47 156.5t-150 56.5l18 72q75 3 111.5 18.5t79.5 62.5q46 49 73 118.5t27 137.5q0 72 -33 117t-86 45q-70 0 -123.5 -54.5t-103.5 -176.5h-65q50 171 131 253.5 t202 82.5q107 0 171.5 -68.5t64.5 -183.5q0 -141 -76 -241t-213 -140q51 -17 86 -45q41 -32 66.5 -93t25.5 -130q0 -127 -53.5 -235.5t-145 -172t-198.5 -63.5q-132 0 -202 88t-70 254z" />
<glyph unicode="4" d="M39 377l10 39l664 940h168l-215 -852h147l-31 -127h-145l-96 -387h-154l96 387h-444zM195 504h321l182 723z" />
<glyph unicode="5" d="M80 291v31h70q21 -236 169 -236q54 0 104 37.5t85 105.5q92 176 92 375q0 97 -35.5 154t-95.5 57t-110.5 -36.5t-104.5 -119.5l-61 5l258 671h458l-51 -141h-395l-146 -379q57 55 103 76.5t108 21.5q114 0 175 -80t61 -231q0 -129 -37.5 -252t-105.5 -217 q-51 -71 -125.5 -111t-155.5 -40q-119 0 -189.5 84t-70.5 225z" />
<glyph unicode="6" d="M88 291q0 356 295 715q95 118 207 221.5t211 165.5h100q-134 -109 -233.5 -222.5t-194.5 -265.5q48 19 90 19q100 0 160.5 -81.5t60.5 -217.5q0 -117 -36.5 -237.5t-100.5 -213.5q-128 -192 -309 -192q-115 0 -182.5 83t-67.5 226zM236 229q0 -88 27.5 -138t76.5 -50 q123 0 215 260q74 206 74 371q0 88 -27 136t-78 48q-98 0 -182 -182q-43 -93 -74.5 -224.5t-31.5 -220.5z" />
<glyph unicode="7" d="M98 0l740 1186l-516 -10l40 159h654l-756 -1335h-162z" />
<glyph unicode="8" d="M92 244q0 168 98 305q39 56 88.5 92t120.5 61q-63 29 -90.5 75.5t-27.5 121.5q0 145 90 281q114 174 291 174q103 0 161 -62t58 -172q0 -83 -28.5 -166.5t-78.5 -146.5q-36 -44 -71.5 -69.5t-88.5 -43.5q71 -29 103.5 -83t32.5 -142q0 -128 -57 -241t-152 -179.5 t-203 -66.5q-115 0 -180.5 70t-65.5 192zM244 199q0 -73 26 -115.5t70 -42.5q55 0 107.5 55t93.5 156q55 140 55 256q0 73 -27 116.5t-73 43.5q-57 0 -116 -71t-97.5 -181t-38.5 -217zM432 854q0 -58 21.5 -92.5t56.5 -34.5q45 0 88 47t78 137q55 140 55 258 q0 60 -19.5 92.5t-56.5 32.5q-43 0 -86 -46.5t-75 -127.5q-27 -65 -44.5 -140t-17.5 -126z" />
<glyph unicode="9" d="M72 -57q134 111 234.5 225t193.5 262q-47 -16 -88 -16q-101 0 -162.5 81.5t-61.5 217.5q0 114 37 235t101 217q132 191 309 191q117 0 183.5 -83t66.5 -229q0 -348 -291 -710q-97 -118 -208.5 -222t-211.5 -169h-102zM344 666q0 -88 27.5 -136.5t77.5 -48.5q96 0 182 183 q43 93 74.5 224t31.5 220q0 88 -26.5 136.5t-77.5 51.5q-57 3 -113 -65t-102 -195q-74 -206 -74 -370z" />
<glyph unicode=":" horiz-adv-x="413" d="M25 94q0 52 37.5 89.5t89.5 37.5q44 0 75 -32t31 -78q0 -53 -37 -91t-88 -38q-46 0 -77 32.5t-31 79.5zM184 764q0 53 37.5 91t89.5 38q44 0 75.5 -32.5t31.5 -78.5q0 -54 -37 -92.5t-88 -38.5q-46 0 -77.5 33t-31.5 80z" />
<glyph unicode=";" horiz-adv-x="413" d="M-78 -410q61 67 114 167.5t79 199.5q-46 2 -71.5 28t-25.5 72q0 62 39.5 105t96.5 43q49 0 78.5 -33t29.5 -86q0 -105 -77.5 -245.5t-196.5 -250.5h-66zM193 764q0 53 37 91t89 38q44 0 75.5 -32.5t31.5 -78.5q0 -54 -37 -92.5t-88 -38.5q-46 0 -77 33t-31 80z" />
<glyph unicode="&#x3c;" horiz-adv-x="819" d="M125 692l4 13l799 489l-25 -94l-610 -369l424 -379l-43 -170z" />
<glyph unicode="=" d="M113 496l30 120h680l-28 -120h-682zM178 764l31 121h680l-29 -121h-682z" />
<glyph unicode="&#x3e;" horiz-adv-x="819" d="M43 182l25 97l608 368l-422 377l41 170l551 -508l-4 -12z" />
<glyph unicode="?" horiz-adv-x="720" d="M147 94q0 52 37.5 89.5t89.5 37.5q44 0 75.5 -32t31.5 -78q0 -53 -37 -91t-88 -38q-46 0 -77.5 32.5t-31.5 79.5zM250 995q38 175 131 273t221 98q103 0 165 -70.5t62 -187.5q0 -105 -46.5 -181t-166.5 -167q-149 -110 -204.5 -191.5t-77.5 -220.5h-74q20 162 67.5 252 t178.5 213q92 88 126 146.5t34 130.5q0 69 -31 110t-82 41q-69 0 -127.5 -63t-101.5 -183h-74z" />
<glyph unicode="@" horiz-adv-x="1159" d="M96 569q0 161 55.5 312t148 261.5t218.5 177t260 66.5q201 0 333 -136.5t132 -346.5q0 -266 -168 -452q-71 -78 -147.5 -122t-143.5 -44q-50 0 -78.5 24t-31.5 68q-77 -92 -174 -92q-83 0 -129.5 49t-46.5 137q0 125 73 274q63 130 154 204.5t188 74.5q95 0 119 -90 l27 78q73 2 137 16l-166 -469q-47 -132 -47 -170q0 -17 12 -29t27 -12q38 0 87.5 39.5t92.5 104.5q60 87 93.5 194t33.5 207q0 170 -112 288.5t-273 118.5q-116 0 -223 -58t-185.5 -155t-125 -230t-46.5 -277q0 -230 124 -373.5t323 -143.5q247 0 438 293h78 q-51 -87 -90.5 -136.5t-99.5 -100.5q-167 -139 -349 -139q-227 0 -372.5 165t-145.5 424zM446 424q0 -46 18 -71t52 -25q104 0 205 225q37 84 63.5 178t26.5 143q0 107 -70 107q-57 0 -119.5 -82t-117.5 -231q-58 -154 -58 -244z" />
<glyph unicode="A" horiz-adv-x="997" d="M-82 -6l12 49q67 4 107 39t94 137l637 1208h12l29 -1232q1 -89 24 -116.5t99 -35.5l-12 -49q-112 14 -195 14q-86 0 -209 -14l12 49q83 10 100 31t17 112v209h-344l-111 -211q-11 -22 -21.5 -52.5t-10.5 -39.5q0 -23 20.5 -34.5t67.5 -14.5l-13 -49q-88 10 -157 10 q-71 0 -158 -10zM334 459h311v600z" />
<glyph unicode="B" horiz-adv-x="907" d="M-39 0l12 51q87 6 116.5 30.5t49.5 104.5l248 994q12 58 12 71q0 32 -23 46t-87 20l12 49h391q140 0 204.5 -56.5t64.5 -179.5q0 -133 -77 -244t-200 -157q174 -46 174 -223q0 -108 -45.5 -217t-118.5 -176q-119 -113 -332 -113h-401zM285 109q0 -23 18 -33t59 -10h19 q137 0 221 133q41 66 67.5 156.5t26.5 166.5q0 85 -42.5 122.5t-137.5 37.5h-94l-123 -485q-14 -65 -14 -88zM436 745h74q77 0 126 29.5t89 99.5q34 57 56 139t22 148q0 78 -37.5 110t-132.5 32h-58z" />
<glyph unicode="C" horiz-adv-x="909" d="M117 373q0 186 55.5 387t149.5 350q177 287 423 287q52 0 92 -12.5t93 -45.5q53 -32 78 -32q12 0 51 20l-80 -356h-55q10 71 10 119q0 114 -46.5 178.5t-129.5 64.5q-97 0 -178 -76.5t-154 -240.5q-66 -146 -108 -334.5t-42 -337.5q0 -129 52.5 -206t140.5 -77 q114 0 203.5 106.5t140.5 301.5h74q-60 -241 -177.5 -370.5t-277.5 -129.5q-149 0 -232 106t-83 298z" />
<glyph unicode="D" horiz-adv-x="1073" d="M-39 0l12 51q86 6 116 30.5t50 104.5l248 994q12 54 12 71q0 33 -22.5 46.5t-87.5 19.5l12 49h395q123 0 192 -20.5t120 -71.5q98 -104 98 -318q0 -153 -39.5 -307t-112.5 -287q-63 -111 -147 -193.5t-176 -123.5q-107 -45 -256 -45h-414zM283 111q0 -48 75 -48 q137 0 229.5 57t170.5 189t133 334t55 358q0 163 -60.5 232.5t-201.5 69.5h-109l-276 -1108q-16 -71 -16 -84z" />
<glyph unicode="E" horiz-adv-x="856" d="M-39 0l12 49q86 8 116.5 33t49.5 104l248 994q12 54 12 73q0 31 -23 44.5t-87 19.5l12 49h692l-47 -307h-51q2 33 2 65q0 107 -33 143t-133 36h-156l-139 -555h338l-18 -72h-336l-117 -465q-16 -63 -16 -90q0 -58 100 -58h80q97 0 156.5 56t128.5 211h51l-119 -330h-723z " />
<glyph unicode="F" horiz-adv-x="786" d="M-41 -6l12 49q86 8 116.5 33t49.5 104l248 1000q12 46 12 73q0 31 -22.5 44.5t-85.5 19.5l12 49h692l-47 -307h-49q2 31 2 65q0 109 -32 144t-136 35h-156l-139 -555h340l-18 -72h-340l-123 -496q-12 -56 -12 -74q0 -29 24 -43t84 -20l-12 -49q-129 14 -207 14 q-79 0 -213 -14z" />
<glyph unicode="G" horiz-adv-x="993" d="M111 350q0 192 60.5 400.5t158.5 359.5q183 279 430 279q60 0 101.5 -15.5t113.5 -64.5q33 -23 53 -23q10 0 51 21l-86 -349h-55q10 93 10 127q0 117 -48 181.5t-136 64.5q-95 0 -175.5 -81t-160.5 -255q-73 -162 -117.5 -346.5t-44.5 -324.5q0 -138 47.5 -213.5 t135.5 -75.5q82 0 192 51l94 375q6 24 6 45q0 28 -21.5 39t-80.5 16l12 49q100 -10 189 -10q88 0 196 10l-12 -49q-77 -6 -101 -24.5t-36 -79.5l-96 -383q-101 -52 -181 -74.5t-164 -22.5q-162 0 -248.5 96.5t-86.5 276.5z" />
<glyph unicode="H" horiz-adv-x="1085" d="M-41 -6l12 49q86 8 116.5 33t49.5 104l250 1006q14 55 14 74q0 31 -23.5 44t-86.5 19l12 49q126 -14 203 -14q75 0 207 14l-13 -49q-79 -7 -107 -32t-48 -105l-109 -443h400l110 443q15 59 15 76q0 29 -22 42t-81 19l12 49q123 -14 201 -14q77 0 209 14l-12 -49 q-85 -8 -115 -33t-49 -104l-250 -1006q-12 -46 -12 -76q0 -29 24 -43t84 -18l-14 -49q-123 14 -201 14q-77 0 -209 -14l13 49q81 7 108.5 32t46.5 105l125 500h-399l-125 -500q-12 -47 -12 -78q0 -28 22 -41.5t76 -17.5l-12 -49q-123 14 -201 14q-77 0 -209 -14z" />
<glyph unicode="I" horiz-adv-x="526" d="M-41 -6l12 49q86 8 116.5 33t49.5 104l250 1006q14 55 14 74q0 31 -23.5 44t-86.5 19l12 49q129 -14 205 -14q79 0 213 14l-12 -49q-84 -7 -114 -32t-50 -105l-250 -1006q-12 -53 -12 -76q0 -29 23.5 -42.5t82.5 -18.5l-12 -49q-129 14 -205 14t-213 -14z" />
<glyph unicode="J" horiz-adv-x="512" d="M-143 -141l14 61q14 -2 35 -2q88 0 139.5 70.5t95.5 253.5l236 944q14 52 14 78t-25 39.5t-85 19.5l14 49q129 -14 205 -14q73 0 213 14l-13 -49q-87 -7 -115.5 -32t-47.5 -105l-236 -940q-49 -203 -127 -287q-95 -104 -256 -104q-15 0 -61 4z" />
<glyph unicode="K" horiz-adv-x="995" d="M-41 -6l12 49q87 7 117 32t49 105l250 1006q12 52 12 74q0 31 -23 44t-85 19l12 49q134 -14 213 -14q77 0 203 14l-12 -49q-84 -8 -113 -32t-49 -105l-111 -445l451 476q43 48 43 69q0 17 -18.5 24.5t-69.5 12.5l12 49q88 -10 164 -10q78 0 170 10l-15 -49 q-71 -8 -111.5 -33t-123.5 -112l-348 -367l125 -487q45 -168 74 -219.5t83 -51.5q33 0 86 27l-16 -62q-68 -36 -149 -36q-91 0 -137 56.5t-89 221.5l-108 418l-51 -51l-111 -447q-12 -50 -12 -76q0 -29 21.5 -42t80.5 -19l-12 -49q-115 14 -193 14q-75 0 -221 -14z" />
<glyph unicode="L" horiz-adv-x="802" d="M-39 0l12 49q88 8 117 31.5t49 105.5l248 1000q14 53 14 74q0 31 -23 44t-87 19l12 49q129 -14 205 -14t213 14l-12 -49q-85 -7 -114 -32t-48 -105l-244 -977q-16 -63 -16 -84q0 -57 84 -57h80q94 0 152.5 55t127.5 207h57l-118 -330h-709z" />
<glyph unicode="M" horiz-adv-x="1314" d="M-43 -6l12 49q25 5 41 9t33.5 14.5t28 21t24.5 34t23.5 47t25 68t28.5 89t34 116.5l213 744q12 44 12 74q0 29 -25 42.5t-85 18.5l12 51q76 -8 125 -8q75 0 170 10l28 -1030l537 1030q98 -10 174 -10q50 0 129 8l-12 -49q-85 -8 -116 -33.5t-48 -103.5l-229 -987 q-15 -68 -15 -88q0 -32 23 -47t84 -21l-13 -49q-126 14 -206 14q-81 0 -215 -14l12 49q86 6 117.5 32.5t46.5 104.5l239 1012l-598 -1153h-47l-35 1153l-284 -1012q-13 -48 -13 -74q0 -31 22 -44t83 -19l-12 -49q-90 10 -158 10q-66 0 -166 -10z" />
<glyph unicode="N" horiz-adv-x="1069" d="M-45 -6l12 49q53 6 84 24.5t53 57.5q22 46 111 385l186 752q-12 30 -37.5 43t-78.5 18l12 49q76 -6 129 -6q54 0 133 6l260 -1032l201 823q14 60 14 88q0 34 -23 50t-81 22l12 49q97 -10 166 -10q67 0 162 10l-13 -49q-80 -9 -115 -49t-63 -152l-291 -1163h-34l-308 1223 l-192 -789q-57 -228 -57 -276q0 -35 21 -51t79 -23l-14 -49q-103 10 -164 10q-64 0 -164 -10z" />
<glyph unicode="O" horiz-adv-x="1011" d="M129 408q0 207 63 421.5t164 354.5q150 209 363 209q152 0 236.5 -114t84.5 -318q0 -182 -47 -370t-129 -329q-166 -289 -409 -289q-155 0 -240.5 114t-85.5 321zM285 352q0 -154 45.5 -237.5t130.5 -83.5q59 0 116.5 49.5t104.5 142.5q90 175 146.5 399.5t56.5 405.5 q0 136 -47.5 221.5t-122.5 85.5q-173 0 -307 -374q-123 -342 -123 -609z" />
<glyph unicode="P" horiz-adv-x="878" d="M-41 -6l12 49q86 7 116 32t50 105l248 1000q12 40 12 73q0 29 -24 43.5t-84 20.5l12 49h399q90 0 143 -15.5t87 -52.5q65 -68 65 -190q0 -103 -40.5 -207t-106.5 -170q-115 -115 -316 -115h-129l-108 -436q-12 -56 -12 -74q0 -30 24.5 -44.5t83.5 -18.5l-12 -49 q-129 14 -207 14q-79 0 -213 -14zM420 680h78q87 0 142 29t101 98q43 67 71 158t28 172q0 91 -44.5 128.5t-150.5 37.5h-70z" />
<glyph unicode="Q" horiz-adv-x="1003" d="M129 408q0 209 62 421t165 355q150 209 359 209q155 0 240 -113t85 -319q0 -218 -64.5 -431.5t-174.5 -361.5q-56 -75 -129 -124.5t-146 -61.5q20 -9 66 -43q57 -45 98 -45q28 0 57.5 18.5t75.5 64.5l-24 -100q-94 -100 -191 -100q-62 0 -135 59q-48 39 -72 52.5 t-47 13.5q-35 0 -74 -30t-94 -97l31 123q71 77 121 96q-209 84 -209 414zM285 354q0 -154 45.5 -237.5t130.5 -83.5q59 0 116.5 49.5t104.5 142.5q89 174 146 398t57 405q0 136 -47.5 221.5t-122.5 85.5q-173 0 -307 -374q-123 -339 -123 -607z" />
<glyph unicode="R" horiz-adv-x="980" d="M-41 -6l12 49q87 7 116.5 32t49.5 105l248 1000q12 50 12 71q0 32 -21.5 45t-86.5 21l12 49h383q142 0 207 -33q104 -57 104 -215q0 -174 -103 -299t-274 -157q51 -19 72 -54t33 -123l35 -239q11 -83 26 -127q26 -66 88 -66q36 0 89 27l-17 -62q-65 -36 -151 -36 q-79 0 -125 43q-26 26 -41.5 75.5t-32.5 161.5l-39 262q-10 75 -39 104t-92 29h-10l-119 -477q-12 -52 -12 -69q0 -34 21 -47.5t85 -20.5l-12 -49q-126 14 -205 14t-213 -14zM430 721h92q78 0 132 29.5t98 95.5q38 57 63 141.5t25 155.5q0 47 -17.5 83.5t-48.5 53.5 q-39 23 -143 23h-56z" />
<glyph unicode="S" horiz-adv-x="790" d="M29 154l63 297h55q-12 -91 -12 -140q0 -127 51.5 -197.5t143.5 -70.5q114 0 198 105.5t84 250.5q0 57 -27 101.5t-100 107.5l-77 68q-115 102 -152 161t-37 142q0 169 112 292.5t267 123.5q89 0 178 -52q38 -20 55 -20q13 0 52 23l-78 -357h-57q12 77 12 131 q0 100 -42 153.5t-120 53.5q-101 0 -172.5 -81t-71.5 -195q0 -58 27.5 -102t107.5 -113q121 -104 175 -158q84 -90 84 -213q0 -130 -57.5 -244t-155.5 -182t-209 -68q-95 0 -162 41.5t-135 141.5z" />
<glyph unicode="T" horiz-adv-x="825" d="M111 -6l12 49q88 9 116.5 33t47.5 104l280 1123h-63q-83 0 -134 -50t-120 -200h-55l122 313h689l-33 -313h-55q2 31 2 71q0 98 -30.5 138.5t-105.5 40.5h-59l-281 -1123q-12 -58 -12 -74q0 -29 24 -43t85 -20l-13 -49q-126 14 -204 14q-81 0 -213 -14z" />
<glyph unicode="U" horiz-adv-x="1054" d="M164 242q0 92 29 211l184 733q12 58 12 74q0 31 -23.5 44t-86.5 19l12 49q129 -14 205 -14t213 14l-13 -49q-84 -7 -113 -32t-48 -105l-185 -744q-28 -112 -28 -186q0 -76 52 -131t124 -55q84 0 157 54t119 150q35 76 96 320l144 573q14 55 14 90q0 34 -21 47t-83 19 l12 49q98 -10 166 -10q67 0 162 10l-13 -49q-89 -10 -122.5 -56t-73.5 -208l-152 -610q-48 -198 -123 -306q-57 -80 -142 -123t-187 -43q-129 0 -208 72.5t-79 192.5z" />
<glyph unicode="V" horiz-adv-x="872" d="M193 1323l14 49q112 -14 211 -14q91 0 192 14l-12 -49q-74 -9 -98.5 -28t-24.5 -66v-950l373 737q90 179 90 241q0 22 -13 36t-34 14q-4 0 -39 -7l-6 48q122 22 219 69q6 -30 6 -43q0 -44 -22.5 -100t-94.5 -193l-26 -49l-19 -35l-538 -1052h-39l-23 1247 q-2 78 -22.5 101.5t-93.5 29.5z" />
<glyph unicode="W" horiz-adv-x="1253" d="M203 1323l12 49q104 -14 193 -14q91 0 200 14l-12 -49q-80 -8 -105 -31t-26 -92l-51 -835l487 1044h64l-33 -1042l315 694q70 156 70 203q0 19 -11 31t-28 12q-9 0 -33 -4q-5 0 -14 -3l-6 48q132 17 225 71q4 -14 4 -30q0 -27 -10 -58t-43 -102l-588 -1272h-43l37 1102 l-514 -1102h-45l53 1239q0 72 -20 98t-78 29z" />
<glyph unicode="X" horiz-adv-x="952" d="M-96 -6l12 49q64 6 102 35t113 131q7 10 51 65l310 400l-89 526q-10 69 -36 93t-97 30l13 49q112 -14 215 -14q95 0 196 14l-12 -49q-69 -6 -97 -23.5t-28 -54.5q0 -19 4 -43l60 -364l256 333q49 65 49 105q0 14 -11 22.5t-28 8.5q-1 0 -41 -7l-2 48q129 18 221 69v-18 q0 -57 -25 -105.5t-116 -165.5l-289 -374l96 -568q15 -89 39 -113.5t98 -29.5l-12 -49q-123 14 -203 14q-75 0 -215 -14l13 49q70 7 98.5 26.5t28.5 57.5q0 25 -5 45l-67 416l-283 -367q-73 -94 -73 -133q0 -21 19 -30.5t67 -14.5l-13 -49q-101 8 -162 8t-157 -8z" />
<glyph unicode="Y" horiz-adv-x="829" d="M127 -6l12 49q88 9 116.5 33t47.5 104l105 416l-66 516q-7 52 -8 78q-11 75 -35.5 101t-93.5 32l12 49q115 -14 203 -14t211 14l-13 -49q-81 -7 -102.5 -22.5t-21.5 -63.5q0 -39 6 -98l49 -453l291 467q55 87 55 123q0 13 -10 22t-25 9q-1 0 -45 -7l-4 48q60 10 101.5 23 t127.5 46v-22q0 -36 -15 -68t-77 -131l-383 -600l-102 -416q-14 -55 -14 -78q0 -26 24 -39.5t82 -19.5l-12 -49q-129 14 -205 14q-74 0 -211 -14z" />
<glyph unicode="Z" horiz-adv-x="802" d="M-59 0l852 1303h-236q-86 0 -145 -53t-119 -185h-60l119 301h662l-848 -1298h262q101 0 161 51.5t148 214.5h51l-122 -334h-725z" />
<glyph unicode="[" horiz-adv-x="503" d="M-27 -397l441 1763h291l-17 -61h-143l-410 -1641h146l-17 -61h-291z" />
<glyph unicode="\" horiz-adv-x="731" d="M305 1366h90l164 -1763h-90z" />
<glyph unicode="]" horiz-adv-x="503" d="M-145 -397l14 61h145l410 1641h-145l16 61h291l-441 -1763h-290z" />
<glyph unicode="^" horiz-adv-x="1024" d="M160 588l598 846h10l188 -846h-159l-133 598l-426 -598h-78z" />
<glyph unicode="_" horiz-adv-x="1024" d="M-51 -180h923v-78h-923v78z" />
<glyph unicode="`" horiz-adv-x="819" d="M397 1401h170l80 -303h-72z" />
<glyph unicode="a" horiz-adv-x="835" d="M63 254q0 97 28 213t75 217q67 144 158.5 222.5t191.5 78.5q108 0 137 -123l29 107q90 3 156 20l-179 -680q-34 -133 -34 -180q0 -22 10 -37.5t24 -15.5q19 0 39 23.5t52 84.5l38 -34q-46 -93 -88 -130.5t-100 -37.5q-56 0 -90.5 33.5t-38.5 93.5q-82 -127 -197 -127 q-100 0 -155.5 72t-55.5 200zM207 182q0 -68 22 -105.5t62 -37.5q109 0 198 227q45 115 80 269t35 237q0 156 -86 156q-107 0 -213 -291q-44 -120 -71 -244.5t-27 -210.5z" />
<glyph unicode="b" horiz-adv-x="796" d="M109 258q0 59 9.5 112.5t47.5 211.5l149 596q13 57 13 71q0 27 -20.5 37t-76.5 10l9 39q136 12 278 54l-129 -521q54 64 98.5 90.5t100.5 26.5q91 0 144.5 -72t53.5 -194q0 -137 -41.5 -280.5t-111.5 -252.5q-133 -204 -305 -204q-98 0 -158.5 76t-60.5 200zM248 176 q0 -63 23 -100t63 -37q54 0 108.5 69t98.5 195q45 127 74.5 261.5t29.5 211.5q0 69 -22.5 108.5t-63.5 39.5q-49 0 -99 -59.5t-95 -168.5q-51 -127 -84 -275t-33 -245z" />
<glyph unicode="c" horiz-adv-x="673" d="M66 274q0 121 39 258.5t104 243.5q132 215 313 215q61 0 125 -30q27 -15 49 -15q15 0 47 25l-71 -322h-51q10 69 10 123q0 74 -26.5 117t-72.5 43q-57 0 -106 -53.5t-100 -169.5q-48 -112 -80.5 -246t-32.5 -225q0 -94 30.5 -143.5t88.5 -49.5q149 0 233 281h70 q-104 -351 -336 -351q-108 0 -170.5 80.5t-62.5 218.5z" />
<glyph unicode="d" horiz-adv-x="833" d="M63 256q0 130 42.5 273t111.5 251q133 205 295 205q55 0 87.5 -28.5t47.5 -88.5l78 310q12 52 12 71q0 27 -19.5 37t-74.5 10l10 39q104 0 275 54l-258 -1035l-13 -55q-8 -41 -12 -55q-20 -70 -20 -119q0 -19 10.5 -34t23.5 -15q20 0 39.5 22.5t53.5 85.5l39 -34 q-53 -98 -91.5 -133t-95.5 -35q-117 0 -129 124q-42 -66 -89 -95t-107 -29q-99 0 -157.5 74t-58.5 200zM205 190q0 -72 23.5 -111.5t64.5 -39.5q106 0 194 227q43 109 78 265.5t35 238.5q0 77 -22.5 117.5t-65.5 40.5q-116 0 -217 -291q-40 -117 -65 -242t-25 -205z" />
<glyph unicode="e" horiz-adv-x="696" d="M63 274q0 115 37.5 244t100.5 234q140 233 334 233q89 0 141.5 -51t52.5 -139q0 -148 -138 -246.5t-349 -99.5l-6 -25q-25 -106 -25 -178q0 -94 34 -145.5t95 -51.5q69 0 137 73t109 193h69q-54 -161 -145.5 -247t-208.5 -86q-109 0 -173.5 79.5t-64.5 212.5zM256 506 q144 0 244 106q44 46 69 102t25 109q0 46 -19.5 75.5t-48.5 29.5q-72 0 -142.5 -111t-127.5 -311z" />
<glyph unicode="f" horiz-adv-x="491" d="M-203 -377l13 53q82 18 134 69.5t92.5 155t82.5 294.5l166 696h-111l14 63h19q61 4 83.5 29.5t51.5 122.5q27 86 41.5 121t38.5 71q65 97 188 97q73 0 116.5 -35.5t43.5 -95.5q0 -51 -27 -83t-69 -32q-28 0 -45 16t-17 43q0 14 13 47q18 37 18 50q0 38 -37 38 q-35 0 -64.5 -62t-64.5 -212l-24 -104h176l-19 -74h-176l-178 -752q-64 -278 -170 -397t-289 -119z" />
<glyph unicode="g" horiz-adv-x="745" d="M-68 -168q0 208 220 264q-58 40 -58 97t46.5 101.5t152.5 88.5q-131 67 -131 233q0 154 97 263.5t233 109.5q102 0 163 -61l228 8l-21 -82l-172 8q33 -50 33 -129q0 -83 -30 -160t-81 -124q-37 -36 -79.5 -54.5t-106.5 -25.5q-91 -12 -151 -49.5t-60 -83.5 q0 -28 22 -37.5t105 -20.5q148 -16 205 -49q92 -53 92 -180q0 -158 -107.5 -257.5t-279.5 -99.5q-142 0 -231 67t-89 173zM2 -160q0 -85 66 -132.5t186 -47.5q125 0 197.5 59t72.5 160q0 156 -266 156q-123 0 -189.5 -50.5t-66.5 -144.5zM301 557q0 -63 25 -99t69 -36 q80 0 135 127q25 55 40.5 125.5t15.5 126.5q0 59 -24.5 95t-65.5 36q-87 0 -146 -146q-49 -120 -49 -229z" />
<glyph unicode="h" horiz-adv-x="866" d="M51 0l301 1210q6 21 6 39q0 27 -21 37t-77 10l10 39q134 12 279 54l-127 -512q88 108 207 108q75 0 121.5 -51.5t46.5 -136.5q0 -62 -25 -160l-96 -389q-23 -89 -23 -123q0 -21 10.5 -36t24.5 -15q22 0 37.5 20t52.5 94l41 -32q-38 -91 -82 -132.5t-102 -41.5 q-55 0 -93 38.5t-38 94.5q0 34 8 73.5t37 155.5l74 299q24 91 24 154q0 43 -22.5 69.5t-57.5 26.5q-73 0 -135 -84q-43 -63 -74 -180l-155 -629h-152z" />
<glyph unicode="i" horiz-adv-x="454" d="M86 106q0 46 31 173l129 512q14 49 14 73q0 25 -20.5 35t-73.5 10l8 39q114 3 279 53l-193 -753q-24 -94 -24 -125q0 -49 26 -49q22 0 43 26t49 86l39 -30q-43 -97 -84.5 -135.5t-103.5 -38.5q-53 0 -86 34.5t-33 89.5zM319 1251q0 47 35 82t82 35q41 0 70 -29.5 t29 -72.5q0 -49 -34.5 -84t-80.5 -35q-43 0 -72 30t-29 74z" />
<glyph unicode="j" horiz-adv-x="440" d="M-219 -377l12 53q106 20 170.5 110t114.5 284l176 723q12 49 12 71q0 25 -20.5 35t-73.5 10l8 39q141 12 277 53l-211 -862q-64 -275 -174 -397q-107 -119 -285 -119h-6zM326 1249q0 49 34.5 84t81.5 35q41 0 70 -29.5t29 -72.5q0 -47 -34.5 -83t-80.5 -36 q-43 0 -71.5 29.5t-28.5 72.5z" />
<glyph unicode="k" horiz-adv-x="833" d="M51 0l293 1176q14 55 14 71q0 28 -20.5 38.5t-77.5 10.5l10 39q130 14 277 54l-215 -873l282 283q62 62 62 92q0 35 -74 41l10 41q79 -10 154 -10q78 0 170 10l-10 -41q-57 -7 -100 -35.5t-140 -120.5l-151 -145l106 -402q29 -108 48 -142t50 -34q20 0 80 25l-12 -51 q-41 -26 -70.5 -35.5t-66.5 -9.5q-71 0 -107 39.5t-67 152.5l-93 330l-100 -96l-100 -408h-152z" />
<glyph unicode="l" horiz-adv-x="454" d="M92 109q0 61 45 235l209 836q10 52 10 67q0 29 -19 39t-75 10l8 39q133 12 279 54l-277 -1110q-28 -105 -28 -154q0 -22 10 -36.5t25 -14.5q22 0 41.5 23t50.5 83l37 -22q-46 -103 -86 -139.5t-107 -36.5q-55 0 -89 35t-34 92z" />
<glyph unicode="m" horiz-adv-x="1234" d="M51 0l197 793q14 51 14 77q0 19 -18.5 25.5t-79.5 7.5l10 39q155 24 248 62q-5 -66 -23 -152q100 133 222 133q131 0 155 -145q45 70 105 107.5t125 37.5q73 0 120.5 -46.5t47.5 -117.5q0 -63 -27 -166l-88 -340q-37 -143 -37 -186q0 -24 11 -39.5t28 -15.5q20 0 39 22 t55 84l33 -24q-41 -96 -84.5 -135t-108.5 -39q-56 0 -90.5 35t-34.5 92t29 170l98 383q25 92 25 143q0 38 -22 63t-56 25q-63 0 -111 -62.5t-77 -181.5l-162 -649h-152l166 666q23 91 23 133q0 43 -20 68.5t-54 25.5q-64 0 -115.5 -68.5t-83.5 -197.5l-155 -627h-152z" />
<glyph unicode="n" horiz-adv-x="866" d="M51 0l195 778q16 74 16 90q0 20 -18 27t-80 8l10 39q147 21 248 62q-2 -41 -21 -148q63 70 114.5 99.5t113.5 29.5q75 0 121.5 -50.5t46.5 -133.5q0 -63 -25 -172l-96 -381q-21 -95 -21 -123q0 -22 10 -36.5t27 -14.5q20 0 39 22t51 84l37 -24q-43 -98 -85.5 -137 t-108.5 -39q-54 0 -87.5 36t-33.5 93q0 58 28 170l91 356q24 105 24 158q0 46 -21.5 73t-58.5 27q-71 0 -137 -92q-40 -54 -72 -172l-155 -629h-152z" />
<glyph unicode="o" horiz-adv-x="770" d="M72 287q0 134 42 278.5t111 243.5q117 176 297 176q110 0 173 -80.5t63 -222.5q0 -126 -37 -262t-98 -236q-128 -202 -314 -202q-114 0 -175.5 79.5t-61.5 225.5zM213 215q0 -176 106 -176q56 0 104 56.5t93 178.5q44 115 71 245t27 226q0 183 -104 183q-62 0 -114 -68.5 t-99 -210.5q-84 -257 -84 -434z" />
<glyph unicode="p" horiz-adv-x="827" d="M-51 -403l291 1167q16 60 16 96q0 29 -19 40.5t-73 14.5l8 37q133 10 242 37q0 -58 -17 -141q49 72 100 104.5t113 32.5q92 0 148.5 -76t56.5 -202q0 -132 -41 -276.5t-108 -248.5q-129 -200 -293 -200q-57 0 -90.5 28t-55.5 94l-127 -507h-151zM274 207q0 -78 27 -123 t74 -45q40 0 79 35.5t70 99.5q61 129 104.5 304t43.5 292q0 73 -24.5 115.5t-65.5 42.5q-49 0 -100.5 -58t-94.5 -161q-39 -100 -76 -262.5t-37 -239.5z" />
<glyph unicode="q" horiz-adv-x="819" d="M63 260q0 128 42.5 269t113.5 249q136 207 305 207q117 0 144 -137q20 65 29.5 89t27.5 52q80 -24 135 -26q-31 -60 -49 -113t-57 -207l-262 -1046h-152l125 495q-49 -61 -91 -85.5t-98 -24.5q-98 0 -155.5 74.5t-57.5 203.5zM205 190q0 -72 23.5 -111.5t66.5 -39.5 q109 0 199 223q44 113 80 269.5t36 238.5q0 75 -23.5 116.5t-66.5 41.5q-56 0 -114.5 -78t-110.5 -223q-41 -112 -65.5 -231t-24.5 -206z" />
<glyph unicode="r" horiz-adv-x="589" d="M51 0l191 760q18 73 18 104q0 21 -16 29t-58 10h-22l10 39q149 15 227 53q7 -32 7 -45q0 -39 -25 -149q56 100 108 144t115 44q46 0 74.5 -32.5t28.5 -86.5q0 -55 -29.5 -91t-73.5 -36q-63 0 -63 62q0 43 35 63q-11 33 -33 33q-50 0 -114 -118.5t-105 -288.5l-123 -494 h-152z" />
<glyph unicode="s" horiz-adv-x="641" d="M16 113l43 206l50 3q-5 -82 -5 -89q0 -86 43 -141t109 -55q75 0 131.5 68.5t56.5 160.5q0 53 -25 87t-128 120q-80 68 -107.5 112t-27.5 105q0 123 81 212t195 89q57 0 119 -28q33 -13 49 -13q20 0 62 29l-58 -279h-51q6 44 6 68q0 78 -30.5 120t-86.5 42 q-63 0 -110 -51.5t-47 -120.5q0 -47 24.5 -80t118.5 -109q86 -69 118 -121t32 -124q0 -145 -94 -247t-226 -102q-75 0 -133 33t-109 105z" />
<glyph unicode="t" horiz-adv-x="454" d="M98 135q0 84 33 213l135 543h-102l16 61q70 0 134.5 79t117.5 229h70l-70 -295h166l-18 -74h-164l-137 -569q-27 -122 -27 -170q0 -40 16 -64.5t43 -24.5q20 0 39 10.5t60 41.5l-15 -70q-39 -35 -73.5 -49t-77.5 -14q-69 0 -107.5 40t-38.5 113z" />
<glyph unicode="u" horiz-adv-x="868" d="M109 170q0 71 24 162l115 461q12 52 12 65q0 31 -19 41t-77 10l10 39q143 13 277 53l-168 -671q-25 -103 -25 -152q0 -47 22.5 -76.5t59.5 -29.5q142 0 223 323l144 574q76 2 155 20l-157 -633q-46 -180 -46 -227q0 -21 10.5 -37t24.5 -16q21 0 41 23t51 83l37 -30 q-51 -98 -90 -134t-96 -36q-123 0 -129 135q-51 -71 -102.5 -103t-114.5 -32q-81 0 -131.5 52t-50.5 136z" />
<glyph unicode="v" horiz-adv-x="722" d="M96 932l10 41q131 -12 183 -12q68 0 174 12l-10 -41q-66 -5 -84.5 -21t-18.5 -73l15 -609l268 508q59 112 59 156q0 19 -14 30t-37 11h-23l-2 39q115 12 187 67q10 -31 10 -51q0 -36 -14.5 -72.5t-61.5 -125.5l-458 -830h-48l-34 856q-5 74 -21 92.5t-80 22.5z" />
<glyph unicode="w" horiz-adv-x="1069" d="M111 932l10 41q100 -10 174 -10q73 0 178 10l-10 -41q-31 -2 -47 -6t-29.5 -11t-18.5 -26t-8 -43t-4 -70l-26 -516l364 748h64l-6 -750l239 504q41 83 41 123q0 28 -16.5 38t-65.5 11v41q108 8 183 65q14 -35 14 -57q0 -35 -11.5 -70t-45.5 -106l-418 -846h-60l2 746 l-364 -746h-60l11 811v34q-1 23 -1 38q-2 25 -5.5 44.5t-15 27t-26 11.5t-42.5 5z" />
<glyph unicode="x" horiz-adv-x="776" d="M-90 -6l10 41q53 5 93 34t104 111l231 289l-82 377q-11 46 -35 65.5t-73 20.5l10 41q102 -10 180 -10t168 10l-10 -41q-44 -6 -62 -20t-18 -42t12 -75l35 -181l168 213q39 51 39 76q0 19 -12 26t-43 7h-11v37q111 19 168 67q21 -37 21 -59q0 -29 -17.5 -62t-60.5 -88 l-233 -292l63 -293q20 -94 37.5 -130t42.5 -36q22 0 40 21.5t44 78.5l39 -30q-66 -168 -185 -168q-66 0 -103 48.5t-62 168.5l-41 192l-183 -233q-45 -54 -45 -86q0 -18 14 -26t50 -11l-10 -41q-85 10 -140 10q-53 0 -143 -10z" />
<glyph unicode="y" horiz-adv-x="698" d="M-135 -403l6 135q54 -23 84 -23q54 0 118 66.5t130 191.5l37 66l-50 803q-3 57 -20.5 74.5t-75.5 21.5l10 41q87 -10 175 -10q85 0 178 10l-11 -41q-67 -6 -84 -22q-14 -14 -14 -64v-12l21 -572l245 463q68 124 68 170q0 39 -55 39h-23v39q107 8 189 65q10 -29 10 -53 q0 -32 -14 -68.5t-52 -105.5q-2 -4 -41 -74l-436 -805q-80 -146 -132.5 -214t-106 -94.5t-136.5 -26.5h-20z" />
<glyph unicode="z" horiz-adv-x="655" d="M-68 0l682 844q-93 -41 -170 -41q-30 0 -69 16q-52 19 -64 19q-32 0 -60 -32.5t-63 -111.5h-49q42 129 74 178q66 103 158 103q46 0 129 -33q94 -35 121 -35q46 0 100 51h72l-674 -829q54 25 85 33t70 8q38 0 84 -12q60 -17 82 -17q64 0 135 164h50q-54 -174 -117 -245.5 t-162 -71.5q-63 0 -184 51q-43 16 -62 16q-43 0 -98 -55h-70z" />
<glyph unicode="{" horiz-adv-x="524" d="M31 -315q0 46 20 127l129 514q15 66 15 86q0 60 -72 94q63 23 94.5 59.5t48.5 106.5l125 504q22 86 41 124.5t51 61.5q29 21 63 29t95 8h57q-66 -23 -98.5 -66.5t-54.5 -134.5l-123 -487q-22 -87 -55.5 -132.5t-94.5 -72.5q35 -25 49.5 -49t14.5 -58q0 -35 -14 -96 l-134 -528q-14 -72 -14 -97q0 -79 86 -110h-76q-79 0 -116 28.5t-37 88.5z" />
<glyph unicode="|" horiz-adv-x="1024" d="M483 -342v1708h97v-1708h-97z" />
<glyph unicode="}" horiz-adv-x="524" d="M-119 -432q66 23 99 66.5t55 134.5l123 487q22 88 55.5 134t93.5 71q-35 26 -49 49t-14 57q0 36 14 97l131 528q17 61 17 96q0 80 -89 111h78q79 0 116.5 -28.5t37.5 -88.5q0 -38 -21 -127l-129 -514q-14 -62 -14 -86q0 -60 72 -94q-63 -22 -95 -58.5t-49 -107.5 l-125 -502q-21 -87 -40 -125t-52 -63q-30 -21 -64 -29t-93 -8h-58z" />
<glyph unicode="~" horiz-adv-x="915" d="M332 1241q150 211 278 211q28 0 53 -8.5t78 -34.5q74 -39 115 -39q80 0 168 105l31 -23q-66 -98 -140 -153.5t-137 -55.5q-46 0 -110 35q-59 29 -88 39t-58 10q-37 0 -65.5 -18t-75.5 -70l-19 -20z" />
<glyph unicode="&#xa1;" horiz-adv-x="421" d="M-43 -371l260 930h107l-195 -930h-172zM215 860q0 53 37.5 91t89.5 38q44 0 75.5 -32t31.5 -78q0 -54 -37 -92.5t-88 -38.5q-46 0 -77.5 32.5t-31.5 79.5z" />
<glyph unicode="&#xa2;" d="M182 475q0 145 53.5 302t139.5 267q109 140 256 146l37 149h67l-39 -155q23 -5 68 -25q28 -14 49 -14q16 0 47 24l-72 -321h-51q11 76 11 123q0 122 -66 153l-219 -878q66 3 124 77t95 201h70q-44 -158 -124 -247.5t-184 -100.5l-36 -151h-68l39 153q-94 13 -145.5 91 t-51.5 206zM330 436q0 -143 69 -180l215 870q-71 -23 -131 -135q-65 -122 -109 -281.5t-44 -273.5z" />
<glyph unicode="&#xa3;" d="M0 0q43 48 79 120.5t91 225.5l111 318h-115l18 75h121l60 170q85 242 188.5 361t230.5 119q164 0 164 -191q0 -36 -4 -65h-74q4 31 4 61q0 55 -24 89t-62 34q-124 0 -221 -273l-106 -305h172l-19 -75h-180l-82 -234q-44 -118 -98.5 -203.5t-134.5 -160.5q111 65 182 65 q37 0 100 -22q52 -17 88 -17q113 0 191 205h63q-50 -155 -129 -234q-39 -37 -80 -50t-124 -13h-410z" />
<glyph unicode="&#xa4;" horiz-adv-x="1185" d="M162 264l149 150q-104 128 -104 299t104 299l-149 149l67 68l150 -150q131 107 299 107q171 0 299 -107l149 150l68 -68l-150 -149q107 -128 107 -299t-107 -299l150 -150l-68 -67l-149 149q-130 -106 -299 -106t-299 106l-150 -149zM303 717q0 -160 109.5 -270.5 t267.5 -110.5q157 0 267 110t110 267t-110 267t-267 110t-267 -109t-110 -264z" />
<glyph unicode="&#xa5;" d="M166 -6l12 49q88 9 116.5 33t47.5 104l104 414h-270l19 76h241l-18 153h-185l19 76h156l-27 213q-7 52 -8 78q-11 75 -35.5 101t-93.5 32l12 49q115 -14 203 -14t211 14l-13 -49q-80 -8 -102.5 -23.5t-22.5 -62.5q0 -26 7 -98l49 -455l291 469q33 53 44 78t11 45 q0 13 -10 22t-25 9q-1 0 -45 -7l-4 48q60 10 101.5 23t127.5 46v-22q0 -36 -15 -68t-77 -131l-190 -297h139l-18 -76h-168l-97 -153h226l-19 -76h-256l-102 -414q-15 -65 -15 -78q0 -26 24.5 -39.5t82.5 -19.5l-12 -49q-126 14 -205 14q-77 0 -211 -14z" />
<glyph unicode="&#xa6;" horiz-adv-x="1024" d="M483 313h97v-655h-97v655zM483 686v680h97v-680h-97z" />
<glyph unicode="&#xa7;" horiz-adv-x="819" d="M6 -82q0 36 8 88h66q-4 -58 -4 -76q0 -83 47 -132.5t127 -49.5q83 0 141 70.5t58 173.5q0 98 -68 166l-168 161q-76 76 -76 177q0 69 27 131t74 102q44 36 143 74q-43 58 -60.5 102t-17.5 99q0 144 96 247t230 103q106 0 166.5 -62.5t60.5 -169.5q0 -41 -8 -96h-64 q7 58 7 72q0 80 -40.5 124t-113.5 44q-77 0 -136 -65.5t-59 -151.5q0 -44 18.5 -80t67.5 -82l142 -142q90 -93 90 -194q0 -105 -62 -191t-174 -133q40 -51 56 -94t16 -100q0 -155 -96.5 -260t-241.5 -105q-117 0 -184.5 66.5t-67.5 183.5zM258 569q0 -54 33.5 -98 t189.5 -197q150 64 150 207q0 51 -33.5 96.5t-171.5 178.5q-89 -34 -128.5 -77.5t-39.5 -109.5z" />
<glyph unicode="&#xa8;" horiz-adv-x="819" d="M360 1249q0 49 34.5 84t82.5 35q41 0 69.5 -29.5t28.5 -72.5q0 -47 -34 -83t-80 -36q-43 0 -72 29.5t-29 72.5zM647 1249q0 49 34.5 84t82.5 35q40 0 68 -29.5t28 -72.5q0 -47 -34.5 -83t-80.5 -36q-41 0 -69.5 29.5t-28.5 72.5z" />
<glyph unicode="&#xa9;" horiz-adv-x="1544" d="M168 637q0 201 100.5 373.5t272 274t370.5 101.5q128 0 243.5 -51t199 -138t133 -208t49.5 -254q0 -151 -59 -290.5t-158 -241t-234.5 -162.5t-281.5 -61q-177 0 -323 86t-229 236.5t-83 334.5zM238 641q0 -166 74 -301.5t205 -213t292 -77.5q130 0 251.5 55t210 147 t142 218t53.5 262q0 159 -75 294t-204 213.5t-282 78.5q-280 0 -479 -211q-89 -95 -138.5 -217t-49.5 -248zM569 498q0 110 33.5 231.5t89.5 210.5q108 172 256 172q53 0 111 -35q34 -20 45 -20t31 14l-48 -215h-43q7 61 7 72q0 60 -27 96.5t-70 36.5q-54 0 -97.5 -43.5 t-84.5 -140.5q-37 -85 -62.5 -200t-25.5 -196q0 -73 27 -115t73 -42q63 0 113.5 60.5t79.5 170.5h55q-37 -145 -107 -222t-167 -77q-89 0 -139 64t-50 178z" />
<glyph unicode="&#xaa;" horiz-adv-x="563" d="M131 604l16 70h435l-17 -70h-434zM217 948q0 108 42 211t110 166.5t139 63.5q64 0 82 -70l16 59q48 0 105 13l-105 -385q-28 -100 -28 -132q0 -12 5 -20t13 -8q9 0 19.5 13t31.5 48l29 -24q-30 -59 -55.5 -82t-63.5 -23q-35 0 -57 19t-25 51q-52 -70 -121 -70 q-62 0 -99.5 47t-37.5 123zM319 907q0 -84 46 -84q48 0 92 80q35 67 63.5 178.5t28.5 182.5q0 36 -12.5 57.5t-32.5 21.5q-34 0 -63.5 -41.5t-63.5 -134.5q-58 -150 -58 -260z" />
<glyph unicode="&#xab;" horiz-adv-x="638" d="M70 487l354 478h51l-248 -478l9 -487h-43zM285 487l352 478h55l-252 -478l11 -487h-45z" />
<glyph unicode="&#xac;" horiz-adv-x="1024" d="M94 471v76h875v-547h-174v471h-701z" />
<glyph unicode="&#xad;" horiz-adv-x="319" d="M27 483l26 109h322l-29 -109h-319z" />
<glyph unicode="&#xae;" horiz-adv-x="1544" d="M168 637q0 201 100.5 373.5t272 274t370.5 101.5q128 0 243.5 -51t199 -138t133 -208t49.5 -254q0 -151 -59 -290.5t-158 -241t-234.5 -162.5t-281.5 -61q-177 0 -323 86t-229 236.5t-83 334.5zM238 641q0 -166 74 -301.5t205 -213t292 -77.5q130 0 251.5 55t210 147 t142 218t53.5 262q0 159 -75 294t-204 213.5t-282 78.5q-280 0 -479 -211q-89 -95 -138.5 -217t-49.5 -248zM496 274l10 43q53 5 70.5 19t27.5 63l144 574q8 36 8 43q0 20 -13 28t-53 11l10 43h230q102 0 145 -34t43 -114q0 -106 -62 -180.5t-165 -93.5q31 -10 43 -31.5 t20 -75.5l21 -143q8 -57 24 -83t45 -26q19 0 54 17l-13 -45q-43 -21 -88 -21q-63 0 -93 36.5t-42 125.5l-24 158q-9 50 -18 64t-34 14l-65 -267q-8 -33 -8 -43q0 -20 13 -28t50 -11l-10 -43q-73 11 -131 11q-61 0 -139 -11zM799 717h35q41 0 69 17.5t53 58.5q48 78 48 161 q0 53 -24 74t-85 21h-12z" />
<glyph unicode="&#xaf;" horiz-adv-x="819" d="M373 1194l26 104h500l-27 -104h-499z" />
<glyph unicode="&#xb0;" horiz-adv-x="940" d="M362 1108q0 120 86 204.5t209 84.5q117 0 202 -86t85 -205q0 -120 -85 -205.5t-206 -85.5t-206 85.5t-85 207.5zM473 1108q0 -76 52.5 -129t127.5 -53t128 52.5t53 127.5q0 74 -53 127t-126 53q-76 0 -129 -52t-53 -126z" />
<glyph unicode="&#xb1;" d="M6 55l31 121h680l-29 -121h-682zM147 631l29 121h279l88 356h127l-90 -356h278l-31 -121h-276l-90 -359h-127l90 359h-277z" />
<glyph unicode="&#xb2;" horiz-adv-x="550" d="M197 872l18 74q242 272 324 390t82 190q0 35 -16 55.5t-42 20.5q-47 0 -84 -40t-71 -128h-58q35 128 95 188.5t151 60.5q67 0 107 -39.5t40 -105.5t-35 -129.5t-130 -167.5q-128 -144 -254 -270h286l-35 -99h-378z" />
<glyph unicode="&#xb3;" horiz-adv-x="550" d="M229 1067q0 23 2 41h58q0 -89 25 -130.5t79 -41.5q60 0 102 61.5t42 147.5q0 63 -28 93.5t-89 33.5l14 55h12q64 0 110 53.5t46 128.5q0 43 -19.5 71t-50.5 28q-38 0 -65.5 -32t-52.5 -106h-62q34 110 85.5 161.5t129.5 51.5q69 0 110.5 -42.5t41.5 -112.5 q0 -79 -44 -140.5t-116 -84.5q52 -26 74 -63t22 -97q0 -117 -73 -200t-176 -83q-85 0 -131 54.5t-46 152.5z" />
<glyph unicode="&#xb4;" horiz-adv-x="819" d="M510 1098l229 303h183l-326 -303h-86z" />
<glyph unicode="&#xb5;" horiz-adv-x="899" d="M-39 -334q0 24 11.5 65.5t56.5 178.5q106 329 121 399l163 656h152l-160 -635q-2 -12 -16 -82q-2 -4 -2 -15q-6 -37 -6 -57q0 -44 23 -72t58 -28q42 0 81.5 33.5t101.5 123.5l182 732h152l-183 -732q-16 -69 -16 -98q0 -17 8.5 -27t20.5 -10q21 0 63 35l-16 -65 q-68 -51 -105.5 -69.5t-68.5 -18.5q-70 0 -70 73q0 28 2 51q-57 -68 -104.5 -95t-108.5 -27q-69 0 -102.5 31.5t-42.5 103.5q-25 -94 -25 -156v-51l6 -96v-19q0 -82 -34 -136t-85 -54q-25 0 -41 17.5t-16 43.5z" />
<glyph unicode="&#xb6;" horiz-adv-x="858" d="M164 -293l239 963q-96 15 -141 76t-45 176q0 93 35 182.5t96 150.5q60 62 134.5 86.5t203.5 24.5h367l-13 -49q-74 -6 -105 -26t-44 -72l-377 -1512h-108l362 1458q20 78 20 95q0 43 -47 43q-38 0 -59.5 -19.5t-32.5 -62.5l-377 -1514h-108z" />
<glyph unicode="&#xb7;" horiz-adv-x="413" d="M129 487q0 53 37.5 91t89.5 38q44 0 75 -32t31 -78q0 -54 -36.5 -92.5t-87.5 -38.5q-46 0 -77.5 32.5t-31.5 79.5z" />
<glyph unicode="&#xb8;" horiz-adv-x="819" d="M145 -379l15 60q53 -19 78 -19q38 0 63 30.5t25 76.5q0 34 -19.5 50t-64.5 21l110 160h76l-80 -121q103 -15 103 -108q0 -77 -55 -130t-136 -53q-58 0 -115 33z" />
<glyph unicode="&#xb9;" horiz-adv-x="550" d="M250 866l12 47q65 6 86.5 23.5t36.5 77.5l127 520l-104 -2l12 43q65 3 118.5 39t82.5 96h51l-170 -686q-10 -40 -10 -63q0 -22 17 -33t60 -15l-12 -47q-87 11 -147 11q-61 0 -160 -11z" />
<glyph unicode="&#xba;" horiz-adv-x="540" d="M111 604l16 70h434l-16 -70h-434zM229 977q0 76 25 159t65 144q79 113 193 113q72 0 111 -47.5t39 -135.5q0 -177 -79.5 -301.5t-193.5 -124.5q-75 0 -117.5 51t-42.5 142zM336 938q0 -51 15.5 -79t43.5 -28q33 0 60 38t55 124q47 156 47 260q0 95 -53 95 q-31 0 -58.5 -37t-56.5 -117q-53 -148 -53 -256z" />
<glyph unicode="&#xbb;" horiz-adv-x="638" d="M2 0l252 477l-10 488h45l119 -488l-351 -477h-55zM217 0l250 477l-8 488h43l123 -488l-355 -477h-53z" />
<glyph unicode="&#xbc;" horiz-adv-x="1208" d="M168 526l12 45q64 6 86 24.5t37 78.5l127 518l-104 -2l12 43q64 4 116.5 39.5t84.5 95.5h51l-170 -684q-10 -45 -10 -63q0 -22 17.5 -34t59.5 -16l-12 -45q-87 11 -147 11q-61 0 -160 -11zM190 0l940 1335h93l-940 -1335h-93zM653 221l6 31l410 561h111l-123 -504h90 l-23 -88h-90l-55 -227h-115l56 227h-267zM770 309h174l92 371z" />
<glyph unicode="&#xbd;" horiz-adv-x="1208" d="M162 0l940 1335h90l-938 -1335h-92zM168 526l10 45q65 6 87.5 24.5t35.5 78.5l129 518l-104 -2l10 43q65 5 118 40t85 95h51l-172 -684q-10 -42 -10 -63q0 -22 18 -34t61 -16l-12 -45q-91 11 -149 11q-59 0 -158 -11zM639 0l20 74q240 273 323 391t83 190 q0 35 -15.5 55.5t-41.5 20.5q-47 0 -84.5 -40t-71.5 -128h-59q35 128 95.5 189t151.5 61q67 0 107.5 -39.5t40.5 -105.5t-35.5 -129.5t-130.5 -169.5q-218 -235 -256 -271h289l-37 -98h-379z" />
<glyph unicode="&#xbe;" horiz-adv-x="1208" d="M147 727q0 14 3 41h57q0 -89 25 -130.5t79 -41.5q60 0 102 61.5t42 147.5q0 63 -27.5 92.5t-89.5 32.5l14 55h13q64 0 109.5 53.5t45.5 130.5q0 43 -19 71t-50 28q-38 0 -66 -32.5t-53 -105.5h-62q34 110 85.5 161.5t129.5 51.5q69 0 110.5 -42.5t41.5 -112.5 q0 -79 -44 -141.5t-116 -85.5q52 -26 74 -62t22 -96q0 -117 -73 -200t-176 -83q-85 0 -131 54.5t-46 152.5zM201 0l940 1335h92l-940 -1335h-92zM653 221l9 31l407 561h111l-123 -504h90l-23 -88h-88l-57 -227h-115l58 227h-269zM770 309h174l92 371z" />
<glyph unicode="&#xbf;" horiz-adv-x="720" d="M-20 -152q0 106 46.5 183.5t166.5 167.5q150 112 205.5 192.5t78.5 220.5h74q-22 -164 -69.5 -254t-178.5 -213q-93 -88 -126.5 -146.5t-33.5 -131.5q0 -68 31 -109t82 -41q69 0 128.5 63t102.5 183h72q-37 -175 -130 -273t-222 -98q-103 0 -165 70t-62 186zM401 848 q0 52 37.5 89.5t89.5 37.5q44 0 75.5 -32.5t31.5 -78.5q0 -53 -37 -91t-88 -38q-46 0 -77.5 33t-31.5 80z" />
<glyph unicode="&#xc0;" horiz-adv-x="997" d="M-82 -6l12 49q67 4 107 39t94 137l637 1208h12l29 -1232q1 -89 24 -116.5t99 -35.5l-12 -49q-112 14 -195 14q-86 0 -209 -14l12 49q83 10 100 31t17 112v209h-344l-111 -211q-11 -22 -21.5 -52.5t-10.5 -39.5q0 -23 20.5 -34.5t67.5 -14.5l-13 -49q-88 10 -157 10 q-71 0 -158 -10zM334 459h311v600zM547 1808h178l88 -305h-76z" />
<glyph unicode="&#xc1;" horiz-adv-x="997" d="M-82 -6l12 49q67 4 107 39t94 137l637 1208h12l29 -1232q1 -89 24 -116.5t99 -35.5l-12 -49q-112 14 -195 14q-86 0 -209 -14l12 49q83 10 100 31t17 112v209h-344l-111 -211q-11 -22 -21.5 -52.5t-10.5 -39.5q0 -23 20.5 -34.5t67.5 -14.5l-13 -49q-88 10 -157 10 q-71 0 -158 -10zM334 459h311v600zM727 1503l240 305h190l-340 -305h-90z" />
<glyph unicode="&#xc2;" horiz-adv-x="997" d="M-82 -6l12 49q67 4 107 39t94 137l637 1208h12l29 -1232q1 -89 24 -116.5t99 -35.5l-12 -49q-112 14 -195 14q-86 0 -209 -14l12 49q83 10 100 31t17 112v209h-344l-111 -211q-11 -22 -21.5 -52.5t-10.5 -39.5q0 -23 20.5 -34.5t67.5 -14.5l-13 -49q-88 10 -157 10 q-71 0 -158 -10zM334 459h311v600zM506 1503l307 305h70l149 -305h-76l-137 168l-223 -168h-90z" />
<glyph unicode="&#xc3;" horiz-adv-x="997" d="M-82 -6l12 49q67 4 107 39t94 137l637 1208h12l29 -1232q1 -89 24 -116.5t99 -35.5l-12 -49q-112 14 -195 14q-86 0 -209 -14l12 49q83 10 100 31t17 112v209h-344l-111 -211q-11 -22 -21.5 -52.5t-10.5 -39.5q0 -23 20.5 -34.5t67.5 -14.5l-13 -49q-88 10 -157 10 q-71 0 -158 -10zM334 459h311v600zM532 1565q49 110 97.5 159.5t107.5 49.5q29 0 52.5 -12.5t56.5 -43.5q43 -41 59.5 -52t36.5 -11q35 0 64 29.5t57 95.5l53 -33q-40 -105 -93.5 -161t-115.5 -56q-32 0 -56 14t-75 64q-41 41 -71 41q-64 0 -117 -115z" />
<glyph unicode="&#xc4;" horiz-adv-x="997" d="M-82 -6l12 49q67 4 107 39t94 137l637 1208h12l29 -1232q1 -89 24 -116.5t99 -35.5l-12 -49q-112 14 -195 14q-86 0 -209 -14l12 49q83 10 100 31t17 112v209h-344l-111 -211q-11 -22 -21.5 -52.5t-10.5 -39.5q0 -23 20.5 -34.5t67.5 -14.5l-13 -49q-88 10 -157 10 q-71 0 -158 -10zM334 459h311v600zM537 1642q0 51 35.5 88t86.5 37q44 0 74.5 -31t30.5 -77q0 -52 -35.5 -89.5t-85.5 -37.5q-46 0 -76 31.5t-30 78.5zM836 1642q0 51 35.5 88t86.5 37q44 0 74.5 -31t30.5 -77q0 -52 -35.5 -89.5t-85.5 -37.5q-46 0 -76 31.5t-30 78.5z" />
<glyph unicode="&#xc5;" horiz-adv-x="997" d="M-82 -6l12 49q67 4 107 39t94 137l637 1208h12l29 -1232q1 -89 24 -116.5t99 -35.5l-12 -49q-112 14 -195 14q-86 0 -209 -14l12 49q83 10 100 31t17 112v209h-344l-111 -211q-11 -22 -21.5 -52.5t-10.5 -39.5q0 -23 20.5 -34.5t67.5 -14.5l-13 -49q-88 10 -157 10 q-71 0 -158 -10zM334 459h311v600zM651 1657q0 75 50 128.5t120 53.5q61 0 103.5 -47t42.5 -113q0 -74 -49.5 -128t-118.5 -54q-62 0 -105 46.5t-43 113.5zM723 1661q0 -38 23 -65t57 -27q38 0 65 31.5t27 74.5q0 38 -23 65t-57 27q-38 0 -65 -31t-27 -75z" />
<glyph unicode="&#xc6;" horiz-adv-x="1417" d="M-88 -6l12 51q59 9 109 46t102 108l811 1167h608l-49 -307h-49q2 31 2 65q0 107 -33.5 143t-134.5 36h-155l-138 -555h336l-16 -72h-338l-115 -465q-16 -56 -16 -90q0 -58 100 -58h78q97 0 156.5 56t130.5 211h49l-119 -330h-723l15 51q86 6 115 30.5t48 104.5l74 289 h-362l-201 -289q-43 -64 -43 -96q0 -23 19.5 -33.5t68.5 -11.5l-12 -51q-118 10 -162 10q-56 0 -168 -10zM451 539h335l191 766z" />
<glyph unicode="&#xc7;" horiz-adv-x="909" d="M117 373q0 186 55.5 387t149.5 350q177 287 423 287q52 0 92 -12.5t93 -45.5q53 -32 78 -32q12 0 51 20l-80 -356h-55q10 71 10 119q0 114 -46.5 178.5t-129.5 64.5q-97 0 -178 -76.5t-154 -240.5q-66 -146 -108 -334.5t-42 -337.5q0 -129 52.5 -206t140.5 -77 q114 0 203.5 106.5t140.5 301.5h74q-56 -224 -168.5 -357.5t-253.5 -140.5l-66 -98q55 -13 80 -41t25 -76q0 -82 -58 -136t-145 -54q-63 0 -121 35l17 65q51 -18 75 -18q43 0 72 31.5t29 80.5q0 36 -21.5 53.5t-70.5 18.5l98 141q-262 50 -262 400z" />
<glyph unicode="&#xc8;" horiz-adv-x="856" d="M-39 0l12 49q86 8 116.5 33t49.5 104l248 994q12 54 12 73q0 31 -23 44.5t-87 19.5l12 49h692l-47 -307h-51q2 33 2 65q0 107 -33 143t-133 36h-156l-139 -555h338l-18 -72h-336l-117 -465q-16 -63 -16 -90q0 -58 100 -58h80q97 0 156.5 56t128.5 211h51l-119 -330h-723z M489 1808h179l88 -305h-76z" />
<glyph unicode="&#xc9;" horiz-adv-x="856" d="M-39 0l12 49q86 8 116.5 33t49.5 104l248 994q12 54 12 73q0 31 -23 44.5t-87 19.5l12 49h692l-47 -307h-51q2 33 2 65q0 107 -33 143t-133 36h-156l-139 -555h338l-18 -72h-336l-117 -465q-16 -63 -16 -90q0 -58 100 -58h80q97 0 156.5 56t128.5 211h51l-119 -330h-723z M637 1503l240 305h190l-340 -305h-90z" />
<glyph unicode="&#xca;" horiz-adv-x="856" d="M-39 0l12 49q86 8 116.5 33t49.5 104l248 994q12 54 12 73q0 31 -23 44.5t-87 19.5l12 49h692l-47 -307h-51q2 33 2 65q0 107 -33 143t-133 36h-156l-139 -555h338l-18 -72h-336l-117 -465q-16 -63 -16 -90q0 -58 100 -58h80q97 0 156.5 56t128.5 211h51l-119 -330h-723z M426 1503l307 305h70l149 -305h-75l-138 168l-223 -168h-90z" />
<glyph unicode="&#xcb;" horiz-adv-x="856" d="M-39 0l12 49q86 8 116.5 33t49.5 104l248 994q12 54 12 73q0 31 -23 44.5t-87 19.5l12 49h692l-47 -307h-51q2 33 2 65q0 107 -33 143t-133 36h-156l-139 -555h338l-18 -72h-336l-117 -465q-16 -63 -16 -90q0 -58 100 -58h80q97 0 156.5 56t128.5 211h51l-119 -330h-723z M465 1642q0 51 36 88t87 37q44 0 74 -31t30 -77q0 -52 -35.5 -89.5t-85.5 -37.5q-46 0 -76 31.5t-30 78.5zM764 1642q0 51 36 88t87 37q44 0 74 -31t30 -77q0 -52 -35.5 -89.5t-85.5 -37.5q-46 0 -76 31.5t-30 78.5z" />
<glyph unicode="&#xcc;" horiz-adv-x="526" d="M-41 -6l12 49q86 8 116.5 33t49.5 104l250 1006q14 55 14 74q0 31 -23.5 44t-86.5 19l12 49q129 -14 205 -14q79 0 213 14l-12 -49q-84 -7 -114 -32t-50 -105l-250 -1006q-12 -53 -12 -76q0 -29 23.5 -42.5t82.5 -18.5l-12 -49q-129 14 -205 14t-213 -14zM322 1808h178 l88 -305h-76z" />
<glyph unicode="&#xcd;" horiz-adv-x="526" d="M-41 -6l12 49q86 8 116.5 33t49.5 104l250 1006q14 55 14 74q0 31 -23.5 44t-86.5 19l12 49q129 -14 205 -14q79 0 213 14l-12 -49q-84 -7 -114 -32t-50 -105l-250 -1006q-12 -53 -12 -76q0 -29 23.5 -42.5t82.5 -18.5l-12 -49q-129 14 -205 14t-213 -14zM496 1503 l239 305h191l-340 -305h-90z" />
<glyph unicode="&#xce;" horiz-adv-x="526" d="M-41 -6l12 49q86 8 116.5 33t49.5 104l250 1006q14 55 14 74q0 31 -23.5 44t-86.5 19l12 49q129 -14 205 -14q79 0 213 14l-12 -49q-84 -7 -114 -32t-50 -105l-250 -1006q-12 -53 -12 -76q0 -29 23.5 -42.5t82.5 -18.5l-12 -49q-129 14 -205 14t-213 -14zM287 1503 l307 305h70l149 -305h-76l-137 168l-223 -168h-90z" />
<glyph unicode="&#xcf;" horiz-adv-x="526" d="M-41 -6l12 49q86 8 116.5 33t49.5 104l250 1006q14 55 14 74q0 31 -23.5 44t-86.5 19l12 49q129 -14 205 -14q79 0 213 14l-12 -49q-84 -7 -114 -32t-50 -105l-250 -1006q-12 -53 -12 -76q0 -29 23.5 -42.5t82.5 -18.5l-12 -49q-129 14 -205 14t-213 -14zM324 1642 q0 51 34.5 88t81.5 37q41 0 70 -32t29 -76q0 -52 -34.5 -89.5t-80.5 -37.5q-43 0 -71.5 31.5t-28.5 78.5zM594 1642q0 51 35 88t82 37q41 0 69.5 -31.5t28.5 -76.5q0 -52 -34.5 -89.5t-80.5 -37.5q-43 0 -71.5 31.5t-28.5 78.5z" />
<glyph unicode="&#xd0;" horiz-adv-x="1073" d="M-39 0l12 51q86 6 116 30.5t50 104.5l123 492h-133l21 78h131l106 424q12 54 12 71q0 33 -22.5 46.5t-87.5 19.5l12 49h395q123 0 192 -20.5t120 -71.5q98 -104 98 -318q0 -321 -152 -594q-63 -112 -146.5 -193.5t-176.5 -123.5q-107 -45 -256 -45h-414zM283 111 q0 -48 75 -48q137 0 229.5 57t170.5 189q78 133 133 333.5t55 358.5q0 163 -60.5 232.5t-201.5 69.5h-109l-135 -547h228l-19 -78h-229l-121 -485q-16 -68 -16 -82z" />
<glyph unicode="&#xd1;" horiz-adv-x="1069" d="M-45 -6l12 49q53 6 84 24.5t53 57.5q22 46 111 385l186 752q-12 30 -37.5 43t-78.5 18l12 49q76 -6 129 -6q54 0 133 6l260 -1032l201 823q14 60 14 88q0 34 -23 50t-81 22l12 49q97 -10 166 -10q67 0 162 10l-13 -49q-80 -9 -115 -49t-63 -152l-291 -1163h-34l-308 1223 l-192 -789q-57 -228 -57 -276q0 -35 21 -51t79 -23l-14 -49q-103 10 -164 10q-64 0 -164 -10zM565 1565q49 110 97.5 159.5t107.5 49.5q29 0 52.5 -12.5t56.5 -43.5q43 -41 59.5 -52t36.5 -11q35 0 64 29.5t57 95.5l53 -33q-40 -105 -93.5 -161t-115.5 -56q-32 0 -56 14 t-75 64q-41 41 -72 41q-63 0 -116 -115z" />
<glyph unicode="&#xd2;" horiz-adv-x="1011" d="M129 408q0 207 63 421.5t164 354.5q150 209 363 209q152 0 236.5 -114t84.5 -318q0 -182 -47 -370t-129 -329q-166 -289 -409 -289q-155 0 -240.5 114t-85.5 321zM285 352q0 -154 45.5 -237.5t130.5 -83.5q59 0 116.5 49.5t104.5 142.5q90 175 146.5 399.5t56.5 405.5 q0 136 -47.5 221.5t-122.5 85.5q-173 0 -307 -374q-123 -342 -123 -609zM592 1808h178l88 -305h-76z" />
<glyph unicode="&#xd3;" horiz-adv-x="1011" d="M129 408q0 207 63 421.5t164 354.5q150 209 363 209q152 0 236.5 -114t84.5 -318q0 -182 -47 -370t-129 -329q-166 -289 -409 -289q-155 0 -240.5 114t-85.5 321zM285 352q0 -154 45.5 -237.5t130.5 -83.5q59 0 116.5 49.5t104.5 142.5q90 175 146.5 399.5t56.5 405.5 q0 136 -47.5 221.5t-122.5 85.5q-173 0 -307 -374q-123 -342 -123 -609zM705 1503l239 305h191l-340 -305h-90z" />
<glyph unicode="&#xd4;" horiz-adv-x="1011" d="M129 408q0 207 63 421.5t164 354.5q150 209 363 209q152 0 236.5 -114t84.5 -318q0 -182 -47 -370t-129 -329q-166 -289 -409 -289q-155 0 -240.5 114t-85.5 321zM285 352q0 -154 45.5 -237.5t130.5 -83.5q59 0 116.5 49.5t104.5 142.5q90 175 146.5 399.5t56.5 405.5 q0 136 -47.5 221.5t-122.5 85.5q-173 0 -307 -374q-123 -342 -123 -609zM496 1503l307 305h69l150 -305h-76l-137 168l-223 -168h-90z" />
<glyph unicode="&#xd5;" horiz-adv-x="1011" d="M129 408q0 207 63 421.5t164 354.5q150 209 363 209q152 0 236.5 -114t84.5 -318q0 -182 -47 -370t-129 -329q-166 -289 -409 -289q-155 0 -240.5 114t-85.5 321zM285 352q0 -154 45.5 -237.5t130.5 -83.5q59 0 116.5 49.5t104.5 142.5q90 175 146.5 399.5t56.5 405.5 q0 136 -47.5 221.5t-122.5 85.5q-173 0 -307 -374q-123 -342 -123 -609zM516 1565q49 110 97.5 159.5t107.5 49.5q29 0 52 -12.5t56 -43.5q42 -41 59.5 -52t37.5 -11q35 0 64 29.5t57 95.5l53 -33q-40 -105 -93.5 -161t-115.5 -56q-32 0 -56 14t-75 64q-41 41 -72 41 q-64 0 -117 -115z" />
<glyph unicode="&#xd6;" horiz-adv-x="1011" d="M129 408q0 207 63 421.5t164 354.5q150 209 363 209q152 0 236.5 -114t84.5 -318q0 -182 -47 -370t-129 -329q-166 -289 -409 -289q-155 0 -240.5 114t-85.5 321zM285 352q0 -154 45.5 -237.5t130.5 -83.5q59 0 116.5 49.5t104.5 142.5q90 175 146.5 399.5t56.5 405.5 q0 136 -47.5 221.5t-122.5 85.5q-173 0 -307 -374q-123 -342 -123 -609zM553 1642q0 51 36 88t87 37q44 0 74 -31t30 -77q0 -52 -35.5 -89.5t-85.5 -37.5q-46 0 -76 31.5t-30 78.5zM852 1642q0 51 36 88t87 37q44 0 74 -31t30 -77q0 -52 -35.5 -89.5t-85.5 -37.5 q-46 0 -76 31.5t-30 78.5z" />
<glyph unicode="&#xd7;" d="M121 393l307 291l-168 293l100 96l168 -293l308 291l47 -82l-308 -293l168 -293l-100 -94l-168 293l-309 -293z" />
<glyph unicode="&#xd8;" horiz-adv-x="1011" d="M-72 0l215 248q-14 74 -14 158q0 210 62 422.5t165 355.5q150 209 359 209q193 0 276 -174l129 147h88l-190 -219q22 -80 22 -189q0 -181 -47.5 -369t-128.5 -327q-166 -289 -409 -289q-203 0 -287 199l-150 -172h-90zM287 309q11 -141 53.5 -209.5t120.5 -68.5 q152 0 282 329q62 155 99.5 324t40.5 309zM287 412l594 680q-10 115 -55 179t-113 64q-103 0 -195 -141t-166 -408q-54 -201 -65 -374z" />
<glyph unicode="&#xd9;" horiz-adv-x="1054" d="M164 242q0 92 29 211l184 733q12 58 12 74q0 31 -23.5 44t-86.5 19l12 49q129 -14 205 -14t213 14l-13 -49q-84 -7 -113 -32t-48 -105l-185 -744q-28 -112 -28 -186q0 -76 52 -131t124 -55q84 0 157 54t119 150q35 76 96 320l144 573q14 55 14 90q0 34 -21 47t-83 19 l12 49q98 -10 166 -10q67 0 162 10l-13 -49q-89 -10 -122.5 -56t-73.5 -208l-152 -610q-48 -198 -123 -306q-57 -80 -142 -123t-187 -43q-129 0 -208 72.5t-79 192.5zM614 1808h179l88 -305h-76z" />
<glyph unicode="&#xda;" horiz-adv-x="1054" d="M164 242q0 92 29 211l184 733q12 58 12 74q0 31 -23.5 44t-86.5 19l12 49q129 -14 205 -14t213 14l-13 -49q-84 -7 -113 -32t-48 -105l-185 -744q-28 -112 -28 -186q0 -76 52 -131t124 -55q84 0 157 54t119 150q35 76 96 320l144 573q14 55 14 90q0 34 -21 47t-83 19 l12 49q98 -10 166 -10q67 0 162 10l-13 -49q-89 -10 -122.5 -56t-73.5 -208l-152 -610q-48 -198 -123 -306q-57 -80 -142 -123t-187 -43q-129 0 -208 72.5t-79 192.5zM782 1503l240 305h190l-340 -305h-90z" />
<glyph unicode="&#xdb;" horiz-adv-x="1054" d="M164 242q0 92 29 211l184 733q12 58 12 74q0 31 -23.5 44t-86.5 19l12 49q129 -14 205 -14t213 14l-13 -49q-84 -7 -113 -32t-48 -105l-185 -744q-28 -112 -28 -186q0 -76 52 -131t124 -55q84 0 157 54t119 150q35 76 96 320l144 573q14 55 14 90q0 34 -21 47t-83 19 l12 49q98 -10 166 -10q67 0 162 10l-13 -49q-89 -10 -122.5 -56t-73.5 -208l-152 -610q-48 -198 -123 -306q-57 -80 -142 -123t-187 -43q-129 0 -208 72.5t-79 192.5zM557 1503l307 305h70l149 -305h-75l-138 168l-223 -168h-90z" />
<glyph unicode="&#xdc;" horiz-adv-x="1054" d="M164 242q0 92 29 211l184 733q12 58 12 74q0 31 -23.5 44t-86.5 19l12 49q129 -14 205 -14t213 14l-13 -49q-84 -7 -113 -32t-48 -105l-185 -744q-28 -112 -28 -186q0 -76 52 -131t124 -55q84 0 157 54t119 150q35 76 96 320l144 573q14 55 14 90q0 34 -21 47t-83 19 l12 49q98 -10 166 -10q67 0 162 10l-13 -49q-89 -10 -122.5 -56t-73.5 -208l-152 -610q-48 -198 -123 -306q-57 -80 -142 -123t-187 -43q-129 0 -208 72.5t-79 192.5zM602 1642q0 51 36 88t87 37q44 0 74 -31t30 -77q0 -52 -35 -89.5t-85 -37.5q-46 0 -76.5 31.5t-30.5 78.5 zM901 1642q0 51 36 88t87 37q44 0 74 -31t30 -77q0 -52 -35 -89.5t-85 -37.5q-46 0 -76.5 31.5t-30.5 78.5z" />
<glyph unicode="&#xdd;" horiz-adv-x="829" d="M127 -6l12 49q88 9 116.5 33t47.5 104l105 416l-66 516q-7 52 -8 78q-11 75 -35.5 101t-93.5 32l12 49q115 -14 203 -14t211 14l-13 -49q-81 -7 -102.5 -22.5t-21.5 -63.5q0 -39 6 -98l49 -453l291 467q55 87 55 123q0 13 -10 22t-25 9q-1 0 -45 -7l-4 48q60 10 101.5 23 t127.5 46v-22q0 -36 -15 -68t-77 -131l-383 -600l-102 -416q-14 -55 -14 -78q0 -26 24 -39.5t82 -19.5l-12 -49q-129 14 -205 14q-74 0 -211 -14zM659 1503l240 305h191l-340 -305h-91z" />
<glyph unicode="&#xde;" horiz-adv-x="870" d="M-41 -6l12 49q86 8 116.5 33t49.5 104l250 1006q14 55 14 74q0 31 -23.5 44t-86.5 19l12 49q129 -14 205 -14t213 14l-12 -49q-84 -7 -114 -32t-50 -105l-2 -12h108q91 0 144.5 -15.5t87.5 -52.5q65 -68 65 -191q0 -103 -40.5 -205.5t-106.5 -168.5q-115 -115 -316 -115 h-129l-61 -246q-12 -53 -12 -76q0 -29 22.5 -42t83.5 -19l-12 -49q-129 14 -205 14t-213 -14zM373 489h78q86 0 141.5 29t101.5 98q43 65 71 157t28 171q0 91 -44.5 128.5t-150.5 37.5h-72z" />
<glyph unicode="&#xdf;" horiz-adv-x="829" d="M-231 -377l14 58q90 16 139 58t86 135.5t84 291.5l207 829q54 217 117 293q93 107 239 107q104 0 160.5 -59t56.5 -167q0 -83 -27.5 -161t-78.5 -134q-38 -42 -76.5 -65.5t-97.5 -38.5q98 -31 143 -95.5t45 -174.5q0 -134 -49 -254t-130.5 -192t-172.5 -72 q-38 0 -66.5 13t-68.5 50l14 61q32 -29 49 -38t39 -9q110 0 180 187q56 151 56 276q0 60 -20.5 109t-55.5 74q-36 24 -109 32l15 56q54 2 90 20t67 59q47 59 80 158t33 184q0 56 -23 89.5t-61 33.5q-60 0 -101.5 -63.5t-76.5 -206.5l-201 -801q-65 -246 -88.5 -317 t-66.5 -144q-119 -185 -344 -182z" />
<glyph unicode="&#xe0;" horiz-adv-x="835" d="M63 254q0 97 28 213t75 217q67 144 158.5 222.5t191.5 78.5q108 0 137 -123l29 107q90 3 156 20l-179 -680q-34 -133 -34 -180q0 -22 10 -37.5t24 -15.5q19 0 39 23.5t52 84.5l38 -34q-46 -93 -88 -130.5t-100 -37.5q-56 0 -90.5 33.5t-38.5 93.5q-82 -127 -197 -127 q-100 0 -155.5 72t-55.5 200zM207 182q0 -68 22 -105.5t62 -37.5q109 0 198 227q45 115 80 269t35 237q0 156 -86 156q-107 0 -213 -291q-44 -120 -71 -244.5t-27 -210.5zM432 1401h170l80 -303h-72z" />
<glyph unicode="&#xe1;" horiz-adv-x="835" d="M63 254q0 97 28 213t75 217q67 144 158.5 222.5t191.5 78.5q108 0 137 -123l29 107q90 3 156 20l-179 -680q-34 -133 -34 -180q0 -22 10 -37.5t24 -15.5q19 0 39 23.5t52 84.5l38 -34q-46 -93 -88 -130.5t-100 -37.5q-56 0 -90.5 33.5t-38.5 93.5q-82 -127 -197 -127 q-100 0 -155.5 72t-55.5 200zM207 182q0 -68 22 -105.5t62 -37.5q109 0 198 227q45 115 80 269t35 237q0 156 -86 156q-107 0 -213 -291q-44 -120 -71 -244.5t-27 -210.5zM539 1098l229 303h182l-325 -303h-86z" />
<glyph unicode="&#xe2;" horiz-adv-x="835" d="M63 254q0 97 28 213t75 217q67 144 158.5 222.5t191.5 78.5q108 0 137 -123l29 107q90 3 156 20l-179 -680q-34 -133 -34 -180q0 -22 10 -37.5t24 -15.5q19 0 39 23.5t52 84.5l38 -34q-46 -93 -88 -130.5t-100 -37.5q-56 0 -90.5 33.5t-38.5 93.5q-82 -127 -197 -127 q-100 0 -155.5 72t-55.5 200zM207 182q0 -68 22 -105.5t62 -37.5q109 0 198 227q45 115 80 269t35 237q0 156 -86 156q-107 0 -213 -291q-44 -120 -71 -244.5t-27 -210.5zM369 1098l284 297h62l133 -297h-76l-119 155l-198 -155h-86z" />
<glyph unicode="&#xe3;" horiz-adv-x="835" d="M63 254q0 97 28 213t75 217q67 144 158.5 222.5t191.5 78.5q108 0 137 -123l29 107q90 3 156 20l-179 -680q-34 -133 -34 -180q0 -22 10 -37.5t24 -15.5q19 0 39 23.5t52 84.5l38 -34q-46 -93 -88 -130.5t-100 -37.5q-56 0 -90.5 33.5t-38.5 93.5q-82 -127 -197 -127 q-100 0 -155.5 72t-55.5 200zM207 182q0 -68 22 -105.5t62 -37.5q109 0 198 227q45 115 80 269t35 237q0 156 -86 156q-107 0 -213 -291q-44 -120 -71 -244.5t-27 -210.5zM365 1161q47 106 94.5 154.5t103.5 48.5q28 0 50.5 -11.5t54.5 -41.5q38 -38 55.5 -50t36.5 -12 q34 0 61 27.5t56 91.5l51 -31q-38 -102 -90 -156.5t-111 -54.5q-32 0 -55.5 14.5t-69.5 61.5q-44 41 -70 41q-32 0 -59 -26.5t-55 -83.5z" />
<glyph unicode="&#xe4;" horiz-adv-x="835" d="M63 254q0 97 28 213t75 217q67 144 158.5 222.5t191.5 78.5q108 0 137 -123l29 107q90 3 156 20l-179 -680q-34 -133 -34 -180q0 -22 10 -37.5t24 -15.5q19 0 39 23.5t52 84.5l38 -34q-46 -93 -88 -130.5t-100 -37.5q-56 0 -90.5 33.5t-38.5 93.5q-82 -127 -197 -127 q-100 0 -155.5 72t-55.5 200zM207 182q0 -68 22 -105.5t62 -37.5q109 0 198 227q45 115 80 269t35 237q0 156 -86 156q-107 0 -213 -291q-44 -120 -71 -244.5t-27 -210.5zM393 1249q0 49 34.5 84t82.5 35q41 0 69.5 -29.5t28.5 -72.5q0 -47 -34 -83t-80 -36q-43 0 -72 29.5 t-29 72.5zM680 1249q0 49 34.5 84t82.5 35q40 0 68 -29.5t28 -72.5q0 -47 -34.5 -83t-80.5 -36q-41 0 -69.5 29.5t-28.5 72.5z" />
<glyph unicode="&#xe5;" horiz-adv-x="835" d="M63 254q0 97 28 213t75 217q67 144 158.5 222.5t191.5 78.5q108 0 137 -123l29 107q90 3 156 20l-179 -680q-34 -133 -34 -180q0 -22 10 -37.5t24 -15.5q19 0 39 23.5t52 84.5l38 -34q-46 -93 -88 -130.5t-100 -37.5q-56 0 -90.5 33.5t-38.5 93.5q-82 -127 -197 -127 q-100 0 -155.5 72t-55.5 200zM207 182q0 -68 22 -105.5t62 -37.5q109 0 198 227q45 115 80 269t35 237q0 156 -86 156q-107 0 -213 -291q-44 -120 -71 -244.5t-27 -210.5zM485 1257q0 74 49.5 127.5t118.5 53.5q61 0 103.5 -46t42.5 -112q0 -73 -49 -126.5t-117 -53.5 q-63 0 -105.5 45.5t-42.5 111.5zM557 1262q0 -38 23 -64.5t57 -26.5q37 0 63.5 31t26.5 74q0 37 -23 63.5t-55 26.5q-38 0 -65 -30.5t-27 -73.5z" />
<glyph unicode="&#xe6;" horiz-adv-x="1150" d="M59 256q0 96 28 211t75 217q67 144 158 222.5t190 78.5q110 0 139 -123l29 107q90 3 156 20l-31 -123q87 119 194 119q83 0 135 -52.5t52 -137.5q0 -148 -138.5 -246.5t-349.5 -99.5q-30 -117 -30 -203q0 -92 33.5 -144.5t93.5 -52.5q71 0 141.5 75.5t107.5 190.5h70 q-119 -333 -356 -333q-94 0 -153 56t-79 165q-104 -221 -254 -221q-100 0 -155.5 72.5t-55.5 201.5zM203 182q0 -68 22 -105.5t62 -37.5q109 0 198 227q45 117 80 270.5t35 235.5q0 156 -86 156q-106 0 -213 -289q-44 -122 -71 -246.5t-27 -210.5zM711 506q143 0 243 106 q44 46 69.5 102t25.5 109q0 46 -19.5 75.5t-48.5 29.5q-72 0 -142.5 -110.5t-127.5 -311.5z" />
<glyph unicode="&#xe7;" horiz-adv-x="673" d="M66 274q0 121 39 258.5t104 243.5q132 215 313 215q61 0 125 -30q27 -15 49 -15q15 0 47 25l-71 -322h-51q10 69 10 123q0 74 -26.5 117t-72.5 43q-57 0 -106 -53t-100 -170q-48 -112 -80.5 -246t-32.5 -225q0 -94 30.5 -143.5t88.5 -49.5q149 0 233 281h70 q-43 -151 -115.5 -239t-169.5 -107l-67 -101q102 -15 102 -108q0 -78 -54 -130.5t-136 -52.5q-61 0 -115 33l14 60q53 -19 78 -19q38 0 63 30.5t25 76.5q0 34 -19.5 50t-64.5 21l94 137q-98 14 -151 90.5t-53 206.5z" />
<glyph unicode="&#xe8;" horiz-adv-x="696" d="M63 274q0 115 37.5 244t100.5 234q140 233 334 233q89 0 141.5 -51t52.5 -139q0 -148 -138 -246.5t-349 -99.5l-6 -25q-25 -106 -25 -178q0 -94 34 -145.5t95 -51.5q69 0 137 73t109 193h69q-54 -161 -145.5 -247t-208.5 -86q-109 0 -173.5 79.5t-64.5 212.5zM256 506 q144 0 244 106q44 46 69 102t25 109q0 46 -19.5 75.5t-48.5 29.5q-72 0 -142.5 -111t-127.5 -311zM385 1401h170l80 -303h-72z" />
<glyph unicode="&#xe9;" horiz-adv-x="696" d="M63 274q0 115 37.5 244t100.5 234q140 233 334 233q89 0 141.5 -51t52.5 -139q0 -148 -138 -246.5t-349 -99.5l-6 -25q-25 -106 -25 -178q0 -94 34 -145.5t95 -51.5q69 0 137 73t109 193h69q-54 -161 -145.5 -247t-208.5 -86q-109 0 -173.5 79.5t-64.5 212.5zM256 506 q144 0 244 106q44 46 69 102t25 109q0 46 -19.5 75.5t-48.5 29.5q-72 0 -142.5 -111t-127.5 -311zM498 1098l229 303h182l-325 -303h-86z" />
<glyph unicode="&#xea;" horiz-adv-x="696" d="M63 274q0 115 37.5 244t100.5 234q140 233 334 233q89 0 141.5 -51t52.5 -139q0 -148 -138 -246.5t-349 -99.5l-6 -25q-25 -106 -25 -178q0 -94 34 -145.5t95 -51.5q69 0 137 73t109 193h69q-54 -161 -145.5 -247t-208.5 -86q-109 0 -173.5 79.5t-64.5 212.5zM256 506 q144 0 244 106q44 46 69 102t25 109q0 46 -19.5 75.5t-48.5 29.5q-72 0 -142.5 -111t-127.5 -311zM315 1098l285 297h62l133 -297h-76l-119 155l-199 -155h-86z" />
<glyph unicode="&#xeb;" horiz-adv-x="696" d="M63 274q0 115 37.5 244t100.5 234q140 233 334 233q89 0 141.5 -51t52.5 -139q0 -148 -138 -246.5t-349 -99.5l-6 -25q-25 -106 -25 -178q0 -94 34 -145.5t95 -51.5q69 0 137 73t109 193h69q-54 -161 -145.5 -247t-208.5 -86q-109 0 -173.5 79.5t-64.5 212.5zM256 506 q144 0 244 106q44 46 69 102t25 109q0 46 -19.5 75.5t-48.5 29.5q-72 0 -142.5 -111t-127.5 -311zM354 1249q0 49 34.5 84t82.5 35q41 0 69.5 -29.5t28.5 -72.5q0 -47 -34 -83t-80 -36q-43 0 -72 29.5t-29 72.5zM641 1249q0 49 34.5 84t82.5 35q40 0 68 -29.5t28 -72.5 q0 -47 -34.5 -83t-80.5 -36q-41 0 -69.5 29.5t-28.5 72.5z" />
<glyph unicode="&#xec;" horiz-adv-x="454" d="M86 106q0 46 31 173l129 512q14 49 14 73q0 25 -20.5 35t-73.5 10l8 39q114 3 279 53l-193 -753q-24 -94 -24 -125q0 -49 26 -49q22 0 43 26t49 86l39 -30q-43 -97 -84.5 -135.5t-103.5 -38.5q-53 0 -86 34.5t-33 89.5zM207 1401h170l80 -303h-72z" />
<glyph unicode="&#xed;" horiz-adv-x="454" d="M86 106q0 46 31 173l129 512q14 49 14 73q0 25 -20.5 35t-73.5 10l8 39q114 3 279 53l-193 -753q-24 -94 -24 -125q0 -49 26 -49q22 0 43 26t49 86l39 -30q-43 -97 -84.5 -135.5t-103.5 -38.5q-53 0 -86 34.5t-33 89.5zM356 1098l230 303h182l-326 -303h-86z" />
<glyph unicode="&#xee;" horiz-adv-x="454" d="M86 106q0 46 31 173l129 512q14 49 14 73q0 25 -20.5 35t-73.5 10l8 39q114 3 279 53l-193 -753q-24 -94 -24 -125q0 -49 26 -49q22 0 43 26t49 86l39 -30q-43 -97 -84.5 -135.5t-103.5 -38.5q-53 0 -86 34.5t-33 89.5zM154 1098l258 297h61l107 -297h-76l-92 155 l-170 -155h-88z" />
<glyph unicode="&#xef;" horiz-adv-x="454" d="M86 106q0 46 31 173l129 512q14 49 14 73q0 25 -20.5 35t-73.5 10l8 39q114 3 279 53l-193 -753q-24 -94 -24 -125q0 -49 26 -49q22 0 43 26t49 86l39 -30q-43 -97 -84.5 -135.5t-103.5 -38.5q-53 0 -86 34.5t-33 89.5zM182 1249q0 49 33 84t78 35q40 0 67 -29.5 t27 -72.5q0 -47 -32.5 -83t-75.5 -36q-41 0 -69 29.5t-28 72.5zM444 1249q0 49 33 84t78 35q40 0 67 -29.5t27 -72.5q0 -47 -32.5 -83t-75.5 -36q-41 0 -69 29.5t-28 72.5z" />
<glyph unicode="&#xf0;" horiz-adv-x="770" d="M70 297q0 126 43.5 267.5t113.5 242.5q123 178 291 178q38 0 90 -14l-12 176l-129 -43l-10 67l133 46l-15 143l52 16l32 -137l144 47l10 -67l-135 -48l61 -256q29 -111 29 -206q0 -206 -88 -416q-63 -152 -156 -231.5t-207 -79.5q-117 0 -182 83t-65 232zM213 215 q0 -176 106 -176q56 0 104 56.5t95 178.5q44 115 71 245t27 226q0 183 -104 183q-60 0 -110.5 -63.5t-96.5 -196.5q-92 -256 -92 -453z" />
<glyph unicode="&#xf1;" horiz-adv-x="866" d="M51 0l195 778q16 74 16 90q0 20 -18 27t-80 8l10 39q147 21 248 62q-2 -41 -21 -148q63 70 114.5 99.5t113.5 29.5q75 0 121.5 -50.5t46.5 -133.5q0 -63 -25 -172l-96 -381q-21 -95 -21 -123q0 -22 10 -36.5t27 -14.5q20 0 39 22t51 84l37 -24q-43 -98 -85.5 -137 t-108.5 -39q-54 0 -87.5 36t-33.5 93q0 58 28 170l91 356q24 105 24 158q0 46 -21.5 73t-58.5 27q-71 0 -137 -92q-40 -54 -72 -172l-155 -629h-152zM330 1161q47 106 94.5 154.5t103.5 48.5q28 0 50.5 -11.5t54.5 -41.5q38 -38 55.5 -50t36.5 -12q34 0 61 27.5t56 91.5 l51 -31q-38 -102 -90 -156.5t-111 -54.5q-32 0 -55.5 14.5t-69.5 61.5q-44 41 -69 41q-61 0 -115 -110z" />
<glyph unicode="&#xf2;" horiz-adv-x="770" d="M72 287q0 134 42 278.5t111 243.5q117 176 297 176q110 0 173 -80.5t63 -222.5q0 -126 -37 -262t-98 -236q-128 -202 -314 -202q-114 0 -175.5 79.5t-61.5 225.5zM213 215q0 -176 106 -176q56 0 104 56.5t93 178.5q44 115 71 245t27 226q0 183 -104 183q-62 0 -114 -68.5 t-99 -210.5q-84 -257 -84 -434zM362 1401h170l80 -303h-71z" />
<glyph unicode="&#xf3;" horiz-adv-x="770" d="M72 287q0 134 42 278.5t111 243.5q117 176 297 176q110 0 173 -80.5t63 -222.5q0 -126 -37 -262t-98 -236q-128 -202 -314 -202q-114 0 -175.5 79.5t-61.5 225.5zM213 215q0 -176 106 -176q56 0 104 56.5t93 178.5q44 115 71 245t27 226q0 183 -104 183q-62 0 -114 -68.5 t-99 -210.5q-84 -257 -84 -434zM516 1098l229 303h183l-326 -303h-86z" />
<glyph unicode="&#xf4;" horiz-adv-x="770" d="M72 287q0 134 42 278.5t111 243.5q117 176 297 176q110 0 173 -80.5t63 -222.5q0 -126 -37 -262t-98 -236q-128 -202 -314 -202q-114 0 -175.5 79.5t-61.5 225.5zM213 215q0 -176 106 -176q56 0 104 56.5t93 178.5q44 115 71 245t27 226q0 183 -104 183q-62 0 -114 -68.5 t-99 -210.5q-84 -257 -84 -434zM324 1098l284 297h62l133 -297h-76l-119 155l-198 -155h-86z" />
<glyph unicode="&#xf5;" horiz-adv-x="770" d="M72 287q0 134 42 278.5t111 243.5q117 176 297 176q110 0 173 -80.5t63 -222.5q0 -126 -37 -262t-98 -236q-128 -202 -314 -202q-114 0 -175.5 79.5t-61.5 225.5zM213 215q0 -176 106 -176q56 0 104 56.5t93 178.5q44 115 71 245t27 226q0 183 -104 183q-62 0 -114 -68.5 t-99 -210.5q-84 -257 -84 -434zM326 1161q47 106 94.5 154.5t103.5 48.5q28 0 50.5 -11.5t54.5 -41.5q38 -38 55.5 -50t36.5 -12q34 0 61 27.5t56 91.5l51 -31q-38 -102 -90 -156.5t-111 -54.5q-32 0 -55.5 14.5t-69.5 61.5q-44 41 -69 41q-61 0 -115 -110z" />
<glyph unicode="&#xf6;" horiz-adv-x="770" d="M72 287q0 134 42 278.5t111 243.5q117 176 297 176q110 0 173 -80.5t63 -222.5q0 -126 -37 -262t-98 -236q-128 -202 -314 -202q-114 0 -175.5 79.5t-61.5 225.5zM213 215q0 -176 106 -176q56 0 104 56.5t93 178.5q44 115 71 245t27 226q0 183 -104 183q-62 0 -114 -68.5 t-99 -210.5q-84 -257 -84 -434zM356 1249q0 49 34.5 84t82.5 35q41 0 69.5 -29.5t28.5 -72.5q0 -47 -34 -83t-80 -36q-43 0 -72 29.5t-29 72.5zM643 1249q0 49 34.5 84t82.5 35q40 0 68 -29.5t28 -72.5q0 -47 -34.5 -83t-80.5 -36q-41 0 -69.5 29.5t-28.5 72.5z" />
<glyph unicode="&#xf7;" d="M145 631l31 121h680l-29 -121h-682zM346 403q0 46 33.5 79.5t77.5 33.5q40 0 67 -28.5t27 -69.5q0 -46 -33.5 -80.5t-77.5 -34.5q-40 0 -67 28.5t-27 71.5zM487 967q0 45 33.5 78.5t77.5 33.5q38 0 65 -28.5t27 -69.5q0 -46 -32 -80.5t-76 -34.5q-40 0 -67.5 29t-27.5 72 z" />
<glyph unicode="&#xf8;" horiz-adv-x="770" d="M-57 -6l143 166q-16 55 -16 125q0 136 42 279.5t111 246.5q122 176 295 176q130 0 193 -102l73 88h82l-129 -150q21 -58 21 -139q0 -128 -37 -264.5t-100 -235.5q-123 -202 -312 -202q-135 0 -198 114l-88 -102h-80zM213 215q0 -176 106 -176q56 0 104 56.5t93 178.5 q81 216 94 404zM219 313l395 461q-6 156 -106 156q-116 0 -205 -260q-67 -192 -84 -357z" />
<glyph unicode="&#xf9;" horiz-adv-x="868" d="M109 170q0 71 24 162l115 461q12 52 12 65q0 31 -19 41t-77 10l10 39q143 13 277 53l-168 -671q-25 -103 -25 -152q0 -47 22.5 -76.5t59.5 -29.5q142 0 223 323l144 574q76 2 155 20l-157 -633q-46 -180 -46 -227q0 -21 10.5 -37t24.5 -16q21 0 41 23t51 83l37 -30 q-51 -98 -90 -134t-96 -36q-123 0 -129 135q-51 -71 -102.5 -103t-114.5 -32q-81 0 -131.5 52t-50.5 136zM403 1401h170l80 -303h-71z" />
<glyph unicode="&#xfa;" horiz-adv-x="868" d="M109 170q0 71 24 162l115 461q12 52 12 65q0 31 -19 41t-77 10l10 39q143 13 277 53l-168 -671q-25 -103 -25 -152q0 -47 22.5 -76.5t59.5 -29.5q142 0 223 323l144 574q76 2 155 20l-157 -633q-46 -180 -46 -227q0 -21 10.5 -37t24.5 -16q21 0 41 23t51 83l37 -30 q-51 -98 -90 -134t-96 -36q-123 0 -129 135q-51 -71 -102.5 -103t-114.5 -32q-81 0 -131.5 52t-50.5 136zM555 1098l229 303h183l-326 -303h-86z" />
<glyph unicode="&#xfb;" horiz-adv-x="868" d="M109 170q0 71 24 162l115 461q12 52 12 65q0 31 -19 41t-77 10l10 39q143 13 277 53l-168 -671q-25 -103 -25 -152q0 -47 22.5 -76.5t59.5 -29.5q142 0 223 323l144 574q76 2 155 20l-157 -633q-46 -180 -46 -227q0 -21 10.5 -37t24.5 -16q21 0 41 23t51 83l37 -30 q-51 -98 -90 -134t-96 -36q-123 0 -129 135q-51 -71 -102.5 -103t-114.5 -32q-81 0 -131.5 52t-50.5 136zM367 1098l284 297h62l133 -297h-76l-119 155l-198 -155h-86z" />
<glyph unicode="&#xfc;" horiz-adv-x="868" d="M109 170q0 71 24 162l115 461q12 52 12 65q0 31 -19 41t-77 10l10 39q143 13 277 53l-168 -671q-25 -103 -25 -152q0 -47 22.5 -76.5t59.5 -29.5q142 0 223 323l144 574q76 2 155 20l-157 -633q-46 -180 -46 -227q0 -21 10.5 -37t24.5 -16q21 0 41 23t51 83l37 -30 q-51 -98 -90 -134t-96 -36q-123 0 -129 135q-51 -71 -102.5 -103t-114.5 -32q-81 0 -131.5 52t-50.5 136zM381 1249q0 49 34.5 84t82.5 35q41 0 69.5 -29.5t28.5 -72.5q0 -47 -34.5 -83t-80.5 -36q-43 0 -71.5 29.5t-28.5 72.5zM668 1249q0 49 34.5 84t81.5 35 q40 0 68.5 -29.5t28.5 -72.5q0 -47 -34.5 -83t-80.5 -36q-41 0 -69.5 29.5t-28.5 72.5z" />
<glyph unicode="&#xfd;" horiz-adv-x="698" d="M-135 -403l6 135q54 -23 84 -23q54 0 118 66.5t130 191.5l37 66l-50 803q-3 57 -20.5 74.5t-75.5 21.5l10 41q87 -10 175 -10q85 0 178 10l-11 -41q-67 -6 -83.5 -22t-14.5 -76l21 -572l245 463q68 124 68 170q0 39 -55 39h-23v39q107 8 189 65q10 -29 10 -53 q0 -32 -14 -68.5t-52 -105.5q-2 -4 -41 -74l-436 -805q-80 -146 -132.5 -214t-106 -94.5t-136.5 -26.5h-20zM477 1098l230 303h182l-326 -303h-86z" />
<glyph unicode="&#xfe;" horiz-adv-x="825" d="M-51 -403l395 1581q12 54 12 69q0 28 -20 38.5t-76 10.5l10 39q138 13 277 54l-125 -508q79 104 188 104q93 0 149 -76.5t56 -203.5q0 -131 -41 -275t-108 -248q-129 -200 -293 -200q-57 0 -90.5 28t-55.5 94l-127 -507h-151zM274 207q0 -78 27 -123t74 -45q40 0 79 35.5 t70 99.5q60 128 104 303.5t44 290.5q0 75 -23.5 117.5t-66.5 42.5q-49 0 -100.5 -58t-94.5 -161q-39 -98 -76 -261.5t-37 -240.5z" />
<glyph unicode="&#xff;" horiz-adv-x="698" d="M-135 -403l6 135q54 -23 84 -23q54 0 118 66.5t130 191.5l37 66l-50 803q-3 57 -20.5 74.5t-75.5 21.5l10 41q87 -10 175 -10q85 0 178 10l-11 -41q-67 -6 -83.5 -22t-14.5 -76l21 -572l245 463q68 124 68 170q0 39 -55 39h-23v39q107 8 189 65q10 -29 10 -53 q0 -32 -14 -68.5t-52 -105.5q-2 -4 -41 -74l-436 -805q-80 -146 -132.5 -214t-106 -94.5t-136.5 -26.5h-20zM301 1249q0 49 34.5 84t82.5 35q41 0 69.5 -29.5t28.5 -72.5q0 -47 -34.5 -83t-80.5 -36q-43 0 -71.5 29.5t-28.5 72.5zM588 1249q0 49 34.5 84t82.5 35 q40 0 68 -29.5t28 -72.5q0 -47 -34.5 -83t-80.5 -36q-41 0 -69.5 29.5t-28.5 72.5z" />
<glyph unicode="&#x152;" horiz-adv-x="1417" d="M129 387q0 215 64.5 434.5t168.5 362.5q72 99 162.5 153t184.5 54q90 0 145.5 -53.5t87.5 -170.5l49 199h561l-47 -307h-51q2 35 2 65q0 107 -33 143t-133 36h-155l-138 -555h336l-18 -72h-336l-117 -465q-16 -71 -16 -90q0 -58 102 -58h78q97 0 156.5 56t130.5 211h49 l-119 -330h-592l39 152q-126 -172 -278 -172q-132 0 -207.5 108t-75.5 299zM283 332q0 -140 39.5 -217.5t111.5 -77.5q59 0 116.5 49t104.5 141q95 182 153 411t58 427q0 123 -38.5 195.5t-104.5 72.5q-167 0 -307 -370q-62 -168 -97.5 -336t-35.5 -295z" />
<glyph unicode="&#x153;" horiz-adv-x="1183" d="M72 287q0 135 42 278t111 244q59 85 133.5 130.5t155.5 45.5q65 0 110.5 -36t67.5 -105q8 -21 17 -62q138 203 315 203q89 0 142 -51t53 -139q0 -148 -139 -246.5t-351 -99.5q-31 -129 -31 -209q0 -88 34.5 -139.5t94.5 -51.5q69 0 141.5 77t106.5 189h70 q-54 -161 -146 -247t-211 -86q-163 0 -223 176q-104 -176 -262 -176q-107 0 -169 81.5t-62 223.5zM213 213q0 -84 27.5 -129t78.5 -45q89 0 158 139q63 130 101 291.5t38 294.5q0 77 -27.5 120.5t-76.5 43.5q-119 0 -207 -258q-92 -259 -92 -457zM745 506q144 0 244 106 q44 46 69 102t25 109q0 46 -19 75.5t-48 29.5q-72 0 -143.5 -112t-127.5 -310z" />
<glyph unicode="&#x178;" horiz-adv-x="829" d="M127 -6l12 49q88 9 116.5 33t47.5 104l105 416l-66 516q-7 52 -8 78q-11 75 -35.5 101t-93.5 32l12 49q115 -14 203 -14t211 14l-13 -49q-81 -7 -102.5 -22.5t-21.5 -63.5q0 -39 6 -98l49 -453l291 467q55 87 55 123q0 13 -10 22t-25 9q-1 0 -45 -7l-4 48q60 10 101.5 23 t127.5 46v-22q0 -36 -15 -68t-77 -131l-383 -600l-102 -416q-14 -55 -14 -78q0 -26 24 -39.5t82 -19.5l-12 -49q-129 14 -205 14q-74 0 -211 -14zM471 1642q0 51 36 88t87 37q44 0 74 -31t30 -77q0 -52 -35 -89.5t-85 -37.5q-46 0 -76.5 31.5t-30.5 78.5zM770 1642 q0 51 36 88t87 37q44 0 74 -31t30 -77q0 -52 -35 -89.5t-85 -37.5q-46 0 -76.5 31.5t-30.5 78.5z" />
<glyph unicode="&#x2c6;" horiz-adv-x="819" d="M328 1098l284 297h62l133 -297h-76l-119 155l-198 -155h-86z" />
<glyph unicode="&#x2dc;" horiz-adv-x="819" d="M330 1161q47 106 94.5 154.5t103.5 48.5q28 0 50.5 -11.5t54.5 -41.5q38 -38 55.5 -50t36.5 -12q34 0 61 27.5t56 91.5l51 -31q-38 -102 -90 -156.5t-111 -54.5q-32 0 -55.5 14.5t-69.5 61.5q-44 41 -69 41q-61 0 -115 -110z" />
<glyph unicode="&#x2000;" horiz-adv-x="919" />
<glyph unicode="&#x2001;" horiz-adv-x="1839" />
<glyph unicode="&#x2002;" horiz-adv-x="919" />
<glyph unicode="&#x2003;" horiz-adv-x="1839" />
<glyph unicode="&#x2004;" horiz-adv-x="613" />
<glyph unicode="&#x2005;" horiz-adv-x="459" />
<glyph unicode="&#x2006;" horiz-adv-x="306" />
<glyph unicode="&#x2007;" horiz-adv-x="306" />
<glyph unicode="&#x2008;" horiz-adv-x="229" />
<glyph unicode="&#x2009;" horiz-adv-x="367" />
<glyph unicode="&#x200a;" horiz-adv-x="102" />
<glyph unicode="&#x2010;" horiz-adv-x="319" d="M27 483l26 109h322l-29 -109h-319z" />
<glyph unicode="&#x2011;" horiz-adv-x="319" d="M27 483l26 109h322l-29 -109h-319z" />
<glyph unicode="&#x2012;" horiz-adv-x="319" d="M27 483l26 109h322l-29 -109h-319z" />
<glyph unicode="&#x2013;" d="M168 483l27 109h563l-27 -109h-563z" />
<glyph unicode="&#x2014;" horiz-adv-x="925" d="M27 483l26 109h926l-27 -109h-925z" />
<glyph unicode="&#x2018;" horiz-adv-x="376" d="M291 997q0 75 52.5 174.5t141.5 194.5h62q-74 -99 -117 -227q78 -12 78 -88q0 -61 -39 -107.5t-90 -46.5q-41 0 -64.5 26.5t-23.5 73.5z" />
<glyph unicode="&#x2019;" horiz-adv-x="378" d="M227 829q125 146 179 334q-41 2 -65 26.5t-24 65.5q0 56 36.5 95t88.5 39q45 0 73 -30t28 -79q0 -95 -67 -214.5t-187 -236.5h-62z" />
<glyph unicode="&#x201a;" horiz-adv-x="413" d="M-72 -365q122 140 178 334q-42 2 -65 26t-23 66q0 56 36.5 95t88.5 39q45 0 73 -30t28 -79q0 -95 -67 -214.5t-187 -236.5h-62z" />
<glyph unicode="&#x201c;" horiz-adv-x="622" d="M285 1020q0 75 52.5 174.5t141.5 194.5h62q-73 -93 -117 -228q78 -12 78 -88q0 -61 -39 -107t-90 -46q-41 0 -64.5 26.5t-23.5 73.5zM555 1020q0 74 53.5 174t143.5 195h59q-75 -101 -117 -228q78 -12 78 -88q0 -61 -39 -107t-90 -46q-41 0 -64.5 26.5t-23.5 73.5z" />
<glyph unicode="&#x201d;" horiz-adv-x="622" d="M254 920q77 99 117 227q-76 11 -76 88q0 61 39 107.5t90 46.5q41 0 64.5 -27t23.5 -74q0 -74 -53 -173.5t-144 -194.5h-61zM524 920q77 99 117 227q-76 12 -76 88q0 61 39 107.5t90 46.5q41 0 64.5 -27t23.5 -74q0 -75 -52 -173.5t-144 -194.5h-62z" />
<glyph unicode="&#x201e;" horiz-adv-x="622" d="M-16 -272q76 102 116 227q-40 6 -57.5 27t-17.5 61q0 62 38.5 108t90.5 46q40 0 63 -27t23 -74q0 -75 -51.5 -171.5t-143.5 -196.5h-61zM254 -272q78 105 117 227q-76 11 -76 88q0 61 39 107.5t90 46.5q41 0 64.5 -27t23.5 -74q0 -73 -52 -170.5t-145 -197.5h-61z" />
<glyph unicode="&#x2022;" horiz-adv-x="1366" d="M463 692q0 120 83.5 202.5t205.5 82.5q114 0 196 -83.5t82 -199.5q0 -118 -82.5 -201t-199.5 -83t-201 82.5t-84 199.5z" />
<glyph unicode="&#x2026;" horiz-adv-x="1239" d="M29 94q0 52 37.5 89.5t89.5 37.5q44 0 75 -32t31 -78q0 -53 -37 -91t-88 -38q-46 0 -77 32.5t-31 79.5zM438 94q0 52 37 89.5t90 37.5q44 0 75.5 -32t31.5 -78q0 -53 -37 -91t-88 -38q-46 0 -77.5 32.5t-31.5 79.5zM846 94q0 52 37 89.5t90 37.5q44 0 75 -32t31 -78 q0 -53 -37 -91t-88 -38q-46 0 -77 32.5t-31 79.5z" />
<glyph unicode="&#x202f;" horiz-adv-x="367" />
<glyph unicode="&#x2039;" horiz-adv-x="430" d="M70 487l354 478h57l-248 -478l9 -487h-49z" />
<glyph unicode="&#x203a;" horiz-adv-x="430" d="M2 0l250 477l-8 488h49l121 -488l-353 -477h-59z" />
<glyph unicode="&#x205f;" horiz-adv-x="459" />
<glyph unicode="&#x20ac;" d="M-6 541l51 75h92q11 50 29 125h-123l51 76h94q86 276 231.5 428t323.5 152q52 0 92 -12.5t95 -45.5q51 -32 78 -32q13 0 49 20l-78 -356h-55q8 73 8 119q0 114 -46.5 178.5t-129.5 64.5q-125 0 -223 -125.5t-181 -390.5h486l-52 -76h-454q-18 -61 -29 -125h397l-49 -75 h-362q-17 -130 -17 -191q0 -139 53.5 -214t153.5 -75q91 0 165.5 47.5t174.5 167.5l-35 -165q-105 -84 -174 -113t-164 -29q-161 0 -246 103.5t-85 300.5q0 82 12 168h-133z" />
<glyph unicode="&#x2122;" horiz-adv-x="1234" d="M162 582l10 43q53 5 68 16t24 53l156 623h-33q-44 0 -70 -26.5t-67 -114.5h-41l76 190h407l-20 -190h-41q2 18 2 43q0 56 -16 77t-58 21h-27l-151 -604q-8 -33 -8 -51q0 -19 13 -26.5t48 -10.5l-10 -43q-69 10 -129 10q-59 0 -133 -10zM541 582l10 43q32 2 49.5 11 t32.5 34q20 44 100 319l78 268q6 24 6 41q0 14 -14 20t-53 9l12 43q35 -4 78 -4q42 0 106 6l21 -563l299 563q81 -8 108 -8q22 0 78 6l-10 -43q-52 -4 -67.5 -16t-24.5 -54l-129 -552q-9 -34 -9 -48q0 -15 13.5 -22t50.5 -10l-10 -43q-69 10 -129 10q-62 0 -136 -10l11 43 q51 3 68 15.5t24 53.5l123 502l-314 -588h-43l-22 598l-143 -512q-7 -24 -7 -37q0 -17 11.5 -23t50.5 -9l-10 -43q-70 6 -101 6q-29 0 -108 -6z" />
<glyph unicode="&#xe000;" horiz-adv-x="1044" d="M0 0v1044h1044v-1044h-1044z" />
</font>
</defs>
</svg>
