<?xml version="1.0" standalone="no"?>
<!DOCTYPE svg PUBLIC "-//W3C//DTD SVG 1.1//EN" "http://www.w3.org/Graphics/SVG/1.1/DTD/svg11.dtd" >
<svg xmlns="http://www.w3.org/2000/svg">
<metadata></metadata>
<defs>
<font id="corposligregular" horiz-adv-x="1024" vert-adv-y="2048" >
<font-face units-per-em="2048" ascent="1638" descent="-410" />
<missing-glyph horiz-adv-x="512" />
<glyph horiz-adv-x="2048" vert-adv-y="0" />
<glyph horiz-adv-x="2048" vert-adv-y="0" />
<glyph unicode="&#xd;" horiz-adv-x="2048" vert-adv-y="0" />
<glyph unicode=" " horiz-adv-x="512" vert-adv-y="1406" />
<glyph unicode="!" horiz-adv-x="508" vert-adv-y="1406" d="M148 82q0 43 30 74q32 32 76 32q43 0 75 -32q30 -30 30 -74t-32 -75q-31 -30 -74 -30t-74 31t-31 74zM195 1343h118l-23 -982h-82z" />
<glyph unicode="&#x22;" horiz-adv-x="619" vert-adv-y="1406" d="M118 1365h122l-16 -547h-90zM381 1365h121l-16 -547h-90z" />
<glyph unicode="#" horiz-adv-x="1229" vert-adv-y="1406" d="M83 443l15 94h233l50 316h-233l15 94h233l66 418h106l-66 -418h323l66 418h106l-66 -418h233l-15 -94h-233l-50 -316h233l-15 -94h-233l-70 -443h-106l70 443h-323l-70 -443h-106l70 443h-233zM437 537h323l50 316h-323z" />
<glyph unicode="$" horiz-adv-x="1065" vert-adv-y="1406" d="M97 370h115q8 -132 92 -212q71 -65 194 -75v575l-13 5q-137 54 -175 73t-83 57q-97 83 -97 233q0 133 81 227q102 120 287 133v127h68v-126q130 -7 224 -71q115 -82 127 -226h-123q-9 88 -80 141q-62 44 -148 51v-521q172 -66 235 -108q163 -108 163 -299 q0 -139 -92 -242q-108 -120 -306 -133v-138h-68v137q-176 9 -276 98q-117 105 -125 294zM246 1037q0 -122 110 -188q33 -19 142 -62v495q-100 -11 -159 -56q-93 -70 -93 -189zM566 84q112 10 182 64q94 72 94 193q0 133 -103 210q-43 31 -173 82v-549z" />
<glyph unicode="%" horiz-adv-x="1077" vert-adv-y="1406" d="M43 1049q0 154 86 250q69 77 165 77q105 0 175 -94q72 -95 72 -233q0 -155 -85 -251q-69 -77 -164 -77q-106 0 -177 94q-72 95 -72 234zM87 0l805 1365h99l-806 -1365h-98zM146 1049q0 -106 44 -173q41 -64 102 -64q66 0 108 74q38 67 38 163q0 105 -44 172 q-41 64 -103 64q-65 0 -108 -74q-37 -67 -37 -162zM535 317q0 154 86 250q69 77 166 77q104 0 175 -94q72 -95 72 -234q0 -154 -86 -250q-68 -77 -163 -77q-107 0 -178 94q-72 95 -72 234zM638 316q0 -104 44 -172q42 -64 103 -64q67 0 109 74q38 67 38 163q0 104 -44 172 q-42 64 -104 64q-66 0 -108 -74q-38 -67 -38 -163z" />
<glyph unicode="&#x26;" horiz-adv-x="1221" vert-adv-y="1406" d="M100 347q0 156 115 276q61 63 170 143q-75 98 -105 143q-59 90 -59 183q0 114 81 187q78 72 206 72q109 0 178 -54q83 -66 83 -190t-88 -229q-51 -60 -142 -132l307 -417q49 87 54 282h97q1 -110 -14 -198q-18 -96 -69 -176l175 -237h-134l-106 142q-136 -152 -348 -152 q-177 0 -286 94q-115 100 -115 263zM217 350q0 -108 76 -183q84 -83 214 -83q166 0 279 144l-336 450q-103 -76 -147 -121q-86 -89 -86 -207zM331 1103q0 -72 57 -152q17 -24 64 -89l23 -30l15 12q170 132 170 266q0 66 -45 107q-44 41 -112 41q-65 0 -113 -36 q-59 -45 -59 -119z" />
<glyph unicode="'" horiz-adv-x="512" vert-adv-y="1406" d="M195 1365h122l-16 -547h-90z" />
<glyph unicode="(" horiz-adv-x="558" vert-adv-y="1406" d="M157 483q0 368 104 649q49 134 144 245h85q-220 -305 -220 -895q0 -350 84 -618q50 -161 136 -273h-85q-93 103 -144 244q-104 283 -104 648z" />
<glyph unicode=")" horiz-adv-x="558" vert-adv-y="1406" d="M68 -409q86 112 136 273q84 266 84 618q0 589 -220 895h85q248 -291 248 -895q0 -365 -104 -647q-51 -140 -144 -244h-85z" />
<glyph unicode="*" vert-adv-y="1406" d="M196 1068l28 87l242 -78v254h92v-254l242 78l28 -88l-242 -78l150 -206l-75 -54l-149 206l-149 -206l-75 54l150 206z" />
<glyph unicode="+" horiz-adv-x="1065" vert-adv-y="1406" d="M112 650v78h380v393h83v-393h379v-78h-379v-394h-83v394h-380z" />
<glyph unicode="," horiz-adv-x="480" vert-adv-y="1406" d="M79 -244q143 132 160 241q-13 -2 -20 -2q-39 0 -70 33q-27 29 -27 70q0 49 37 82q31 27 75 27q49 0 83 -35q36 -37 36 -103q0 -144 -145 -313h-129z" />
<glyph unicode="-" horiz-adv-x="571" vert-adv-y="1406" d="M0 471v89h571v-89h-571z" />
<glyph unicode="." horiz-adv-x="526" vert-adv-y="1406" d="M157 82q0 43 30 74q32 32 76 32q43 0 75 -32q30 -30 30 -74t-32 -75q-31 -30 -74 -30t-74 31t-31 74z" />
<glyph unicode="/" horiz-adv-x="1177" vert-adv-y="1406" d="M134 -273l782 1638h127l-782 -1638h-127z" />
<glyph unicode="0" horiz-adv-x="1065" vert-adv-y="1406" d="M112 661q0 359 144 552q101 135 283 135q107 0 196 -63q115 -80 173 -272q46 -153 46 -348q0 -350 -144 -547q-52 -71 -135 -107q-66 -28 -142 -28q-114 0 -203 62q-113 80 -172 273q-46 152 -46 343zM230 665q0 -280 89 -451q70 -133 214 -133q145 0 214 133 q89 172 89 448q0 288 -89 455q-71 133 -218 133q-93 0 -161 -68q-68 -67 -105 -218q-33 -135 -33 -299z" />
<glyph unicode="1" horiz-adv-x="1065" vert-adv-y="1406" d="M249 1066v82q122 6 184 48q65 45 88 147h79v-1343h-109v1066h-242z" />
<glyph unicode="2" horiz-adv-x="1065" vert-adv-y="1406" d="M177 0v87l42 56l121 165l140 190q206 279 241 331q72 108 72 206q0 103 -73 159q-67 52 -166 52q-247 0 -264 -303h-110q3 177 75 272q102 133 305 133q138 0 232 -68q119 -87 119 -244q0 -115 -89 -254q-20 -30 -320 -434q-141 -190 -184 -248h616v-100h-757z" />
<glyph unicode="3" horiz-adv-x="1065" vert-adv-y="1406" d="M122 351q0 8 1 22h103q4 -124 58 -192q77 -96 232 -96q144 0 224 81q77 78 77 216q0 194 -163 260q-58 24 -148 24q-24 0 -54 -3v108q39 -4 62 -4q89 0 157 47q96 66 96 203q0 97 -56 158q-65 71 -187 71q-222 0 -256 -251h-106q9 152 82 236q104 117 285 117 q186 0 285 -115q72 -84 72 -208q0 -205 -196 -296q246 -88 246 -340q0 -140 -73 -246q-110 -161 -338 -161q-249 0 -350 166q-53 86 -53 203z" />
<glyph unicode="4" horiz-adv-x="1065" vert-adv-y="1406" d="M86 338v86l551 919h106v-901h230v-104h-227v-349h-115v349h-545zM201 442h433l4 736z" />
<glyph unicode="5" horiz-adv-x="1065" vert-adv-y="1406" d="M170 303h106q16 -93 65 -146q71 -76 183 -76q141 0 218 108q82 114 82 273q0 154 -80 252q-70 85 -191 85q-165 0 -248 -157l-106 9l82 680h592l-18 -100h-477l-58 -434q92 106 240 106q167 0 270 -112q111 -119 111 -326q0 -164 -78 -293q-114 -189 -337 -189 q-184 0 -286 127q-62 78 -70 193z" />
<glyph unicode="6" horiz-adv-x="1065" vert-adv-y="1406" d="M176 439q0 397 502 926h127q-238 -254 -395 -524q83 47 170 47q133 0 233 -100q130 -128 130 -346q0 -225 -130 -357q-100 -102 -251 -102q-147 0 -248 96q-138 131 -138 360zM294 435q0 -168 89 -274q67 -80 177 -80q109 0 176 80q89 106 89 273q0 171 -89 276 q-68 80 -179 80q-107 0 -174 -80q-89 -105 -89 -275z" />
<glyph unicode="7" horiz-adv-x="1065" vert-adv-y="1406" d="M208 1226v105h805v-100l-658 -1231h-128l660 1226h-679z" />
<glyph unicode="8" horiz-adv-x="1065" vert-adv-y="1406" d="M146 358q0 234 202 342q-165 82 -165 292q0 162 112 264q100 92 237 92q138 0 238 -92q112 -103 112 -264q0 -143 -82 -233q-30 -33 -82 -59q202 -107 202 -342q0 -171 -115 -276q-109 -99 -272 -99t-272 99q-115 105 -115 276zM264 364q0 -128 75 -206q76 -77 194 -77 t193 77q76 78 76 206q0 130 -76 207t-197 77q-115 0 -190 -77q-75 -78 -75 -207zM301 996q0 -122 73 -193q64 -62 159 -62q94 0 158 62q73 71 73 192q0 124 -73 193q-66 62 -161 62q-92 0 -156 -62q-73 -71 -73 -192z" />
<glyph unicode="9" horiz-adv-x="1065" vert-adv-y="1406" d="M122 889q0 225 130 357q100 102 251 102q147 0 248 -96q138 -131 138 -360q0 -399 -502 -926h-128q237 252 396 524q-83 -47 -171 -47q-132 0 -233 100q-129 128 -129 346zM240 895q0 -168 89 -274q67 -80 176 -80q110 0 177 80q89 106 89 273q0 171 -89 276 q-67 80 -180 80q-106 0 -173 -80q-89 -105 -89 -275z" />
<glyph unicode=":" horiz-adv-x="526" vert-adv-y="1406" d="M157 82q0 43 30 74q32 32 76 32q43 0 75 -32q30 -30 30 -74t-32 -75q-31 -30 -74 -30t-74 31t-31 74zM157 862q0 44 30 74q32 32 76 32q43 0 75 -32q30 -30 30 -74t-32 -75q-31 -30 -74 -30t-74 31t-31 74z" />
<glyph unicode=";" horiz-adv-x="480" vert-adv-y="1406" d="M79 -244q143 132 160 241q-13 -2 -20 -2q-39 0 -70 33q-27 29 -27 70q0 49 37 82q31 27 75 27q49 0 83 -35q36 -37 36 -103q0 -144 -145 -313h-129zM123 862q0 44 30 74q32 32 76 32q43 0 74 -32q31 -31 31 -74q0 -44 -32 -75q-31 -30 -74 -30t-74 31q-31 30 -31 74z" />
<glyph unicode="&#x3c;" vert-adv-y="1406" d="M68 640v94l887 402v-106l-772 -343l772 -343v-106z" />
<glyph unicode="=" horiz-adv-x="1065" vert-adv-y="1406" d="M112 522v83h842v-83h-842zM112 772v83h842v-83h-842z" />
<glyph unicode="&#x3e;" vert-adv-y="1406" d="M69 237v107l772 343l-772 343v106l887 -402v-95z" />
<glyph unicode="?" horiz-adv-x="840" vert-adv-y="1406" d="M95 1034q6 132 70 208q88 106 255 106q128 0 206 -63q96 -78 96 -219q0 -89 -49 -162q-36 -54 -128 -143q-101 -97 -113 -163q-6 -35 -6 -163q0 -26 1 -67h-111q-1 59 -1 134q0 105 14 151q14 47 46 85q31 37 85 92q69 70 100 117q39 59 39 124q0 82 -55 129 q-47 39 -130 39q-127 0 -180 -83q-27 -42 -37 -122h-102zM263 82q0 43 30 74q32 32 76 32q43 0 75 -32q30 -31 30 -74q0 -44 -32 -75q-31 -30 -74 -30t-74 31t-31 74z" />
<glyph unicode="@" horiz-adv-x="1502" vert-adv-y="1406" d="M71 685q0 204 103 375q102 169 281 256q151 73 330 73q272 0 449 -155q98 -85 150 -210q47 -114 47 -242q0 -240 -145 -398q-84 -92 -189 -92q-80 0 -122 62q-22 32 -25 83q-96 -151 -256 -151q-131 0 -213 100q-75 91 -75 233q0 174 108 301q101 118 252 118 q175 0 234 -174l29 148h85l-86 -445q-13 -65 -13 -103q0 -42 23 -71q24 -28 64 -28q75 0 138 80q106 135 106 334q0 165 -79 293q-79 127 -230 189q-121 50 -254 50q-178 0 -326 -87q-150 -87 -228 -248q-67 -137 -67 -294q0 -177 82 -327q165 -301 562 -301q230 0 447 106 l26 -76q-220 -109 -472 -109q-339 0 -537 200q-92 93 -145 227q-54 137 -54 283zM505 617q0 -103 47 -172q52 -78 155 -78q128 0 201 129q55 98 55 236q0 97 -48 156q-53 64 -149 64q-119 0 -194 -111q-67 -99 -67 -224z" />
<glyph unicode="A" horiz-adv-x="1134" vert-adv-y="1406" d="M49 0l473 1377h90l473 -1377h-122l-134 388h-524l-135 -388h-121zM338 490h457l-228 720z" />
<glyph unicode="B" horiz-adv-x="1099" vert-adv-y="1406" d="M180 0v1365h210q149 0 223 -8q148 -16 232 -94q95 -87 95 -237q0 -230 -227 -300q104 -26 164 -68q134 -95 134 -281q0 -179 -113 -281q-84 -75 -253 -89q-87 -7 -255 -7h-210zM296 102h143q122 0 201 8q243 27 243 273q0 121 -74 195q-66 66 -197 79q-61 6 -175 6h-141 v-561zM296 765h134q109 0 177 12q108 18 161 89q50 65 50 158q0 110 -67 172q-51 47 -141 59q-58 8 -185 8h-129v-498z" />
<glyph unicode="C" horiz-adv-x="1233" vert-adv-y="1406" d="M116 680q0 372 193 565q142 143 355 143q221 0 346 -146q77 -90 98 -233h-114q-67 274 -332 274q-185 0 -296 -150q-122 -167 -122 -450q0 -308 145 -481q100 -120 276 -120q201 0 293 164q48 84 61 203h114q-17 -173 -91 -283q-127 -189 -371 -189q-249 0 -396 179 q-159 194 -159 524z" />
<glyph unicode="D" horiz-adv-x="1270" vert-adv-y="1406" d="M180 0v1365h173q186 0 274 -11q267 -32 408 -245q119 -181 119 -425q0 -278 -145 -462q-147 -187 -390 -212q-93 -10 -274 -10h-165zM296 102h93q153 0 220 8q137 17 242 108q175 153 175 464q0 273 -137 431q-104 118 -270 140q-78 10 -259 10h-64v-1161z" />
<glyph unicode="E" horiz-adv-x="1004" vert-adv-y="1406" d="M180 0v1365h715v-102h-599v-505h558v-102h-558v-554h608v-102h-724z" />
<glyph unicode="F" horiz-adv-x="977" vert-adv-y="1406" d="M180 0v1365h715v-102h-599v-505h558v-102h-558v-656h-116z" />
<glyph unicode="G" horiz-adv-x="1260" vert-adv-y="1406" d="M115 684q0 352 173 543q67 73 162 115q103 46 223 46q218 0 337 -143q77 -91 98 -235h-114q-33 126 -93 185q-89 88 -232 88q-184 0 -289 -128q-138 -169 -138 -471q0 -337 166 -499q105 -103 285 -103q161 0 321 88v387h-280v112h392v-559q-184 -133 -433 -133 q-254 0 -396 153q-182 197 -182 554z" />
<glyph unicode="H" horiz-adv-x="1267" vert-adv-y="1406" d="M180 0v1365h116v-602h676v602h116v-1365h-116v666h-676v-666h-116z" />
<glyph unicode="I" horiz-adv-x="476" vert-adv-y="1406" d="M177 0v1365h122v-1365h-122z" />
<glyph unicode="J" horiz-adv-x="557" vert-adv-y="1406" d="M-2 -44q15 -1 22 -1q142 0 199 77q32 42 37 122q2 35 2 124v1087h122v-1089q0 -134 -7 -184q-15 -116 -107 -178q-93 -62 -224 -62q-14 0 -44 1v103z" />
<glyph unicode="K" horiz-adv-x="1099" vert-adv-y="1406" d="M180 0v1365h116v-1365h-116zM299 713l571 652h147l-573 -650l633 -715h-169z" />
<glyph unicode="L" horiz-adv-x="946" vert-adv-y="1406" d="M180 0v1365h122v-1263h581v-102h-703z" />
<glyph unicode="M" horiz-adv-x="1560" vert-adv-y="1406" d="M180 0v1365h188l412 -1234l412 1234h188v-1365h-116v1259l-425 -1259h-117l-426 1259v-1259h-116z" />
<glyph unicode="N" horiz-adv-x="1285" vert-adv-y="1406" d="M180 0v1365h129l688 -1195v1195h108v-1365h-135l-680 1191v-1191h-110z" />
<glyph unicode="O" horiz-adv-x="1305" vert-adv-y="1406" d="M116 680q0 318 156 518q148 190 388 190q147 0 271 -90q135 -99 204 -287q54 -149 54 -329q0 -311 -156 -515q-75 -98 -184 -148q-92 -42 -197 -42q-154 0 -278 90q-135 98 -204 287q-54 148 -54 326zM243 682q0 -255 117 -434q109 -166 292 -166t292 166 q117 179 117 432q0 263 -117 437q-112 166 -298 166q-110 0 -201 -73q-108 -86 -162 -258q-40 -125 -40 -270z" />
<glyph unicode="P" horiz-adv-x="1050" vert-adv-y="1406" d="M180 0v1365h194q266 0 373 -35q118 -39 185 -151q53 -89 53 -215q0 -154 -82 -253q-90 -107 -256 -127q-87 -10 -245 -10h-106v-574h-116zM296 676h102q174 0 258 18q201 41 201 272q0 131 -72 208q-61 67 -182 80q-72 9 -232 9h-75v-587z" />
<glyph unicode="Q" horiz-adv-x="1319" vert-adv-y="1406" d="M116 683q0 311 156 515q75 98 184 148q92 42 196 42q155 0 279 -90q135 -98 204 -287q54 -148 54 -326q0 -246 -98 -429l262 -279h-145l-180 183q-150 -183 -376 -183q-154 0 -278 90q-135 98 -204 287q-54 148 -54 329zM243 682q0 -255 117 -434q110 -166 292 -166 q183 0 293 166q117 179 117 432q0 263 -117 437q-112 166 -298 166q-110 0 -201 -73q-109 -86 -163 -257q-40 -126 -40 -271z" />
<glyph unicode="R" horiz-adv-x="1130" vert-adv-y="1406" d="M180 0v1365h207q145 0 213 -6q182 -16 276 -105q104 -99 104 -263q0 -271 -294 -368l375 -623h-145l-367 606h-253v-606h-116zM296 708h96q131 0 186 5q275 26 275 279q0 119 -66 188q-59 62 -170 75q-71 8 -222 8h-99v-555z" />
<glyph unicode="S" horiz-adv-x="1109" vert-adv-y="1406" d="M116 400h116q7 -135 69 -212q41 -50 109 -78t144 -28q132 0 218 74q86 75 86 193q0 107 -78 179q-53 50 -204 119q-219 101 -279 144q-136 98 -136 257q0 156 122 253q109 87 271 87q215 0 320 -147q59 -82 66 -213h-114q-12 112 -69 173q-77 82 -211 82q-107 0 -178 -55 q-88 -67 -88 -172q0 -96 86 -158q45 -33 97 -57l152 -71q222 -103 287 -185q78 -97 78 -229q0 -189 -148 -296q-115 -83 -283 -83q-226 0 -341 142q-82 100 -92 281z" />
<glyph unicode="T" horiz-adv-x="921" vert-adv-y="1406" d="M49 1263v102h824v-102h-354v-1263h-116v1263h-354z" />
<glyph unicode="U" horiz-adv-x="1246" vert-adv-y="1406" d="M159 553v812h116v-810q1 -154 6 -200q10 -110 64 -170q53 -60 149 -86q63 -17 129 -17q118 0 208 49q86 46 116 132q22 63 22 186l1 106v810h116v-812q0 -162 -5 -218q-11 -124 -82 -210q-124 -148 -377 -148q-251 0 -375 148q-72 86 -83 210q-5 56 -5 218z" />
<glyph unicode="V" horiz-adv-x="1117" vert-adv-y="1406" d="M32 1365h123l409 -1227l402 1227h120l-469 -1376h-115z" />
<glyph unicode="W" horiz-adv-x="1528" vert-adv-y="1406" d="M43 1365h112l266 -1196l293 1196h101l294 -1196l268 1196h112l-319 -1376h-120l-285 1126l-286 -1126h-120z" />
<glyph unicode="X" horiz-adv-x="1083" vert-adv-y="1406" d="M48 0l429 716l-409 649h136l340 -557l340 557h136l-409 -649l429 -716h-132l-364 604l-363 -604h-133z" />
<glyph unicode="Y" horiz-adv-x="1014" vert-adv-y="1406" d="M32 1365h137l340 -669l336 669h137l-420 -780l3 -585h-116l3 585z" />
<glyph unicode="Z" horiz-adv-x="1003" vert-adv-y="1406" d="M68 0v90l720 1173h-682v102h826v-79l-727 -1184h716v-102h-853z" />
<glyph unicode="[" horiz-adv-x="557" vert-adv-y="1406" d="M200 -398v1763h272v-91h-165v-1581h165v-91h-272z" />
<glyph unicode="\" horiz-adv-x="1177" vert-adv-y="1406" d="M134 1365h127l782 -1638h-127z" />
<glyph unicode="]" horiz-adv-x="557" vert-adv-y="1406" d="M86 -307h165v1581h-165v91h272v-1763h-272v91z" />
<glyph unicode="^" vert-adv-y="1406" d="M67 771l375 597h140l374 -597h-119l-327 513l-325 -513h-118z" />
<glyph unicode="_" vert-adv-y="1406" d="M0 -148h1024v-100h-1024v100z" />
<glyph unicode="`" vert-adv-y="1406" d="M253 1407h170l196 -263h-96z" />
<glyph unicode="a" horiz-adv-x="949" vert-adv-y="1406" d="M100 254q0 207 228 291q140 52 362 86v51q0 107 -37 152q-53 65 -176 65q-203 0 -233 -172h-111q13 115 82 182q90 87 263 87q145 0 233 -69q71 -56 81 -173q4 -45 4 -131v-355l-1 -83q0 -105 26 -185h-106q-18 58 -25 137q-89 -161 -286 -161q-126 0 -207 65 q-97 77 -97 213zM212 258q0 -85 61 -139q53 -46 139 -46q156 0 232 123q46 75 46 240v110q-214 -42 -318 -87q-160 -69 -160 -201z" />
<glyph unicode="b" horiz-adv-x="1012" vert-adv-y="1406" d="M134 0q19 59 20 280v1091h106v-548q103 174 282 174q145 0 242 -107q129 -144 129 -400q0 -286 -156 -429q-93 -85 -226 -85q-109 0 -186 61q-44 33 -85 102q1 -20 1 -29q0 -55 -18 -110h-109zM258 482q0 -194 92 -317q68 -92 182 -92q103 0 165 73q105 122 105 340 q0 212 -89 329q-66 85 -176 85q-114 0 -190 -101q-89 -118 -89 -317z" />
<glyph unicode="c" horiz-adv-x="955" vert-adv-y="1406" d="M100 482q0 277 156 421q101 93 248 93q190 0 283 -147q47 -76 58 -193h-106q-14 96 -58 155q-64 88 -180 88q-122 0 -195 -94q-95 -122 -95 -321q0 -214 108 -333q71 -78 187 -78q129 0 193 105q38 61 46 150h110q-14 -147 -84 -235q-91 -117 -260 -117q-161 0 -270 105 q-141 137 -141 401z" />
<glyph unicode="d" horiz-adv-x="1012" vert-adv-y="1406" d="M99 476q0 247 116 397q94 123 256 123q193 0 281 -173v548h106v-1091q0 -222 20 -280h-109q-18 56 -18 109q0 10 1 30q-41 -68 -85 -103q-77 -60 -186 -60q-159 0 -257 110q-125 141 -125 390zM210 484q0 -203 91 -325q65 -86 181 -86t181 86q91 122 91 323 q0 209 -91 330q-66 87 -184 87q-113 0 -178 -87q-91 -123 -91 -328z" />
<glyph unicode="e" horiz-adv-x="975" vert-adv-y="1406" d="M100 473q0 277 142 421q102 103 256 103q117 0 206 -65q103 -76 142 -217q29 -101 29 -198q0 -14 -1 -45h-662q4 -173 62 -270q77 -129 233 -129q110 0 178 68q28 29 61 91l103 -19q-90 -237 -341 -237q-185 0 -295 128q-113 131 -113 369zM216 561h544q-7 116 -48 197 q-72 142 -219 142q-144 0 -221 -141q-44 -79 -56 -198z" />
<glyph unicode="f" horiz-adv-x="552" vert-adv-y="1406" d="M34 880v89h140v63q0 115 8 162q16 93 81 144q65 50 155 50q59 0 131 -25v-108q-56 36 -124 36q-94 0 -125 -83q-16 -41 -16 -159v-80h245v-89h-238v-880h-117v880h-140z" />
<glyph unicode="g" horiz-adv-x="958" vert-adv-y="1406" d="M67 -140q0 114 85 180q46 35 123 62q-103 39 -103 112q0 66 75 110q39 23 99 46q-203 73 -203 281q0 170 122 262q87 65 218 65q70 0 141 -19l287 10v-85l-199 5q96 -83 96 -237q0 -143 -87 -217q-38 -33 -101 -55q-28 -10 -131 -37q-93 -25 -141 -48q-60 -29 -60 -71 q0 -25 27 -40q23 -13 161 -26q149 -14 200 -26q238 -54 238 -259q0 -146 -129 -224q-114 -69 -298 -69q-198 0 -318 86q-102 72 -102 194zM170 -136q0 -82 83 -133q87 -53 236 -53q183 0 265 72q54 48 54 115q0 182 -327 182q-132 0 -213 -40q-98 -50 -98 -143zM255 656 q0 -102 63 -161t159 -59t156 55q64 59 64 163q0 94 -53 159q-61 76 -164 76q-88 0 -152 -57q-73 -66 -73 -176z" />
<glyph unicode="h" horiz-adv-x="992" vert-adv-y="1406" d="M154 0v1371h106v-517q106 142 279 142q179 0 259 -124q33 -51 42 -139q4 -45 4 -177v-556h-106v563q0 102 -4 142q-20 194 -205 194q-145 0 -219 -119q-50 -81 -50 -235v-545h-106z" />
<glyph unicode="i" horiz-adv-x="424" vert-adv-y="1406" d="M122 1289q0 41 28 67q26 25 63 25q33 0 58 -20q32 -27 32 -72q0 -33 -20 -57q-26 -32 -70 -32q-38 0 -64 25q-27 25 -27 64zM154 0v969h117v-969h-117z" />
<glyph unicode="j" horiz-adv-x="501" vert-adv-y="1406" d="M-48 -289q23 -2 36 -2q155 0 206 82q27 44 33 128q3 54 3 147v903h117v-903q0 -153 -9 -212q-22 -133 -112 -190q-79 -51 -214 -51q-22 0 -60 1v97zM197 1289q0 41 28 67q26 25 63 25q33 0 58 -20q32 -27 32 -72q0 -33 -20 -57q-26 -32 -70 -32q-38 0 -64 25 q-27 25 -27 64z" />
<glyph unicode="k" horiz-adv-x="949" vert-adv-y="1406" d="M154 0v1371h106v-1371h-106zM264 532l426 437h131l-418 -432l448 -537h-151z" />
<glyph unicode="l" horiz-adv-x="424" vert-adv-y="1406" d="M154 0v1371h117v-1371h-117z" />
<glyph unicode="m" horiz-adv-x="1518" vert-adv-y="1406" d="M131 969h104q18 -52 19 -135q81 163 277 163q140 0 212 -82q30 -34 52 -91q85 172 294 172q174 0 243 -117q30 -52 36 -147q2 -33 2 -128v-604h-106v605q0 100 -4 130q-22 164 -196 164q-142 0 -208 -114q-39 -68 -39 -203v-582h-109v582q0 170 -20 218q-43 100 -176 100 q-135 0 -204 -104q-48 -74 -48 -222v-574h-106v646v50q-1 147 -8 204q-5 32 -15 69z" />
<glyph unicode="n" horiz-adv-x="1005" vert-adv-y="1406" d="M131 969h103q20 -55 20 -146q96 173 298 173q141 0 222 -75q67 -62 78 -178q5 -47 5 -187v-556h-106v563q0 107 -4 142q-11 103 -60 147q-53 48 -143 48q-148 0 -229 -119q-55 -82 -55 -225v-556h-106v645q0 193 -6 241q-5 37 -17 83z" />
<glyph unicode="o" horiz-adv-x="1010" vert-adv-y="1406" d="M100 483q0 247 128 391q110 123 282 123q162 0 272 -123q128 -144 128 -389q0 -243 -128 -387q-109 -122 -277 -122t-277 122q-128 144 -128 385zM212 485q0 -194 92 -314q76 -98 201 -98q127 0 202 98q92 121 92 312q0 198 -92 317q-77 100 -205 100q-122 0 -198 -100 q-92 -120 -92 -315z" />
<glyph unicode="p" horiz-adv-x="1012" vert-adv-y="1406" d="M134 969h110q15 -48 18 -151q41 76 86 113q79 66 193 66q144 0 237 -104q135 -150 135 -413q0 -257 -126 -402q-89 -102 -238 -102q-186 0 -286 165v-545h-109v1091q-1 223 -20 282zM258 486q0 -195 88 -313q76 -100 196 -100q113 0 173 82q87 118 87 320q0 220 -94 343 q-63 83 -173 83q-112 0 -183 -95q-94 -126 -94 -320z" />
<glyph unicode="q" horiz-adv-x="1012" vert-adv-y="1406" d="M99 474q0 264 139 417q96 106 241 106q112 0 188 -63q43 -36 83 -114q1 96 18 149h110q-20 -58 -20 -282v-1091h-109v545q-100 -165 -277 -165q-147 0 -244 105q-129 139 -129 393zM211 473q0 -202 88 -317q64 -83 175 -83q115 0 191 100q89 116 89 309q0 201 -91 325 q-68 93 -186 93q-106 0 -172 -90q-94 -129 -94 -337z" />
<glyph unicode="r" horiz-adv-x="635" vert-adv-y="1406" d="M139 969h101q17 -77 17 -148q0 -20 -3 -62q96 237 242 237q66 0 132 -34v-106q-81 36 -126 36q-80 0 -146 -85q-55 -72 -76 -164q-17 -78 -17 -214v-429h-109v623q0 238 -15 346z" />
<glyph unicode="s" horiz-adv-x="865" vert-adv-y="1406" d="M95 291h105q20 -218 240 -218q96 0 157 47q67 51 67 142q0 84 -60 126q-27 19 -75 36q-15 5 -146 46q-147 46 -200 106q-56 64 -56 158q0 130 102 200q89 62 213 62q101 0 179 -41q128 -67 136 -244h-104q-10 92 -54 135q-55 54 -159 54q-95 0 -153 -50q-49 -43 -49 -112 q0 -64 45 -99q43 -34 177 -74q150 -45 201 -75q116 -68 116 -217q0 -127 -82 -207q-92 -90 -255 -90q-213 0 -299 132q-46 72 -46 183z" />
<glyph unicode="t" horiz-adv-x="612" vert-adv-y="1406" d="M58 880v89h146l5 280h106l-5 -280h242v-89h-243l-10 -530q-2 -104 -2 -115q0 -100 23 -127q28 -34 85 -34q72 0 143 33v-100q-79 -26 -158 -26q-109 0 -163 52q-42 40 -42 138q0 39 3 107q3 53 3 77l12 525h-145z" />
<glyph unicode="u" horiz-adv-x="979" vert-adv-y="1406" d="M149 369v600h106v-605q0 -153 33 -206q54 -85 177 -85q135 0 209 115q46 72 46 223v558h106v-675q0 -129 1 -167q3 -72 21 -127h-107q-21 62 -21 138q-35 -71 -79 -108q-67 -54 -176 -54q-116 0 -197 58q-93 66 -112 184q-7 46 -7 151z" />
<glyph unicode="v" horiz-adv-x="835" vert-adv-y="1406" d="M21 969h112l286 -852l286 852h110l-343 -983h-108z" />
<glyph unicode="w" horiz-adv-x="1293" vert-adv-y="1406" d="M32 969h113l217 -796l236 796h97l236 -796l217 796h113l-279 -983h-97l-238 822l-239 -822h-97z" />
<glyph unicode="x" horiz-adv-x="863" vert-adv-y="1406" d="M16 0l352 515l-301 454h123l243 -371l246 371h132l-312 -454l348 -515h-128l-286 428l-289 -428h-128z" />
<glyph unicode="y" horiz-adv-x="855" vert-adv-y="1406" d="M33 969h115l279 -831l289 831h112l-316 -887q-73 -209 -108 -282q-100 -208 -320 -208q-12 0 -30 1v95h8q121 0 180 57q37 38 61 90q27 60 65 166z" />
<glyph unicode="z" horiz-adv-x="796" vert-adv-y="1406" d="M44 0v85l581 795h-541v89h675v-77l-589 -803h572v-89h-698z" />
<glyph unicode="{" horiz-adv-x="557" vert-adv-y="1406" d="M94 446v74q50 13 82 52q34 44 34 151v324q-1 145 34 218q49 92 172 107q28 4 85 4v-83q-118 -1 -157 -53q-32 -38 -32 -169v-348q-1 -112 -33 -167q-23 -39 -79 -73q56 -34 79 -73q32 -55 33 -167v-347q0 -132 32 -170q40 -53 157 -52v-84h-23q-146 0 -208 73 q-42 49 -55 138q-5 38 -5 118v324q0 107 -34 152q-32 38 -82 51z" />
<glyph unicode="|" vert-adv-y="1406" d="M459 -341v1706h106v-1706h-106z" />
<glyph unicode="}" horiz-adv-x="557" vert-adv-y="1406" d="M56 -326q117 -1 157 53q32 37 32 169v348q1 111 33 166q23 39 79 73q-56 35 -79 73q-32 56 -33 167v348q0 132 -32 169q-39 52 -157 53v83q137 0 204 -47q59 -48 78 -139q9 -49 9 -143v-324q0 -109 34 -151q31 -38 82 -52v-74q-51 -14 -82 -51q-34 -43 -34 -152v-324 q0 -124 -22 -189q-46 -140 -246 -140h-23v84z" />
<glyph unicode="~" horiz-adv-x="1365" vert-adv-y="1406" d="M193 501q37 73 76 121q79 97 194 97q79 0 235 -78q105 -52 142 -62q35 -10 65 -10q74 0 127 53q34 35 73 101l68 -41q-111 -214 -279 -214q-49 0 -129 30q-26 10 -155 73q-95 47 -154 47q-71 0 -124 -56q-35 -38 -72 -104z" />
<glyph horiz-adv-x="1100" vert-adv-y="1406" d="M16 752l40 94h134q31 193 113 313q142 208 391 208q233 0 381 -171l-51 -112q-56 70 -100 105q-103 80 -232 80q-200 0 -308 -193q-49 -86 -73 -230h605l-43 -94h-573q-3 -47 -3 -90q0 -19 1 -40h516l-43 -94h-468q15 -183 92 -298q100 -149 295 -149q151 0 262 88 q63 50 122 153v-171q-64 -65 -120 -97q-126 -71 -289 -71q-271 0 -396 228q-73 133 -91 317h-158l41 94h116q-1 21 -1 33q0 29 4 97h-164z" />
<glyph unicode="&#xa0;" horiz-adv-x="512" vert-adv-y="1406" />
<glyph unicode="&#xa1;" horiz-adv-x="508" vert-adv-y="1406" d="M148 862q0 46 32 76t75 30q42 0 73 -31t31 -74t-30 -74q-31 -32 -75 -32t-76 32q-30 31 -30 73zM195 -398l22 982h83l13 -982h-118z" />
<glyph unicode="&#xa2;" horiz-adv-x="1065" vert-adv-y="1406" d="M175 673q0 305 185 452q58 46 147 66v208h68v-204q137 -3 227 -91q91 -95 93 -250h-109q-9 237 -211 244v-830q112 4 177 105q35 55 44 153h111q-4 -156 -106 -259q-92 -92 -226 -96v-216h-68v220q-90 13 -154 61q-178 136 -178 437zM284 679q0 -150 58 -262 q50 -99 124 -130q15 -6 41 -13v817q-75 -23 -120 -80q-103 -130 -103 -332z" />
<glyph unicode="&#xa3;" horiz-adv-x="1065" vert-adv-y="1406" d="M116 643v100h224q41 265 72 391q36 148 105 202q65 52 161 52q149 0 203 -104q24 -46 29 -151h-108q-6 81 -24 107q-31 47 -102 47q-88 0 -126 -83q-32 -68 -95 -461h303v-100h-319q-67 -404 -144 -550q89 14 195 14q30 0 75 -1q89 -1 111 -1q88 0 124 16q69 31 75 147 h107q2 -129 -77 -204q-59 -54 -160 -61q-27 -3 -128 -3h-471q90 154 176 643h-206z" />
<glyph unicode="&#xa4;" horiz-adv-x="1365" vert-adv-y="1406" d="M130 1206l66 66l188 -188q143 110 299 110q157 0 296 -110l190 188l65 -66l-189 -187q107 -140 107 -295t-106 -292l190 -189l-65 -66l-190 189q-138 -107 -295 -107q-151 0 -298 107l-188 -189l-64 66l185 189q-108 138 -108 294q0 152 108 291zM319 726 q0 -151 107 -258q106 -107 256 -107q151 0 258 108q106 106 106 255q0 155 -106 260q-108 108 -261 108q-147 0 -254 -108q-106 -107 -106 -258z" />
<glyph unicode="&#xa5;" horiz-adv-x="1065" vert-adv-y="1406" d="M52 1365h133l354 -673l348 673h125l-265 -510h206v-83h-249l-87 -167h336v-83h-354l3 -522h-119l2 522h-374v83h356l-92 167h-264v83h219z" />
<glyph unicode="&#xa6;" vert-adv-y="1406" d="M459 314h106v-655h-106v655zM459 694v671h106v-671h-106z" />
<glyph unicode="&#xa7;" vert-adv-y="1406" d="M122 -4h109q9 -106 43 -154q63 -90 201 -90q98 0 156 42q86 60 86 177q0 99 -89 164q-46 34 -194 122q-190 113 -235 163q-57 66 -57 149q0 86 59 150q45 49 132 93q-152 95 -152 238q0 121 87 206q93 92 250 92q201 0 288 -141q48 -78 52 -184h-111q-8 102 -47 154 q-58 78 -184 78q-96 0 -157 -49q-69 -56 -69 -149q0 -84 73 -142q31 -24 198 -119q185 -105 241 -157q64 -61 64 -159q0 -116 -89 -194q-34 -30 -90 -61q58 -46 86 -85q52 -73 52 -166q0 -120 -73 -206q-91 -109 -279 -109q-339 0 -351 337zM251 570q0 -78 103 -145 q113 -75 249 -147q67 28 111 81q42 52 42 115q0 76 -69 124q-101 68 -268 159q-168 -72 -168 -187z" />
<glyph unicode="&#xa8;" vert-adv-y="1406" d="M240 1280q0 42 29 69q29 29 70 29q39 0 67 -29q29 -28 29 -68t-29 -69t-68 -29q-41 0 -69 29q-29 29 -29 68zM588 1280q0 41 29 69q29 29 70 29q39 0 67 -29q29 -28 29 -69q0 -40 -29 -68q-28 -29 -68 -29q-41 0 -69 29q-29 29 -29 68z" />
<glyph unicode="&#xa9;" horiz-adv-x="1643" vert-adv-y="1406" d="M116 684q0 200 104 370q101 167 281 260q151 77 329 77q189 0 360 -105q170 -104 260 -280q77 -151 77 -321q0 -198 -104 -368t-281 -260q-151 -77 -320 -77q-199 0 -369 104q-169 104 -260 281q-77 152 -77 319zM199 684q0 -177 92 -331q92 -152 248 -233 q133 -69 283 -69q257 0 438 185q88 89 136 207q48 116 48 240q0 180 -93 334q-90 149 -248 232q-131 68 -289 68q-167 0 -316 -93q-150 -93 -230 -251q-69 -137 -69 -289zM493 693q0 223 124 338q94 86 229 86q143 0 224 -88q51 -56 66 -151h-88q-40 161 -203 161 q-112 0 -180 -85q-75 -96 -75 -259q0 -179 89 -278q62 -68 167 -68q192 0 217 216h88q-12 -114 -60 -180q-82 -114 -241 -114q-156 0 -254 108q-103 112 -103 314z" />
<glyph unicode="&#xaa;" vert-adv-y="1406" d="M241 579v71h525v-71h-525zM268 920q0 130 149 185q85 31 226 53v34q0 54 -22 81q-31 38 -109 38q-123 0 -141 -106h-82q18 177 225 177q94 0 152 -44q46 -35 53 -110q3 -28 3 -81v-217l-1 -32v-21q0 -64 19 -118h-79q-12 37 -16 71q-42 -51 -78 -68q-44 -20 -100 -20 q-83 0 -135 41q-64 51 -64 137zM351 924q0 -50 37 -83q30 -27 84 -27q96 0 142 73q29 45 29 145v61q-130 -25 -194 -52q-98 -41 -98 -117z" />
<glyph unicode="&#xab;" horiz-adv-x="707" vert-adv-y="1406" d="M98 478l171 489h70l-148 -489l148 -478h-70zM322 478l172 489h69l-148 -489l148 -478h-69z" />
<glyph unicode="&#xac;" vert-adv-y="1406" d="M68 448v99h887v-547h-106v448h-781z" />
<glyph unicode="&#xad;" horiz-adv-x="571" vert-adv-y="1406" d="M0 471v89h571v-89h-571z" />
<glyph unicode="&#xae;" horiz-adv-x="1643" vert-adv-y="1406" d="M116 684q0 200 104 370q101 167 281 260q151 77 329 77q189 0 360 -105q170 -104 260 -280q77 -151 77 -321q0 -198 -104 -368t-281 -260q-151 -77 -320 -77q-199 0 -369 104q-169 104 -260 281q-77 152 -77 319zM199 684q0 -177 92 -331q92 -152 248 -233 q133 -69 283 -69q257 0 438 185q88 89 136 207q48 116 48 240q0 180 -93 334q-90 149 -248 232q-131 68 -289 68q-167 0 -316 -93q-150 -93 -230 -251q-69 -137 -69 -289zM589 271v819h139q159 0 232 -22t115 -84q35 -52 35 -122q0 -164 -181 -221l239 -370h-111l-231 356 h-147v-356h-90zM679 704h52q133 0 183 16q99 32 99 143q0 101 -85 132q-48 18 -195 18h-54v-309z" />
<glyph unicode="&#xaf;" vert-adv-y="1406" d="M0 1648v96h1024v-96h-1024z" />
<glyph unicode="&#xb0;" vert-adv-y="1406" d="M230 1113q0 116 82 194q85 81 204 81q112 0 195 -80q83 -81 83 -194q0 -114 -82 -195q-83 -81 -200 -81t-200 81q-82 81 -82 194zM309 1113q0 -83 59 -141q60 -59 144 -59t144 59q59 59 59 141q0 84 -59 141q-61 59 -146 59q-82 0 -142 -59q-59 -58 -59 -141z" />
<glyph unicode="&#xb1;" horiz-adv-x="1065" vert-adv-y="1406" d="M112 78v83h842v-83h-842zM112 650v78h380v393h83v-393h379v-78h-379v-380h-83v380h-380z" />
<glyph unicode="&#xb2;" horiz-adv-x="705" vert-adv-y="1406" d="M120 532v62l28 35l77 97l88 112q129 163 151 194q44 62 44 116q0 58 -43 88q-40 29 -100 29q-149 0 -158 -179h-85q3 255 247 255q90 0 151 -41q79 -53 79 -151q0 -70 -58 -154q-11 -16 -202 -255l-87 -109l-18 -24h379v-75h-493z" />
<glyph unicode="&#xb3;" horiz-adv-x="705" vert-adv-y="1406" d="M86 744q0 10 1 24h81q3 -168 175 -168q86 0 135 45q46 43 46 120q0 109 -97 146q-36 13 -88 13q-19 0 -45 -3v81q29 -3 46 -3q55 0 96 26q57 37 57 113q0 54 -33 87q-39 39 -112 39q-136 0 -155 -147h-82q6 102 54 153q68 71 186 71q120 0 185 -70q48 -52 48 -128 q0 -117 -110 -173q141 -59 141 -202q0 -133 -106 -203q-64 -42 -162 -42q-122 0 -191 60q-70 62 -70 161z" />
<glyph unicode="&#xb4;" vert-adv-y="1406" d="M458 1144l196 263h170l-270 -263h-96z" />
<glyph unicode="&#xb5;" vert-adv-y="1406" d="M113 -339v1322h106v-571q0 -121 19 -177q37 -106 136 -151q61 -28 128 -28q138 0 223 108q47 60 66 129q15 55 15 142v548h106v-983h-106v197q-42 -95 -91 -142q-88 -83 -217 -83q-119 0 -204 70q-36 29 -75 90v-471h-106z" />
<glyph unicode="&#xb6;" horiz-adv-x="1134" vert-adv-y="1406" d="M39 998q0 124 70 220q70 97 203 129q77 18 206 18h473v-90h-114v-1481h-100v1481h-228v-1481h-99v846h-29q-120 0 -214 53q-77 44 -122 124q-46 82 -46 181z" />
<glyph unicode="&#xb7;" horiz-adv-x="526" vert-adv-y="1406" d="M157 512q0 44 30 74q32 32 76 32q43 0 75 -32q30 -30 30 -74t-32 -75q-31 -30 -74 -30t-74 31t-31 74z" />
<glyph unicode="&#xb8;" vert-adv-y="1406" d="M344 -324q68 -19 104 -19q42 0 69 16q41 25 41 75q0 54 -58 76q-32 12 -100 16l84 160h86l-63 -122q172 -21 172 -143q0 -74 -59 -119q-50 -39 -133 -39q-73 0 -143 28v71z" />
<glyph unicode="&#xb9;" horiz-adv-x="705" vert-adv-y="1406" d="M166 1159v64q81 3 120 27q38 25 53 88h64v-806h-85v627h-152z" />
<glyph unicode="&#xba;" vert-adv-y="1406" d="M249 1060q0 155 84 244q72 78 183 78q105 0 176 -78q84 -90 84 -243q0 -151 -84 -242q-71 -78 -179 -78q-109 0 -180 78q-84 91 -84 241zM250 579v71h525v-71h-525zM332 1061q0 -118 57 -189q48 -59 124 -59t123 59q57 72 57 188q0 121 -57 191q-48 59 -126 59 q-73 0 -121 -59q-57 -71 -57 -190z" />
<glyph unicode="&#xbb;" horiz-adv-x="707" vert-adv-y="1406" d="M144 0l148 489l-148 478h69l172 -478l-172 -489h-69zM368 0l148 489l-148 478h70l171 -478l-171 -489h-70z" />
<glyph unicode="&#xbc;" horiz-adv-x="1655" vert-adv-y="1406" d="M166 1159v64q81 3 120 27q38 25 53 88h64v-806h-85v627h-152zM387 0l781 1331h100l-783 -1331h-98zM1013 199v61l351 546h80v-530h145v-77h-144v-206h-89v206h-343zM1108 276h250l2 396z" />
<glyph unicode="&#xbd;" horiz-adv-x="1655" vert-adv-y="1406" d="M166 1159v64q81 3 120 27q38 25 53 88h64v-806h-85v627h-152zM387 0l781 1331h100l-783 -1331h-98zM1071 0v62q25 31 104 132l88 112q129 162 151 194q44 62 44 116q0 57 -42 88q-41 29 -100 29q-149 0 -158 -179h-85q1 116 49 174q67 81 198 81q88 0 150 -42 q79 -52 79 -150q0 -70 -57 -154q-11 -15 -202 -256l-87 -109l-18 -23h378v-75h-492z" />
<glyph unicode="&#xbe;" horiz-adv-x="1655" vert-adv-y="1406" d="M86 744q0 10 1 24h81q3 -168 175 -168q86 0 135 45q46 43 46 120q0 109 -97 146q-36 13 -88 13q-19 0 -45 -3v81q29 -3 46 -3q55 0 96 26q57 37 57 113q0 54 -33 87q-39 39 -112 39q-136 0 -155 -147h-82q6 102 54 153q68 71 186 71q120 0 185 -70q48 -52 48 -128 q0 -117 -110 -173q141 -59 141 -202q0 -133 -106 -203q-64 -42 -162 -42q-122 0 -191 60q-70 62 -70 161zM387 0l781 1331h100l-783 -1331h-98zM1013 199v61l351 546h79v-530h146v-77h-144v-206h-89v206h-343zM1108 276h250l2 396z" />
<glyph unicode="&#xbf;" horiz-adv-x="840" vert-adv-y="1406" d="M119 -122q0 89 49 163q36 54 128 142q101 97 113 164q6 35 6 155q0 26 -2 75h112q1 -71 1 -134q0 -104 -14 -151q-14 -48 -46 -86q-31 -37 -85 -91q-70 -71 -100 -117q-39 -60 -39 -125q0 -82 56 -128q47 -40 128 -40q127 0 181 83q27 43 36 122h102q-5 -130 -70 -208 q-87 -106 -254 -106q-128 0 -206 63q-96 78 -96 219zM366 862q0 46 32 76t75 30q42 0 73 -31t31 -74t-30 -74q-31 -32 -75 -32t-76 32q-30 31 -30 73z" />
<glyph unicode="&#xc0;" horiz-adv-x="1134" vert-adv-y="1406" d="M49 0l473 1377h90l473 -1377h-122l-134 388h-524l-135 -388h-121zM225 1758h170l264 -262h-119zM338 490h457l-228 720z" />
<glyph unicode="&#xc1;" horiz-adv-x="1134" vert-adv-y="1406" d="M49 0l473 1377h90l473 -1377h-122l-134 388h-524l-135 -388h-121zM338 490h457l-228 720zM474 1496l264 262h170l-315 -262h-119z" />
<glyph unicode="&#xc2;" horiz-adv-x="1134" vert-adv-y="1406" d="M49 0l473 1377h90l473 -1377h-122l-134 388h-524l-135 -388h-121zM231 1496l261 262h151l261 -262h-109l-228 188l-227 -188h-109zM338 490h457l-228 720z" />
<glyph unicode="&#xc3;" horiz-adv-x="1134" vert-adv-y="1406" d="M49 0l473 1377h90l473 -1377h-122l-134 388h-524l-135 -388h-121zM247 1548q15 64 35 104q47 89 146 89q68 0 156 -59q46 -30 71 -46q35 -20 70 -20q50 0 78 53q14 28 20 78l78 -35q-8 -66 -29 -104q-21 -41 -60 -66q-43 -28 -91 -28q-46 0 -88 22q-39 20 -89 53 q-72 49 -115 49q-75 0 -103 -124zM338 490h457l-228 720z" />
<glyph unicode="&#xc4;" horiz-adv-x="1134" vert-adv-y="1406" d="M49 0l473 1377h90l473 -1377h-122l-134 388h-524l-135 -388h-121zM282 1627q0 44 31 74q32 31 75 31q42 0 73 -31q31 -30 31 -74q0 -43 -31 -74t-74 -31t-74 31t-31 74zM338 490h457l-228 720zM642 1627q0 44 31 74q32 31 75 31q42 0 73 -31t31 -74t-31 -74t-74 -31 t-74 31t-31 74z" />
<glyph unicode="&#xc5;" horiz-adv-x="1134" vert-adv-y="1406" d="M49 0l473 1377h90l473 -1377h-122l-134 388h-524l-135 -388h-121zM338 490h457l-228 720zM383 1644q0 77 54 130q55 54 132 54q74 0 128 -54t54 -130t-54 -130t-130 -54t-130 54t-54 130zM465 1644q0 -42 30 -72t72 -30t72 30t30 72q0 43 -30 72q-31 30 -73 30 q-41 0 -71 -30t-30 -72z" />
<glyph unicode="&#xc6;" horiz-adv-x="1702" vert-adv-y="1406" d="M48 0l771 1365h783v-102h-594v-504h547v-103h-547v-554h594v-102h-715v390h-488l-218 -390h-133zM456 493h431v773z" />
<glyph unicode="&#xc7;" horiz-adv-x="1233" vert-adv-y="1406" d="M116 683q0 391 217 585q133 120 328 120q224 0 349 -146q77 -90 99 -233h-115q-66 274 -332 274q-173 0 -276 -121q-143 -170 -143 -481q0 -305 146 -480q100 -120 272 -120q206 0 297 165q49 89 62 203h113q-20 -222 -138 -343q-133 -133 -320 -129l-50 -121 q186 -18 186 -159q0 -78 -60 -126q-54 -43 -146 -43q-70 0 -147 26v77q64 -18 104 -18q45 0 74 18q45 27 45 78q0 57 -59 79q-33 11 -108 13l75 180q-159 33 -245 105q-111 93 -170 246q-58 151 -58 351z" />
<glyph unicode="&#xc8;" horiz-adv-x="1004" vert-adv-y="1406" d="M180 0v1365h715v-102h-599v-505h558v-102h-558v-554h608v-102h-724zM230 1758h170l264 -262h-119z" />
<glyph unicode="&#xc9;" horiz-adv-x="1004" vert-adv-y="1406" d="M180 0v1365h715v-102h-599v-505h558v-102h-558v-554h608v-102h-724zM411 1496l264 262h170l-315 -262h-119z" />
<glyph unicode="&#xca;" horiz-adv-x="1004" vert-adv-y="1406" d="M180 0v1365h715v-102h-599v-505h558v-102h-558v-554h608v-102h-724zM206 1496l261 262h151l261 -262h-109l-228 188l-227 -188h-109z" />
<glyph unicode="&#xcb;" horiz-adv-x="1004" vert-adv-y="1406" d="M180 0v1365h715v-102h-599v-505h558v-102h-558v-554h608v-102h-724zM257 1627q0 44 31 74q32 31 75 31q42 0 73 -31q31 -30 31 -74q0 -43 -31 -74t-74 -31t-74 31t-31 74zM617 1627q0 44 31 74q32 31 75 31q42 0 73 -31t31 -74t-31 -74t-74 -31t-74 31t-31 74z" />
<glyph unicode="&#xcc;" horiz-adv-x="476" vert-adv-y="1406" d="M-98 1758h170l264 -262h-119zM177 0v1365h122v-1365h-122z" />
<glyph unicode="&#xcd;" horiz-adv-x="476" vert-adv-y="1406" d="M177 0v1365h122v-1365h-122zM185 1496l264 262h170l-315 -262h-119z" />
<glyph unicode="&#xce;" horiz-adv-x="476" vert-adv-y="1406" d="M-84 1496l261 262h151l261 -262h-109l-228 188l-227 -188h-109zM177 0v1365h122v-1365h-122z" />
<glyph unicode="&#xcf;" horiz-adv-x="476" vert-adv-y="1406" d="M-1 1627q0 43 30 73q31 30 74 30q41 0 72 -30q30 -30 30 -73q0 -42 -30 -73q-31 -30 -73 -30t-73 30q-30 31 -30 73zM177 0v1365h122v-1365h-122zM272 1628q0 43 30 73q31 30 74 30q41 0 72 -30q30 -30 30 -73q0 -42 -30 -73q-31 -30 -73 -30t-73 30q-30 31 -30 73z" />
<glyph unicode="&#xd0;" horiz-adv-x="1270" vert-adv-y="1406" d="M43 667v96h137v602h173q186 0 274 -11q267 -32 408 -245q119 -181 119 -426q0 -277 -145 -461q-147 -187 -390 -212q-93 -10 -274 -10h-165v667h-137zM296 102h93q152 0 220 8q137 17 242 108q175 153 175 463q0 274 -137 432q-104 118 -271 140q-77 10 -258 10h-64v-500 h368v-96h-368v-565z" />
<glyph unicode="&#xd1;" horiz-adv-x="1285" vert-adv-y="1406" d="M180 0v1365h129l688 -1195v1195h108v-1365h-135l-680 1191v-1191h-110zM330 1548q15 64 35 104q47 89 146 89q68 0 156 -59q46 -30 71 -46q35 -20 70 -20q50 0 78 53q14 28 20 78l78 -35q-8 -66 -29 -104q-21 -41 -60 -66q-43 -28 -91 -28q-46 0 -88 22q-39 20 -89 53 q-72 49 -115 49q-75 0 -103 -124z" />
<glyph unicode="&#xd2;" horiz-adv-x="1305" vert-adv-y="1406" d="M116 680q0 318 156 518q148 190 388 190q147 0 271 -90q135 -99 204 -287q54 -149 54 -329q0 -311 -156 -515q-75 -98 -184 -148q-92 -42 -197 -42q-154 0 -278 90q-135 98 -204 287q-54 148 -54 326zM243 682q0 -255 117 -434q109 -166 292 -166t292 166 q117 179 117 432q0 263 -117 437q-112 166 -298 166q-110 0 -201 -73q-108 -86 -162 -258q-40 -125 -40 -270zM354 1758h170l264 -262h-119z" />
<glyph unicode="&#xd3;" horiz-adv-x="1305" vert-adv-y="1406" d="M116 680q0 318 156 518q148 190 388 190q147 0 271 -90q135 -99 204 -287q54 -149 54 -329q0 -311 -156 -515q-75 -98 -184 -148q-92 -42 -197 -42q-154 0 -278 90q-135 98 -204 287q-54 148 -54 326zM243 682q0 -255 117 -434q109 -166 292 -166t292 166 q117 179 117 432q0 263 -117 437q-112 166 -298 166q-110 0 -201 -73q-108 -86 -162 -258q-40 -125 -40 -270zM521 1496l264 262h170l-315 -262h-119z" />
<glyph unicode="&#xd4;" horiz-adv-x="1305" vert-adv-y="1406" d="M116 680q0 318 156 518q148 190 388 190q147 0 271 -90q135 -99 204 -287q54 -149 54 -329q0 -311 -156 -515q-75 -98 -184 -148q-92 -42 -197 -42q-154 0 -278 90q-135 98 -204 287q-54 148 -54 326zM243 682q0 -255 117 -434q109 -166 292 -166t292 166 q117 179 117 432q0 263 -117 437q-112 166 -298 166q-110 0 -201 -73q-108 -86 -162 -258q-40 -125 -40 -270zM316 1496l261 262h151l261 -262h-109l-228 188l-227 -188h-109z" />
<glyph unicode="&#xd5;" horiz-adv-x="1305" vert-adv-y="1406" d="M116 680q0 318 156 518q148 190 388 190q147 0 271 -90q135 -99 204 -287q54 -149 54 -329q0 -311 -156 -515q-75 -98 -184 -148q-92 -42 -197 -42q-154 0 -278 90q-135 98 -204 287q-54 148 -54 326zM243 682q0 -255 117 -434q109 -166 292 -166t292 166 q117 179 117 432q0 263 -117 437q-112 166 -298 166q-110 0 -201 -73q-108 -86 -162 -258q-40 -125 -40 -270zM339 1548q15 64 35 104q47 89 146 89q68 0 156 -59q46 -30 71 -46q35 -20 70 -20q50 0 78 53q14 28 20 78l78 -35q-8 -66 -29 -104q-21 -41 -60 -66 q-43 -28 -91 -28q-46 0 -88 22q-39 20 -89 53q-72 49 -115 49q-75 0 -103 -124z" />
<glyph unicode="&#xd6;" horiz-adv-x="1305" vert-adv-y="1406" d="M116 680q0 318 156 518q148 190 388 190q147 0 271 -90q135 -99 204 -287q54 -149 54 -329q0 -311 -156 -515q-75 -98 -184 -148q-92 -42 -197 -42q-154 0 -278 90q-135 98 -204 287q-54 148 -54 326zM243 682q0 -255 117 -434q109 -166 292 -166t292 166 q117 179 117 432q0 263 -117 437q-112 166 -298 166q-110 0 -201 -73q-108 -86 -162 -258q-40 -125 -40 -270zM368 1627q0 44 31 74q32 31 75 31q42 0 73 -31q31 -30 31 -74q0 -43 -31 -74t-74 -31t-74 31t-31 74zM728 1627q0 44 31 74q32 31 75 31q42 0 73 -31t31 -74 t-31 -74t-74 -31t-74 31t-31 74z" />
<glyph unicode="&#xd7;" horiz-adv-x="1065" vert-adv-y="1406" d="M181 981l58 59l294 -294l293 293l56 -57l-292 -293l293 -293l-58 -58l-294 293l-292 -293l-57 57l293 293z" />
<glyph unicode="&#xd8;" horiz-adv-x="1305" vert-adv-y="1406" d="M115 662q0 341 173 551q78 94 191 140q85 35 180 35q182 0 328 -128l71 105h101l-114 -170q144 -194 144 -493q0 -342 -173 -550q-77 -94 -191 -140q-85 -35 -180 -35q-188 0 -329 129l-71 -106h-100l113 170q-143 200 -143 492zM242 658q0 -219 87 -383l594 889 q-111 119 -263 119q-118 0 -214 -75q-103 -81 -158 -242q-46 -136 -46 -308zM380 202q110 -121 264 -121q137 0 242 99q124 116 162 352q14 87 14 179q0 219 -87 379z" />
<glyph unicode="&#xd9;" horiz-adv-x="1246" vert-adv-y="1406" d="M159 553v812h116v-810q1 -154 6 -200q10 -110 64 -170q53 -60 149 -86q63 -17 129 -17q118 0 208 49q86 46 116 132q22 63 22 186l1 106v810h116v-812q0 -162 -5 -218q-11 -124 -82 -210q-124 -148 -377 -148q-251 0 -375 148q-72 86 -83 210q-5 56 -5 218zM319 1758h170 l264 -262h-119z" />
<glyph unicode="&#xda;" horiz-adv-x="1246" vert-adv-y="1406" d="M159 553v812h116v-810q1 -154 6 -200q10 -110 64 -170q53 -60 149 -86q63 -17 129 -17q118 0 208 49q86 46 116 132q22 63 22 186l1 106v810h116v-812q0 -162 -5 -218q-11 -124 -82 -210q-124 -148 -377 -148q-251 0 -375 148q-72 86 -83 210q-5 56 -5 218zM491 1496 l264 262h170l-315 -262h-119z" />
<glyph unicode="&#xdb;" horiz-adv-x="1246" vert-adv-y="1406" d="M159 553v812h116v-810q1 -154 6 -200q10 -110 64 -170q53 -60 149 -86q63 -17 129 -17q118 0 208 49q86 46 116 132q22 63 22 186l1 106v810h116v-812q0 -162 -5 -218q-11 -124 -82 -210q-124 -148 -377 -148q-251 0 -375 148q-72 86 -83 210q-5 56 -5 218zM286 1496 l261 262h151l261 -262h-109l-228 188l-227 -188h-109z" />
<glyph unicode="&#xdc;" horiz-adv-x="1246" vert-adv-y="1406" d="M159 553v812h116v-810q1 -154 6 -200q10 -110 64 -170q53 -60 149 -86q63 -17 129 -17q118 0 208 49q86 46 116 132q22 63 22 186l1 106v810h116v-812q0 -162 -5 -218q-11 -124 -82 -210q-124 -148 -377 -148q-251 0 -375 148q-72 86 -83 210q-5 56 -5 218zM338 1627 q0 44 31 74q32 31 75 31q42 0 73 -31q31 -30 31 -74q0 -43 -31 -74t-74 -31t-74 31t-31 74zM698 1627q0 44 31 74q32 31 75 31q42 0 73 -31t31 -74t-31 -74t-74 -31t-74 31t-31 74z" />
<glyph unicode="&#xdd;" horiz-adv-x="1014" vert-adv-y="1406" d="M32 1365h137l340 -669l336 669h137l-420 -780l3 -585h-116l3 585zM376 1496l264 262h170l-315 -262h-119z" />
<glyph unicode="&#xde;" horiz-adv-x="1050" vert-adv-y="1406" d="M180 0v1365h116v-159h78q267 0 373 -35q118 -40 185 -151q53 -89 53 -215q0 -155 -82 -254q-89 -107 -256 -127q-84 -10 -245 -10h-106v-414h-116zM296 516h102q174 0 258 18q201 41 201 272q0 132 -72 209q-61 66 -182 80q-72 9 -232 9h-75v-588z" />
<glyph unicode="&#xdf;" horiz-adv-x="1009" vert-adv-y="1406" d="M148 0v874q0 187 15 266q22 112 111 176q86 61 211 61q147 0 238 -83q98 -91 98 -236q0 -220 -246 -287q334 -57 334 -384q0 -190 -113 -303q-98 -98 -235 -98q-65 0 -147 32v101q72 -36 148 -36q102 0 166 80q69 88 69 228q0 213 -189 292q-99 41 -230 43v92 q28 -1 43 -1q123 0 197 52q91 64 91 183q0 108 -65 171q-60 58 -161 58q-153 0 -200 -115q-22 -53 -27 -139q-2 -21 -2 -152v-875h-106z" />
<glyph unicode="&#xe0;" horiz-adv-x="949" vert-adv-y="1406" d="M100 254q0 207 228 291q140 52 362 86v51q0 107 -37 152q-53 65 -176 65q-203 0 -233 -172h-111q13 115 82 182q90 87 263 87q145 0 233 -69q71 -56 81 -173q4 -45 4 -131v-355l-1 -83q0 -105 26 -185h-106q-18 58 -25 137q-89 -161 -286 -161q-126 0 -207 65 q-97 77 -97 213zM212 258q0 -85 61 -139q53 -46 139 -46q156 0 232 123q46 75 46 240v110q-214 -42 -318 -87q-160 -69 -160 -201zM229 1407h170l196 -263h-96z" />
<glyph unicode="&#xe1;" horiz-adv-x="949" vert-adv-y="1406" d="M100 254q0 207 228 291q140 52 362 86v51q0 107 -37 152q-53 65 -176 65q-203 0 -233 -172h-111q13 115 82 182q90 87 263 87q145 0 233 -69q71 -56 81 -173q4 -45 4 -131v-355l-1 -83q0 -105 26 -185h-106q-18 58 -25 137q-89 -161 -286 -161q-126 0 -207 65 q-97 77 -97 213zM212 258q0 -85 61 -139q53 -46 139 -46q156 0 232 123q46 75 46 240v110q-214 -42 -318 -87q-160 -69 -160 -201zM370 1144l196 263h170l-270 -263h-96z" />
<glyph unicode="&#xe2;" horiz-adv-x="949" vert-adv-y="1406" d="M100 254q0 207 228 291q140 52 362 86v51q0 107 -37 152q-53 65 -176 65q-203 0 -233 -172h-111q13 115 82 182q90 87 263 87q145 0 233 -69q71 -56 81 -173q4 -45 4 -131v-355l-1 -83q0 -105 26 -185h-106q-18 58 -25 137q-89 -161 -286 -161q-126 0 -207 65 q-97 77 -97 213zM181 1145l226 279h152l227 -279h-110l-193 199l-193 -199h-109zM212 258q0 -85 61 -139q53 -46 139 -46q156 0 232 123q46 75 46 240v110q-214 -42 -318 -87q-160 -69 -160 -201z" />
<glyph unicode="&#xe3;" horiz-adv-x="949" vert-adv-y="1406" d="M100 254q0 207 228 291q140 52 362 86v51q0 107 -37 152q-53 65 -176 65q-203 0 -233 -172h-111q13 115 82 182q90 87 263 87q145 0 233 -69q71 -56 81 -173q4 -45 4 -131v-355l-1 -83q0 -105 26 -185h-106q-18 58 -25 137q-89 -161 -286 -161q-126 0 -207 65 q-97 77 -97 213zM178 1179q36 211 170 211q61 0 139 -60q44 -33 75 -51q25 -15 52 -15q71 0 88 131l80 -18q-10 -88 -45 -144q-46 -73 -120 -73q-66 0 -153 66q-81 61 -119 61q-66 0 -91 -124zM212 258q0 -85 61 -139q53 -46 139 -46q156 0 232 123q46 75 46 240v110 q-214 -42 -318 -87q-160 -69 -160 -201z" />
<glyph unicode="&#xe4;" horiz-adv-x="949" vert-adv-y="1406" d="M100 254q0 207 228 291q140 52 362 86v51q0 107 -37 152q-53 65 -176 65q-203 0 -233 -172h-111q13 115 82 182q90 87 263 87q145 0 233 -69q71 -56 81 -173q4 -45 4 -131v-355l-1 -83q0 -105 26 -185h-106q-18 58 -25 137q-89 -161 -286 -161q-126 0 -207 65 q-97 77 -97 213zM209 1280q0 42 29 69q29 29 70 29q39 0 67 -29q29 -28 29 -68t-29 -69t-68 -29q-41 0 -69 29q-29 29 -29 68zM212 258q0 -85 61 -139q53 -46 139 -46q156 0 232 123q46 75 46 240v110q-214 -42 -318 -87q-160 -69 -160 -201zM557 1280q0 41 29 69 q29 29 70 29q39 0 67 -29q29 -28 29 -69q0 -40 -29 -68q-28 -29 -68 -29q-41 0 -69 29q-29 29 -29 68z" />
<glyph unicode="&#xe5;" horiz-adv-x="949" vert-adv-y="1406" d="M100 254q0 207 228 291q140 52 362 86v51q0 107 -37 152q-53 65 -176 65q-203 0 -233 -172h-111q13 115 82 182q90 87 263 87q145 0 233 -69q71 -56 81 -173q4 -45 4 -131v-355l-1 -83q0 -105 26 -185h-106q-18 58 -25 137q-89 -161 -286 -161q-126 0 -207 65 q-97 77 -97 213zM212 258q0 -85 61 -139q53 -46 139 -46q156 0 232 123q46 75 46 240v110q-214 -42 -318 -87q-160 -69 -160 -201zM297 1296q0 77 54 130q55 54 132 54q74 0 128 -54t54 -130t-54 -130t-130 -54t-130 54q-54 55 -54 130zM379 1296q0 -42 30 -72t72 -30t72 30 t30 72q0 43 -30 72q-30 30 -73 30q-41 0 -71 -30t-30 -72z" />
<glyph unicode="&#xe6;" horiz-adv-x="1547" vert-adv-y="1406" d="M100 236q0 163 167 255q71 40 192 61q86 15 175 15q13 0 42 -1v67q0 146 -30 192q-47 74 -171 74q-193 0 -245 -181h-100q19 115 92 186q95 92 253 92q166 0 244 -84q36 -39 50 -100q104 184 304 184q178 0 282 -143q49 -67 75 -175q18 -78 18 -159q0 -14 -1 -42h-658 q2 -177 59 -269q83 -135 241 -135q160 0 240 159l103 -19q-24 -79 -82 -137q-99 -100 -261 -100q-153 0 -257 92q-57 50 -91 120q-49 -86 -98 -128q-97 -84 -239 -84q-120 0 -204 61q-100 73 -100 199zM212 238q0 -77 57 -121q56 -44 141 -44q154 0 226 124q40 68 40 196v84 q-142 1 -243 -23q-221 -53 -221 -216zM793 566h531q-3 134 -53 216q-71 117 -201 117q-139 0 -221 -143q-44 -79 -56 -190z" />
<glyph unicode="&#xe7;" horiz-adv-x="955" vert-adv-y="1406" d="M100 479q0 281 156 424q101 93 249 93q189 0 282 -147q47 -76 58 -193h-105q-15 96 -59 155q-64 88 -180 88q-122 0 -195 -94q-95 -122 -95 -323q0 -216 109 -332q73 -78 186 -78q129 0 194 105q37 60 46 151h110q-14 -174 -120 -275q-40 -37 -80 -52t-128 -26l-43 -96 q172 -22 172 -143q0 -74 -59 -119q-50 -39 -133 -39q-73 0 -143 28v71q67 -19 104 -19q42 0 69 17q41 24 41 74q0 54 -58 76q-32 12 -100 16l69 139q-99 20 -171 71q-76 54 -119 145q-57 120 -57 283z" />
<glyph unicode="&#xe8;" horiz-adv-x="975" vert-adv-y="1406" d="M100 473q0 277 142 421q102 103 256 103q117 0 206 -65q103 -76 142 -217q29 -101 29 -198q0 -14 -1 -45h-662q4 -173 62 -270q77 -129 233 -129q110 0 178 68q28 29 61 91l103 -19q-90 -237 -341 -237q-185 0 -295 128q-113 131 -113 369zM216 561h544q-7 116 -48 197 q-72 142 -219 142q-144 0 -221 -141q-44 -79 -56 -198zM249 1407h170l196 -263h-96z" />
<glyph unicode="&#xe9;" horiz-adv-x="975" vert-adv-y="1406" d="M100 473q0 277 142 421q102 103 256 103q117 0 206 -65q103 -76 142 -217q29 -101 29 -198q0 -14 -1 -45h-662q4 -173 62 -270q77 -129 233 -129q110 0 178 68q28 29 61 91l103 -19q-90 -237 -341 -237q-185 0 -295 128q-113 131 -113 369zM216 561h544q-7 116 -48 197 q-72 142 -219 142q-144 0 -221 -141q-44 -79 -56 -198zM392 1144l196 263h170l-270 -263h-96z" />
<glyph unicode="&#xea;" horiz-adv-x="975" vert-adv-y="1406" d="M100 473q0 277 142 421q102 103 256 103q117 0 206 -65q103 -76 142 -217q29 -101 29 -198q0 -14 -1 -45h-662q4 -173 62 -270q77 -129 233 -129q110 0 178 68q28 29 61 91l103 -19q-90 -237 -341 -237q-185 0 -295 128q-113 131 -113 369zM205 1145l226 279h152 l227 -279h-110l-193 199l-193 -199h-109zM216 561h544q-7 116 -48 197q-72 142 -219 142q-144 0 -221 -141q-44 -79 -56 -198z" />
<glyph unicode="&#xeb;" horiz-adv-x="975" vert-adv-y="1406" d="M100 473q0 277 142 421q102 103 256 103q117 0 206 -65q103 -76 142 -217q29 -101 29 -198q0 -14 -1 -45h-662q4 -173 62 -270q77 -129 233 -129q110 0 178 68q28 29 61 91l103 -19q-90 -237 -341 -237q-185 0 -295 128q-113 131 -113 369zM216 561h544q-7 116 -48 197 q-72 142 -219 142q-144 0 -221 -141q-44 -79 -56 -198zM236 1280q0 42 29 69q29 29 70 29q39 0 67 -29q29 -28 29 -68t-29 -69t-68 -29q-41 0 -69 29q-29 29 -29 68zM584 1280q0 41 29 69q29 29 70 29q39 0 67 -29q29 -28 29 -69q0 -40 -29 -68q-28 -29 -68 -29 q-41 0 -69 29q-29 29 -29 68z" />
<glyph unicode="&#xec;" horiz-adv-x="424" vert-adv-y="1406" d="M-67 1407h170l196 -263h-96zM154 0v969h117v-969h-117z" />
<glyph unicode="&#xed;" horiz-adv-x="424" vert-adv-y="1406" d="M154 0v969h117v-969h-117zM158 1144l196 263h170l-270 -263h-96z" />
<glyph unicode="&#xee;" horiz-adv-x="424" vert-adv-y="1406" d="M-90 1145l226 279h152l227 -279h-110l-193 199l-193 -199h-109zM154 0v969h117v-969h-117z" />
<glyph unicode="&#xef;" horiz-adv-x="424" vert-adv-y="1406" d="M-15 1280q0 41 28 69q29 28 70 28q38 0 67 -28q28 -29 28 -68q0 -40 -28 -69q-29 -28 -68 -28q-40 0 -69 28q-28 29 -28 68zM153 0v969h117v-969h-117zM246 1280q0 41 28 69q29 28 70 28q38 0 67 -28q28 -29 28 -68q0 -40 -28 -69q-29 -28 -68 -28q-40 0 -69 28 q-28 29 -28 68z" />
<glyph unicode="&#xf0;" horiz-adv-x="1010" vert-adv-y="1406" d="M100 481q0 266 141 406q65 65 157 94q51 16 98 16q48 0 110 -24l-126 169l-152 -88l-47 73l153 88l-87 118l73 40l97 -112l154 90l44 -75l-146 -83q26 -32 94 -120q124 -160 158 -220q89 -157 89 -354q0 -256 -133 -405q-106 -118 -269 -118q-169 0 -279 122 q-129 144 -129 383zM212 485q0 -196 93 -315q77 -97 202 -97q123 0 197 96q95 123 95 312q0 211 -101 336q-67 83 -188 83q-117 0 -193 -84q-105 -118 -105 -331z" />
<glyph unicode="&#xf1;" horiz-adv-x="1005" vert-adv-y="1406" d="M131 969h103q20 -55 20 -146q96 173 298 173q141 0 222 -75q67 -62 78 -178q5 -47 5 -187v-556h-106v563q0 107 -4 142q-11 103 -60 147q-53 48 -143 48q-148 0 -229 -119q-55 -82 -55 -225v-556h-106v645q0 193 -6 241q-5 37 -17 83zM180 1179q36 211 170 211 q61 0 139 -60q44 -33 75 -51q25 -15 52 -15q71 0 88 131l80 -18q-10 -88 -45 -144q-46 -73 -120 -73q-66 0 -153 66q-81 61 -119 61q-66 0 -91 -124z" />
<glyph unicode="&#xf2;" horiz-adv-x="1010" vert-adv-y="1406" d="M100 483q0 247 128 391q110 123 282 123q162 0 272 -123q128 -144 128 -389q0 -243 -128 -387q-109 -122 -277 -122t-277 122q-128 144 -128 385zM212 485q0 -194 92 -314q76 -98 201 -98q127 0 202 98q92 121 92 312q0 198 -92 317q-77 100 -205 100q-122 0 -198 -100 q-92 -120 -92 -315zM246 1407h170l196 -263h-96z" />
<glyph unicode="&#xf3;" horiz-adv-x="1010" vert-adv-y="1406" d="M100 483q0 247 128 391q110 123 282 123q162 0 272 -123q128 -144 128 -389q0 -243 -128 -387q-109 -122 -277 -122t-277 122q-128 144 -128 385zM212 485q0 -194 92 -314q76 -98 201 -98q127 0 202 98q92 121 92 312q0 198 -92 317q-77 100 -205 100q-122 0 -198 -100 q-92 -120 -92 -315zM403 1144l196 263h170l-270 -263h-96z" />
<glyph unicode="&#xf4;" horiz-adv-x="1010" vert-adv-y="1406" d="M100 483q0 247 128 391q110 123 282 123q162 0 272 -123q128 -144 128 -389q0 -243 -128 -387q-109 -122 -277 -122t-277 122q-128 144 -128 385zM203 1145l226 279h152l227 -279h-110l-193 199l-193 -199h-109zM212 485q0 -194 92 -314q76 -98 201 -98q127 0 202 98 q92 121 92 312q0 198 -92 317q-77 100 -205 100q-122 0 -198 -100q-92 -120 -92 -315z" />
<glyph unicode="&#xf5;" horiz-adv-x="1010" vert-adv-y="1406" d="M100 483q0 247 128 391q110 123 282 123q162 0 272 -123q128 -144 128 -389q0 -243 -128 -387q-109 -122 -277 -122t-277 122q-128 144 -128 385zM212 485q0 -194 92 -314q76 -98 201 -98q127 0 202 98q92 121 92 312q0 198 -92 317q-77 100 -205 100q-122 0 -198 -100 q-92 -120 -92 -315zM219 1179q36 211 170 211q61 0 139 -60q44 -33 75 -51q25 -15 52 -15q71 0 88 131l80 -18q-10 -88 -45 -144q-46 -73 -120 -73q-66 0 -153 66q-81 61 -119 61q-66 0 -91 -124z" />
<glyph unicode="&#xf6;" horiz-adv-x="1010" vert-adv-y="1406" d="M100 483q0 247 128 391q110 123 282 123q162 0 272 -123q128 -144 128 -389q0 -243 -128 -387q-109 -122 -277 -122t-277 122q-128 144 -128 385zM212 485q0 -194 92 -314q76 -98 201 -98q127 0 202 98q92 121 92 312q0 198 -92 317q-77 100 -205 100q-122 0 -198 -100 q-92 -120 -92 -315zM233 1280q0 42 29 69q29 29 70 29q39 0 67 -29q29 -28 29 -68t-29 -69t-68 -29q-41 0 -69 29q-29 29 -29 68zM581 1280q0 41 29 69q29 29 70 29q39 0 67 -29q29 -28 29 -69q0 -40 -29 -68q-28 -29 -68 -29q-41 0 -69 29q-29 29 -29 68z" />
<glyph unicode="&#xf7;" horiz-adv-x="1065" vert-adv-y="1406" d="M112 647v83h842v-83h-842zM447 412q0 35 24 60q26 26 62 26q35 0 60 -26q25 -25 25 -60q0 -36 -26 -61q-25 -24 -60 -24t-60 25t-25 60zM447 953q0 36 24 60q26 26 62 26q35 0 60 -26q25 -25 25 -60q0 -36 -26 -60q-25 -25 -60 -25t-60 25t-25 60z" />
<glyph unicode="&#xf8;" horiz-adv-x="1010" vert-adv-y="1406" d="M80 0l110 140q-90 143 -90 333q0 259 143 410q107 114 265 114q156 0 268 -112l64 82h91l-109 -140q89 -138 89 -332q0 -257 -143 -407q-108 -112 -268 -112q-155 0 -262 103l-62 -79h-96zM211 465q0 -132 49 -235l450 572q-81 98 -200 98q-166 0 -250 -180 q-49 -104 -49 -255zM303 162q75 -90 197 -90q166 0 250 177q49 103 49 251q0 135 -48 237z" />
<glyph unicode="&#xf9;" horiz-adv-x="979" vert-adv-y="1406" d="M149 369v600h106v-605q0 -153 33 -206q54 -85 177 -85q135 0 209 115q46 72 46 223v558h106v-675q0 -129 1 -167q3 -72 21 -127h-107q-21 62 -21 138q-35 -71 -79 -108q-67 -54 -176 -54q-116 0 -197 58q-93 66 -112 184q-7 46 -7 151zM233 1407h170l196 -263h-96z" />
<glyph unicode="&#xfa;" horiz-adv-x="979" vert-adv-y="1406" d="M149 369v600h106v-605q0 -153 33 -206q54 -85 177 -85q135 0 209 115q46 72 46 223v558h106v-675q0 -129 1 -167q3 -72 21 -127h-107q-21 62 -21 138q-35 -71 -79 -108q-67 -54 -176 -54q-116 0 -197 58q-93 66 -112 184q-7 46 -7 151zM376 1144l196 263h170l-270 -263 h-96z" />
<glyph unicode="&#xfb;" horiz-adv-x="979" vert-adv-y="1406" d="M149 369v600h106v-605q0 -153 33 -206q54 -85 177 -85q135 0 209 115q46 72 46 223v558h106v-675q0 -129 1 -167q3 -72 21 -127h-107q-21 62 -21 138q-35 -71 -79 -108q-67 -54 -176 -54q-116 0 -197 58q-93 66 -112 184q-7 46 -7 151zM188 1145l226 279h152l227 -279 h-110l-193 199l-193 -199h-109z" />
<glyph unicode="&#xfc;" horiz-adv-x="979" vert-adv-y="1406" d="M149 369v600h106v-605q0 -153 33 -206q54 -85 177 -85q135 0 209 115q46 72 46 223v558h106v-675q0 -129 1 -167q3 -72 21 -127h-107q-21 62 -21 138q-35 -71 -79 -108q-67 -54 -176 -54q-116 0 -197 58q-93 66 -112 184q-7 46 -7 151zM216 1280q0 42 29 69q29 29 70 29 q39 0 67 -29q29 -28 29 -68t-29 -69t-68 -29q-41 0 -69 29q-29 29 -29 68zM564 1280q0 41 29 69q29 29 70 29q39 0 67 -29q29 -28 29 -69q0 -40 -29 -68q-28 -29 -68 -29q-41 0 -69 29q-29 29 -29 68z" />
<glyph unicode="&#xfd;" horiz-adv-x="855" vert-adv-y="1406" d="M33 969h115l279 -831l289 831h112l-316 -887q-73 -209 -108 -282q-100 -208 -320 -208q-12 0 -30 1v95q127 -2 188 57q37 38 61 90q27 60 65 166zM322 1144l196 263h170l-270 -263h-96z" />
<glyph unicode="&#xfe;" horiz-adv-x="1012" vert-adv-y="1406" d="M154 -404v1775h106v-553q44 76 87 113q78 66 189 66q134 0 222 -85q155 -149 155 -432q0 -256 -127 -401q-91 -103 -239 -103q-185 0 -287 168v-548h-106zM258 486q0 -195 88 -313q76 -100 197 -100q108 0 171 83q88 118 88 317q0 230 -104 354q-60 73 -166 73 q-115 0 -183 -93q-91 -125 -91 -321z" />
<glyph unicode="&#xff;" horiz-adv-x="855" vert-adv-y="1406" d="M33 969h115l279 -831l289 831h112l-316 -887q-73 -209 -108 -282q-100 -208 -320 -208q-12 0 -30 1v95q127 -2 188 57q37 38 61 90q27 60 65 166zM159 1280q0 42 29 69q29 29 70 29q39 0 67 -29q29 -28 29 -68t-29 -69t-68 -29q-41 0 -69 29q-29 29 -29 68zM507 1280 q0 41 29 69q29 29 70 29q39 0 67 -29q29 -28 29 -69q0 -40 -29 -68q-28 -29 -68 -29q-41 0 -69 29q-29 29 -29 68z" />
<glyph unicode="&#x152;" horiz-adv-x="1881" vert-adv-y="1406" d="M116 679q0 356 184 556q142 153 366 153q242 0 400 -221v198h706v-102h-590v-505h549v-102h-549v-554h599v-102h-715v200q-151 -223 -400 -223q-248 0 -398 191q-152 194 -152 511zM243 679q0 -327 164 -495q100 -103 253 -103q94 0 175 46q117 66 179 237q50 138 50 314 q0 339 -164 508q-95 97 -250 97q-144 0 -241 -100q-166 -172 -166 -504z" />
<glyph unicode="&#x153;" horiz-adv-x="1663" vert-adv-y="1406" d="M100 481q0 258 139 402q109 113 271 113q224 0 336 -238q39 85 96 140q103 98 245 98q116 0 206 -66q110 -80 152 -247q19 -74 19 -151q0 -23 -3 -71h-655q6 -161 58 -250q80 -138 238 -138q172 0 241 160l103 -19q-94 -238 -344 -238q-244 0 -358 229 q-121 -229 -339 -229q-187 0 -301 151q-104 138 -104 354zM212 485q0 -185 80 -299q80 -113 211 -113q78 0 143 47q73 52 110 164q30 91 30 199q0 188 -78 303q-76 113 -208 113q-127 0 -208 -115q-80 -114 -80 -299zM906 550h534q-2 140 -59 236q-68 113 -199 113 q-134 0 -210 -128q-51 -86 -66 -221z" />
<glyph unicode="&#x178;" horiz-adv-x="1014" vert-adv-y="1406" d="M32 1365h137l340 -669l336 669h137l-420 -780l3 -585h-116l3 585zM222 1627q0 44 31 74q32 31 75 31q42 0 73 -31q31 -30 31 -74q0 -43 -31 -74t-74 -31t-74 31t-31 74zM582 1627q0 44 31 74q32 31 75 31q42 0 73 -31t31 -74t-31 -74t-74 -31t-74 31t-31 74z" />
<glyph unicode="&#x2c6;" vert-adv-y="1406" d="M210 1145l226 279h152l227 -279h-110l-193 199l-193 -199h-109z" />
<glyph unicode="&#x2dc;" vert-adv-y="1406" d="M210 1179q36 211 170 211q61 0 139 -60q44 -33 75 -51q25 -15 52 -15q71 0 88 131l80 -18q-10 -88 -45 -144q-46 -73 -120 -73q-66 0 -153 66q-81 61 -119 61q-66 0 -91 -124z" />
<glyph unicode="&#x2000;" horiz-adv-x="914" vert-adv-y="0" />
<glyph unicode="&#x2001;" horiz-adv-x="1828" vert-adv-y="0" />
<glyph unicode="&#x2002;" horiz-adv-x="914" vert-adv-y="0" />
<glyph unicode="&#x2003;" horiz-adv-x="1828" vert-adv-y="0" />
<glyph unicode="&#x2004;" horiz-adv-x="609" vert-adv-y="0" />
<glyph unicode="&#x2005;" horiz-adv-x="457" vert-adv-y="0" />
<glyph unicode="&#x2006;" horiz-adv-x="304" vert-adv-y="0" />
<glyph unicode="&#x2007;" horiz-adv-x="304" vert-adv-y="0" />
<glyph unicode="&#x2008;" horiz-adv-x="228" vert-adv-y="0" />
<glyph unicode="&#x2009;" horiz-adv-x="365" vert-adv-y="0" />
<glyph unicode="&#x200a;" horiz-adv-x="101" vert-adv-y="0" />
<glyph unicode="&#x2010;" horiz-adv-x="571" vert-adv-y="1406" d="M0 471v89h571v-89h-571z" />
<glyph unicode="&#x2011;" horiz-adv-x="571" vert-adv-y="1406" d="M0 471v89h571v-89h-571z" />
<glyph unicode="&#x2012;" horiz-adv-x="571" vert-adv-y="1406" d="M0 471v89h571v-89h-571z" />
<glyph unicode="&#x2013;" vert-adv-y="1406" d="M161 471v89h703v-89h-703z" />
<glyph unicode="&#x2014;" horiz-adv-x="1138" vert-adv-y="1406" d="M0 471v89h1138v-89h-1138z" />
<glyph unicode="&#x2018;" horiz-adv-x="480" vert-adv-y="1406" d="M127 1076q0 143 146 312h128q-143 -135 -160 -241q13 2 20 2q40 0 70 -33q27 -29 27 -70q0 -49 -37 -81q-32 -27 -75 -27q-49 0 -83 35q-36 37 -36 103z" />
<glyph unicode="&#x2019;" horiz-adv-x="480" vert-adv-y="1406" d="M79 938q143 131 160 240q-12 -1 -18 -1q-42 0 -72 32q-27 30 -27 70q0 50 37 82q32 27 75 27q49 0 83 -35q36 -37 36 -103q0 -144 -145 -312h-129z" />
<glyph unicode="&#x201a;" horiz-adv-x="480" vert-adv-y="1406" d="M79 -244q143 132 160 241q-13 -2 -20 -2q-39 0 -70 33q-27 29 -27 70q0 49 37 82q31 27 75 27q49 0 83 -35q36 -37 36 -103q0 -144 -145 -313h-129z" />
<glyph unicode="&#x201c;" horiz-adv-x="787" vert-adv-y="1406" d="M127 1076q0 143 146 312h128q-143 -135 -160 -241q13 2 20 2q40 0 70 -33q27 -29 27 -70q0 -49 -37 -81q-32 -27 -75 -27q-49 0 -83 35q-36 37 -36 103zM434 1075q0 144 146 313h128q-143 -135 -160 -241q14 2 20 2q41 0 71 -33q27 -29 27 -70q0 -49 -37 -81 q-32 -27 -75 -27q-49 0 -84 35q-36 37 -36 102z" />
<glyph unicode="&#x201d;" horiz-adv-x="814" vert-adv-y="1406" d="M79 938q143 131 160 240q-12 -1 -18 -1q-42 0 -72 32q-27 30 -27 70q0 50 37 82q32 27 75 27q49 0 83 -35q36 -37 36 -103q0 -144 -145 -312h-129zM414 938q142 131 160 240q-12 -1 -19 -1q-42 0 -72 32q-27 30 -27 70q0 50 37 82q32 27 75 27q49 0 84 -35 q36 -37 36 -103q0 -144 -146 -312h-128z" />
<glyph unicode="&#x201e;" horiz-adv-x="814" vert-adv-y="1406" d="M79 -244q143 132 160 241q-13 -2 -20 -2q-39 0 -70 33q-27 29 -27 70q0 49 37 82q31 27 75 27q49 0 83 -35q36 -37 36 -103q0 -144 -145 -313h-129zM414 -244q142 132 160 241q-14 -2 -21 -2q-39 0 -70 33q-27 29 -27 70q0 50 37 82q32 27 75 27q49 0 84 -35 q36 -37 36 -103q0 -144 -146 -313h-128z" />
<glyph unicode="&#x2022;" horiz-adv-x="1365" vert-adv-y="1406" d="M401 694q0 120 84 202q86 82 204 82q113 0 196 -83q84 -83 84 -201t-83 -201t-201 -83q-116 0 -199 82q-85 84 -85 202z" />
<glyph unicode="&#x2026;" horiz-adv-x="1404" vert-adv-y="1406" d="M157 82q0 43 30 74q32 32 76 32q43 0 75 -32q30 -30 30 -74t-32 -75q-31 -30 -74 -30t-74 31t-31 74zM596 82q0 43 30 74q32 32 76 32q43 0 75 -32q30 -31 30 -74q0 -44 -32 -75q-31 -30 -74 -30t-74 31t-31 74zM1035 82q0 44 30 74q32 32 76 32q43 0 75 -32 q30 -31 30 -74q0 -44 -32 -75q-31 -30 -74 -30t-74 31q-31 30 -31 74z" />
<glyph unicode="&#x202f;" horiz-adv-x="365" vert-adv-y="0" />
<glyph unicode="&#x2039;" horiz-adv-x="450" vert-adv-y="1406" d="M75 478l171 489h80l-148 -489l148 -478h-80z" />
<glyph unicode="&#x203a;" horiz-adv-x="450" vert-adv-y="1406" d="M124 0l148 489l-148 478h79l172 -478l-172 -489h-79z" />
<glyph unicode="&#x205f;" horiz-adv-x="457" vert-adv-y="0" />
<glyph unicode="&#x20ac;" horiz-adv-x="1100" vert-adv-y="1406" d="M16 752l40 94h134q31 193 113 313q142 208 391 208q233 0 381 -171l-51 -112q-56 70 -100 105q-103 80 -232 80q-200 0 -308 -193q-49 -86 -73 -230h605l-43 -94h-573q-3 -47 -3 -90q0 -19 1 -40h516l-43 -94h-468q15 -183 92 -298q100 -149 295 -149q151 0 262 88 q63 50 122 153v-171q-64 -65 -120 -97q-126 -71 -289 -71q-271 0 -396 228q-73 133 -91 317h-158l41 94h116q-1 21 -1 33q0 29 4 97h-164z" />
<glyph unicode="&#x2122;" horiz-adv-x="1563" vert-adv-y="1406" d="M23 1288v77h535v-77h-222v-742h-90v742h-223zM686 546v819h133l254 -705l253 705h132v-819h-89v697l-254 -697h-85l-254 697v-697h-90z" />
<glyph unicode="&#x25fc;" horiz-adv-x="970" vert-adv-y="1940" d="M0 0v970h970v-970h-970z" />
<glyph unicode="&#xfb01;" horiz-adv-x="974" vert-adv-y="1406" d="M34 880v89h140v63q0 115 8 162q14 80 64 129q67 65 172 65q61 0 131 -25v-108q-58 36 -122 36q-97 0 -127 -83q-16 -44 -16 -159v-80h245v-89h-238v-880h-117v880h-140zM671 1289q0 41 28 67q26 25 63 25q33 0 58 -20q32 -27 32 -72q0 -33 -21 -57q-25 -32 -69 -32 q-38 0 -64 25q-27 25 -27 64zM703 0v969h117v-969h-117z" />
<glyph unicode="&#xfb02;" horiz-adv-x="974" vert-adv-y="1406" d="M34 880v89h140v63q0 115 8 162q14 80 64 129q67 65 172 65q61 0 131 -25v-108q-56 36 -122 36q-97 0 -127 -83q-16 -44 -16 -159v-80h245v-89h-238v-880h-117v880h-140zM703 0v1371h117v-1371h-117z" />
<glyph unicode="&#xfb03;" horiz-adv-x="1526" vert-adv-y="1406" d="M34 880v89h140v63q0 115 8 162q14 80 64 129q67 65 171 65q60 0 132 -25v-108q-58 36 -123 36q-96 0 -126 -83q-16 -44 -16 -159v-80h442v63q0 115 8 162q14 80 63 129q67 65 173 65q61 0 131 -25v-108q-57 36 -123 36q-95 0 -126 -83q-17 -47 -17 -159v-80h246v-89h-238 v-880h-117v880h-435v-880h-117v880h-140zM1223 1289q0 41 28 67q26 25 63 25q33 0 58 -20q32 -27 32 -72q0 -33 -21 -57q-25 -32 -69 -32q-38 0 -64 25q-27 25 -27 64zM1255 0v969h117v-969h-117z" />
<glyph unicode="&#xfb04;" horiz-adv-x="1526" vert-adv-y="1406" d="M34 880v89h140v63q0 115 8 162q14 80 64 129q67 65 171 65q60 0 132 -25v-108q-58 36 -123 36q-96 0 -126 -83q-16 -44 -16 -159v-80h442v63q0 115 8 162q14 80 63 129q67 65 173 65q61 0 131 -25v-108q-57 36 -123 36q-95 0 -126 -83q-17 -47 -17 -159v-80h246v-89h-238 v-880h-117v880h-435v-880h-117v880h-140zM1255 0v1371h117v-1371h-117z" />
</font>
</defs>
</svg>
