<?xml version="1.0" standalone="no"?>
<!DOCTYPE svg PUBLIC "-//W3C//DTD SVG 1.1//EN" "http://www.w3.org/Graphics/SVG/1.1/DTD/svg11.dtd" >
<svg xmlns="http://www.w3.org/2000/svg">
<metadata></metadata>
<defs>
<font id="corposbold_italic" horiz-adv-x="1024" >
<font-face units-per-em="2048" ascent="1638" descent="-410" />
<missing-glyph horiz-adv-x="512" />
<glyph horiz-adv-x="2048" />
<glyph horiz-adv-x="2048" />
<glyph unicode="&#xd;" horiz-adv-x="2048" />
<glyph unicode=" "  horiz-adv-x="512" />
<glyph unicode="&#x09;" horiz-adv-x="512" />
<glyph unicode="&#xa0;" horiz-adv-x="512" />
<glyph unicode="!" horiz-adv-x="515" d="M13 105q0 79 58 137q60 59 137 59q58 0 94 -37q36 -36 36 -95q0 -71 -52 -128q-58 -63 -137 -63q-58 0 -96 33q-40 36 -40 94zM147 453l195 878h262l-247 -878h-210z" />
<glyph unicode="&#x22;" d="M354 817l90 548h246l-184 -548h-152zM692 817l91 548h246l-184 -548h-153z" />
<glyph unicode="#" horiz-adv-x="1229" d="M66 407l27 170h234l38 238h-233l26 170h234l60 380h198l-60 -380h248l60 380h199l-60 -380h240l-27 -170h-240l-38 -238h240l-26 -170h-240l-65 -407h-198l65 407h-250l-64 -407h-198l64 407h-234zM525 577h248l38 238h-248z" />
<glyph unicode="$" horiz-adv-x="1120" d="M29 362q0 42 9 102h235q-4 -57 -4 -77q0 -141 145 -183l88 409q-128 62 -189 111q-108 88 -108 237q0 143 94 260q128 159 370 170l33 153h132l-35 -161q123 -23 196 -82q118 -97 118 -272q0 -23 -3 -64h-236q0 52 -3 76q-19 103 -117 128l-76 -350q155 -76 206 -117 q124 -97 124 -259q0 -153 -84 -276q-129 -191 -427 -193l-39 -180h-132l42 191q-168 32 -253.5 126.5t-85.5 250.5zM461 1000q0 -76 98 -121l63 293q-54 -10 -99 -46q-62 -50 -62 -126zM543 190q73 9 120 41q37 26 60 72.5t23 95.5q0 71 -62 116q-22 17 -63 39z" />
<glyph unicode="%" horiz-adv-x="1506" d="M166 0l1065 1365h201l-1065 -1365h-201zM195 954q0 111 50 212q58 117 162 173q70 37 150 37q100 0 165 -63q68 -66 68 -186q0 -179 -124 -307q-102 -105 -234 -105q-94 0 -161 54q-76 62 -76 185zM355 971q0 -115 93 -115q75 0 129 82q52 79 52 182q0 116 -95 116 q-71 0 -123 -78q-56 -83 -56 -187zM824 228q0 110 50 212q58 118 162 173q70 37 151 37q100 0 165 -63q68 -66 68 -185q0 -180 -124 -308q-102 -105 -235 -105q-95 0 -161 54q-76 62 -76 185zM985 244q0 -114 92 -114q75 0 129 82q53 79 53 181q0 117 -95 117 q-72 0 -124 -78q-55 -82 -55 -188z" />
<glyph unicode="&#x26;" horiz-adv-x="1139" d="M13 306q0 198 181 343q45 36 175 119q-30 60 -42 87q-36 78 -36 144q0 97 57 183t152 128q73 32 156 32q131 0 208 -72q72 -68 72 -180q0 -155 -128 -270q-55 -49 -177 -119l152 -295q79 90 113 276h191q-59 -287 -220 -451l116 -231h-245l-42 91q-63 -51 -117 -75 q-85 -39 -191 -39q-163 0 -261 79q-114 90 -114 250zM240 334q0 -77 61 -120q48 -35 119 -35q96 0 198 68l-163 340q-84 -45 -132 -88q-83 -73 -83 -165zM513 1016q0 -51 52 -151q166 101 166 207q0 39 -26 63q-25 22 -63 22q-50 0 -87 -36q-42 -41 -42 -105z" />
<glyph unicode="'" horiz-adv-x="512" d="M267 817l90 548h246l-184 -548h-152z" />
<glyph unicode="(" horiz-adv-x="626" d="M81 57q0 406 186 817q134 296 328 503h198q-189 -214 -322 -516q-193 -438 -193 -822q0 -202 58 -449h-184q-71 228 -71 467z" />
<glyph unicode=")" horiz-adv-x="626" d="M-157 -410q180 198 319 511q193 437 193 823q0 203 -59 453h184q72 -235 72 -471q0 -407 -186 -818q-139 -305 -325 -498h-198z" />
<glyph unicode="*" d="M375 1133l64 104l176 -113l52 209l116 -29l-52 -208l208 16l8 -122l-209 -16l77 -199l-111 -46l-77 198l-161 -139l-76 93l161 139z" />
<glyph unicode="+" horiz-adv-x="1120" d="M128 587v192h387v401h199v-401h387v-192h-387v-402h-199v402h-387z" />
<glyph unicode="," horiz-adv-x="515" d="M-102 -404q91 92 151 194.5t90 218.5q-17 -2 -25 -2q-52 0 -86 40q-28 34 -28 82q0 67 50 120q52 55 130 55q67 0 107 -45q41 -45 41 -115q0 -137 -117 -320q-91 -142 -187 -228h-126z" />
<glyph unicode="-" horiz-adv-x="517" d="M-10 425l45 182h518l-46 -182h-517z" />
<glyph unicode="." horiz-adv-x="515" d="M14 105q0 79 58 137q60 59 137 59q58 0 94 -37q36 -36 36 -95q0 -71 -52 -128q-58 -63 -137 -63q-58 0 -96 33q-40 36 -40 94z" />
<glyph unicode="/" horiz-adv-x="1120" d="M-126 -398l1178 1763h203l-1177 -1763h-204z" />
<glyph unicode="0" horiz-adv-x="1119" d="M105 423q0 221 84 447q183 493 558 493q176 0 273 -115q98 -117 98 -330q0 -195 -69 -403q-90 -271 -247 -413q-134 -122 -317 -122q-176 0 -275 110q-105 117 -105 333zM359 397q0 -99 41 -153q35 -48 101 -48q96 0 172 98q83 108 140 316q51 186 51 341q0 197 -147 197 q-133 0 -238 -225q-49 -104 -84 -249q-36 -150 -36 -277z" />
<glyph unicode="1" horiz-adv-x="1120" d="M358 0l238 969l-227 -13l35 140q260 4 367 241h169l-333 -1337h-249z" />
<glyph unicode="2" horiz-adv-x="1120" d="M29 0l51 206q311 274 510 456q160 147 213 222q49 69 49 132q0 61 -43 98q-39 33 -99 33q-150 0 -214 -190h-208q27 163 111 261q125 145 348 145q153 0 251 -74q107 -82 107 -229q0 -150 -130 -301q-88 -104 -349 -336q-119 -106 -219 -189h517l-58 -234h-837z" />
<glyph unicode="3" horiz-adv-x="1119" d="M79 325q0 29 5 75h222v-25q0 -60 30 -103q52 -76 162 -76q107 0 173 80q53 64 53 149q0 76 -61 119q-54 38 -155 43q-38 2 -91 2l52 206q41 -1 60 -1q121 0 197 43q45 26 73 73q29 48 29 96q0 56 -33 95q-39 47 -105 47q-131 0 -188 -170h-210q44 180 137 269 q123 116 305 116q167 0 263 -98q85 -86 85 -220q0 -153 -101 -256q-59 -61 -166 -98q163 -87 163 -262q0 -112 -56 -215q-66 -122 -192 -183q-105 -51 -241 -51q-193 0 -306 99q-104 93 -104 246z" />
<glyph unicode="4" horiz-adv-x="1119" d="M13 293l51 203l709 858h300l-212 -850h233l-53 -211h-227l-73 -293h-256l73 293h-545zM300 504h324l157 620z" />
<glyph unicode="5" horiz-adv-x="1120" d="M85 312q0 24 4 66h232q1 -70 31 -115q45 -68 139 -68q118 0 197 113q64 91 64 201q0 88 -49 140q-45 48 -118 48q-108 0 -207 -108l-202 32l305 710h649l-71 -228h-456l-115 -259q97 58 201 58q144 0 228 -91q89 -96 89 -262q0 -227 -149 -399q-147 -170 -386 -170 q-168 0 -271 84q-115 94 -115 248z" />
<glyph unicode="6" horiz-adv-x="1120" d="M96 371q0 207 140 414q116 171 341 378q66 60 215 189h269q-310 -283 -467 -452q54 19 108 19q138 0 229 -97q93 -100 93 -260q0 -128 -56 -253q-76 -169 -223 -258q-115 -71 -253 -71q-164 0 -273 99q-123 110 -123 292zM350 376q0 -81 44 -131q44 -49 116 -49 q112 0 191 120q69 105 69 224q0 85 -47 136q-45 49 -116 49q-106 0 -184 -116q-73 -109 -73 -233z" />
<glyph unicode="7" horiz-adv-x="1120" d="M141 0l797 1088h-579l56 243h878l-45 -193l-828 -1138h-279z" />
<glyph unicode="8" horiz-adv-x="1119" d="M84 341q0 78 31.5 151.5t88.5 126.5q66 62 171 97q-124 99 -124 242q0 107 62 202q71 108 192 161q97 42 211 42q179 0 292 -97q112 -96 112 -239q0 -146 -100 -241q-53 -51 -149 -83q127 -89 127 -251q0 -116 -58 -223q-73 -133 -203 -197q-106 -52 -236 -52 q-180 0 -294 96q-123 103 -123 265zM338 357q0 -81 56 -130q47 -42 120 -42q104 0 169 80q59 73 59 160q0 88 -58 133q-47 37 -114 37q-99 0 -167 -79q-65 -74 -65 -159zM505 957q0 -68 48 -112q46 -43 115 -43q89 0 146 68q51 62 51 137q0 73 -47 114q-44 37 -114 37 q-89 0 -146 -64q-53 -60 -53 -137z" />
<glyph unicode="9" horiz-adv-x="1120" d="M160 -9q306 277 467 451q-53 -19 -108 -19q-138 0 -229 97q-93 100 -93 263q0 126 56 251q77 170 223 258q116 71 253 71q164 0 273 -99q123 -110 123 -292q0 -207 -140 -414q-150 -221 -556 -567h-269zM451 802q0 -84 47 -136q45 -49 111 -49q111 0 189 116 q73 110 73 233q0 83 -44 132q-45 49 -119 49q-109 0 -188 -120q-69 -106 -69 -225z" />
<glyph unicode=":" horiz-adv-x="515" d="M14 105q0 79 58 137q59 59 138 59q56 0 92 -37q37 -36 37 -93q0 -73 -52 -130q-58 -63 -137 -63q-58 0 -96 33q-40 36 -40 94zM188 804q0 79 58 137q59 59 137 59q58 0 94 -37q36 -36 36 -94q0 -72 -52 -129q-58 -63 -137 -63q-58 0 -96 33q-40 36 -40 94z" />
<glyph unicode=";" horiz-adv-x="515" d="M-102 -404q91 92 151 194.5t90 218.5q-17 -2 -25 -2q-52 0 -86 40q-28 34 -28 82q0 67 50 120q52 55 130 55q67 0 107 -45q41 -45 41 -115q0 -137 -117 -320q-91 -142 -187 -228h-126zM173 806q0 77 58 135q60 59 137 59q58 0 94 -37q36 -36 36 -95q0 -71 -53 -128 q-58 -63 -136 -63q-58 0 -96 33q-40 36 -40 96z" />
<glyph unicode="&#x3c;" d="M89 590v213l887 448v-251l-620 -304l620 -306v-248z" />
<glyph unicode="=" horiz-adv-x="1120" d="M127 416v192h973v-192h-973zM127 757v192h973v-192h-973z" />
<glyph unicode="&#x3e;" d="M89 141v250l620 305l-620 305v249l887 -449v-212z" />
<glyph unicode="?" horiz-adv-x="815" d="M191 105q0 79 58 137q59 59 137 59q58 0 94 -37q36 -36 36 -94q0 -72 -52 -129q-58 -63 -137 -63q-58 0 -96 33q-40 36 -40 94zM221 974q29 174 123 272q109 112 291 112q143 0 234 -75q84 -69 84 -185q0 -95 -51 -174q-39 -59 -163 -164q-107 -93 -136 -125 q-45 -50 -66 -135q-6 -22 -14 -56h-225q26 124 51 184q30 70 86 128q20 21 105 95q76 65 104 101q41 52 41 101q0 36 -25 59q-29 27 -80 27q-123 0 -167 -165h-192z" />
<glyph unicode="@" horiz-adv-x="1502" d="M131 670q0 149 55 284t157 236q203 201 509 201q271 0 451 -154q98 -84 151 -201.5t53 -250.5q0 -187 -96 -333q-64 -96 -149 -135q-48 -23 -94 -23q-75 0 -123 59q-22 26 -36 72q-94 -131 -243 -131q-135 0 -219 91q-85 92 -85 237q0 170 118 298q102 112 242 112 q137 0 204 -106l17 84h175l-77 -397q-14 -71 -14 -95q0 -80 50 -80t98 72q78 118 78 275q0 207 -142 333q-135 120 -356 120q-240 0 -393 -158q-161 -167 -161 -413q0 -241 152 -394q75 -75 179 -110.5t249 -35.5q179 0 365 66l39 -156q-188 -64 -408 -64q-334 0 -532 183 q-105 98 -162 238q-52 131 -52 276zM662 621q0 -66 31 -108q40 -53 113 -53q89 0 138 87q38 67 38 151q0 66 -28 107q-34 51 -103 51q-88 0 -145 -86q-44 -66 -44 -149z" />
<glyph unicode="A" horiz-adv-x="1182" d="M-103 0l788 1365h259l109 -1365h-263l-15 284h-440l-158 -284h-280zM443 501h326l-5 150q-6 173 -6 397v73q-92 -203 -115 -249q-103 -207 -120 -230z" />
<glyph unicode="B" horiz-adv-x="1207" d="M52 0l340 1365h330q213 0 306 -42q155 -72 155 -254q0 -160 -108 -262q-66 -62 -191 -95q89 -31 136 -72q80 -72 80 -198q0 -155 -100 -270q-100 -114 -260 -149q-109 -23 -333 -23h-355zM356 213h128q168 0 233 29q60 27 91 93q29 60 29 123q0 104 -99 134 q-50 16 -176 16h-107zM506 815h130q132 0 191 31q48 25 74 78q23 45 23 95q0 90 -79 117q-46 16 -160 16h-95z" />
<glyph unicode="C" horiz-adv-x="1269" d="M119 518q0 234 100 440q118 244 311 353q141 80 311 80q208 0 328 -113q119 -111 119 -323v-33h-234q-3 94 -37 148q-59 96 -192 96q-190 0 -323 -217q-56 -93 -88.5 -207.5t-32.5 -223.5q0 -151 77 -238q72 -81 196 -81q245 0 339 307h240q-43 -187 -140 -314 q-168 -218 -452 -218q-250 0 -391 153q-131 142 -131 391z" />
<glyph unicode="D" horiz-adv-x="1308" d="M52 0l340 1365h283q182 0 279 -22q343 -78 343 -484q0 -274 -115 -484q-127 -233 -351 -320q-143 -55 -440 -55h-339zM363 224h137q162 0 249 41q133 64 210 236q75 168 75 355q0 168 -85 234q-64 51 -234 51h-124z" />
<glyph unicode="E" horiz-adv-x="1069" d="M52 0l340 1365h820l-56 -224h-565l-80 -322h539l-55 -224h-539l-93 -371h599l-56 -224h-854z" />
<glyph unicode="F" horiz-adv-x="1031" d="M52 0l340 1365h827l-56 -224h-572l-80 -322h526l-56 -224h-526l-148 -595h-255z" />
<glyph unicode="G" horiz-adv-x="1320" d="M119 510q0 226 91 426q114 251 319 369q148 86 328 86q291 0 401 -202q53 -96 53 -239v-28h-234q-4 121 -64 182.5t-174 61.5q-186 0 -316 -189q-67 -99 -106 -227q-35 -119 -35 -234q0 -155 77 -234q81 -83 234 -83q140 0 243 57l58 233h-265l48 195h490l-145 -583 q-211 -128 -461 -128q-247 0 -392 131q-150 134 -150 406z" />
<glyph unicode="H" horiz-adv-x="1371" d="M52 0l340 1365h255l-136 -545h526l136 545h255l-341 -1365h-255l150 603h-525l-150 -603h-255z" />
<glyph unicode="I" horiz-adv-x="591" d="M52 0l340 1365h255l-340 -1365h-255z" />
<glyph unicode="J" horiz-adv-x="637" d="M-226 -274l54 219q22 -1 32 -1q157 0 218 72q36 43 75 188q11 42 51 203l238 958h255l-271 -1088q-46 -179 -66 -240q-63 -191 -224 -263q-114 -50 -280 -50q-26 0 -82 2z" />
<glyph unicode="K" horiz-adv-x="1231" d="M52 0l340 1365h255l-340 -1365h-255zM490 723l616 642h309l-640 -651l340 -714h-314z" />
<glyph unicode="L" horiz-adv-x="1018" d="M52 0l340 1365h261l-285 -1141h575l-56 -224h-835z" />
<glyph unicode="M" horiz-adv-x="1752" d="M52 0l340 1365h358l74 -1105l614 1105h371l-341 -1365h-228l271 1085l-609 -1085h-272l-79 1085l-271 -1085h-228z" />
<glyph unicode="N" horiz-adv-x="1419" d="M52 0l340 1365h267l333 -982l245 982h239l-340 -1365h-253l-347 983l-245 -983h-239z" />
<glyph unicode="O" horiz-adv-x="1346" d="M115 497q0 221 93 433q108 249 298 368q148 93 345 93q214 0 345 -126q143 -138 143 -400q0 -222 -90 -426q-113 -257 -308 -376q-146 -89 -331 -89q-228 0 -358 134q-137 141 -137 389zM378 506q0 -140 58 -218q66 -90 195 -90q186 0 317 218q59 98 93.5 217t34.5 225 q0 133 -51 211q-64 97 -202 97q-182 0 -312 -210q-63 -100 -98 -219.5t-35 -230.5z" />
<glyph unicode="P" horiz-adv-x="1124" d="M52 0l340 1365h338q251 0 357 -68q137 -89 137 -280q0 -167 -85 -294q-99 -146 -279 -189q-100 -24 -291 -24h-132l-127 -510h-258zM490 734h135q113 0 174 17q82 22 125 96q36 63 36 141q0 106 -88 137q-47 16 -161 16h-120z" />
<glyph unicode="Q" horiz-adv-x="1346" d="M115 496q0 223 92 435q106 243 300 366q146 94 337 94q221 0 352 -126q143 -139 143 -400q0 -318 -180 -588l168 -277h-309l-37 90q-159 -116 -372 -116q-225 0 -357 134q-137 139 -137 388zM378 506q0 -140 58 -218q66 -90 195 -90q186 0 317 218q59 98 93.5 217 t34.5 225q0 133 -51 211q-64 97 -202 97q-182 0 -312 -210q-63 -100 -98 -219.5t-35 -230.5z" />
<glyph unicode="R" horiz-adv-x="1175" d="M52 0l340 1365h331q244 0 341 -49q163 -81 163 -297q0 -206 -126 -337q-72 -75 -208 -120l164 -562h-291l-125 521h-204l-130 -521h-255zM493 745h133q161 0 234 44q104 63 104 196q0 105 -87 137q-50 19 -185 19h-101z" />
<glyph unicode="S" horiz-adv-x="1069" d="M18 359q0 40 9 105h242q-4 -45 -4 -70q0 -97 57 -143q65 -52 176 -52q106 0 165 49q65 55 65 147q0 78 -69 125q-33 23 -189 100q-142 70 -201 131q-76 80 -76 209q0 112 61 213q132 218 429 218q221 0 332 -120q87 -94 87 -242q0 -23 -3 -64h-243v7q0 82 -22 117 q-46 77 -167 77q-75 0 -132 -34q-79 -47 -79 -131q0 -48 39 -83q26 -25 103 -61q206 -98 276 -152q123 -94 123 -258q0 -120 -53 -227q-122 -246 -456 -246q-224 0 -348 103q-122 101 -122 282z" />
<glyph unicode="T" horiz-adv-x="974" d="M182 1141l69 224h922l-69 -224h-318l-285 -1141h-255l285 1141h-349z" />
<glyph unicode="U" horiz-adv-x="1357" d="M152 360q0 96 44 272l183 733h254l-181 -729q-41 -163 -41 -243q0 -87 67 -140q69 -54 173 -54q170 0 248 137q30 53 64 191l209 838h255l-210 -842q-41 -165 -67 -232q-121 -317 -515 -317q-234 0 -369 123q-114 105 -114 263z" />
<glyph unicode="V" horiz-adv-x="1128" d="M205 1365h266l48 -1067l520 1067h276l-725 -1365h-273z" />
<glyph unicode="W" horiz-adv-x="1674" d="M221 1365h245l-23 -1093l498 1093h235l-27 -1093l517 1093h251l-683 -1365h-296l13 912l-420 -912h-306z" />
<glyph unicode="X" horiz-adv-x="1146" d="M-103 0l604 711l-227 654h288l125 -450l356 450h305l-582 -671l247 -694h-281l-148 493l-384 -493h-303z" />
<glyph unicode="Y" horiz-adv-x="1066" d="M205 1365h271l132 -572l413 572h304l-640 -827l-134 -538h-255l134 538z" />
<glyph unicode="Z" d="M-57 0l51 205l835 940h-569l55 220h880l-46 -185l-842 -956h611l-56 -224h-919z" />
<glyph unicode="[" horiz-adv-x="626" d="M-76 -398l440 1763h410l-47 -184h-207l-347 -1392h207l-46 -187h-410z" />
<glyph unicode="\" horiz-adv-x="1181" d="M350 1365h189l425 -1763h-190z" />
<glyph unicode="]" horiz-adv-x="626" d="M-139 -398l46 184h208l347 1392h-208l47 187h410l-440 -1763h-410z" />
<glyph unicode="^" d="M35 693l332 680h331l333 -680h-265l-233 479l-234 -479h-264z" />
<glyph unicode="_" d="M20 -99h1024v-227h-1024v227z" />
<glyph unicode="`" d="M347 1413h274l169 -314h-170z" />
<glyph unicode="a" horiz-adv-x="1025" d="M25 233q0 211 261 295q112 36 401 94l6 25q9 33 9 50q0 95 -135 95q-136 0 -183 -103h-232q46 144 147 215q123 88 297 88q168 0 267 -79q76 -60 76 -164q0 -66 -25 -166l-92 -367q-25 -102 -25 -170v-46h-219q1 71 11 110q-108 -127 -269 -127q-130 0 -212 66 q-83 68 -83 184zM279 269q0 -51 44 -77q31 -19 80 -19q114 0 175 86q28 38 56 149l12 50q-191 -35 -263 -66q-104 -44 -104 -123z" />
<glyph unicode="b" horiz-adv-x="1095" d="M12 0q25 64 70 256l279 1118h245l-126 -505q107 123 252 123q140 0 225 -94q89 -99 89 -268q0 -140 -53 -281q-74 -193 -222 -296q-108 -74 -236 -74q-170 0 -260 152q-21 -72 -51 -131h-212zM372 380q0 -74 36 -127q41 -61 119 -61q108 0 186 129q35 57 56.5 135 t21.5 148q0 69 -27 115q-37 63 -121 63q-106 0 -185 -119q-38 -58 -62 -136.5t-24 -146.5z" />
<glyph unicode="c" horiz-adv-x="999" d="M67 377q0 152 64 295q81 181 235 267q108 61 243 61q196 0 287 -124q59 -81 60 -227h-227q0 151 -130 151q-114 0 -195 -131q-83 -135 -83 -305q0 -86 42 -138q44 -55 123 -55q138 0 199 176h233q-96 -374 -447 -374q-171 0 -281 99q-123 110 -123 305z" />
<glyph unicode="d" horiz-adv-x="1102" d="M63 356q0 161 69 314q81 180 215 261q100 61 217 61q169 0 252 -127l127 509h245l-266 -1066q-48 -201 -60 -308h-228q9 86 24 118q-109 -138 -267 -138q-149 0 -238 101q-90 101 -90 275zM317 385q0 -86 40 -139q43 -56 118 -56q116 0 193 136q69 124 69 260 q0 89 -43 143q-44 53 -122 53q-100 0 -174 -116q-81 -128 -81 -281z" />
<glyph unicode="e" horiz-adv-x="1039" d="M66 375q0 153 67 298q85 184 240 268q109 59 238 59q173 0 274 -100q105 -104 105 -284q0 -100 -28 -191h-640q-3 -29 -3 -50q0 -81 33 -132q48 -73 148 -73q88 0 147 48q30 25 62 76l211 -21q-61 -129 -135 -193q-122 -108 -315 -108q-176 0 -280 91q-124 109 -124 312z M367 607h395v20q0 74 -36 120q-42 55 -124 55q-97 0 -169 -82q-40 -46 -66 -113z" />
<glyph unicode="f" horiz-adv-x="668" d="M41 0l191 766h-126l49 197h126l14 58q48 193 116 276q91 112 250 112q116 0 224 -63l-51 -203q-86 49 -154 49t-104 -67q-17 -31 -41 -127l-9 -35h223l-49 -197h-223l-191 -766h-245z" />
<glyph unicode="g" horiz-adv-x="1052" d="M-109 -143q0 178 251 241q-62 40 -62 97q0 66 77 115q50 32 160 63q-136 83 -136 245q0 173 126 281q111 93 284 93q97 0 203 -42h354l-44 -177h-202q26 -56 26 -120q0 -112 -72 -196q-84 -97 -243 -115q-50 -6 -150 -6q-108 -22 -108 -66q0 -28 39 -37q26 -7 146 -23 q137 -19 208 -53q116 -57 116 -199q0 -103 -62 -189q-126 -176 -442 -176q-218 0 -341 69q-128 71 -128 195zM105 -114q0 -58 83 -87q68 -23 172 -23q118 0 185 33q71 34 71 97q0 111 -231 111q-110 0 -179 -24q-101 -34 -101 -107zM391 642q0 -63 43 -98q41 -34 109 -34 q87 0 135 56q40 46 40 109q0 47 -26 82q-40 52 -123 52q-70 0 -119 -41q-59 -49 -59 -126z" />
<glyph unicode="h" horiz-adv-x="1112" d="M25 0l343 1374h245l-127 -509q126 127 280 127q112 0 183 -65q78 -72 78 -191q0 -72 -39 -230l-126 -506h-245l126 505q23 94 23 142q0 60 -42 94q-37 30 -95 30q-112 0 -174 -103q-31 -52 -61 -170l-124 -498h-245z" />
<glyph unicode="i" horiz-adv-x="526" d="M25 0l241 969h245l-241 -969h-245zM312 1208q0 76 55 133q50 51 121 51q53 0 86 -33q29 -29 29 -80q0 -77 -53 -132q-47 -48 -113 -48q-53 0 -87 27q-38 31 -38 82z" />
<glyph unicode="j" horiz-adv-x="545" d="M-268 -375l54 216q85 1 132 21q48 21 78 60.5t53 113.5q17 57 45 170l190 763h245l-207 -830q-45 -178 -85 -257q-130 -258 -457 -258q-16 0 -48 1zM326 1210q0 74 56 131q50 51 119 51q53 0 86 -33q29 -28 29 -80q0 -75 -53 -132q-45 -48 -113 -48q-53 0 -86 27 q-38 31 -38 84z" />
<glyph unicode="k" horiz-adv-x="1059" d="M25 0l343 1374h245l-343 -1374h-245zM402 518l453 451h298l-469 -451l259 -518h-291z" />
<glyph unicode="l" horiz-adv-x="527" d="M25 0l343 1374h245l-343 -1374h-245z" />
<glyph unicode="m" horiz-adv-x="1668" d="M25 0l185 742q35 138 35 186q0 8 -1 41h237q1 -23 1 -32q0 -41 -14 -106q134 161 299 161q187 0 251 -177q59 68 105 103q98 74 216 74q117 0 190 -74q63 -64 63 -151q0 -64 -37 -214l-138 -553h-245l130 520q22 90 22 137q0 54 -39 85q-39 29 -94 29q-155 0 -210 -221 l-138 -550h-245l132 527q21 85 21 130q0 53 -41 85q-36 28 -91 28q-106 0 -163 -93q-29 -46 -51 -137l-135 -540h-245z" />
<glyph unicode="n" horiz-adv-x="1098" d="M25 0l156 624q40 156 54 241q4 44 6 104h237q0 -69 -18 -138q134 161 298 161q120 0 196 -78q62 -65 62 -161q0 -76 -32 -206l-137 -547h-245l126 505q24 96 24 150t-40 87q-35 29 -89 29q-103 0 -166 -103q-34 -56 -62 -170l-125 -498h-245z" />
<glyph unicode="o" horiz-adv-x="1085" d="M66 374q0 159 70 309q149 317 488 317q180 0 287 -96q116 -104 116 -307q0 -151 -62 -292q-145 -333 -487 -333q-174 0 -276 80q-136 107 -136 322zM320 368q0 -85 37 -137q45 -62 135 -62q119 0 199 135q82 138 82 289q0 209 -173 209q-119 0 -199 -135 q-81 -139 -81 -299z" />
<glyph unicode="p" horiz-adv-x="1102" d="M-74 -396l264 1060q50 204 59 305h228q-3 -63 -23 -116q103 139 270 139q146 0 233 -97q92 -103 92 -279q0 -150 -60 -297q-77 -186 -212 -276q-98 -64 -217 -64q-160 0 -264 127l-125 -502h-245zM375 388q0 -90 45 -143q46 -55 121 -55q103 0 178 122q34 56 55 132.5 t21 145.5q0 78 -36 132q-41 60 -123 60q-109 0 -184 -125q-34 -56 -55.5 -131t-21.5 -138z" />
<glyph unicode="q" horiz-adv-x="1101" d="M60 341q0 164 71 321q82 181 220 266q104 64 222 64q174 0 258 -151q29 92 51 128h212q-22 -51 -71 -254l-277 -1111h-245l125 498q-109 -124 -253 -124q-136 0 -221 92q-92 98 -92 271zM313 368q0 -70 30 -118q38 -61 117 -61q108 0 188 121q39 59 63 140t24 152 q0 74 -39 124q-43 53 -117 53q-108 0 -187 -130q-35 -58 -57 -136.5t-22 -144.5z" />
<glyph unicode="r" horiz-adv-x="768" d="M25 0l168 674l16 64q35 144 48 231h233q-2 -13 -11 -84q-6 -43 -27 -115q79 106 139 153q89 69 182 69q40 0 100 -18l-65 -263q-86 59 -149 59q-117 0 -201 -140q-53 -88 -86 -219l-102 -411h-245z" />
<glyph unicode="s" horiz-adv-x="955" d="M30 259q0 38 8 87h235q-4 -32 -4 -50q0 -54 30 -86q45 -48 127 -48q57 0 99 26q53 32 53 89q0 38 -31 64q-22 18 -85 48q-170 80 -219 117q-87 65 -87 175q0 84 52 159q110 160 353 160q156 0 255 -73q97 -71 97 -202q0 -21 -2 -54h-232v17q0 51 -28 82q-36 40 -104 40 q-50 0 -85 -20q-56 -32 -56 -89q0 -30 31 -56q20 -17 88 -49q174 -79 223 -120q84 -70 84 -172q0 -86 -51 -165q-108 -167 -372 -167q-159 0 -263 66q-116 74 -116 221z" />
<glyph unicode="t" horiz-adv-x="676" d="M93 171q0 60 53 244l100 351h-147l53 197h151l80 291h236l-78 -291h193l-53 -197h-192l-98 -365q-28 -106 -28 -138q0 -62 78 -62q60 0 146 33l-55 -208q-116 -47 -210 -47q-102 0 -166 54q-63 54 -63 138z" />
<glyph unicode="u" horiz-adv-x="1111" d="M101 239q0 91 32 222l127 508h245l-134 -537q-17 -69 -17 -112q0 -60 46 -94q35 -26 91 -26q106 0 169 94q36 53 63 159l129 516h245l-167 -668l-31 -125q-20 -84 -20 -143q0 -12 1 -33h-233q-1 15 -1 23q0 35 10 89q-109 -133 -268 -133q-132 0 -212 79q-75 74 -75 181z " />
<glyph unicode="v" horiz-adv-x="967" d="M139 969h251l39 -735l351 735h259l-528 -975h-273z" />
<glyph unicode="w" horiz-adv-x="1474" d="M145 969h246l-9 -749l364 749h225l4 -749l353 749h255l-528 -975h-267l-16 652l-306 -652h-284z" />
<glyph unicode="x" horiz-adv-x="993" d="M-118 0l499 519l-201 450h279l104 -276l218 276h291l-432 -471l229 -498h-283l-131 329l-277 -329h-296z" />
<glyph unicode="y" horiz-adv-x="991" d="M-156 -409l55 219h27h11q114 0 172 20q79 29 135 126l-81 1013h246l30 -780l412 780h255l-537 -942q-152 -268 -286 -354q-130 -84 -345 -84q-37 0 -94 2z" />
<glyph unicode="z" horiz-adv-x="863" d="M-71 0l48 193l578 568h-414l52 208h719l-47 -186l-582 -575h474l-52 -208h-776z" />
<glyph unicode="{" horiz-adv-x="626" d="M56 -234q0 51 23 142l79 317q13 53 13 89q0 71 -82 89l41 161q52 8 97 49q36 35 59 129l79 317q39 156 108 224q95 94 280 94q40 0 93 -4l-45 -181q-32 1 -47 1q-118 0 -152 -51q-16 -24 -40 -118l-68 -272q-32 -126 -71 -181q-33 -47 -120 -88q79 -61 79 -131 q0 -50 -22 -138l-67 -271q-21 -84 -21 -106q0 -41 41 -54q30 -9 90 -9q16 0 44 1l-45 -181q-54 -4 -98 -4q-248 0 -248 176z" />
<glyph unicode="|" d="M406 -341v1706h253v-1706h-253z" />
<glyph unicode="}" horiz-adv-x="626" d="M-211 -406l45 181q29 -1 45 -1q121 0 154 51q16 25 40 118l67 271q32 125 72 182q33 47 120 87q-79 63 -79 132q0 53 21 137l68 272q20 79 20 105q0 43 -41 55q-30 9 -90 9q-13 0 -43 -1l45 181q61 4 98 4q247 0 247 -174q0 -57 -22 -144l-79 -317q-13 -53 -13 -90 q0 -71 81 -88l-40 -161q-54 -9 -97 -49q-33 -32 -60 -129l-79 -317q-39 -156 -107 -224q-95 -94 -279 -94q-41 0 -94 4z" />
<glyph unicode="~" horiz-adv-x="1365" d="M206 493q10 22 15 34q37 83 59 114q89 132 233 132q68 0 214 -55q95 -36 121 -42q32 -8 59 -8q63 0 102 40q20 20 49 68l143 -84q-74 -156 -147 -209q-81 -59 -175 -59q-57 0 -205 55q-139 51 -176 51q-12 0 -42 -8q-46 -13 -78 -62q-11 -17 -33 -59z" />
<glyph horiz-adv-x="1120" d="M-15 457l99 143h122q10 62 26 124h-165l99 143h112q58 149 141 260q199 263 510 263q197 0 324 -107q41 -35 71 -84l-145 -205q-86 185 -268 185q-231 0 -373 -312h552l-102 -143h-502q-17 -57 -28 -124h443l-102 -143h-351q4 -88 28 -143q28 -66 80 -94q49 -26 130 -26 q143 0 264 80q76 50 158 148l-74 -303q-178 -144 -402 -144q-300 0 -400 254q-39 98 -39 228h-208z" />
<glyph unicode="&#xa1;" horiz-adv-x="515" d="M-78 -353l246 878h210l-194 -878h-262zM188 806q0 76 52 131q59 63 139 63q56 0 94 -33q40 -36 40 -95q0 -77 -58 -136q-58 -60 -136 -60q-59 0 -95 37q-36 36 -36 93z" />
<glyph unicode="&#xa2;" horiz-adv-x="1120" d="M136 607q0 201 101 368q142 236 406 257l30 138h131l-31 -147q114 -23 179 -99q74 -89 73 -242h-227q2 111 -68 139l-130 -613q105 26 154 171h233q-92 -364 -431 -374l-39 -182h-130l41 194q-103 27 -169 87q-123 111 -123 303zM383 592q0 -123 87 -175l130 610 q-82 -38 -137 -133q-80 -137 -80 -302z" />
<glyph unicode="&#xa3;" horiz-adv-x="1119" d="M-61 0q133 155 212 329q91 198 121 292h-159l39 182h193q91 238 150 340q76 132 170 187t210 55q146 0 228 -83q71 -71 71 -208q0 -25 -3 -65h-212q1 19 1 30q0 46 -22 75q-28 37 -85 37q-96 0 -158 -126q-25 -49 -89 -220l-9 -22h308l-38 -180h-342q-48 -142 -100 -238 q-51 -92 -127 -185q124 36 233 36q61 0 114 -7q43 -6 70 -6q63 0 94 76q15 39 31 98h195q-34 -196 -109 -282q-78 -95 -186 -107q-55 -8 -190 -8h-611z" />
<glyph unicode="&#xa4;" horiz-adv-x="1365" d="M124 1262l138 138l211 -211q138 91 288 91q146 0 281 -88l210 206l136 -136l-207 -207q95 -147 95 -287q0 -144 -91 -280l209 -209l-136 -138l-209 208q-137 -94 -290 -94q-140 0 -288 93l-209 -207l-136 137l208 208q-91 134 -91 283q0 147 93 282zM474 767 q0 -117 84 -201t201 -84q118 0 202 84q84 83 84 201q0 121 -84 203q-85 83 -205 83q-115 0 -198 -83q-84 -84 -84 -203z" />
<glyph unicode="&#xa5;" horiz-adv-x="1120" d="M52 464l39 157h336l-38 138h-263l39 157h182l-123 449h271l132 -572l414 572h303l-347 -449h169l-39 -157h-251l-107 -138h323l-39 -157h-367l-116 -464h-255l116 464h-379z" />
<glyph unicode="&#xa6;" d="M406 314h253v-655h-253v655zM406 659v706h253v-706h-253z" />
<glyph unicode="&#xa7;" d="M-7 -41q0 42 9 99h197q-2 -26 -2 -45q0 -69 49 -110q45 -38 116 -38q78 0 128 41q52 44 52 107q0 56 -52 101q-19 16 -115 77q-117 73 -180 132q-82 77 -82 180q0 130 122 232q37 30 136 92q-77 72 -77 184q0 93 54 177q112 175 347 175q146 0 234 -76q93 -80 93 -213 q0 -38 -8 -94h-195q3 29 3 46q0 60 -35 97q-38 39 -110 39q-61 0 -101 -29q-49 -35 -49 -91q0 -45 52 -89q20 -16 110 -75q128 -84 177 -128q82 -75 82 -174q0 -132 -104 -233q-52 -51 -154 -106q85 -83 85 -193q0 -82 -35.5 -157.5t-98.5 -128.5q-114 -94 -286 -94 q-153 0 -255 72q-107 74 -107 223zM339 546q0 -56 52 -102q33 -28 169 -115q71 40 106 72q55 50 55 110q0 46 -43 87q-22 21 -82 63t-104 67q-79 -45 -111 -79q-42 -46 -42 -103z" />
<glyph unicode="&#xa8;" d="M369 1234q0 58 46 105q48 49 116 49q50 0 82 -31q32 -30 32 -78q0 -59 -45 -107q-46 -48 -114 -48q-52 0 -85 32q-32 31 -32 78zM772 1234q0 59 47 106q47 48 115 48q50 0 82 -31q32 -30 32 -78q0 -59 -45 -107q-47 -48 -114 -48q-52 0 -85 32q-32 31 -32 78z" />
<glyph unicode="&#xa9;" horiz-adv-x="1595" d="M143 681q0 201 104 372q102 168 283 261q151 77 331 77q190 0 361 -105q172 -104 262 -282q77 -152 77 -322q0 -141 -54 -271t-153 -229q-100 -100 -230.5 -154t-271.5 -54t-271 54t-230 154q-99 99 -153.5 229.5t-54.5 269.5zM270 682q0 -247 173 -422 q169 -172 410 -172q240 0 410 172q172 175 172 422q0 120 -45.5 231t-126.5 192q-175 172 -417 172q-111 0 -216.5 -45t-186.5 -127q-83 -83 -128 -194t-45 -229zM502 690q0 227 139 345q100 84 242 84q177 0 260 -119q48 -68 50 -168h-148q-28 144 -158 144q-96 0 -149 -73 q-59 -82 -59 -210q0 -126 59 -207q54 -74 151 -74q151 0 158 182h155v-14q0 -96 -48 -175q-82 -136 -265 -136q-154 0 -257 90q-130 115 -130 331z" />
<glyph unicode="&#xaa;" horiz-adv-x="636" d="M78 573l27 107h532l-27 -107h-532zM162 933q0 128 164 179q68 21 246 55l2 11q5 20 5 30q0 51 -80 51q-82 0 -109 -61h-153q60 189 280 189q106 0 169 -47q49 -38 49 -100q0 -45 -14 -100l-54 -218q-15 -59 -15 -96q0 -4 1 -37h-146q0 25 2 55q-29 -26 -44 -36 q-46 -29 -115 -29q-82 0 -134 40q-54 42 -54 114zM329 955q0 -54 75 -54q66 0 102 48q18 23 33 87l6 24q-116 -21 -156 -38q-60 -25 -60 -67z" />
<glyph unicode="&#xab;" horiz-adv-x="974" d="M66 489l325 491h215l-302 -491l57 -489h-214zM451 489l325 491h214l-301 -491l57 -489h-215z" />
<glyph unicode="&#xac;" d="M89 310v236h887v-546h-253v310h-634z" />
<glyph unicode="&#xad;" horiz-adv-x="517" d="M-10 425l45 182h518l-46 -182h-517z" />
<glyph unicode="&#xae;" horiz-adv-x="1595" d="M143 681q0 201 104 372q102 168 283 261q151 77 331 77q190 0 361 -105q172 -104 262 -282q77 -152 77 -322q0 -141 -54 -271t-153 -229q-100 -100 -230.5 -154t-271.5 -54t-271 54t-230 154q-99 99 -153.5 229.5t-54.5 269.5zM270 682q0 -247 173 -422 q169 -172 410 -172q240 0 410 172q172 175 172 422q0 120 -45.5 231t-126.5 192q-175 172 -417 172q-111 0 -216.5 -45t-186.5 -127q-83 -83 -128 -194t-45 -229zM571 269v819h215q118 0 178 -10q104 -16 161 -89q51 -64 51 -153q0 -161 -148 -228l196 -339h-199l-173 310 h-110v-310h-171zM742 720h55q97 0 136 13q69 24 69 103q0 63 -52 91q-30 16 -82 19q-19 1 -83 1h-43v-227z" />
<glyph unicode="&#xaf;" d="M390 1180l37 148h601l-37 -148h-601z" />
<glyph unicode="&#xb0;" d="M354 1084q0 129 91 217q94 90 225 90q125 0 218 -90q91 -88 91 -216t-90 -217q-92 -92 -223 -92q-130 0 -221 91t-91 217zM505 1085q0 -67 47 -114t114 -47t115 48q47 46 47 111q0 68 -47 114q-49 46 -117 46q-64 0 -112 -47q-47 -46 -47 -111z" />
<glyph unicode="&#xb1;" horiz-adv-x="1120" d="M60 0v192h973v-192h-973zM60 632v192h387v402h199v-402h387v-192h-387v-331h-199v331h-387z" />
<glyph unicode="&#xb2;" horiz-adv-x="705" d="M108 533l31 128l20 17q251 213 339 295q69 63 94 101q21 33 21 64q0 36 -26 57q-24 19 -59 19q-91 0 -129 -113h-136q16 101 69 161q78 88 219 88q96 0 158 -45q69 -50 69 -140t-80 -180q-54 -61 -215 -200q-76 -65 -127 -105h315l-36 -147h-527z" />
<glyph unicode="&#xb3;" horiz-adv-x="705" d="M138 731q0 18 3 47h146v-14q0 -38 19 -64q32 -44 98 -44q64 0 102 46q31 36 31 84q0 72 -83 89q-33 7 -109 7l33 131q26 -1 41 -1q73 0 119 25q26 14 42.5 40.5t16.5 54.5q0 32 -20 55q-23 27 -63 27q-77 0 -111 -101h-138q54 237 278 237q97 0 157 -52q63 -54 63 -143 q0 -90 -63 -153q-34 -34 -93 -55q97 -56 97 -157q0 -120 -92 -199q-83 -71 -215 -71q-120 0 -192 60q-67 56 -67 151z" />
<glyph unicode="&#xb4;" d="M489 1106l322 300h315l-453 -300h-184z" />
<glyph unicode="&#xb5;" d="M77 -354v1337h253v-524q0 -116 20 -166q28 -68 92 -102q44 -24 94 -24q90 0 145 72q32 41 44 95q10 43 10 133v516h253v-983h-253v122q-32 -64 -64 -92q-59 -51 -141 -51q-124 0 -200 127v-460h-253z" />
<glyph unicode="&#xb6;" horiz-adv-x="1120" d="M77 912q0 156 104 281q142 172 469 172h658l-49 -195h-147l-340 -1360h-200l339 1360h-188l-339 -1360h-201l211 846q-101 0 -170 27q-147 58 -147 229z" />
<glyph unicode="&#xb7;" horiz-adv-x="515" d="M105 474q0 79 58 137q60 59 137 59q57 0 94 -37q36 -36 36 -95q0 -71 -52 -128q-58 -63 -137 -63q-58 0 -96 33q-40 36 -40 94z" />
<glyph unicode="&#xb8;" d="M185 -435l24 104q77 -30 127 -30q53 0 85 35q28 31 28 76q0 39 -23 61q-30 28 -81 28q-19 0 -50 -4l89 165h132l-53 -98q144 -35 144 -157q0 -92 -66 -157q-72 -70 -185 -70q-78 0 -171 47z" />
<glyph unicode="&#xb9;" horiz-adv-x="705" d="M312 532l141 575l-140 -8l23 92q161 1 226 143h112l-200 -802h-162z" />
<glyph unicode="&#xba;" horiz-adv-x="673" d="M97 573l27 107h532l-27 -107h-532zM186 1014q0 93 43 182q91 191 305 191q113 0 181 -58q76 -64 76 -188q0 -159 -100 -271q-91 -102 -243 -102q-108 0 -174 48q-88 65 -88 198zM354 1011q0 -50 23 -81q28 -35 81 -35q72 0 118 77q48 79 48 164q0 124 -105 124 q-71 0 -117 -77q-48 -80 -48 -172z" />
<glyph unicode="&#xbb;" horiz-adv-x="974" d="M-4 0l301 491l-57 489h215l81 -489l-326 -491h-214zM381 0l301 491l-57 489h214l81 -489l-325 -491h-214z" />
<glyph unicode="&#xbc;" horiz-adv-x="1748" d="M298 0l1052 1331h200l-1051 -1331h-201zM312 532l141 575l-141 -8l23 92q162 1 227 143h112l-200 -802h-162zM1007 174l31 126l437 513h192l-126 -506h145l-34 -133h-140l-44 -174h-167l44 174h-338zM1196 307h190l88 348z" />
<glyph unicode="&#xbd;" horiz-adv-x="1749" d="M298 0l1052 1331h200l-1051 -1331h-201zM312 532l141 575l-141 -8l23 92q162 1 227 143h112l-200 -802h-162zM1019 0l31 128l20 17l105 89q232 202 276 247q72 74 72 124q0 36 -26 57q-23 19 -59 19q-91 0 -128 -112h-137q16 101 70 161q78 88 218 88q96 0 158 -45 q69 -50 69 -141q0 -89 -80 -179q-53 -60 -215 -200q-77 -67 -126 -106h315l-36 -147h-527z" />
<glyph unicode="&#xbe;" horiz-adv-x="1748" d="M138 731q0 18 3 47h146v-14q0 -38 19 -64q32 -44 98 -44q64 0 102 46q31 36 31 84q0 72 -83 89q-33 7 -109 7l33 131q26 -1 41 -1q73 0 119 25q26 14 42.5 40.5t16.5 54.5q0 32 -20 55q-23 27 -63 27q-77 0 -111 -101h-138q54 237 278 237q104 0 165 -59q55 -54 55 -136 q0 -90 -63 -153q-34 -35 -93 -55q97 -56 97 -157q0 -120 -92 -199q-83 -71 -215 -71q-120 0 -192 60q-67 56 -67 151zM298 0l1052 1331h201l-1052 -1331h-201zM1007 174l32 126l436 513h193l-126 -506h144l-33 -133h-141l-43 -174h-167l43 174h-338zM1197 307h189l89 348z " />
<glyph unicode="&#xbf;" horiz-adv-x="815" d="M-72 -120q0 95 51 174q38 58 162 165q107 91 136 124q47 52 67 135q5 22 13 56h225q-24 -122 -51 -184q-30 -72 -91 -133q-21 -22 -99 -90q-76 -65 -104 -101q-41 -52 -41 -101q0 -35 26 -59q29 -27 79 -27q123 0 167 165h192q-29 -174 -124 -271q-109 -113 -290 -113 q-144 0 -234 75q-84 69 -84 185zM364 806q0 75 53 131q59 63 139 63q56 0 94 -33q40 -36 40 -96q0 -76 -58 -135q-59 -60 -136 -60q-59 0 -95 37q-37 37 -37 93z" />
<glyph unicode="&#xc0;" horiz-adv-x="1182" d="M-103 0l788 1365h259l109 -1365h-263l-15 284h-440l-158 -284h-280zM443 501h326l-5 150q-6 173 -6 397v73q-92 -203 -115 -249q-103 -207 -120 -230zM456 1782h320l222 -287h-203z" />
<glyph unicode="&#xc1;" horiz-adv-x="1182" d="M-103 0l788 1365h259l109 -1365h-263l-15 284h-440l-158 -284h-280zM443 501h326l-5 150q-6 173 -6 397v73q-92 -203 -115 -249q-103 -207 -120 -230zM654 1502l355 273h355l-493 -273h-217z" />
<glyph unicode="&#xc2;" horiz-adv-x="1182" d="M-103 0l788 1365h259l109 -1365h-263l-15 284h-440l-158 -284h-280zM443 501h326l-5 150q-6 173 -6 397v73q-92 -203 -115 -249q-103 -207 -120 -230zM444 1500l354 287h208l207 -287h-205l-125 145l-210 -145h-229z" />
<glyph unicode="&#xc3;" horiz-adv-x="1182" d="M-103 0l788 1365h259l109 -1365h-263l-15 284h-440l-158 -284h-280zM443 501h326l-5 150q-6 173 -6 397v73q-92 -203 -115 -249q-103 -207 -120 -230zM515 1541q111 210 242 210q45 0 140 -29q94 -28 125 -28q58 0 130 68l85 -26q-98 -212 -239 -212q-54 0 -147 28 q-100 30 -126 30q-67 0 -125 -68z" />
<glyph unicode="&#xc4;" horiz-adv-x="1182" d="M-103 0l788 1365h259l109 -1365h-263l-15 284h-440l-158 -284h-280zM443 501h326l-5 150q-6 173 -6 397v73q-92 -203 -115 -249q-103 -207 -120 -230zM507 1617q0 64 50 115q54 54 128 54q55 0 91 -34q35 -33 35 -86q0 -65 -50 -117q-51 -53 -125 -53q-57 0 -93 35 q-36 34 -36 86zM950 1617q0 65 52 117q53 52 126 52q55 0 91 -34q35 -33 35 -86q0 -65 -50 -117q-51 -53 -125 -53q-57 0 -93 35q-36 34 -36 86z" />
<glyph unicode="&#xc5;" horiz-adv-x="1182" d="M-103 0l788 1365h259l109 -1365h-263l-15 284h-440l-158 -284h-280zM443 501h326l-5 150q-6 173 -6 397v73q-92 -203 -115 -249q-103 -207 -120 -230zM659 1649q0 87 60 145q61 59 146 59q81 0 141 -59q59 -59 59 -144q0 -84 -59 -143q-60 -60 -144 -60t-143 60 q-60 59 -60 142zM762 1650q0 -42 29 -71q30 -29 71 -29t71 29q29 29 29 70q0 43 -29 71q-30 29 -72 29q-41 0 -70 -29t-29 -70z" />
<glyph unicode="&#xc6;" horiz-adv-x="1806" d="M-101 0l1132 1365h908l-55 -224h-534l-81 -325h509l-56 -224h-509l-92 -368h578l-56 -224h-836l74 282h-463l-224 -282h-295zM601 506h332l167 634z" />
<glyph unicode="&#xc7;" horiz-adv-x="1269" d="M119 518q0 234 100 440q118 244 311 353q141 80 311 80q208 0 328 -113q119 -111 119 -323v-33h-234q-3 94 -37 148q-59 96 -192 96q-190 0 -323 -217q-56 -93 -88.5 -207.5t-32.5 -223.5q0 -151 77 -238q72 -81 196 -81q245 0 339 307h240q-51 -239 -201 -382 q-161 -152 -383 -150l-45 -83q160 -39 160 -173q0 -102 -73 -174q-79 -78 -206 -78q-87 0 -189 52l27 116q86 -31 139 -31q58 0 92 38q31 35 31 81q0 43 -25 68q-30 31 -88 31q-22 0 -55 -4l92 169q-390 90 -390 532z" />
<glyph unicode="&#xc8;" horiz-adv-x="1069" d="M52 0l340 1365h819l-55 -224h-565l-80 -322h539l-56 -224h-539l-93 -371h600l-56 -224h-854zM479 1782h320l222 -287h-203z" />
<glyph unicode="&#xc9;" horiz-adv-x="1069" d="M52 0l340 1365h820l-56 -224h-565l-80 -322h539l-55 -224h-539l-93 -371h599l-56 -224h-854zM623 1502l354 273h355l-492 -273h-217z" />
<glyph unicode="&#xca;" horiz-adv-x="1069" d="M52 0l340 1365h820l-56 -224h-565l-80 -322h539l-55 -224h-539l-93 -371h599l-56 -224h-854zM454 1500l353 287h208l208 -287h-206l-125 145l-210 -145h-228z" />
<glyph unicode="&#xcb;" horiz-adv-x="1069" d="M52 0l340 1365h820l-56 -224h-565l-80 -322h539l-55 -224h-539l-93 -371h599l-56 -224h-854zM499 1617q0 64 51 115q53 54 127 54q55 0 91 -34q35 -33 35 -86q0 -64 -50 -117t-125 -53q-57 0 -93 35t-36 86zM942 1616q0 67 52 118q53 52 126 52q55 0 91 -34 q35 -33 35 -86q0 -64 -50 -117t-125 -53q-56 0 -93 35q-36 35 -36 85z" />
<glyph unicode="&#xcc;" horiz-adv-x="591" d="M52 0l340 1365h255l-340 -1365h-255zM215 1782h300l181 -287h-190z" />
<glyph unicode="&#xcd;" horiz-adv-x="590" d="M52 0l340 1365h255l-340 -1365h-255zM379 1502l287 273h334l-417 -273h-204z" />
<glyph unicode="&#xce;" horiz-adv-x="591" d="M52 0l340 1365h255l-340 -1365h-255zM200 1500l320 287h208l173 -287h-199l-97 145l-183 -145h-222z" />
<glyph unicode="&#xcf;" horiz-adv-x="591" d="M52 0l340 1365h255l-340 -1365h-255zM242 1617q0 64 51 115q53 54 127 54q55 0 91 -34q35 -33 35 -86q0 -65 -50 -117q-50 -53 -125 -53q-57 0 -93 35q-36 34 -36 86zM631 1617q0 66 52 117q53 52 125 52q56 0 91 -34q35 -33 35 -86q0 -65 -50 -117q-50 -53 -125 -53 q-56 0 -92 35t-36 86z" />
<glyph unicode="&#xd0;" horiz-adv-x="1308" d="M52 0l152 608h-137l51 205h137l137 552h283q182 0 279 -22q343 -78 343 -485q0 -273 -115 -483q-61 -112 -153 -195.5t-198 -124.5q-102 -38 -228 -48q-97 -7 -212 -7h-339zM363 224h137q163 0 249 41q133 64 210 236q75 168 75 355q0 167 -85 234q-64 51 -234 51h-123 l-82 -328h287l-51 -205h-287z" />
<glyph unicode="&#xd1;" horiz-adv-x="1419" d="M52 0l340 1365h267l333 -982l245 982h239l-340 -1365h-253l-346 983l-246 -983h-239zM654 1541q39 72 72 113q35 44 81.5 70.5t89.5 26.5q44 0 139 -29q94 -28 125 -28q58 0 131 68l85 -26q-101 -212 -239 -212q-55 0 -147 28q-100 30 -127 30q-66 0 -124 -68z" />
<glyph unicode="&#xd2;" horiz-adv-x="1346" d="M115 497q0 221 93 433q108 249 298 368q148 93 345 93q214 0 345 -126q143 -138 143 -399q0 -222 -90 -427q-113 -257 -308 -376q-146 -89 -331 -89q-227 0 -358 134q-137 139 -137 389zM378 506q0 -140 58 -218q66 -90 195 -90q186 0 317 218q59 98 93.5 217t34.5 225 q0 133 -51 211q-64 97 -202 97q-182 0 -312 -210q-133 -212 -133 -450zM565 1782h321l222 -287h-203z" />
<glyph unicode="&#xd3;" horiz-adv-x="1346" d="M115 497q0 221 93 433q108 249 298 368q148 93 345 93q214 0 345 -126q143 -138 143 -399q0 -222 -90 -427q-113 -257 -308 -376q-146 -89 -331 -89q-227 0 -358 134q-137 139 -137 389zM378 506q0 -140 58 -218q66 -90 195 -90q186 0 317 218q59 98 93.5 217t34.5 225 q0 133 -51 211q-64 97 -202 97q-182 0 -312 -210q-133 -212 -133 -450zM736 1502l356 273h354l-493 -273h-217z" />
<glyph unicode="&#xd4;" horiz-adv-x="1346" d="M115 497q0 221 93 433q108 249 298 368q148 93 345 93q214 0 345 -126q143 -138 143 -399q0 -222 -90 -427q-113 -257 -308 -376q-146 -89 -331 -89q-227 0 -358 134q-137 139 -137 389zM378 506q0 -140 58 -218q66 -90 195 -90q186 0 317 218q59 98 93.5 217t34.5 225 q0 133 -51 211q-64 97 -202 97q-182 0 -312 -210q-133 -212 -133 -450zM533 1500l355 287h208l206 -287h-205l-124 145l-211 -145h-229z" />
<glyph unicode="&#xd5;" horiz-adv-x="1346" d="M115 497q0 221 93 433q108 249 298 368q148 93 345 93q214 0 345 -126q143 -138 143 -399q0 -222 -90 -427q-113 -257 -308 -376q-146 -89 -331 -89q-227 0 -358 134q-137 139 -137 389zM378 506q0 -140 58 -218q66 -90 195 -90q186 0 317 218q59 98 93.5 217t34.5 225 q0 133 -51 211q-64 97 -202 97q-182 0 -312 -210q-133 -212 -133 -450zM598 1541q107 210 241 210q45 0 141 -29q94 -28 124 -28q59 0 131 68l84 -26q-94 -212 -239 -212q-54 0 -146 28q-100 30 -129 30q-65 0 -123 -68z" />
<glyph unicode="&#xd6;" horiz-adv-x="1346" d="M115 497q0 221 92 434q106 242 300 366q147 94 344 94q214 0 345 -126q143 -138 143 -399q0 -222 -90 -427q-113 -257 -308 -376q-146 -89 -331 -89q-227 0 -358 134q-137 139 -137 389zM378 506q0 -140 58 -218q66 -90 195 -90q186 0 317 218q59 98 93.5 217t34.5 225 q0 133 -51 211q-64 97 -202 97q-182 0 -312 -210q-133 -212 -133 -450zM593 1617q0 64 50 115q53 54 128 54q55 0 91 -34q35 -33 35 -86q0 -65 -50 -117q-52 -53 -125 -53q-57 0 -94 35q-35 34 -35 86zM1036 1617q0 65 51 117q53 52 127 52q55 0 91 -34q35 -33 35 -86 q0 -65 -50 -117q-52 -53 -125 -53q-57 0 -94 35q-35 34 -35 86z" />
<glyph unicode="&#xd7;" horiz-adv-x="1120" d="M176 382l300 301l-290 290l136 136l290 -291l292 293l139 -139l-294 -291l292 -292l-135 -136l-291 291l-300 -301z" />
<glyph unicode="&#xd8;" horiz-adv-x="1346" d="M-70 0l237 230q-52 118 -52 274q0 214 92 426q109 249 299 368q148 93 339 93q232 0 372 -148l131 122h184l-244 -231q51 -121 51 -278q0 -212 -90 -417q-112 -256 -308 -376q-146 -89 -329 -89q-167 0 -269 64q-34 21 -102 77l-127 -115h-184zM378 513q0 -29 4 -89 l638 653q-68 89 -193 89q-185 0 -316 -210q-59 -95 -96 -213q-37 -122 -37 -230zM428 295l10 -11q46 -48 81 -63q53 -23 112 -23q186 0 317 218q59 99 93.5 217.5t34.5 224.5q0 39 -6 87z" />
<glyph unicode="&#xd9;" horiz-adv-x="1357" d="M152 360q0 96 44 272l183 733h254l-181 -729q-41 -163 -41 -242q0 -88 67 -141q69 -54 173 -54q170 0 248 137q30 53 64 191l209 838h255l-210 -842q-41 -165 -67 -232q-122 -317 -515 -317q-234 0 -369 123q-114 105 -114 263zM571 1782h320l222 -287h-203z" />
<glyph unicode="&#xda;" horiz-adv-x="1357" d="M152 360q0 96 44 272l183 733h254l-181 -729q-41 -163 -41 -242q0 -88 67 -141q69 -54 173 -54q170 0 248 137q30 53 64 191l209 838h255l-210 -842q-41 -165 -67 -232q-122 -317 -515 -317q-234 0 -369 123q-114 105 -114 263zM742 1502l355 273h354l-492 -273h-217z " />
<glyph unicode="&#xdb;" horiz-adv-x="1357" d="M152 360q0 96 44 272l183 733h254l-181 -729q-41 -163 -41 -242q0 -88 67 -141q69 -54 173 -54q170 0 248 137q30 53 64 191l209 838h255l-210 -842q-41 -165 -67 -232q-122 -317 -515 -317q-234 0 -369 123q-114 105 -114 263zM553 1500l353 287h209l206 -287h-205 l-125 145l-210 -145h-228z" />
<glyph unicode="&#xdc;" horiz-adv-x="1357" d="M152 360q0 96 44 272l183 733h254l-181 -729q-41 -163 -41 -242q0 -88 67 -141q69 -54 173 -54q170 0 248 137q30 53 64 191l209 838h255l-210 -842q-41 -165 -67 -232q-122 -317 -515 -317q-234 0 -369 123q-114 105 -114 263zM598 1617q0 64 50 115q53 54 128 54 q55 0 91 -34q35 -33 35 -86q0 -65 -50 -117q-51 -53 -125 -53q-57 0 -93 35q-36 34 -36 86zM1041 1617q0 65 52 117t126 52q55 0 91 -34q35 -33 35 -86q0 -65 -50 -117q-51 -53 -125 -53q-57 0 -93 35q-36 34 -36 86z" />
<glyph unicode="&#xdd;" horiz-adv-x="1066" d="M205 1365h271l132 -572l413 572h304l-640 -827l-134 -538h-255l134 538zM597 1502l355 273h355l-493 -273h-217z" />
<glyph unicode="&#xde;" horiz-adv-x="1124" d="M52 0l340 1365h259l-48 -191h79q253 0 357 -68q137 -90 137 -280q0 -167 -85 -294q-99 -146 -279 -189q-100 -24 -291 -24h-131l-80 -319h-258zM443 543h135q113 0 174 17q84 23 124 96q36 65 36 143q0 105 -88 135q-48 16 -160 16h-120z" />
<glyph unicode="&#xdf;" horiz-adv-x="1113" d="M20 0l213 855q38 160 60 223q56 162 183 241q111 69 255 69q155 0 254 -82q102 -84 102 -217q0 -148 -113 -246q-61 -52 -151 -75q206 -87 206 -295q0 -117 -48 -227q-62 -143 -177 -209q-91 -51 -197 -51q-92 0 -187 42l54 219q68 -38 122 -38q86 0 134 79q45 74 45 162 q0 202 -250 200l54 218q22 -1 32 -1q84 0 139 38q83 58 83 160q0 52 -36 87q-37 35 -91 35q-96 0 -151 -92q-22 -38 -41 -105q-5 -15 -28 -106l-221 -884h-245z" />
<glyph unicode="&#xe0;" horiz-adv-x="1025" d="M25 233q0 211 261 295q112 36 401 94l6 25q9 32 9 48q0 97 -135 97q-136 0 -183 -103h-232q46 144 147 215q123 88 297 88q168 0 267 -79q76 -60 76 -164q0 -66 -25 -166l-92 -367q-25 -102 -25 -170v-46h-219q1 71 11 110q-108 -127 -269 -127q-130 0 -212 66 q-83 68 -83 184zM279 270q0 -52 44 -78q31 -19 80 -19q114 0 175 86q27 38 56 149l12 50q-191 -35 -263 -66q-104 -45 -104 -122zM355 1413h274l169 -314h-170z" />
<glyph unicode="&#xe1;" horiz-adv-x="1025" d="M25 233q0 211 261 295q112 36 401 94l6 25q9 32 9 48q0 97 -135 97q-136 0 -183 -103h-232q46 144 147 215q123 88 297 88q168 0 267 -79q76 -60 76 -164q0 -66 -25 -166l-92 -367q-25 -102 -25 -170v-46h-219q1 71 11 110q-108 -127 -269 -127q-130 0 -212 66 q-83 68 -83 184zM279 270q0 -52 44 -78q31 -19 80 -19q114 0 175 86q27 38 56 149l12 50q-191 -35 -263 -66q-104 -45 -104 -122zM463 1106l322 300h315l-453 -300h-184z" />
<glyph unicode="&#xe2;" horiz-adv-x="1025" d="M25 233q0 211 261 295q112 36 401 94l6 25q9 32 9 48q0 97 -135 97q-136 0 -183 -103h-232q46 144 147 215q123 88 297 88q168 0 267 -79q76 -60 76 -164q0 -66 -25 -166l-92 -367q-25 -102 -25 -170v-46h-219q1 71 11 110q-108 -127 -269 -127q-130 0 -212 66 q-83 68 -83 184zM279 270q0 -52 44 -78q31 -19 80 -19q114 0 175 86q27 38 56 149l12 50q-191 -35 -263 -66q-104 -45 -104 -122zM300 1106l315 300h199l163 -300h-193l-88 158l-179 -158h-217z" />
<glyph unicode="&#xe3;" horiz-adv-x="1025" d="M25 233q0 211 261 295q112 36 401 94l6 25q9 32 9 48q0 97 -135 97q-136 0 -183 -103h-232q46 144 147 215q123 88 297 88q168 0 267 -79q76 -60 76 -164q0 -66 -25 -166l-92 -367q-25 -102 -25 -170v-46h-219q1 71 11 110q-108 -127 -269 -127q-130 0 -212 66 q-83 68 -83 184zM279 270q0 -52 44 -78q31 -19 80 -19q114 0 175 86q27 38 56 149l12 50q-191 -35 -263 -66q-104 -45 -104 -122zM349 1158q104 218 228 218q41 0 125 -33q84 -32 113 -32q50 0 117 69l85 -27q-93 -213 -226 -213q-51 0 -132 32q-89 35 -115 35 q-59 0 -110 -75z" />
<glyph unicode="&#xe4;" horiz-adv-x="1025" d="M25 233q0 211 261 295q112 36 401 94l6 25q9 32 9 48q0 97 -135 97q-136 0 -183 -103h-232q46 144 147 215q123 88 297 88q168 0 267 -79q76 -60 76 -164q0 -66 -25 -166l-92 -367q-25 -102 -25 -170v-46h-219q1 71 11 110q-108 -127 -269 -127q-130 0 -212 66 q-83 68 -83 184zM279 270q0 -52 44 -78q31 -19 80 -19q114 0 175 86q27 38 56 149l12 50q-191 -35 -263 -66q-104 -45 -104 -122zM343 1234q0 58 46 105q48 49 115 49q51 0 83 -31q32 -30 32 -78q0 -59 -45 -107q-46 -48 -114 -48q-52 0 -85 32q-32 31 -32 78zM746 1234 q0 59 47 106q47 48 114 48q51 0 83 -31q32 -30 32 -78q0 -59 -45 -107q-46 -48 -114 -48q-52 0 -85 32q-32 31 -32 78z" />
<glyph unicode="&#xe5;" horiz-adv-x="1025" d="M25 233q0 211 261 295q112 36 401 94l6 25q9 32 9 48q0 97 -135 97q-136 0 -183 -103h-232q46 144 147 215q123 88 297 88q168 0 267 -79q76 -60 76 -164q0 -66 -25 -166l-92 -367q-25 -102 -25 -170v-46h-219q1 71 11 110q-108 -127 -269 -127q-130 0 -212 66 q-83 68 -83 184zM279 270q0 -52 44 -78q31 -19 80 -19q114 0 175 86q27 38 56 149l12 50q-191 -35 -263 -66q-104 -45 -104 -122zM476 1273q0 87 60 145q61 59 146 59q82 0 141 -59q60 -59 60 -144q0 -84 -60 -144q-59 -59 -143 -59t-144 59q-60 60 -60 143zM579 1274 q0 -42 30 -71q29 -29 71 -29q41 0 71 29q29 29 29 70q0 42 -29 71q-31 29 -73 29q-40 0 -69 -29q-30 -29 -30 -70z" />
<glyph unicode="&#xe6;" horiz-adv-x="1590" d="M25 232q0 148 128 235q156 105 530 139l7 27q12 48 12 70q0 41 -34 63q-38 26 -102 26q-135 0 -182 -103h-232q46 144 147 215q123 88 295 88q186 0 269 -110q139 118 304 118q167 0 269 -100q105 -105 105 -284q0 -100 -28 -191h-640q-3 -28 -3 -47q0 -84 33 -135 q47 -73 151 -73q86 0 144 48q30 25 62 76l211 -21q-139 -301 -434 -301q-151 0 -249 81q-38 32 -77 87q-65 -69 -127 -102q-104 -56 -238 -56q-151 0 -238 68q-83 65 -83 182zM279 270q0 -53 44 -79q33 -19 83 -19q112 0 171 86q28 41 57 151l7 26q-173 -19 -261 -54 q-101 -40 -101 -111zM918 607h395v19q0 77 -36 122q-43 54 -124 54q-158 0 -235 -195z" />
<glyph unicode="&#xe7;" horiz-adv-x="999" d="M67 376q0 153 64 296q81 181 235 267q108 61 242 61q218 0 303 -149q44 -76 45 -202h-227q0 151 -130 151q-114 0 -195 -131q-38 -62 -60.5 -144.5t-22.5 -160.5q0 -86 42 -138q44 -55 123 -55q138 0 199 176h233q-46 -194 -176 -292q-107 -78 -245 -81l-33 -72 q144 -35 144 -157q0 -92 -67 -157q-71 -70 -185 -70q-77 0 -170 47l24 104q78 -30 127 -30q53 0 85 35q28 31 28 76q0 39 -23 61q-30 28 -81 28q-20 0 -50 -4l76 147q-92 22 -153 66q-152 109 -152 328z" />
<glyph unicode="&#xe8;" horiz-adv-x="1039" d="M66 375q0 153 67 298q85 184 240 268q109 59 239 59q172 0 273 -100q105 -104 105 -284q0 -100 -28 -191h-640q-3 -29 -3 -50q0 -81 33 -132q48 -73 148 -73q88 0 147 48q30 25 62 76l211 -21q-63 -130 -135 -193q-123 -108 -315 -108q-176 0 -280 91q-124 109 -124 312z M367 607h395v20q0 74 -36 120q-42 55 -124 55q-97 0 -169 -82q-40 -46 -66 -113zM375 1413h274l169 -314h-170z" />
<glyph unicode="&#xe9;" horiz-adv-x="1039" d="M66 375q0 153 67 298q85 184 240 268q109 59 239 59q172 0 273 -100q105 -104 105 -284q0 -100 -28 -191h-640q-3 -29 -3 -50q0 -81 33 -132q48 -73 148 -73q88 0 147 48q30 25 62 76l211 -21q-63 -130 -135 -193q-123 -108 -315 -108q-176 0 -280 91q-124 109 -124 312z M367 607h395v20q0 74 -36 120q-42 55 -124 55q-97 0 -169 -82q-40 -46 -66 -113zM476 1106l323 300h314l-453 -300h-184z" />
<glyph unicode="&#xea;" horiz-adv-x="1038" d="M66 375q0 153 67 298q85 184 240 268q109 59 239 59q172 0 273 -100q105 -104 105 -284q0 -100 -28 -191h-640q-3 -29 -3 -50q0 -81 33 -132q48 -73 148 -73q88 0 147 48q30 25 62 76l211 -21q-63 -130 -135 -193q-123 -108 -315 -108q-176 0 -280 91q-124 109 -124 312z M320 1106l315 300h199l163 -300h-193l-88 158l-179 -158h-217zM367 607h395v20q0 74 -36 120q-42 55 -124 55q-97 0 -169 -82q-40 -46 -66 -113z" />
<glyph unicode="&#xeb;" horiz-adv-x="1039" d="M66 375q0 153 67 298q85 184 240 268q109 59 239 59q172 0 273 -100q105 -104 105 -284q0 -100 -28 -191h-640q-3 -29 -3 -50q0 -81 33 -132q48 -73 148 -73q88 0 147 48q30 25 62 76l211 -21q-63 -130 -135 -193q-123 -108 -315 -108q-176 0 -280 91q-124 109 -124 312z M356 1233q0 60 46 106q48 49 116 49q50 0 82 -31q32 -30 32 -78q0 -59 -45 -107q-46 -48 -114 -48q-52 0 -85 32q-32 31 -32 77zM367 607h395v20q0 74 -36 120q-42 55 -124 55q-97 0 -169 -82q-40 -46 -66 -113zM759 1233q0 61 47 107q47 48 115 48q50 0 82 -31 q32 -30 32 -78q0 -59 -45 -107q-46 -48 -114 -48q-52 0 -85 32q-32 31 -32 77z" />
<glyph unicode="&#xec;" horiz-adv-x="526" d="M25 0l241 969h245l-241 -969h-245zM160 1413h261l128 -314h-164z" />
<glyph unicode="&#xed;" horiz-adv-x="526" d="M25 0l241 969h245l-241 -969h-245zM282 1106l240 300h301l-370 -300h-171z" />
<glyph unicode="&#xee;" horiz-adv-x="526" d="M25 0l241 969h245l-241 -969h-245zM119 1106l281 300h198l130 -300h-186l-61 158l-151 -158h-211z" />
<glyph unicode="&#xef;" horiz-adv-x="526" d="M25 0l242 969h245l-242 -969h-245zM148 1234q0 59 46 105q48 49 116 49q51 0 83 -31q32 -30 32 -78q0 -59 -46 -107t-114 -48q-52 0 -84 32q-33 31 -33 78zM497 1234q0 59 47 106q48 48 114 48q51 0 83 -31q32 -30 32 -78q0 -59 -45 -107q-46 -48 -114 -48q-52 0 -85 32 q-32 31 -32 78z" />
<glyph unicode="&#xf0;" horiz-adv-x="1085" d="M66 373q0 160 72 311q85 181 230 260q92 51 199 51q71 0 123 -20q51 -20 114 -93q-13 67 -34.5 129t-49.5 111l-148 -52l-54 118l141 53l-53 88l164 77l69 -100l156 57l57 -118l-148 -54q67 -125 96 -224q41 -142 41 -291q0 -257 -109 -442q-154 -262 -451 -262 q-175 0 -279 82q-136 106 -136 319zM321 368q0 -85 37 -137q45 -62 135 -62q120 0 200 135q82 138 82 289q0 209 -173 209q-120 0 -199 -135q-82 -139 -82 -299z" />
<glyph unicode="&#xf1;" horiz-adv-x="1098" d="M25 0l156 624q39 151 54 241q4 43 6 104h237q0 -71 -18 -138q134 161 298 161q120 0 196 -78q62 -65 62 -161q0 -76 -32 -206l-137 -547h-245l126 505q24 96 24 150t-40 87q-35 29 -89 29q-104 0 -166 -103q-34 -56 -62 -170l-125 -498h-245zM392 1158q38 76 67 117 q33 46 77 73.5t85 27.5q40 0 125 -33q84 -32 113 -32q52 0 116 69l85 -27q-95 -213 -225 -213q-51 0 -133 32q-89 35 -115 35q-58 0 -110 -75z" />
<glyph unicode="&#xf2;" horiz-adv-x="1085" d="M66 374q0 159 70 309q149 317 488 317q180 0 287 -96q116 -104 116 -307q0 -151 -62 -292q-145 -333 -487 -333q-174 0 -276 80q-136 107 -136 322zM320 368q0 -85 37 -137q45 -62 135 -62q119 0 199 135q82 138 82 289q0 209 -173 209q-119 0 -199 -135 q-81 -139 -81 -299zM405 1413h273l170 -314h-170z" />
<glyph unicode="&#xf3;" horiz-adv-x="1085" d="M66 374q0 159 70 309q149 317 488 317q180 0 287 -96q116 -104 116 -307q0 -151 -62 -292q-145 -333 -487 -333q-174 0 -276 80q-136 107 -136 322zM320 368q0 -85 37 -137q45 -62 135 -62q119 0 199 135q82 138 82 289q0 209 -173 209q-119 0 -199 -135 q-81 -139 -81 -299zM506 1106l322 300h315l-453 -300h-184z" />
<glyph unicode="&#xf4;" horiz-adv-x="1085" d="M66 374q0 159 70 309q149 317 488 317q180 0 287 -96q116 -104 116 -307q0 -151 -62 -292q-145 -333 -487 -333q-174 0 -276 80q-136 107 -136 322zM320 368q0 -85 37 -137q45 -62 135 -62q119 0 199 135q82 138 82 289q0 209 -173 209q-119 0 -199 -135 q-81 -139 -81 -299zM336 1106l315 300h199l163 -300h-193l-88 158l-179 -158h-217z" />
<glyph unicode="&#xf5;" horiz-adv-x="1085" d="M66 374q0 159 70 309q149 317 488 317q180 0 287 -96q116 -104 116 -307q0 -151 -62 -292q-145 -333 -487 -333q-174 0 -276 80q-136 107 -136 322zM320 368q0 -85 37 -137q45 -62 135 -62q119 0 199 135q82 138 82 289q0 209 -173 209q-119 0 -199 -135 q-81 -139 -81 -299zM385 1158q105 218 228 218q41 0 126 -33q83 -32 113 -32q51 0 116 69l85 -27q-93 -213 -226 -213q-50 0 -132 32q-89 35 -115 35q-58 0 -110 -75z" />
<glyph unicode="&#xf6;" horiz-adv-x="1085" d="M66 374q0 159 70 309q149 317 488 317q180 0 287 -96q116 -104 116 -307q0 -151 -62 -292q-145 -333 -487 -333q-174 0 -276 80q-136 107 -136 322zM320 368q0 -85 37 -137q45 -62 135 -62q119 0 199 135q82 138 82 289q0 209 -173 209q-119 0 -199 -135 q-81 -139 -81 -299zM386 1234q0 58 46 105q47 49 115 49q51 0 83 -31q32 -30 32 -78q0 -59 -45 -107q-46 -48 -114 -48q-52 0 -85 32q-32 31 -32 78zM789 1234q0 59 47 106q47 48 114 48q51 0 83 -31q32 -30 32 -78q0 -59 -45 -107q-46 -48 -114 -48q-52 0 -85 32 q-32 31 -32 78z" />
<glyph unicode="&#xf7;" horiz-adv-x="1120" d="M128 587v192h973v-192h-973zM473 355q0 60 41 100q42 41 101 41q56 0 98 -41q41 -41 41 -100q0 -57 -41 -98q-41 -42 -100 -42q-58 0 -99 42q-41 40 -41 98zM473 1011q0 60 41 100q42 41 101 41q56 0 98 -41q41 -41 41 -99t-41 -99q-41 -42 -100 -42q-58 0 -99 42 q-41 40 -41 98z" />
<glyph unicode="&#xf8;" horiz-adv-x="1085" d="M-94 0l218 191q-33 90 -33 185q0 157 70 307q149 317 482 317q185 0 296 -99l87 75h166l-187 -163q47 -100 47 -218q0 -149 -62 -290q-145 -333 -488 -333q-209 0 -320 123l-110 -95h-166zM347 401q0 -10 1 -30l397 381q-33 50 -117 50q-141 0 -224 -178 q-57 -123 -57 -223zM375 245q38 -76 143 -76q118 0 198 135q37 61 59.5 140t22.5 144q0 20 -3 65z" />
<glyph unicode="&#xf9;" horiz-adv-x="1111" d="M101 240q0 89 33 221l126 508h245l-134 -537q-17 -69 -17 -112q0 -60 46 -94q35 -26 91 -26q106 0 169 94q36 53 63 159l129 516h245l-167 -668q-11 -44 -31 -125q-20 -84 -20 -143q0 -12 1 -33h-233q-1 15 -1 22q0 36 10 90q-109 -133 -268 -133q-132 0 -212 79 q-75 74 -75 182zM411 1413h274l170 -314h-171z" />
<glyph unicode="&#xfa;" horiz-adv-x="1111" d="M101 240q0 89 33 221l126 508h245l-134 -537q-17 -69 -17 -112q0 -60 46 -94q35 -26 91 -26q106 0 169 94q36 53 63 159l129 516h245l-167 -668q-11 -44 -31 -125q-20 -84 -20 -143q0 -12 1 -33h-233q-1 15 -1 22q0 36 10 90q-109 -133 -268 -133q-132 0 -212 79 q-75 74 -75 182zM533 1106l322 300h315l-453 -300h-184z" />
<glyph unicode="&#xfb;" horiz-adv-x="1111" d="M101 240q0 89 33 221l126 508h245l-134 -537q-17 -69 -17 -112q0 -60 46 -94q35 -26 91 -26q106 0 169 94q36 53 63 159l129 516h245l-167 -668q-11 -44 -31 -125q-20 -84 -20 -143q0 -12 1 -33h-233q-1 15 -1 22q0 36 10 90q-109 -133 -268 -133q-132 0 -212 79 q-75 74 -75 182zM377 1106l315 300h198l164 -300h-193l-88 158l-179 -158h-217z" />
<glyph unicode="&#xfc;" horiz-adv-x="1111" d="M101 240q0 89 33 221l126 508h245l-134 -537q-17 -69 -17 -112q0 -60 46 -94q35 -26 91 -26q106 0 169 94q36 53 63 159l129 516h245l-167 -668q-11 -44 -31 -125q-20 -84 -20 -143q0 -12 1 -33h-233q-1 15 -1 22q0 36 10 90q-109 -133 -268 -133q-132 0 -212 79 q-75 74 -75 182zM413 1234q0 59 45 105q48 49 116 49q51 0 83 -31q32 -30 32 -79q0 -58 -45 -106q-46 -48 -114 -48q-52 0 -85 32q-32 30 -32 78zM816 1234q0 60 47 106q47 48 114 48q51 0 83 -31q32 -30 32 -79q0 -58 -45 -106q-46 -48 -114 -48q-52 0 -85 32 q-32 30 -32 78z" />
<glyph unicode="&#xfd;" horiz-adv-x="991" d="M-156 -409l55 219h27q122 -1 183 20q79 29 135 126l-81 1013h246l30 -780l412 780h255l-537 -942q-152 -268 -286 -354q-130 -84 -345 -84q-37 0 -94 2zM493 1106l322 300h315l-453 -300h-184z" />
<glyph unicode="&#xfe;" horiz-adv-x="1102" d="M-74 -396l441 1770h245l-127 -507q93 125 241 125q144 0 231 -97q92 -103 92 -280q0 -149 -60 -296q-77 -186 -212 -276q-98 -64 -217 -64q-160 0 -264 127l-125 -502h-245zM375 387q0 -89 45 -142q46 -55 121 -55q103 0 177 122q77 126 77 278q0 78 -36 132 q-41 60 -123 60q-109 0 -184 -125q-34 -56 -55.5 -131t-21.5 -139z" />
<glyph unicode="&#xff;" horiz-adv-x="991" d="M-156 -409l55 219h27q122 -1 183 20q79 29 135 126l-81 1013h246l30 -780l412 780h255l-537 -942q-152 -268 -286 -354q-130 -84 -345 -84q-37 0 -94 2zM353 1234q0 58 46 105q48 49 115 49q51 0 83 -31q32 -30 32 -78q0 -59 -45 -107q-46 -48 -114 -48q-52 0 -85 32 q-32 31 -32 78zM755 1234q0 59 47 106q48 48 115 48q51 0 83 -31q32 -30 32 -78q0 -59 -45 -107q-47 -48 -115 -48q-52 0 -85 32q-32 31 -32 78z" />
<glyph unicode="&#x152;" horiz-adv-x="1900" d="M115 494q0 225 92 437q106 243 300 366q149 94 329 94q230 0 359 -145l29 119h820l-56 -224h-565l-80 -322h539l-56 -224h-537l-94 -371h599l-56 -224h-854l28 85q-134 -111 -316 -111q-211 0 -343 134q-138 140 -138 386zM378 504q0 -135 59 -215q67 -91 193 -91 q187 0 318 218q59 99 94 219q34 118 34 223q0 134 -51 211q-65 97 -204 97q-179 0 -310 -210q-133 -212 -133 -452z" />
<glyph unicode="&#x153;" horiz-adv-x="1718" d="M66 373q0 160 70 310q149 317 475 317q144 0 240 -66q46 -32 88 -92q146 158 354 158q169 0 270 -100q105 -104 105 -284q0 -101 -27 -191h-640q-3 -28 -3 -49q0 -82 33 -133q47 -73 148 -73q88 0 146 48q31 25 62 76l211 -21q-58 -126 -134 -193q-122 -108 -311 -108 q-132 0 -226 59q-47 29 -95 87q-63 -60 -110 -87q-104 -59 -248 -59q-170 0 -272 80q-136 107 -136 321zM320 368q0 -85 37 -137q46 -62 135 -62q120 0 200 135q82 138 82 289q0 209 -173 209q-120 0 -199 -135q-82 -139 -82 -299zM1046 607h394q-1 66 -12 97q-17 49 -62 76 q-36 22 -85 22q-97 0 -169 -82q-40 -46 -66 -113z" />
<glyph unicode="&#x178;" horiz-adv-x="1066" d="M205 1365h271l132 -572l413 572h304l-640 -827l-134 -538h-255l134 538zM453 1617q0 64 50 115q53 54 128 54q55 0 91 -34q35 -33 35 -86q0 -65 -50 -117q-51 -53 -125 -53q-57 0 -93 35q-36 34 -36 86zM896 1617q0 65 52 117t126 52q55 0 91 -34q35 -33 35 -86 q0 -65 -50 -117q-51 -53 -125 -53q-57 0 -93 35q-36 34 -36 86z" />
<glyph unicode="&#x2c6;" d="M333 1106l316 300h198l163 -300h-193l-88 158l-178 -158h-218z" />
<glyph unicode="&#x2dc;" d="M375 1158q105 218 228 218q41 0 126 -33q83 -32 113 -32q51 0 116 69l85 -27q-93 -213 -225 -213q-51 0 -133 32q-89 35 -115 35q-58 0 -110 -75z" />
<glyph unicode="&#x2000;" horiz-adv-x="926" />
<glyph unicode="&#x2001;" horiz-adv-x="1853" />
<glyph unicode="&#x2002;" horiz-adv-x="926" />
<glyph unicode="&#x2003;" horiz-adv-x="1853" />
<glyph unicode="&#x2004;" horiz-adv-x="617" />
<glyph unicode="&#x2005;" horiz-adv-x="463" />
<glyph unicode="&#x2006;" horiz-adv-x="308" />
<glyph unicode="&#x2007;" horiz-adv-x="308" />
<glyph unicode="&#x2008;" horiz-adv-x="231" />
<glyph unicode="&#x2009;" horiz-adv-x="370" />
<glyph unicode="&#x200a;" horiz-adv-x="102" />
<glyph unicode="&#x2010;" horiz-adv-x="517" d="M-10 425l45 182h518l-46 -182h-517z" />
<glyph unicode="&#x2011;" horiz-adv-x="517" d="M-10 425l45 182h518l-46 -182h-517z" />
<glyph unicode="&#x2012;" horiz-adv-x="517" d="M-10 425l45 182h518l-46 -182h-517z" />
<glyph unicode="&#x2013;" horiz-adv-x="1120" d="M141 425l45 182h818l-46 -182h-817z" />
<glyph unicode="&#x2014;" horiz-adv-x="1258" d="M-10 425l45 182h1259l-46 -182h-1258z" />
<glyph unicode="&#x2018;" horiz-adv-x="410" d="M207 990q0 164 228 375h116q-126 -118 -159 -236q43 0 70 -23q36 -32 36 -80q0 -75 -64 -123q-45 -35 -103 -35t-92 37q-32 34 -32 85z" />
<glyph unicode="&#x2019;" horiz-adv-x="410" d="M189 894q127 122 159 236q-43 0 -70 23q-36 32 -36 80q0 75 64 123q45 35 103 35q57 0 92 -37q32 -34 32 -84q0 -160 -228 -376h-116z" />
<glyph unicode="&#x201a;" horiz-adv-x="410" d="M-92 -232q127 122 159 236q-43 0 -70 23q-36 32 -36 80q0 75 64 123q45 35 103 35q57 0 92 -37q32 -34 32 -84q0 -160 -228 -376h-116z" />
<glyph unicode="&#x201c;" horiz-adv-x="786" d="M193 1016q0 163 228 375h116q-126 -118 -159 -236q43 0 70 -23q36 -32 36 -80q0 -75 -64 -123q-45 -35 -103 -35t-92 37q-32 34 -32 85zM569 1016q0 164 228 375h116q-126 -118 -159 -236q43 0 70 -23q36 -32 36 -80q0 -75 -64 -123q-45 -35 -103 -35t-92 37 q-32 34 -32 85z" />
<glyph unicode="&#x201d;" horiz-adv-x="786" d="M189 894q127 122 159 236q-43 0 -70 23q-36 32 -36 80q0 75 64 123q45 35 103 35q57 0 92 -37q32 -34 32 -84q0 -160 -228 -376h-116zM565 894q127 122 159 236q-43 0 -70 23q-36 32 -36 80q0 75 64 123q45 35 103 35q57 0 92 -37q32 -34 32 -84q0 -160 -228 -376h-116z " />
<glyph unicode="&#x201e;" horiz-adv-x="786" d="M-92 -232q127 122 159 236q-43 0 -70 23q-36 32 -36 80q0 75 64 123q45 35 103 35q57 0 92 -37q32 -34 32 -84q0 -160 -228 -376h-116zM284 -232q127 122 159 236q-43 0 -70 23q-36 32 -36 80q0 75 64 123q45 35 103 35q57 0 92 -37q32 -34 32 -84q0 -160 -228 -376h-116 z" />
<glyph unicode="&#x2022;" horiz-adv-x="1365" d="M422 694q0 121 84 202q86 82 204 82q113 0 196 -83q84 -83 84 -201t-83 -201t-201 -83q-116 0 -199 82q-85 84 -85 202z" />
<glyph unicode="&#x2026;" horiz-adv-x="1573" d="M14 105q0 79 58 137q60 59 137 59q58 0 94 -37q36 -36 36 -95q0 -71 -52 -128q-58 -63 -137 -63q-58 0 -96 33q-40 36 -40 94zM543 105q0 79 58 137q60 59 137 59q57 0 94 -37q36 -36 36 -95q0 -71 -53 -128q-57 -63 -136 -63q-58 0 -96 33q-40 36 -40 94zM1072 105 q0 79 58 137q60 59 137 59q58 0 94 -37q36 -36 36 -95q0 -71 -52 -128q-58 -63 -137 -63q-58 0 -96 33q-40 36 -40 94z" />
<glyph unicode="&#x202f;" horiz-adv-x="370" />
<glyph unicode="&#x2039;" horiz-adv-x="589" d="M66 489l325 491h215l-302 -491l57 -489h-214z" />
<glyph unicode="&#x203a;" horiz-adv-x="589" d="M-4 0l301 491l-57 489h215l81 -489l-326 -491h-214z" />
<glyph unicode="&#x205f;" horiz-adv-x="463" />
<glyph unicode="&#x20ac;" horiz-adv-x="1120" d="M-15 457l99 143h122q10 62 26 124h-165l99 143h112q58 149 141 260q199 263 510 263q197 0 324 -107q41 -35 71 -84l-145 -205q-86 185 -268 185q-231 0 -373 -312h552l-102 -143h-502q-17 -57 -28 -124h443l-102 -143h-351q4 -88 28 -143q28 -66 80 -94q49 -26 130 -26 q143 0 264 80q76 50 158 148l-74 -303q-178 -144 -402 -144q-300 0 -400 254q-39 98 -39 228h-208z" />
<glyph unicode="&#x2122;" horiz-adv-x="1524" d="M192 1228l43 137h545l-42 -137h-185l-159 -641h-159l160 641h-203zM658 587l194 778h217l47 -608l344 608h225l-194 -778h-144l145 580l-332 -580h-165l-49 581l-145 -581h-143z" />
<glyph unicode="&#xe000;" horiz-adv-x="970" d="M0 0v970h970v-970h-970z" />
</font>
</defs>
</svg>
