<?xml version="1.0" standalone="no"?>
<!DOCTYPE svg PUBLIC "-//W3C//DTD SVG 1.1//EN" "http://www.w3.org/Graphics/SVG/1.1/DTD/svg11.dtd" >
<svg xmlns="http://www.w3.org/2000/svg">
<metadata>Generated by IcoMoon</metadata>
<defs>
<font id="micro-icons" horiz-adv-x="1024">
<font-face units-per-em="1024" ascent="960" descent="-64" />
<missing-glyph horiz-adv-x="1024" />
<glyph unicode="&#x20;" horiz-adv-x="512" d="" />
<glyph unicode="&#xe900;" glyph-name="icon-acceleration" horiz-adv-x="1587" d="M805.547-64c-44.373 0-92.16 10.24-133.12 37.547-112.64 71.68-143.36 221.867-71.68 334.507 6.827 6.827 10.24 13.653 13.653 20.48l10.24 10.24c10.24 10.24 20.48 20.48 30.72 30.72l655.36 590.507-273.067-836.267c-3.413-13.653-10.24-27.307-10.24-40.96l-3.413-10.24c-6.827-10.24-10.24-23.893-13.653-30.72-47.787-68.267-126.293-105.813-204.8-105.813v0zM689.493 270.507c-3.413-6.827-6.827-10.24-10.24-10.24-47.787-71.68-27.307-167.253 47.787-215.040 71.68-47.787 167.253-27.307 215.040 47.787 3.413 3.413 10.24 17.067 10.24 20.48v3.413c3.413 10.24 6.827 17.067 10.24 27.307v3.413l170.667 525.653-416.427-375.467c-10.24-6.827-13.653-10.24-20.48-20.48l-6.827-6.827zM1310.72 598.187l-13.653-44.373c153.6-136.533 249.173-337.92 249.173-559.787h44.373c-3.413 238.933-112.64 457.387-279.893 604.16zM795.307 744.96c37.547 0 75.093-3.413 112.64-10.24l40.96 37.547c-51.2 10.24-102.4 13.653-153.6 13.653-440.32 0-795.307-354.987-795.307-791.893h44.373c-3.413 413.013 334.507 750.933 750.933 750.933v0z" />
<glyph unicode="&#xe901;" glyph-name="icon-trade_in_value" d="M694.154 482.462c-29.538 14.769-78.769 34.462-147.692 54.154v201.846c54.154-14.769 88.615-54.154 93.538-113.231h142.769c0 4.923 0 4.923 0 9.846 0 73.846-29.538 132.923-83.692 177.231-39.385 29.538-88.615 49.231-147.692 59.077v88.615h-78.769v-88.615c-78.769-9.846-137.846-34.462-182.154-78.769-39.385-39.385-59.077-88.615-59.077-152.615 0-78.769 34.462-137.846 98.462-177.231 24.615-14.769 73.846-34.462 147.692-54.154v-236.308c-34.462 4.923-64 19.692-83.692 44.308-19.692 19.692-29.538 54.154-34.462 108.308h-147.692c0-4.923 0-9.846 0-14.769 0-44.308 9.846-83.692 24.615-123.077 14.769-34.462 39.385-64 73.846-88.615 39.385-29.538 93.538-49.231 162.462-54.154v-108.308h73.846v108.308c93.538 4.923 157.538 34.462 206.769 88.615 39.385 44.308 59.077 93.538 59.077 152.615 0 88.615-39.385 152.615-118.154 196.923zM472.615 561.231c-24.615 4.923-44.308 14.769-59.077 24.615-24.615 14.769-39.385 34.462-39.385 64 0 44.308 34.462 73.846 98.462 88.615v-177.231zM615.385 187.077c-14.769-9.846-39.385-14.769-64-19.692v211.692c34.462-9.846 59.077-19.692 68.923-29.538 29.538-19.692 44.308-44.308 44.308-78.769-4.923-34.462-19.692-64-49.231-83.692z" />
<glyph unicode="&#xe902;" glyph-name="icon-caret-down-thin" d="M1024 670.569l-65.946 64.114-446.97-448.801-446.97 448.801-64.114-64.114 511.084-507.42 512.916 507.42z" />
<glyph unicode="&#xe903;" glyph-name="icon-caret-down" d="M1024 893.668h-1024l509.927-891.336 514.073 891.336z" />
<glyph unicode="&#xe904;" glyph-name="icon-caret-left-thin" d="M732.8-64l64 64-448 448 448 448-64 64-505.6-512 505.6-512z" />
<glyph unicode="&#xe905;" glyph-name="icon-caret-right-thin" d="M291.2 960l-64-64 448-448-448-448 64-64 505.6 512-505.6 512z" />
<glyph unicode="&#xe906;" glyph-name="icon-caret-right" d="M66.332 960v-1024l891.336 509.927-891.336 514.073z" />
<glyph unicode="&#xe907;" glyph-name="icon-caret-up-thin" d="M511.084 734.683l-511.084-507.42 64.114-64.114 446.97 446.97 446.97-446.97 65.946 64.114z" />
<glyph unicode="&#xe908;" glyph-name="icon-caret-up" d="M0 2.332h1024l-514.073 891.336-509.927-891.336z" />
<glyph unicode="&#xe909;" glyph-name="icon-mbusa-logo-font" horiz-adv-x="8920" d="M5720 392h332v-76h-332v76zM1004 84l-16 728v12c0 68 24 80 124 88v36c-56-4-80-4-116-4-44 0-76 0-144 8l-280-752-280 748c-56-4-84-8-140-8-40 0-64 0-120 4v-36c104-4 124-20 124-88v-8l-36-728c-4-80-16-92-120-100v-36c76 4 108 8 148 8s72 0 148-8v36c-104 8-124 20-124 88v12l32 776 244-660 16-52 40-116 16-48h24l16 48 40 112 16 48 244 664 12-768v-8c0-68-24-88-124-92v-36c92 8 128 12 184 12s92-4 184-12v36c-100 8-112 16-112 96zM1512-16v0c-136 0-196 104-196 336h444c-4 228-96 352-272 352-180 0-288-144-288-372s112-364 304-364c144 0 240 92 260 244h-60c-24-124-88-196-192-196zM1484 636c96 0 144-84 156-260h-320c12 168 68 260 164 260zM2228 676c-76 0-140-48-172-132v16c-4 44-8 68-16 120-60-16-112-28-196-36v-28h20c76 0 84-8 88-72v-484c0-64-16-76-108-80v-28c80 8 112 8 168 8 52 0 84 0 164-8v28c-92 4-104 16-104 80v312c0 148 48 240 128 240 28 0 44-16 44-36v-12l-4-16c0-4-4-12-4-16 0-28 28-52 60-52 36 0 64 28 64 72-4 72-56 124-132 124zM2716-16c-116 0-172 104-172 312 0 212 64 332 176 332 92 0 144-64 172-192h32v248h-24l-40-76c-48 48-88 64-152 64-176 0-296-152-296-372 0-216 116-364 288-364 132 0 220 88 236 244h-56c-16-124-72-196-164-196zM3364-16v0c-136 0-196 104-196 336h444c-4 228-96 352-272 352-180 0-288-144-288-372s112-364 304-364c144 0 240 92 260 244h-60c-20-124-88-196-192-196zM3336 636c96 0 144-84 156-260h-320c12 168 68 260 164 260zM4300 104v856c-76-20-140-32-224-40v-24c92 0 104-12 104-88v-260c-56 88-100 116-180 116-160 0-272-152-272-364s112-364 276-364c84 0 144 40 184 120 4-56 4-64 20-120 60 20 88 24 172 36l24 4v24c-96 4-104 16-104 104zM4020-20c-108 0-164 112-164 324 0 216 52 320 160 320s168-112 168-332c0-208-56-312-164-312zM4780-16v0c-136 0-196 104-196 336h444c-4 228-96 352-272 352-180 0-288-144-288-372s112-364 304-364c144 0 240 92 260 244h-60c-16-124-88-196-192-196zM4756 636c96 0 144-84 156-260h-320c8 168 68 260 164 260zM5480 340l-64 28c-136 60-156 80-156 140 0 68 60 124 140 124 92 0 144-56 156-176h36v228h-28l-24-60c-52 36-92 48-152 48-132 0-224-80-224-196 0-88 36-128 144-180l68-32 56-24c72-32 100-68 100-116 0-76-64-132-152-132-104 0-168 64-192 200h-32v-248h28l36 68c56-44 108-64 180-64 140 0 240 88 240 212-4 80-44 132-160 180zM6708 436c-32 24-64 36-116 48 108 40 164 116 164 220v0c0 76-32 144-88 188-52 36-108 52-204 52h-392v-36c108-4 120-16 120-100v-720c0-80-12-92-120-100v-36h376c108 0 168 12 232 52 76 48 124 140 124 232-4 80-36 156-96 200zM6316 900h128c124 0 180-60 180-200 0-68-16-116-48-156-32-36-72-48-156-48h-100v404h-4zM6468 0h-52c-80 0-92 12-92 76v372h140c80 0 124-12 156-48 36-36 52-100 52-168-4-152-76-232-204-232zM7236-16v0c-136 0-196 104-196 336h444c-4 228-96 352-272 352-180 0-288-144-288-372s112-364 304-364c144 0 240 92 260 244h-60c-20-124-80-196-192-196zM7212 636c96 0 144-84 156-260h-320c12 168 68 260 164 260zM8196 60v356c0 56-8 100-24 132-28 72-108 120-196 120s-148-36-200-116c-4 56-8 96-16 128-60-20-108-32-196-44v-24c8 0 16 0 20 0 76 0 84-8 84-68v-480c0-64-16-76-104-80v-28c76 8 108 8 160 8s84 0 160-8v28c-76 4-96 16-96 76v360c0 120 52 184 156 184 96 0 132-52 132-180v-364c0-60-20-76-100-76v-28c76 8 108 8 160 8s84 0 160-8v28c-88 0-100 12-100 76zM8688-4h-172l404 664h-512l-36-192h28c52 132 76 156 172 156h184l-404-664h512l40 212h-32c-44-136-84-176-184-176z" />
<glyph unicode="&#xe90a;" glyph-name="icon-pin" d="M513.724 960c-155.152 0-282.721-127.569-282.721-282.721 0 0-3.448-41.374 17.239-99.987l265.481-641.293 262.034 641.293c20.687 55.165 17.239 99.987 17.239 99.987 3.448 155.152-120.673 282.721-279.273 282.721zM579.232 660.040c0-34.478-27.582-65.508-62.061-65.508s-68.956 27.582-68.956 65.508v103.434c0 34.478 31.030 65.508 65.508 65.508s65.508-31.030 65.508-65.508v-93.091c0 0 0-10.343 0-10.343z" />
<glyph unicode="&#xe90b;" glyph-name="icon-social-facebook" d="M512 960c-281.6 0-512-230.4-512-512s230.4-512 512-512 512 230.4 512 512-230.4 512-512 512zM620.8 448h-70.4v-249.6h-102.4v249.6h-51.2v86.4h51.2v51.2c0 70.4 28.8 112 112 112h70.4v-86.4h-41.6c-32 0-35.2-12.8-35.2-35.2v-41.6h76.8c0 0-9.6-86.4-9.6-86.4z" />
<glyph unicode="&#xe90c;" glyph-name="icon-social-googleplus" d="M482.65 382.777c-6.522 0-9.783 0-16.306 0s-42.395 0-71.745-9.783c-16.306-6.522-58.701-22.828-58.701-71.745s48.917-84.79 120.662-84.79c65.223 0 101.096 32.611 101.096 75.006 0 32.611-19.567 52.178-75.006 91.312zM521.783 562.14c0 48.917-29.35 127.185-88.051 127.185-19.567 0-35.873-9.783-48.917-22.828s-16.306-32.611-16.306-52.178c0-45.656 26.089-123.924 84.79-123.924 16.306 0 35.873 9.783 45.656 19.567 19.567 19.567 22.828 42.395 22.828 52.178zM512 960c-283.72 0-512-228.28-512-512s228.28-512 512-512 512 228.28 512 512-228.28 512-512 512zM423.949 187.108c-101.096 0-146.752 48.917-146.752 97.834 0 26.089 13.045 58.701 52.178 84.79 42.395 26.089 101.096 29.35 130.446 32.611-9.783 13.045-19.567 26.089-19.567 45.656 0 13.045 3.261 19.567 6.522 26.089-6.522 0-16.306 0-22.828 0-71.745 0-114.14 55.439-114.14 107.618 0 32.611 13.045 68.484 45.656 91.312 39.134 32.611 94.573 42.395 130.446 42.395h133.707l-45.656-29.35h-42.395c16.306-13.045 48.917-42.395 48.917-94.573s-29.35-75.006-58.701-97.834c-9.783-9.783-19.567-19.567-19.567-32.611s9.783-22.828 16.306-29.35l26.089-19.567c29.35-26.089 58.701-48.917 58.701-97.834 3.261-61.962-61.962-127.185-179.363-127.185zM792.459 461.045h-68.484v-68.484h-32.611v68.484h-71.745v35.873h68.484v68.484h32.611v-68.484h68.484v-35.873z" />
<glyph unicode="&#xe90d;" glyph-name="icon-social-instagram" d="M675.2 444.8c0-86.4-73.6-156.8-160-156.8-89.6 0-163.2 70.4-163.2 156.8 0 16 3.2 32 6.4 44.8h-48v-220.8c0-12.8 9.6-19.2 19.2-19.2h361.6c12.8 0 19.2 9.6 19.2 19.2v220.8h-44.8c6.4-16 9.6-32 9.6-44.8zM617.6 448c0-56.554-47.279-102.4-105.6-102.4s-105.6 45.846-105.6 102.4c0 56.554 47.279 102.4 105.6 102.4s105.6-45.846 105.6-102.4zM688 649.6h-57.6c-12.8 0-22.4-9.6-22.4-22.4v-57.6c0-12.8 9.6-22.4 22.4-22.4h57.6c12.8 0 22.4 9.6 22.4 22.4v57.6c0 12.8-9.6 22.4-22.4 22.4zM512 960c-281.6 0-512-230.4-512-512s230.4-512 512-512 512 230.4 512 512-230.4 512-512 512zM771.2 256c0-35.2-28.8-67.2-67.2-67.2h-384c-35.2 0-67.2 28.8-67.2 67.2v384c0 35.2 28.8 67.2 67.2 67.2h384c35.2 0 67.2-28.8 67.2-67.2v-384z" />
<glyph unicode="&#xe90e;" glyph-name="icon-social-twitter" d="M512 960c-281.6 0-512-230.4-512-512s230.4-512 512-512 512 230.4 512 512-230.4 512-512 512zM752 515.2c0-3.2 0-9.6 0-12.8 0-137.6-105.6-297.6-297.6-297.6-60.8 0-115.2 16-160 48 9.6 0 16 0 25.6 0 48 0 96 16 131.2 44.8-44.8 0-83.2 32-99.2 73.6 6.4 0 12.8-3.2 19.2-3.2 9.6 0 19.2 0 28.8 3.2-48 9.6-83.2 51.2-83.2 102.4v0c12.8-6.4 32-12.8 48-12.8-32 19.2-51.2 51.2-51.2 86.4 0 19.2 6.4 38.4 12.8 54.4 51.2-64 128-105.6 217.6-108.8-3.2 6.4-3.2 16-3.2 22.4 0 57.6 48 105.6 105.6 105.6 28.8 0 57.6-12.8 76.8-32 22.4 3.2 48 12.8 67.2 25.6-6.4-25.6-25.6-44.8-44.8-57.6 22.4 3.2 41.6 9.6 60.8 16-16-22.4-35.2-41.6-54.4-57.6z" />
<glyph unicode="&#xe90f;" glyph-name="icon-social-youtube" d="M584.226 311.574c-9.63 0-16.050-9.63-16.050-9.63v-128.401c3.21-9.63 16.050-9.63 16.050-9.63 16.050 0 16.050 16.050 16.050 16.050v105.931c-3.21 16.050-9.63 25.68-16.050 25.68zM494.345 706.408c0 0-16.050 0-16.050-25.68v-96.301c0-22.47 16.050-22.47 16.050-22.47s16.050 0 16.050 22.47v96.301c3.21-3.21 3.21 25.68-16.050 25.68zM741.517 289.103c0 0 0 22.47-16.050 22.47s-19.26-19.26-19.26-22.47v-25.68h38.52l-3.21 25.68zM510.395 960c-282.483 0-510.395-227.912-510.395-510.395s227.912-510.395 510.395-510.395c282.483 0 510.395 227.912 510.395 510.395 3.21 282.483-227.912 510.395-510.395 510.395zM337.053 805.918l32.1-105.931 32.1 105.931h38.52l-54.571-160.502v-109.141h-38.52v109.141l-54.571 160.502h44.94zM375.574 372.564h-44.94v-237.542h-38.52v237.542h-41.73v38.52h131.611c-6.42 0-6.42-38.52-6.42-38.52zM484.715 131.812h-32.1v22.47c0 0-16.050-25.68-38.52-25.68s-32.1 12.84-32.1 38.52v170.132h35.31v-166.922c0 0 0-9.63 9.63-9.63s22.47 12.84 22.47 16.050v157.292h35.31v-202.232zM503.975 529.856c-3.21 0-12.84 0-12.84 0-16.050 3.21-32.1 12.84-38.52 22.47-9.63 12.84-9.63 32.1-9.63 32.1v96.301c0 3.21 0 16.050 0 16.050 9.63 25.68 32.1 35.31 44.94 38.52 3.21 0 12.84 0 16.050 0 12.84-3.21 35.31-9.63 44.94-38.52 0 0 0-12.84 0-16.050v-96.301c0 0 0-16.050-9.63-32.1-3.21-9.63-19.26-22.47-35.31-22.47zM635.586 170.332c0 0-3.21-38.52-25.68-38.52s-35.31 12.84-44.94 22.47v-22.47h-35.31v276.063h35.31v-93.091c0 0 16.050 22.47 38.52 22.47 16.050 0 35.31-12.84 35.31-35.31l-3.21-131.611zM609.906 529.856c-16.050 0-32.1 12.84-32.1 32.1v173.342h35.31v-166.922c0 0 0-9.63 12.84-9.63 0 0 16.050 3.21 22.47 16.050v160.502h38.52v-205.442h-35.31v22.47c-3.21 0-25.68-22.47-41.73-22.47zM776.828 170.332c-3.21-35.31-48.15-38.52-48.15-38.52-60.991 0-60.991 57.781-60.991 57.781v96.301c0 9.63 3.21 16.050 3.21 16.050 3.21 12.84 9.63 35.31 57.781 35.31 57.781 0 51.361-57.781 51.361-57.781v-57.781h-73.831v-38.52c0-12.84 3.21-22.47 22.47-22.47 16.050 0 16.050 22.47 16.050 22.47v22.47h38.52c-3.21 0-3.21-9.63-6.42-35.31z" />
<glyph unicode="&#xe910;" glyph-name="AMG_logo" d="M159.91 497.611h-80.918c-2.89 0-6.743-1.927-7.706-3.853l-70.322-92.478c-1.927-1.927-0.963-3.853 1.927-3.853h81.881c2.89 0 5.78 1.927 7.706 3.853l70.322 92.478c0.963 1.927 0 3.853-2.89 3.853zM222.525 497.611h-38.532c-2.89 0-5.78-1.927-7.706-3.853l-69.358-92.478c-1.927-1.927-0.963-3.853 1.927-3.853h38.532c2.89 0 5.78 1.927 7.706 3.853l70.322 92.478c0.963 1.927 0 3.853-2.89 3.853zM276.47 497.611h-28.899c-2.89 0-5.78-1.927-7.706-3.853l-70.322-92.478c-1.927-1.927-0.963-3.853 1.927-3.853h28.899c2.89 0 5.78 1.927 7.706 3.853l70.322 92.478c1.927 1.927 0.963 3.853-1.927 3.853zM326.563 497.611h-20.23c-2.89 0-5.78-1.927-7.706-3.853l-70.322-92.478c-1.927-1.927-0.963-3.853 1.927-3.853h20.23c2.89 0 5.78 1.927 7.706 3.853l70.322 92.478c0.963 1.927 0 3.853-1.927 3.853zM372.802 497.611h-14.45c-2.89 0-5.78-1.927-7.706-3.853l-70.322-92.478c-1.927-1.927-0.963-3.853 1.927-3.853h14.45c2.89 0 5.78 1.927 7.706 3.853l70.322 92.478c1.927 1.927 0.963 3.853-1.927 3.853zM555.831 497.611h-151.24c-2.89 0-5.78-1.927-7.706-3.853l-70.322-92.478c-1.927-1.927-0.963-3.853 1.927-3.853h33.716c2.89 0 5.78 1.927 7.706 3.853l11.56 14.45c1.927 1.927 4.817 3.853 7.706 3.853h129.084c2.89 0 4.817-1.927 4.817-4.817v-12.523c0-2.89 1.927-4.817 4.817-4.817h26.973c2.89 0 4.817 1.927 4.817 4.817v90.551c0.963 2.89-1.927 4.817-3.853 4.817zM519.225 447.518h-109.817c-2.89 0-3.853 1.927-1.927 3.853l12.523 17.34c1.927 1.927 4.817 3.853 7.706 3.853h90.551c2.89 0 4.817-1.927 4.817-4.817v-15.413c0.963-2.89-0.963-4.817-3.853-4.817zM793.769 497.611h-26.973c-2.89 0-6.743-0.963-8.67-2.89l-65.505-42.386c-1.927-1.927-5.78-1.927-7.706 0l-65.505 42.386c-2.89 0.963-6.743 2.89-9.633 2.89h-26.973c-1.927 0-4.817-2.89-4.817-4.817v-90.551c0-2.89 1.927-4.817 4.817-4.817h26.973c2.89 0 4.817 1.927 4.817 4.817v51.056c0 2.89 1.927 3.853 3.853 1.927l51.056-29.863c1.927-0.963 6.743-2.89 8.67-2.89h19.266c2.89 0 6.743 0.963 8.67 2.89l51.056 29.863c1.927 0.963 3.853 0 3.853-1.927v-51.056c0-2.89 1.927-4.817 4.817-4.817h26.973c2.89 0 4.817 1.927 4.817 4.817v90.551c0.963 2.89-0.963 4.817-3.853 4.817zM858.31 471.601h160.873c2.89 0 4.817 1.927 4.817 4.817v16.376c0 2.89-1.927 4.817-4.817 4.817h-197.479c-2.89 0-4.817-1.927-4.817-4.817v-90.551c0-2.89 1.927-4.817 4.817-4.817h197.479c2.89 0 4.817 1.927 4.817 4.817v50.092c0 2.89-1.927 4.817-4.817 4.817h-97.294c-2.89 0-4.817-1.927-4.817-4.817v-9.633c0-2.89 1.927-4.817 4.817-4.817h60.689c2.89 0 4.817-1.927 4.817-4.817v-4.817c0-2.89-1.927-4.817-4.817-4.817h-124.267c-2.89 0-4.817 1.927-4.817 4.817v38.532c0 3.853 1.927 4.817 4.817 4.817z" />
<glyph unicode="&#xe911;" glyph-name="smart" d="M1007.672 561.13c-9.33 0-18.661-6.998-18.661-18.661s6.998-18.661 18.661-18.661c9.33 0 18.661 6.998 18.661 18.661 0 9.33-11.663 18.661-18.661 18.661zM1007.672 528.474c-6.998 0-13.995 6.998-13.995 13.995s6.998 13.995 13.995 13.995 13.995-6.998 13.995-13.995c0-6.998-6.998-13.995-13.995-13.995zM1007.672 540.137c2.333 0 4.665 2.333 4.665 4.665 0 0 0 4.665-4.665 4.665h-9.33v-2.333h2.333v-13.995h-2.333v-2.333h9.33v2.333h-4.665v6.998c2.333 0 4.665-4.665 4.665-6.998h2.333c4.665 4.665 2.333 6.998-2.333 6.998zM1007.672 542.469h-4.665v4.665h4.665c2.333 0 2.333-2.333 2.333-2.333 2.333-2.333-2.333-2.333-2.333-2.333zM968.018 404.847c0 0 0 62.979 0 65.312 2.333 0 37.321 0 37.321 0v32.656c0 0-34.989 0-37.321 0 0 2.333 0 30.323 0 30.323h-34.989v-132.957c2.333-30.323 27.991-55.982 58.314-55.982h18.661v34.989h-16.328c-13.995 0-25.658 11.663-25.658 25.658zM839.727 446.834v-100.301h34.989v100.301c0 13.995 11.663 25.658 25.658 25.658h16.328v32.656h-18.661c-30.323 0-53.649-23.326-58.314-58.314zM737.093 507.481c-44.319 0-81.64-34.989-81.64-81.64s34.989-81.64 81.64-81.64c18.661 0 34.989 6.998 44.319 18.661v-13.995h34.989v74.642c0 48.984-34.989 83.973-79.308 83.973zM739.426 376.856c-25.658 0-46.651 20.993-46.651 48.984 0 25.658 20.993 48.984 46.651 48.984s46.651-20.993 46.651-48.984c0-27.991-20.993-48.984-46.651-48.984zM578.478 507.481c-16.328 0-32.656-6.998-44.319-20.993-11.663 13.995-27.991 20.993-44.319 20.993-30.323 0-55.982-23.326-55.982-53.649v-107.298h32.656v102.633c0 13.995 11.663 25.658 25.658 25.658 11.663 0 25.658-6.998 25.658-30.323v-97.968h34.989v100.301c0 20.993 11.663 30.323 25.658 30.323s25.658-9.33 25.658-25.658v-102.633h34.989v107.298c-4.665 27.991-30.323 51.317-60.647 51.317zM352.219 442.169c-32.656 4.665-39.654 9.33-39.654 18.661 0 13.995 20.993 16.328 32.656 16.328 16.328 0 32.656-6.998 44.319-16.328l23.326 23.326c-9.33 6.998-30.323 25.658-72.31 25.658s-62.979-25.658-62.979-48.984c0-27.991 20.993-44.319 67.645-48.984 13.995-2.333 27.991-6.998 27.991-18.661 0-23.326-60.647-20.993-86.305 4.665l-23.326-23.326c2.333-2.333 30.323-27.991 72.31-27.991 51.317 0 74.642 25.658 74.642 48.984 0 25.658-18.661 39.654-58.314 46.651zM146.952 519.144v-165.613c20.993 13.995 53.649 58.314 60.647 81.64-6.998 23.326-37.321 69.977-60.647 83.973zM-2.333 435.171c0-55.982 44.319-100.301 100.301-100.301 16.328 0 27.991 4.665 39.654 11.663v48.984c-11.663-6.998-25.658-11.663-37.321-11.663-30.323 0-53.649 23.326-53.649 51.317s23.326 51.317 53.649 51.317c11.663 0 25.658-4.665 37.321-11.663v46.651c-11.663 6.998-23.326 11.663-39.654 11.663-53.649 2.333-100.301-41.986-100.301-97.968z" />
<glyph unicode="&#xe912;" glyph-name="icon-apply_for_credit" d="M754.526 897.814v62.186h-485.053v-62.186h-153.393v-961.814h787.692v961.814h-149.247zM310.931 918.543h402.138v-82.915h-402.138v82.915zM866.462-22.543h-704.777v878.899h111.935v-62.186h485.053v62.186h111.935v-878.899zM248.745 582.737h526.51v-41.457h-526.51v41.457zM248.745 371.304h526.51v-41.457h-526.51v41.457zM248.745 159.87h526.51v-41.457h-526.51v41.457z" />
<glyph unicode="&#xe913;" glyph-name="icon-arrow-down-square" d="M1024 650.868l-106.264 106.264-405.736-405.736-405.736 405.736-106.264-106.264 512-512 106.264 106.264z" />
<glyph unicode="&#xe914;" glyph-name="icon-model-chooser" d="M1018.445 519.291v0c-12.962 27.776-111.103 64.81-111.103 64.81v3.703c0 0 70.365-16.665 74.069 12.962 1.852 29.627-27.776 40.738-53.7 46.293-27.776 7.407-27.776-14.814-27.776-14.814l1.852-29.627-16.665-12.962c-25.924 40.738-35.183 51.848-35.183 51.848-35.183 40.738-53.7 79.624-125.917 88.882-66.662 11.11-192.579 12.962-211.096 12.962v0c0 0 0 0-1.852 0h-1.852c-18.517 0-144.434-1.852-211.096-12.962-72.217-11.11-90.734-49.996-124.065-90.734 0 0-9.259-12.962-35.183-51.848l-12.962 12.962 1.852 29.627c0 0 0 22.221-27.776 14.814-29.627-3.703-59.255-14.814-55.552-44.441 1.852-29.627 74.069-12.962 74.069-12.962v-3.703c0 0-98.141-37.034-111.103-64.81-9.259-12.962-7.407-42.59-7.407-42.59l1.852-122.213v-92.586c0 0 3.703-85.179 12.962-96.289 5.555-9.259 11.11-12.962 11.11-12.962h101.844c0 0 20.369 0 20.369 18.517 0 11.11-1.852 11.11-1.852 11.11h733.28c0 0-3.703 0-1.852-12.962 1.852-16.665 20.369-18.517 20.369-18.517h101.844c0 0 5.555 3.703 11.11 14.814 9.259 9.259 12.962 96.289 12.962 96.289v92.586l1.852 122.213c-1.852 0 0 29.627-7.407 42.59zM211.096 660.022v0c0 0 31.479 38.886 55.552 48.145 33.331 11.11 216.651 12.962 244.427 14.814 27.776 0 211.096-3.703 244.427-14.814 25.924-7.407 57.403-48.145 57.403-48.145l49.996-72.217h-701.801l49.996 72.217zM177.765 413.743c0 0-7.407-9.259-12.962-12.962 0 0-127.769-1.852-125.917 70.365 0 49.996 0 51.848 9.259 59.255 0 0 20.369 7.407 31.479 1.852s81.476-38.886 105.548-62.958c14.814-16.665-7.407-55.552-7.407-55.552zM803.646 397.078c0 0-22.221-57.403-46.293-64.81s-133.324-18.517-133.324-18.517-92.586-5.555-111.103-7.407c-20.369 1.852-111.103 7.407-111.103 7.407s-107.4 11.11-133.324 18.517c-25.924 7.407-46.293 64.81-46.293 64.81s-18.517 42.59 24.072 55.552c68.514 11.11 240.723 12.962 266.647 12.962s198.134-1.852 266.647-12.962c40.738-12.962 24.072-55.552 24.072-55.552zM983.262 469.295c3.703-72.217-125.917-70.365-125.917-70.365-5.555 3.703-12.962 12.962-12.962 12.962s-20.369 38.886-7.407 55.552c24.072 24.072 94.438 59.255 105.548 62.958s31.479-1.852 31.479-1.852c11.11-5.555 9.259-9.259 9.259-59.255z" />
<glyph unicode="&#xe915;" glyph-name="icon-arrow-left-square" d="M714.868-64l106.264 106.264-405.736 405.736 405.736 405.736-106.264 106.264-512-512 106.264-106.264z" />
<glyph unicode="&#xe916;" glyph-name="icon-compare" d="M481.882 111.23c-210.824 35.594-282.011 191.658-282.011 191.658l106.781 49.283-251.893 125.947-54.759-265.583 98.567 43.807c0 0 123.209-243.679 386.053-246.417 287.487-5.476 375.102 180.706 432.599 260.107 0 0-183.444-199.872-435.337-158.802zM922.695 639.658c0 0-125.947 243.679-386.053 246.417-287.487 2.738-375.102-180.706-432.599-262.845 0 0 183.444 199.872 435.337 161.54 210.824-35.594 282.011-191.658 282.011-191.658l-109.519-46.545 257.369-128.684 54.759 265.583-101.305-43.807z" />
<glyph unicode="&#xe917;" glyph-name="icon-download" d="M240 864h377.6l163.2-147.2v-246.4h92.8v291.2l-220.8 198.4h-508.8v-924.8h262.4v96h-166.4zM777.6 134.4v230.4h-179.2v-230.4h-102.4l192-198.4 192 198.4z" />
<glyph unicode="&#xe918;" glyph-name="icon-special-offers" d="M786.802 369.898c-8.678 52.068-63.638 231.412-63.638 231.412s-54.96-179.345-63.638-231.412c0 0-216.949-63.638-237.198-72.316 0 0 130.169-46.282 234.305-75.209 0 0 54.96-199.593 66.531-237.198 11.571 37.605 66.531 237.198 66.531 237.198 104.136 28.927 234.305 75.209 234.305 75.209-20.249 8.678-237.198 72.316-237.198 72.316zM274.802 693.876c-5.785 37.605-49.175 173.559-49.175 173.559s-40.497-135.955-49.175-173.559c0 0-161.989-46.282-179.345-54.96 0 0 98.35-34.712 176.452-57.853 0 0 40.497-150.418 52.068-179.345 8.678 28.927 52.068 179.345 52.068 179.345 78.102 20.249 176.452 57.853 176.452 57.853-14.463 8.678-179.345 54.96-179.345 54.96zM862.011 910.825v0 0zM862.011 690.983c5.785 14.463 23.141 83.887 23.141 83.887 37.605 8.678 83.887 26.034 83.887 26.034-8.678 2.893-83.887 26.034-83.887 26.034-2.893 20.249-23.141 83.887-23.141 83.887s-20.249-63.638-23.141-83.887c0 0-78.102-23.141-83.887-26.034 0 0 46.282-17.356 83.887-26.034 0 0 20.249-69.424 23.141-83.887z" />
<glyph unicode="&#xe919;" glyph-name="icon-view-inventory" d="M959.678 162.412l-337.045 228.985c20.583 43.739 33.447 90.050 33.447 141.508 0 180.101-146.653 326.754-326.754 326.754-182.673 0-329.327-146.653-329.327-326.754s146.653-326.754 326.754-326.754c92.623 0 174.955 38.593 234.131 100.342l339.618-231.558 59.176 87.477zM326.754 288.482c-133.789 0-241.849 108.060-241.849 241.849s108.060 241.849 241.849 241.849 241.849-108.060 241.849-241.849c2.573-131.216-108.060-241.849-241.849-241.849zM1021.427 126.392l-61.749-90.050 64.322 20.583z" />
<glyph unicode="&#xe91a;" glyph-name="icon-arrow-right-square" d="M309.132 960l-106.264-106.264 405.736-405.736-405.736-405.736 106.264-106.264 512 512-106.264 106.264z" />
<glyph unicode="&#xe91b;" glyph-name="icon-arrow-up-square" d="M0 245.132l106.264-106.264 405.736 405.736 405.736-405.736 106.264 106.264-512 512-106.264-106.264z" />
<glyph unicode="&#xe91c;" glyph-name="icon-calculator" d="M149.449 960v-1024h725.103v1024h-725.103zM819.2 904.649v-282.292h-614.4v282.292h614.4zM608.865-8.649h-188.195v138.378h188.195v-138.378zM420.67 185.081v166.054h188.195v-166.054h-188.195zM365.319 351.135v-166.054h-160.519v166.054h160.519zM204.8 406.486v160.519h160.519v-160.519h-160.519zM420.67 406.486v160.519h188.195v-160.519h-188.195zM664.216 567.005h154.984v-160.519h-154.984v160.519zM204.8 129.73h160.519v-138.378h-160.519v138.378zM664.216-8.649v359.784h154.984v-359.784h-154.984z" />
<glyph unicode="&#xe91d;" glyph-name="icon-download-arrow" d="M13.563 24.159h996.874v-88.159h-996.874v88.159zM1010.437 960h-996.874l501.828-868.026z" />
<glyph unicode="&#xe91e;" glyph-name="icon-exit" d="M1024 860.226l-99.774 99.774-409.6-409.6-414.851 409.6-99.774-99.774 409.6-414.851-409.6-409.6 99.774-99.774 414.851 409.6 409.6-409.6 99.774 99.774-409.6 409.6z" />
<glyph unicode="&#xe91f;" glyph-name="icon-gears" d="M399.36 399.36c-12.8 23.040-40.96 38.4-66.56 38.4-12.8 0-28.16-2.56-38.4-10.24-38.4-20.48-51.2-69.12-28.16-107.52 12.8-23.040 40.96-38.4 66.56-38.4 12.8 0 28.16 2.56 38.4 10.24 38.4 23.040 51.2 71.68 28.16 107.52v0zM650.24 437.76l-92.16 20.48c-2.56 7.68-7.68 17.92-12.8 25.6s-10.24 15.36-15.36 23.040l28.16 92.16c2.56 10.24 0 20.48-10.24 25.6l-97.28 56.32c-7.68 5.12-17.92 2.56-25.6-5.12l-64-71.68c-17.92 2.56-38.4 2.56-56.32 0l-64 71.68c-7.68 7.68-17.92 7.68-25.6 5.12l-97.28-58.88c-7.68-5.12-12.8-15.36-10.24-25.6l28.16-92.16c-10.24-15.36-20.48-30.72-28.16-48.64l-92.16-20.48c-7.68 0-15.36-7.68-15.36-17.92v-112.64c0-10.24 7.68-17.92 15.36-20.48l92.16-20.48c2.56-7.68 7.68-17.92 12.8-25.6s10.24-15.36 15.36-23.040l-28.16-92.16c-2.56-10.24 0-20.48 10.24-25.6l97.28-56.32c2.56-2.56 7.68-2.56 10.24-2.56 5.12 0 10.24 2.56 15.36 7.68l64 71.68c17.92-2.56 38.4-2.56 56.32 0l64-71.68c7.68-7.68 17.92-7.68 25.6-5.12l97.28 56.32c7.68 5.12 12.8 15.36 10.24 25.6l-28.16 92.16c10.24 15.36 20.48 30.72 28.16 48.64l92.16 20.48c10.24 2.56 15.36 10.24 15.36 20.48v112.64c0 10.24-5.12 17.92-15.36 20.48zM624.64 320v0l-87.040-17.92c-7.68-2.56-12.8-5.12-15.36-12.8-7.68-20.48-17.92-40.96-33.28-56.32-2.56-7.68-5.12-15.36-2.56-20.48l28.16-84.48-69.12-40.96-61.44 64c-5.12 5.12-12.8 7.68-17.92 7.68-20.48-2.56-43.52-2.56-66.56 0-7.68 0-12.8-2.56-17.92-7.68l-58.88-66.56-69.12 40.96 25.6 84.48c2.56 7.68 0 12.8-2.56 20.48-7.68 7.68-12.8 17.92-17.92 28.16s-10.24 20.48-12.8 30.72c-5.12 5.12-10.24 10.24-17.92 12.8l-87.040 17.92v79.36l87.040 20.48c7.68 2.56 12.8 7.68 15.36 12.8 7.68 20.48 17.92 40.96 33.28 56.32 2.56 7.68 5.12 12.8 2.56 20.48l-25.6 84.48 69.12 40.96 58.88-66.56c5.12-5.12 12.8-7.68 17.92-7.68 20.48 2.56 43.52 2.56 66.56 0 7.68 0 12.8 2.56 17.92 7.68l58.88 66.56 69.12-40.96-25.6-84.48c-2.56-7.68 0-12.8 2.56-20.48 7.68-7.68 12.8-17.92 17.92-28.16s10.24-20.48 15.36-30.72c2.56-7.68 7.68-10.24 15.36-12.8l87.040-20.48c0 0 0-76.8 0-76.8zM872.96 657.92c-5.12 15.36-12.8 28.16-25.6 33.28-7.68 5.12-17.92 7.68-28.16 7.68-20.48 0-38.4-10.24-48.64-28.16-7.68-12.8-10.24-28.16-5.12-43.52s12.8-25.6 25.6-33.28c7.68-5.12 17.92-7.68 28.16-7.68 20.48 0 38.4 10.24 48.64 28.16 7.68 12.8 10.24 28.16 5.12 43.52v0zM1016.32 591.36l-38.4 35.84c0 10.24 0 17.92 0 28.16l40.96 35.84c7.68 7.68 7.68 17.92 5.12 25.6l-38.4 64c-5.12 7.68-15.36 12.8-23.040 10.24l-51.2-15.36c-5.12 2.56-7.68 5.12-12.8 7.68s-7.68 5.12-12.8 7.68l-12.8 53.76c0 5.12-10.24 12.8-17.92 12.8h-69.12c-10.24 0-17.92-7.68-20.48-15.36l-12.8-53.76c-7.68-5.12-17.92-7.68-25.6-15.36l-51.2 15.36c-10.24 2.56-20.48 0-23.040-10.24l-35.84-61.44c-5.12-7.68-2.56-20.48 5.12-25.6l40.96-35.84c0-10.24 0-17.92 0-28.16l-40.96-35.84c-7.68-7.68-7.68-17.92-5.12-25.6l35.84-61.44c5.12-7.68 15.36-12.8 23.040-10.24l51.2 15.36c5.12-2.56 7.68-5.12 12.8-7.68s7.68-5.12 12.8-7.68l12.8-53.76c2.56-10.24 10.24-15.36 20.48-15.36h69.12c10.24 0 17.92 7.68 20.48 15.36l12.8 53.76c7.68 5.12 17.92 7.68 25.6 15.36l51.2-15.36c10.24-2.56 20.48 0 23.040 10.24l35.84 61.44c2.56 7.68 0 17.92-7.68 25.6zM975.36 527.36v0l-51.2 15.36c-7.68 2.56-15.36 0-20.48-5.12-10.24-10.24-23.040-15.36-35.84-20.48-7.68-2.56-12.8-10.24-15.36-17.92l-12.8-51.2h-40.96l-12.8 53.76c-2.56 7.68-7.68 12.8-15.36 17.92-7.68 2.56-12.8 5.12-20.48 10.24-5.12 2.56-12.8 7.68-17.92 12.8s-15.36 7.68-20.48 5.12l-51.2-15.36-20.48 35.84 40.96 35.84c5.12 5.12 7.68 12.8 7.68 20.48-2.56 15.36-2.56 28.16 0 43.52 0 7.68-2.56 15.36-7.68 20.48l-40.96 35.84 20.48 35.84 51.2-15.36c7.68-2.56 15.36 0 20.48 5.12 10.24 10.24 23.040 15.36 35.84 20.48 7.68 2.56 12.8 10.24 15.36 17.92l12.8 53.76h40.96l12.8-53.76c2.56-7.68 7.68-12.8 15.36-17.92 7.68-2.56 12.8-5.12 17.92-10.24 5.12-2.56 12.8-7.68 17.92-12.8s15.36-7.68 20.48-5.12l51.2 15.36 20.48-35.84-40.96-35.84c-5.12-5.12-7.68-12.8-7.68-20.48 2.56-15.36 2.56-28.16 0-43.52 0-7.68 2.56-15.36 7.68-20.48l40.96-35.84-17.92-38.4z" />
<glyph unicode="&#xe920;" glyph-name="icon-horsepower" d="M915.2 531.2c-2.133 0-2.133 0 0 0h-10.667v-78.933h-72.533v61.867h-8.533c-42.667 0-74.667 10.667-98.133 34.133-32 34.133-29.867 81.067-29.867 81.067v10.667h-209.067v68.267h-19.2v-68.267h-206.933l-2.133-6.4c-17.067-72.533-106.667-113.067-106.667-115.2l-6.4-2.133v-132.267h-72.533v128h-72.533v-260.267h72.533v110.933h72.533v-117.333h83.2c55.467 0 96-14.933 117.333-42.667 29.867-36.267 21.333-85.333 21.333-87.467v-8.533h386.133c23.467 0 42.667 6.4 55.467 21.333 21.333 23.467 19.2 55.467 19.2 61.867v46.933h74.667v-85.333h8.533c55.467 0 83.2 21.333 96 38.4 14.933 19.2 14.933 40.533 14.933 40.533v217.6c2.133 61.867-55.467 83.2-106.667 83.2zM1004.8 232.533c0-2.133-2.133-57.6-83.2-61.867v85.333h-113.067v-68.267c0 0 2.133-29.867-12.8-46.933-8.533-10.667-23.467-14.933-42.667-14.933h-364.8c2.133 19.2 0 57.6-27.733 91.733-27.733 32-72.533 49.067-132.267 49.067h-64v238.933c19.2 10.667 89.6 51.2 108.8 117.333h401.067c0-17.067 6.4-55.467 34.133-85.333 23.467-25.6 57.6-38.4 102.4-40.533v-64h110.933v78.933c23.467-2.133 83.2-10.667 83.2-64 0 0 0-215.467 0-215.467zM345.6 789.333h260.267v-81.067h-260.267v81.067z" />
<glyph unicode="&#xe921;" glyph-name="icon-hybrid" d="M450.164-64c0 0-504.58 148.406-153.353 687.614 158.3 237.449 257.237 336.386 257.237 336.386s212.715-326.493 262.184-484.792c34.628-113.778 103.884-455.111-247.343-539.208l-44.522 469.952-19.787-54.415-54.415-415.536z" />
<glyph unicode="&#xe922;" glyph-name="icon-minus" d="M972 536h-920c-48 0-52-40-52-88s4-88 52-88h920c48 0 52 40 52 88s-4 88-52 88z" />
<glyph unicode="&#xe923;" glyph-name="icon-plus" d="M972 536h-372v372c0 48-40 52-88 52s-88-4-88-52v-372h-372c-48 0-52-40-52-88s4-88 52-88h372v-372c0-48 40-52 88-52s88 4 88 52v372h372c48 0 52 40 52 88s-4 88-52 88z" />
<glyph unicode="&#xe924;" glyph-name="icon-rain" horiz-adv-x="1302" d="M1302.4 547.2c0 102.4-76.8 185.6-172.8 198.4-41.6 128-160 214.4-294.4 214.4-112 0-211.2-60.8-268.8-153.6-32 12.8-64 22.4-99.2 22.4-118.4 0-214.4-83.2-236.8-192l-3.2-28.8-3.2-32c3.2-70.4 35.2-131.2 86.4-172.8l-294.4-291.2c-19.2-19.2-19.2-51.2 0-73.6 19.2-19.2 54.4-19.2 73.6 0l313.6 310.4c3.2 3.2 3.2 3.2 3.2 6.4 12.8-3.2 22.4-6.4 35.2-6.4h188.8l-179.2-185.6c-19.2-19.2-19.2-51.2 0-73.6 19.2-19.2 54.4-19.2 73.6 0l249.6 259.2h227.2l-336-326.4c-19.2-19.2-19.2-51.2 0-73.6 19.2-19.2 54.4-19.2 73.6 0l412.8 400c3.2 3.2 3.2 3.2 3.2 6.4 86.4 25.6 147.2 99.2 147.2 192v0zM1104 438.4h-640c-80 3.2-144 64-147.2 137.6v16c3.2 83.2 70.4 144 150.4 144 32 0 60.8-12.8 89.6-32l51.2-35.2 22.4 57.6c32 73.6 112 140.8 204.8 140.8 105.6 0 195.2-73.6 214.4-176l6.4-38.4 41.6 3.2c3.2 0 6.4 0 6.4 0 60.8 0 108.8-48 108.8-108.8-3.2-60.8-51.2-108.8-108.8-108.8v0z" />
<glyph unicode="&#xe925;" glyph-name="icon-request_a_test_drive" d="M215.16 573.51h231.097c11.953 0 19.922 7.969 19.922 19.922s-7.969 19.922-19.922 19.922h-231.097c-11.953 0-19.922-7.969-19.922-19.922s11.953-19.922 19.922-19.922zM661.416 131.237h-446.257c-11.953 0-19.922-7.969-19.922-19.922s7.969-19.922 19.922-19.922h442.272c11.953 0 19.922 7.969 19.922 19.922s-7.969 19.922-15.938 19.922zM661.416 226.864h-446.257c-11.953 0-19.922-7.969-19.922-19.922s7.969-19.922 19.922-19.922h442.272c11.953 0 19.922 7.969 19.922 19.922s-7.969 19.922-15.938 19.922zM195.237 497.805c0-11.953 7.969-19.922 19.922-19.922h442.272c11.953 0 19.922 7.969 19.922 19.922s-7.969 19.922-19.922 19.922h-442.272c-7.969 0-19.922-7.969-19.922-19.922zM908.451 736.872v0c-3.984 3.984-3.984 3.984-3.984 3.984l-191.253 211.175-3.984 3.984c-3.984 0-3.984 0-7.969 0h-426.335c-11.953 3.984-19.922-3.984-19.922-15.938v-115.549h-115.549c-11.953 0-19.922-7.969-19.922-19.922v-848.685c0-11.953 7.969-19.922 19.922-19.922h617.588c11.953 0 19.922 7.969 19.922 19.922v115.549h115.549c11.953 0 19.922 7.969 19.922 19.922v637.51c-3.984 3.984-3.984 3.984-3.984 7.969zM717.198 892.265l131.486-143.44h-131.486v143.44zM737.121-24.156h-577.743v808.84h386.49v-191.253c0-11.953 7.969-19.922 19.922-19.922h175.315v-597.665h-3.984zM581.728 613.354v143.44l131.486-143.44h-131.486zM872.591 111.315v0h-95.626v115.549h19.922c11.953 0 19.922 7.969 19.922 19.922s-7.969 19.922-19.922 19.922h-19.922v55.782h19.922c11.953 0 19.922 7.969 19.922 19.922s-11.953 19.922-23.907 19.922h-19.922v59.767h19.922c11.953 0 19.922 7.969 19.922 19.922s-7.969 19.922-19.922 19.922h-19.922v59.767h19.922c11.953 0 19.922 7.969 19.922 19.922s-11.953 19.922-19.922 19.922h-19.922v39.844c0 3.984 0 3.984 0 7.969 0 0 0 0 0 3.984 0 0 0 3.984-3.984 3.984l-3.984 7.969h31.875c11.953 0 19.922 7.969 19.922 19.922s-7.969 19.922-19.922 19.922h-63.751l-151.409 167.346-3.984 3.984c-3.984 0-3.984 0-7.969 0h-274.926v83.673h382.506v-191.253c0-11.953 7.969-19.922 19.922-19.922h175.315v-597.665zM661.416 322.49h-446.257c-11.953 0-19.922-7.969-19.922-19.922s7.969-19.922 19.922-19.922h442.272c11.953 0 19.922 7.969 19.922 19.922s-7.969 19.922-15.938 19.922zM661.416 418.117h-446.257c-11.953 0-19.922-7.969-19.922-19.922s7.969-19.922 19.922-19.922h442.272c11.953 0 19.922 7.969 19.922 19.922s-7.969 19.922-15.938 19.922z" />
<glyph unicode="&#xe926;" glyph-name="icon-solid-circle" d="M0 448c0-284 228-512 512-512s512 228 512 512c0 284-228 512-512 512s-512-228-512-512z" />
<glyph unicode="&#xe927;" glyph-name="icon-steering-wheel" d="M509.724 960c-282.169 0-509.724-227.556-509.724-509.724s227.556-509.724 509.724-509.724 509.724 227.556 509.724 509.724-227.556 509.724-509.724 509.724zM509.724 914.489c250.311 0 450.56-195.698 464.213-441.458h-223.004c-9.102 122.88-113.778 218.453-241.209 218.453s-232.107-95.573-241.209-223.004h-223.004c13.653 250.311 218.453 446.009 464.213 446.009zM45.511 427.52h223.004c9.102-118.329 104.676-209.351 218.453-218.453v-223.004c-236.658 9.102-427.804 200.249-441.458 441.458zM532.48-13.938v223.004c118.329 9.102 209.351 104.676 218.453 218.453h223.004c-9.102-241.209-200.249-432.356-441.458-441.458z" />
<glyph unicode="&#xe928;" glyph-name="icon-sun" d="M512 745.6c-163.2 0-297.6-134.4-297.6-297.6s134.4-297.6 297.6-297.6c163.2 0 297.6 134.4 297.6 297.6s-134.4 297.6-297.6 297.6zM512 233.6c-118.4 0-214.4 96-214.4 214.4s96 214.4 214.4 214.4c118.4 0 214.4-96 214.4-214.4s-96-214.4-214.4-214.4zM512 105.6c-22.4 0-41.6-19.2-41.6-41.6v-86.4c0-22.4 19.2-41.6 41.6-41.6s41.6 19.2 41.6 41.6v86.4c0 22.4-19.2 41.6-41.6 41.6zM512 790.4c22.4 0 41.6 19.2 41.6 41.6v86.4c0 22.4-19.2 41.6-41.6 41.6s-41.6-19.2-41.6-41.6v-86.4c0-22.4 19.2-41.6 41.6-41.6zM169.6 448c0 22.4-19.2 41.6-41.6 41.6h-86.4c-22.4 0-41.6-19.2-41.6-41.6s19.2-41.6 41.6-41.6h86.4c22.4 0 41.6 19.2 41.6 41.6zM982.4 489.6h-86.4c-22.4 0-41.6-19.2-41.6-41.6s19.2-41.6 41.6-41.6h86.4c22.4 0 41.6 19.2 41.6 41.6s-19.2 41.6-41.6 41.6zM211.2 208l-60.8-60.8c-16-16-16-44.8 0-60.8s44.8-16 60.8 0l60.8 60.8c16 16 16 44.8 0 60.8-19.2 16-44.8 16-60.8 0zM812.8 688l60.8 60.8c16 16 16 44.8 0 60.8s-44.8 16-60.8 0l-60.8-60.8c-16-16-16-44.8 0-60.8 19.2-16 44.8-16 60.8 0zM211.2 688c16-16 41.6-16 60.8 0 16 19.2 16 44.8 0 60.8l-60.8 60.8c-16 16-44.8 16-60.8 0s-16-41.6 0-60.8l60.8-60.8zM812.8 208c-16 16-44.8 16-60.8 0s-16-44.8 0-60.8l60.8-60.8c16-16 44.8-16 60.8 0s16 44.8 0 60.8l-60.8 60.8z" />
<glyph unicode="&#xe929;" glyph-name="icon-torque" d="M1024 454.321h-50.568c0 0 0-12.642 0-34.765 0-6.321 0-12.642 0-18.963s-3.16-12.642-3.16-22.123c0-6.321-3.16-15.802-3.16-25.284-3.16-9.481-3.16-18.963-6.321-28.444-12.642-34.765-28.444-82.173-60.049-129.58s-72.691-94.815-132.741-135.901c-56.889-37.926-129.58-69.531-208.593-79.012-9.481-3.16-18.963 0-31.605-3.16h-28.444c-22.123 0-44.247 0-63.21 6.321-41.086 3.16-82.173 18.963-123.259 34.765-9.481 3.16-18.963 9.481-28.444 12.642-12.642 6.321-22.123 12.642-31.605 18.963l-15.802 9.481-12.642 9.481c-9.481 6.321-18.963 12.642-28.444 18.963-34.765 28.444-66.37 63.21-91.654 101.136s-44.247 82.173-60.049 126.42c-12.642 44.247-18.963 91.654-22.123 139.062 0 22.123 0 47.407 6.321 69.531l3.16 18.963v9.481l3.16 9.481 9.481 34.765c12.642 44.247 34.765 88.494 60.049 126.42s53.728 72.691 88.494 101.136c9.481 9.481 18.963 15.802 28.444 22.123l12.642 9.481 15.802 9.481c9.481 6.321 18.963 12.642 28.444 18.963s18.963 9.481 31.605 15.802c41.086 18.963 82.173 31.605 126.42 37.926 22.123 3.16 44.247 3.16 63.21 6.321h31.605c9.481 0 22.123 0 31.605-3.16 82.173-9.481 154.864-37.926 218.074-79.012 56.889-41.086 104.296-91.654 135.901-139.062 34.765-47.407 50.568-97.975 63.21-139.062 3.16-9.481 6.321-18.963 6.321-28.444 3.16-9.481 3.16-18.963 3.16-25.284 0-9.481 3.16-15.802 3.16-22.123s0-12.642 0-18.963 0-22.123 0-28.444c0 6.321 0 15.802 0 28.444 0 6.321 0 12.642 0 18.963s-3.16 15.802-3.16 22.123c0 9.481-3.16 15.802-3.16 25.284-3.16 9.481-3.16 18.963-6.321 28.444-12.642 41.086-28.444 91.654-63.21 139.062-31.605 50.568-79.012 101.136-139.062 142.222s-135.901 72.691-221.235 82.173c-9.481 3.16-22.123 0-31.605 3.16l-18.963 3.16c-3.16 0-6.321 0-9.481 0-22.123 0-44.247 0-66.37-6.321-44.247-6.321-88.494-18.963-129.58-34.765-9.481-6.321-22.123-9.481-31.605-15.802s-18.963-12.642-31.605-18.963l-12.642-6.321-12.642-12.642c-9.481-6.321-18.963-12.642-28.444-18.963-37.926-31.605-69.531-66.37-97.975-107.457s-47.407-85.333-63.21-132.741l-9.481-34.765-3.16-9.481v-9.481l-3.16-18.963c-3.16-12.642-3.16-25.284-3.16-37.926l-3.16-34.765c0-50.568 6.321-97.975 22.123-145.383s34.765-91.654 63.21-132.741 60.049-79.012 94.815-110.617c9.481-6.321 18.963-15.802 28.444-22.123 3.16-6.321 9.481-9.481 12.642-12.642l15.802-9.481c9.481-6.321 18.963-12.642 31.605-18.963 9.481-6.321 22.123-9.481 31.605-15.802 44.247-18.963 85.333-31.605 132.741-37.926 22.123-3.16 44.247-3.16 66.37-6.321h34.765c9.481 0 22.123 0 31.605 3.16 85.333 9.481 164.346 41.086 227.556 82.173s110.617 94.815 145.383 145.383 53.728 101.136 66.37 145.383c3.16 9.481 6.321 22.123 9.481 31.605s3.16 18.963 6.321 28.444c0 9.481 3.16 15.802 3.16 25.284 0 6.321 0 12.642 0 18.963 0 18.963 0 28.444 0 31.605v0zM998.716 454.321c0 0 0 3.16 0 6.321 0-3.16 0-6.321 0-6.321v0zM821.728 476.444c0 6.321 0 15.802-3.16 25.284 0 6.321 0 9.481-3.16 15.802 0 6.321-3.16 12.642-3.16 18.963-6.321 25.284-18.963 56.889-37.926 91.654-18.963 31.605-50.568 66.37-88.494 94.815s-88.494 47.407-142.222 56.889c-53.728 6.321-113.778 0-170.667-22.123-28.444-12.642-56.889-28.444-82.173-50.568-22.123-18.963-44.247-41.086-63.21-69.531-18.963-25.284-31.605-56.889-44.247-88.494-3.16-15.802-9.481-31.605-12.642-47.407 0-9.481-3.16-15.802-3.16-25.284l-3.16-25.284c0-34.765 3.16-66.37 12.642-97.975s22.123-63.21 41.086-91.654 41.086-53.728 63.21-75.852c25.284-22.123 50.568-41.086 82.173-53.728 6.321-3.16 15.802-6.321 22.123-9.481s15.802-6.321 22.123-9.481c6.321-3.16 15.802-3.16 22.123-6.321s15.802-3.16 25.284-3.16c15.802-3.16 28.444-3.16 44.247-3.16h22.123c6.321 0 15.802 0 22.123 0 60.049 6.321 113.778 25.284 158.025 53.728s79.012 63.21 101.136 97.975c25.284 34.765 37.926 69.531 47.407 101.136 3.16 6.321 3.16 15.802 6.321 22.123s3.16 12.642 3.16 18.963 3.16 12.642 3.16 18.963 0 9.481 0 12.642c0 15.802 3.16 22.123 3.16 22.123v0l-44.247 6.321c0 0 0 6.321 0 22.123zM821.728 454.321l-47.407 3.16c0 0 0-6.321 0-22.123 0-3.16 0-9.481 0-12.642s0-6.321 0-12.642c0-3.16 0-9.481-3.16-12.642 0-6.321-3.16-9.481-3.16-15.802-6.321-22.123-15.802-50.568-31.605-75.852-15.802-28.444-41.086-56.889-75.852-79.012-31.605-22.123-75.852-41.086-120.099-47.407-6.321 0-12.642 0-18.963-3.16h-12.642c-3.16 0 3.16 0 0 0v0 0h-3.16c-12.642 0-28.444 0-37.926 3.16-6.321 0-12.642 0-18.963 3.16-6.321 0-12.642 3.16-18.963 3.16s-12.642 3.16-18.963 6.321c-6.321 3.16-12.642 3.16-18.963 6.321-25.284 9.481-47.407 25.284-69.531 41.086s-41.086 37.926-56.889 60.049c-15.802 22.123-28.444 47.407-37.926 75.852s-12.642 53.728-15.802 85.333v22.123c0 9.481 0 15.802 3.16 22.123 0 12.642 3.16 28.444 6.321 41.086 9.481 28.444 18.963 53.728 34.765 79.012s34.765 47.407 53.728 63.21c22.123 18.963 44.247 34.765 69.531 47.407s50.568 18.963 79.012 25.284c12.642 3.16 25.284 3.16 37.926 3.16h18.963c6.321 0 12.642 0 18.963 0 50.568-3.16 97.975-22.123 135.901-47.407s66.37-53.728 88.494-85.333c22.123-31.605 34.765-60.049 41.086-85.333 3.16-6.321 3.16-12.642 6.321-18.963 0-6.321 3.16-12.642 3.16-15.802 3.16-9.481 3.16-18.963 3.16-25.284 9.481-25.284 9.481-31.605 9.481-31.605v0z" />
<glyph unicode="&#xe92a;" glyph-name="icon-towing" d="M793.6 953.6c-80 25.6-163.2-16-192-96-19.2-60.8 0-121.6 44.8-160-19.2-9.6-73.6-41.6-96-112-22.4-67.2 44.8-166.4 48-275.2-25.6-112-128-192-246.4-188.8-19.2 0-35.2 3.2-54.4 9.6-76.8 48-76.8 121.6-73.6 156.8l22.4 140.8-73.6 51.2 9.6-57.6-51.2-147.2c0-9.6 0-19.2 0-28.8-6.4-166.4 121.6-304 288-310.4s304 121.6 310.4 288v0c3.2 67.2-16 128-51.2 182.4-6.4 6.4-6.4 9.6-9.6 16-83.2 137.6 6.4 214.4 48 240 73.6-16 147.2 25.6 172.8 99.2 22.4 80-19.2 163.2-96 192zM857.6 771.2c-19.2-67.2-89.6-99.2-153.6-80s-96 92.8-73.6 156.8 92.8 99.2 156.8 76.8c60.8-19.2 92.8-89.6 70.4-153.6z" />
<glyph unicode="&#xe92b;" glyph-name="icon-caret-right-amg" horiz-adv-x="512" d="M0 960l256-512-256-512 512 512-512 512z" />
<glyph unicode="&#xe92c;" glyph-name="icon-search" d="M1024 16l-320 320c47.952 62.832 76.83 142.461 76.83 228.834 0 1.676-0.011 3.349-0.033 5.019l0.003-0.253c0.001 0.288 0.001 0.628 0.001 0.968 0 107.39-44.083 204.483-115.14 274.172l-0.061 0.060c-70.098 71.15-167.501 115.23-275.2 115.23s-205.103-44.080-275.154-115.183l-0.046-0.047c-71.15-70.098-115.23-167.501-115.23-275.2s44.080-205.103 115.183-275.154l0.047-0.046c70.34-70.765 167.59-114.714 275.107-115.2h0.093c87.88 0.495 168.952 29.23 234.71 77.579l-1.11-0.779 320-320zM390.4 281.6c-159.058 0-288 128.942-288 288s128.942 288 288 288v0 0c0.685 0.006 1.494 0.009 2.304 0.009 78.959 0 150.496-31.775 202.522-83.235l-0.026 0.026c51.962-52.618 84.057-124.961 84.057-204.8s-32.095-152.182-84.087-204.83l0.030 0.030c-52.001-51.435-123.538-83.209-202.496-83.209-0.81 0-1.619 0.003-2.428 0.010l0.124-0.001z" />
<glyph unicode="&#xe92d;" glyph-name="icon-mb-dealer-location" horiz-adv-x="1013" d="M464.403 539.819l29.886 208.327c0.076 0.493-0.152 1.176-1.062 1.176-57.799-3.148-111.692-27.117-152.955-68.38-44.335-44.373-68.76-103.31-68.76-166.040 0-37.471 8.685-73.5 25.183-106.003 0.341-0.531 1.062-0.683 1.593-0.265l165.585 130.2c0.493 0.455 0.455 0.569 0.531 0.986zM703.033 388.684l-195.432 77.369c-0.948 0.379-1.403 0.417-2.541-0.038l-194.712-78.279c-0.683-0.265-0.796-1.062-0.455-1.593 2.048-3.072 5.613-8.306 10.012-13.995 6.334-8.192 14.45-17.37 20.366-23.287 44.373-44.335 103.31-68.76 166.040-68.76s121.704 24.424 166.040 68.76c11.567 11.567 22.414 24.879 31.213 38.267 0.303 0.607 0.076 1.365-0.531 1.555zM508.511 510.957c-0.341-0.152-0.493-0.645-0.531-1.176-0.19-6.827-0.759-24.197-1.252-33.109-0.19-3.072-0.228-6.296-0.455-6.334-0.265 0-0.303 3.262-0.493 6.334-0.493 8.988-1.062 26.548-1.252 33.261-0.076 0.455-0.228 0.872-0.569 1.024-0.455 0.228-1.289-0.076-1.858-0.379l-203.966-116.471c1.745-2.010 5.385-4.399 9.254-5.841l0.114 0.038 198.77 79.948 200.59-79.379c0 0 5.992 0.721 9.747 3.831-0.796 0.417-206.052 117.798-206.052 117.798-0.607 0.303-1.593 0.683-2.048 0.455zM649.216 739.423c55.296-37.471 93.867-97.015 107.444-168.088 0.19-1.138 0.303-2.579-0.152-2.844-11.681 55.941-41.339 103.879-82.185 139.605-44.866 39.177-103.727 62.767-167.746 62.767-31.744 0-62.692-5.651-90.719-16.27-0.303-0.114-24.311-8.457-52.148-26.852-13.691-9.064-28.141-21.011-41.529-34.74-19.304-19.911-36.712-45.018-48.735-71.149-11.833-25.676-18.356-52.489-21.087-74.714-0.569-4.437-0.796-6.447-1.138-10.050-0.038-0.683-0.228-2.238-0.228-2.238-0.493-3.679-2.048-6.182-2.048-6.182-0.341-0.569-0.721-1.252-1.214-2.124-2.351-4.324-6.865-14.033-7.471-23.704 0 0-0.19-2.427-0.114-6.713 4.399-64.209 31.516-123.942 77.483-169.908 50.404-50.404 117.419-78.165 188.681-78.165s138.278 27.762 188.681 78.165 78.165 117.419 78.127 188.719c0 71.263-27.762 138.278-78.165 188.681-13.919 13.919-29.506 25.448-45.739 35.802zM685.966 335.625c-45.928-45.966-109.265-74.6-179.39-74.6s-133.348 28.179-179.314 74.145c-45.966 45.928-74.942 109.606-74.942 179.731 0 37.812 8.344 73.728 23.059 106.041 12.591 27.648 30.265 52.452 51.428 73.652 23.969 23.969 53.020 43.387 85.106 56.244 29.848 11.985 61.364 18.053 94.891 18.053 70.125 0 133.613-28.672 179.541-74.638 45.928-45.928 73.766-109.416 73.766-179.541s-28.179-133.12-74.145-179.086zM546.74 538.15c-0.265 0.228-0.531 0.645-0.645 1.745l-29.696 210.565c-2.996 2.844-6.372 4.855-9.406 5.613l0.038-6.068 1.327-229.831c0.038-0.303 0.114-0.607 0.265-0.796 0.038-0.038 0.114-0.114 0.19-0.152 0.152-0.114 0.417-0.114 0.721-0.038 0.265 0.076 0.569 0.19 0.872 0.341l0.645 0.341c0.114 0.076 0.228 0.114 0.303 0.152l18.622 9.633c0 0 10.543 5.613 10.923 5.234 6.599-4.968 162.588-122.425 174.27-131.186 0.569-2.010 0.759-4.361 0.341-6.599l-199.756 118.101c0 0-0.341 0.19-0.455 0.455-0.228 0.531 0.038 0.759 0.19 0.872 0 0 25.335 17.408 25.145 17.598-0.076 0.076-4.21-2.427-9.368-5.575-0.114-0.076-0.19-0.114-0.19-0.114l-19.532-12.098c-0.303-0.265-0.531-0.531-0.531-0.834 0-0.114 0.038-0.228 0.076-0.341 0.038-0.038 0.076-0.038 0.076-0.076 0.076-0.076 0.114-0.152 0.19-0.228l0.038-0.038c0.114-0.076 0.19-0.152 0.303-0.228 0.152-0.114 0.265-0.19 0.417-0.265l0.19-0.114c0.19-0.114 0.379-0.228 0.569-0.341l204.421-119.96c0.759 3.679-0.114 8.988-1.289 11.34l-169.263 132.892zM519.32 749.284c-0.569 0-1.024-0.341-1.1-0.91 0-0.038 0-0.114 0-0.152 0-0.076 0-0.114 0-0.19l29.393-207.986c0.076-0.455 0.114-0.607 0.152-0.683l166.647-130.844c0.493-0.341 1.176-0.19 1.441 0.228 16.536 32.73 25.259 68.305 25.183 106.117 0 62.729-24.424 121.704-68.76 166.040-41.263 41.301-95.080 65.271-152.955 68.38zM507.601 764.302h-0.796c-49.342 0-95.649-14.071-134.296-38.912-21.011-13.464-39.898-30.075-56.017-49.114-4.665-5.348-9.102-10.885-13.274-16.612-28.52-38.988-46.232-93.563-46.232-138.657 0-0.19 0-0.417 0-0.607-0.038-2.010-0.076-4.020-0.076-6.030v-0.303c0-17.598 1.934-34.588 5.423-51.010 3.451-16.346 8.457-32.123 15.057-47.256 12.743-29.203 30.91-55.751 53.286-77.976 22.793-22.604 49.911-40.732 79.986-53.286 29.696-12.364 62.54-19.001 96.597-19.001h0.455c54.575 0 104.448 17.977 145.256 47.673 56.396 41.036 95.308 104.865 101.869 178.555 0.683 7.396 1.062 14.981 1.062 22.566v0.986c0 31.934-6.334 62.236-17.143 90.226-35.916 92.843-128.228 158.758-231.159 158.758zM500.85 754.821c1.138 0.948 2.162 1.972 2.996 2.541l-2.086-235.141c0 0 0.076-1.707-1.289-0.796-7.016 5.234-23.249 17.56-24.69 19.266-1.631 1.934-1.403 4.703-1.327 6.372 0.303 6.22 23.514 202.638 23.817 205.217 0.683 0.796 1.555 1.707 2.579 2.541zM269.957 514.901c0 63.147 24.576 122.501 69.177 167.14 42.060 42.060 97.849 66.56 157.127 69.025l-30.341-211.475c-0.152-0.834-0.455-1.365-1.138-2.010l-168.050-132.172c-17.522 33.451-26.776 71.301-26.776 109.492zM742.135 532.992c0.683-6.675 3.527-15.588 5.044-19.077 2.276-5.272 3.982-8.495 5.12-10.202 0.152-0.265 1.252-1.858 1.252-3.831-0.076-0.948-0.114-2.048-0.19-2.92-0.076-1.176-0.228-2.503-0.303-3.679 0-0.341-0.038-0.683-0.076-0.986-5.348-59.582-31.365-111.844-71.339-151.817l-0.152-0.114c-9.216-9.216-18.963-17.56-29.468-25.183-40.695-29.431-89.581-47.521-144.043-47.521h-0.303c-34.133 0-66.825 6.485-96.256 19.001-29.658 12.629-56.661 30.189-79.227 52.755l-0.152 0.152c-22.3 22.3-39.329 47.635-51.693 74.866 0.493 0.038 1.024-0.759 1.327-1.289 38.078-77.445 116.167-127.924 204.535-134.030 4.020-0.341 8.116-0.379 12.212-0.379-60.151 1.972-116.395 26.321-159.175 69.101-6.447 6.409-14.488 15.625-20.518 23.438-6.296 8.154-10.923 15.398-11.757 16.687-5.916 0.531-11.416 5.385-11.416 5.385l-0.038 0.796 204.041 119.618c0.114 0.076 0.228 0.114 0.341 0.19l0.683 0.417c0.493 0.303 0.91 0.721 0.91 1.252 0 0.455-0.379 0.834-0.834 1.176l-0.872 0.569c-0.038 0.038-0.076 0.038-0.114 0.076l-17.598 11.264c0 0-5.537 3.337-8.154 5.158-0.872 0.493-1.365 0.796-1.403 0.796-0.303-0.265 17.673-12.895 24.652-17.787 1.024-0.91-0.417-1.669-0.683-1.82-0.303-0.19-1.1-0.645-1.1-0.645l-199.87-118.101c0.152 3.148 0.872 5.613 1.403 7.092 1.403 1.062 175.445 131.641 175.445 131.641 0.417 0.341 10.354-5.272 10.354-5.272l19.608-10.164c0.531-0.228 1.176-0.417 1.517-0.228s0.455 0.759 0.493 1.327v1.062c0 0.038 0 0.076 0 0.114l1.365 236.696 0.152 0.076c0.265 0.152 0.417 0.228 0.455 0.228l0.114-0.076c2.010-1.176 7.054-3.717 9.899-7.661 0.038-0.038 0.076-0.038 0.076-0.076 59.24-2.503 114.991-27.003 157.165-68.949 40.391-40.391 64.36-92.767 68.57-149.125zM506.273 952.415c-238.933 0-436.148-197.215-436.148-436.148 0-314.785 436.148-576.474 436.148-576.474s436.148 254.104 436.148 576.474c3.793 238.933-193.422 436.148-436.148 436.148zM696.092 325.12c-50.707-50.707-118.101-78.62-189.781-78.62s-139.074 27.913-189.781 78.62-78.62 118.101-78.62 189.781 27.913 139.074 78.62 189.781 118.101 78.62 189.781 78.62 139.074-27.913 189.781-78.62 78.62-118.101 78.62-189.781-27.913-139.074-78.62-189.781z" />
<glyph unicode="&#xe92e;" glyph-name="icon-car-rear" horiz-adv-x="1574" d="M1571.2 348.8v0c3.2 160-41.6 214.4-70.4 256-25.6 51.2-118.4 73.6-140.8 86.4s-16 22.4-16 22.4c9.6-3.2 89.6 3.2 89.6 3.2s22.4 0 19.2 32c-16 51.2-89.6 54.4-118.4 51.2-25.6-3.2-12.8-57.6-12.8-57.6-80 134.4-99.2 147.2-134.4 169.6-32 38.4-364.8 48-400 48v0c0 0 0 0 0 0s0 0 0 0v0c-35.2 0-368-9.6-396.8-44.8-38.4-25.6-57.6-38.4-137.6-169.6 0 0 12.8 51.2-12.8 57.6-28.8 0-102.4-3.2-115.2-54.4-3.2-32 19.2-32 19.2-32s80-6.4 89.6-3.2c0 0 3.2-9.6-19.2-22.4s-115.2-32-140.8-86.4c-28.8-44.8-73.6-96-70.4-256 0-160-16-348.8 41.6-387.2s156.8-19.2 156.8-19.2 12.8 6.4 12.8 19.2c3.2 16 9.6 80 9.6 80s150.4-12.8 172.8-12.8c22.4 0 57.6 38.4 105.6 38.4 44.8 0 265.6 3.2 284.8 3.2s240-3.2 284.8-3.2c48 0 83.2-38.4 105.6-38.4s172.8 12.8 172.8 12.8 6.4-64 9.6-80c3.2-16 12.8-19.2 12.8-19.2s99.2-19.2 156.8 19.2c57.6 38.4 41.6 227.2 41.6 387.2zM419.2 425.6v0c-48-12.8-265.6 12.8-313.6 22.4-48 6.4-48 38.4-41.6 73.6s38.4 28.8 38.4 28.8 268.8-38.4 304-44.8c35.2-6.4 64-57.6 64-57.6s-3.2-6.4-51.2-22.4zM1036.8 691.2v0l-249.6-3.2-249.6 3.2c0 0-99.2 3.2-131.2 22.4-57.6 38.4 6.4 160 16 182.4 12.8 22.4 339.2 38.4 364.8 38.4 22.4 0 352-16 364.8-38.4 12.8-25.6 76.8-147.2 16-182.4-32-19.2-131.2-22.4-131.2-22.4zM1465.6 448v0c-48-6.4-265.6-35.2-313.6-22.4s-51.2 22.4-51.2 22.4 32 51.2 64 57.6c35.2 6.4 304 44.8 304 44.8s32 6.4 38.4-28.8c6.4-35.2 6.4-67.2-41.6-73.6zM502.4 51.2c0 0-35.2-6.4-70.4-22.4v0c0 0 348.8-16 713.6-3.2 0 0-38.4 25.6-60.8 28.8-16-3.2-582.4-3.2-582.4-3.2z" />
<glyph unicode="&#xe92f;" glyph-name="icon-mb-collision-center" d="M513.918 960c-245.453 0-441.049-199.431-441.049-441.049 0-318.322 441.049-582.951 441.049-582.951s441.049 253.124 441.049 582.951c0 241.618-195.596 441.049-441.049 441.049zM721.019 384.719c-65.199-65.199-164.914-84.375-249.288-57.528l-76.704-76.704-149.573 149.573 76.704 76.704c-26.846 80.539-7.67 180.255 57.528 245.453s164.914 84.375 249.288 57.528l-134.232-134.232c-42.187-42.187-42.187-107.386 0-149.573s107.386-42.187 149.573 0l134.232 134.232c26.846-84.375 7.67-180.255-57.528-245.453z" />
<glyph unicode="&#xe930;" glyph-name="AMG_logo-performance-center" horiz-adv-x="28091" d="M1634.462 960h-827.077c-29.538 0-68.923-19.692-78.769-39.385l-718.769-945.231c-19.692-19.692-9.846-39.385 19.692-39.385h836.923c29.538 0 59.077 19.692 78.769 39.385l718.769 945.231c9.846 19.692 0 39.385-29.538 39.385zM2274.462 960h-393.846c-29.538 0-59.077-19.692-78.769-39.385l-708.923-945.231c-19.692-19.692-9.846-39.385 19.692-39.385h393.846c29.538 0 59.077 19.692 78.769 39.385l718.769 945.231c9.846 19.692 0 39.385-29.538 39.385zM2825.846 960h-295.385c-29.538 0-59.077-19.692-78.769-39.385l-718.769-945.231c-19.692-19.692-9.846-39.385 19.692-39.385h295.385c29.538 0 59.077 19.692 78.769 39.385l718.769 945.231c19.692 19.692 9.846 39.385-19.692 39.385zM3337.846 960h-206.769c-29.538 0-59.077-19.692-78.769-39.385l-718.769-945.231c-19.692-19.692-9.846-39.385 19.692-39.385h206.769c29.538 0 59.077 19.692 78.769 39.385l718.769 945.231c9.846 19.692 0 39.385-19.692 39.385zM3810.462 960h-147.692c-29.538 0-59.077-19.692-78.769-39.385l-718.769-945.231c-19.692-19.692-9.846-39.385 19.692-39.385h147.692c29.538 0 59.077 19.692 78.769 39.385l718.769 945.231c19.692 19.692 9.846 39.385-19.692 39.385zM5681.231 960h-1545.846c-29.538 0-59.077-19.692-78.769-39.385l-718.769-945.231c-19.692-19.692-9.846-39.385 19.692-39.385h344.615c29.538 0 59.077 19.692 78.769 39.385l118.154 147.692c19.692 19.692 49.231 39.385 78.769 39.385h1319.385c29.538 0 49.231-19.692 49.231-49.231v-128c0-29.538 19.692-49.231 49.231-49.231h275.692c29.538 0 49.231 19.692 49.231 49.231v925.538c9.846 29.538-19.692 49.231-39.385 49.231zM5307.077 448h-1122.462c-29.538 0-39.385 19.692-19.692 39.385l128 177.231c19.692 19.692 49.231 39.385 78.769 39.385h925.538c29.538 0 49.231-19.692 49.231-49.231v-157.538c9.846-29.538-9.846-49.231-39.385-49.231zM8113.231 960h-275.692c-29.538 0-68.923-9.846-88.615-29.538l-669.538-433.231c-19.692-19.692-59.077-19.692-78.769 0l-669.538 433.231c-29.538 9.846-68.923 29.538-98.462 29.538h-275.692c-19.692 0-49.231-29.538-49.231-49.231v-925.538c0-29.538 19.692-49.231 49.231-49.231h275.692c29.538 0 49.231 19.692 49.231 49.231v521.846c0 29.538 19.692 39.385 39.385 19.692l521.846-305.231c19.692-9.846 68.923-29.538 88.615-29.538h196.923c29.538 0 68.923 9.846 88.615 29.538l521.846 305.231c19.692 9.846 39.385 0 39.385-19.692v-521.846c0-29.538 19.692-49.231 49.231-49.231h275.692c29.538 0 49.231 19.692 49.231 49.231v925.538c9.846 29.538-9.846 49.231-39.385 49.231zM10417.231 960h-2018.462c-29.538 0-49.231-19.692-49.231-49.231v-925.538c0-29.538 19.692-49.231 49.231-49.231h2018.462c29.538 0 49.231 19.692 49.231 49.231v512c0 29.538-19.692 49.231-49.231 49.231h-994.462c-29.538 0-49.231-19.692-49.231-49.231v-98.462c0-29.538 19.692-49.231 49.231-49.231h620.308c29.538 0 49.231-19.692 49.231-49.231v-49.231c0-29.538-19.692-49.231-49.231-49.231h-1270.154c-29.538 0-49.231 19.692-49.231 49.231v393.846c0 39.385 19.692 49.231 49.231 49.231h1644.308c29.538 0 49.231 19.692 49.231 49.231v167.385c0 29.538-19.692 49.231-49.231 49.231zM12199.385 881.231c-29.538 19.692-68.923 39.385-118.154 49.231-39.385 9.846-88.615 9.846-147.692 9.846h-374.154v-984.615h128v403.692h256c137.846 0 236.308 29.538 285.538 88.615s78.769 118.154 78.769 206.769c0 49.231-9.846 98.462-29.538 137.846s-39.385 68.923-78.769 88.615zM12120.615 516.923c-39.385-29.538-98.462-49.231-177.231-49.231h-256v354.462h256c59.077 0 98.462 0 118.154-9.846 29.538-9.846 59.077-29.538 78.769-59.077s29.538-68.923 29.538-108.308c9.846-49.231-9.846-98.462-49.231-128zM12593.231 408.615h541.538v108.308h-541.538v305.231h580.923v118.154h-718.769v-984.615h738.462v118.154h-600.615zM13942.154 349.538c-19.692 19.692-39.385 29.538-78.769 49.231 98.462 9.846 167.385 39.385 206.769 88.615s68.923 108.308 68.923 177.231c0 59.077-9.846 108.308-39.385 147.692s-59.077 78.769-108.308 98.462-108.308 29.538-196.923 29.538h-433.231v-984.615h128v433.231h147.692c29.538 0 59.077 0 68.923 0 19.692-9.846 39.385-9.846 59.077-29.538 19.692-9.846 39.385-39.385 68.923-68.923s59.077-78.769 98.462-137.846l128-206.769h167.385l-167.385 265.846c-39.385 59.077-78.769 108.308-118.154 137.846zM13764.923 507.077h-275.692v324.923h315.077c68.923 0 128-19.692 157.538-49.231s49.231-68.923 49.231-118.154c0-29.538-9.846-59.077-29.538-88.615s-39.385-49.231-78.769-59.077-78.769-9.846-137.846-9.846zM14355.692-44.308h128v443.077h462.769v118.154h-462.769v305.231h541.538v118.154h-669.538zM15832.615 891.077c-78.769 49.231-157.538 68.923-246.154 68.923-137.846 0-256-49.231-344.615-137.846s-128-216.615-128-384c0-88.615 19.692-167.385 59.077-246.154s88.615-137.846 167.385-187.077 157.538-68.923 246.154-68.923c88.615 0 167.385 19.692 236.308 59.077 78.769 39.385 128 98.462 167.385 177.231s59.077 167.385 59.077 265.846c0 98.462-19.692 187.077-59.077 265.846-29.538 88.615-88.615 147.692-157.538 187.077zM15822.769 152.615c-59.077-68.923-147.692-108.308-246.154-108.308s-177.231 29.538-236.308 98.462c-59.077 68.923-98.462 157.538-98.462 285.538 0 147.692 29.538 256 98.462 315.077s147.692 98.462 236.308 98.462c68.923 0 128-19.692 177.231-49.231s88.615-78.769 118.154-137.846c29.538-59.077 39.385-128 39.385-206.769 9.846-128-19.692-226.462-88.615-295.385zM16817.231 349.538c-19.692 19.692-39.385 29.538-78.769 49.231 98.462 9.846 167.385 39.385 206.769 88.615s68.923 108.308 68.923 177.231c0 59.077-9.846 108.308-39.385 147.692s-59.077 78.769-108.308 98.462-108.308 29.538-196.923 29.538h-433.231v-984.615h128v433.231h147.692c29.538 0 59.077 0 68.923 0 19.692-9.846 39.385-9.846 59.077-29.538 19.692-9.846 39.385-39.385 68.923-68.923s59.077-78.769 98.462-137.846l128-206.769h167.385l-167.385 265.846c-39.385 59.077-78.769 108.308-118.154 137.846zM16640 507.077h-285.538v324.923h315.077c68.923 0 128-19.692 157.538-49.231s49.231-68.923 49.231-118.154c0-29.538-9.846-59.077-29.538-88.615s-39.385-49.231-78.769-59.077-68.923-9.846-128-9.846zM17752.615 251.077c-19.692-68.923-39.385-118.154-49.231-157.538-9.846 29.538-29.538 78.769-49.231 147.692l-236.308 699.077h-196.923v-984.615h128v836.923l285.538-836.923h118.154l285.538 827.077v-827.077h128v984.615h-177.231l-236.308-689.231zM18658.462 940.308l-374.154-984.615h137.846l108.308 295.385h413.538l118.154-295.385h147.692l-403.692 984.615h-147.692zM18560 359.385l108.308 285.538c19.692 59.077 39.385 128 49.231 187.077 19.692-49.231 39.385-118.154 68.923-206.769l98.462-275.692h-324.923zM19968 162.462l-512 777.846h-137.846v-984.615h128v777.846l512-777.846h137.846v984.615h-128zM20913.231 113.231c-49.231-39.385-108.308-59.077-187.077-59.077-59.077 0-118.154 19.692-167.385 49.231s-88.615 78.769-118.154 137.846c-19.692 59.077-39.385 137.846-39.385 216.615 0 68.923 9.846 128 29.538 187.077s59.077 108.308 108.308 147.692c49.231 39.385 118.154 59.077 187.077 59.077s118.154-19.692 167.385-49.231 78.769-88.615 98.462-157.538l128 29.538c-29.538 88.615-68.923 157.538-137.846 216.615s-137.846 68.923-236.308 68.923c-88.615 0-167.385-19.692-236.308-59.077s-128-98.462-167.385-177.231c-39.385-78.769-59.077-167.385-59.077-265.846s19.692-187.077 49.231-265.846c39.385-78.769 88.615-147.692 147.692-187.077 68.923-39.385 157.538-68.923 256-68.923s187.077 29.538 256 88.615c68.923 59.077 118.154 137.846 147.692 246.154l-128 29.538c-9.846-88.615-39.385-147.692-98.462-187.077zM21435.077 408.615h551.385v108.308h-551.385v305.231h590.769v118.154h-718.769v-984.615h738.462v118.154h-610.462zM23207.385 113.231c-49.231-39.385-108.308-59.077-187.077-59.077-59.077 0-118.154 19.692-167.385 49.231s-88.615 68.923-108.308 128c-19.692 59.077-39.385 137.846-39.385 216.615 0 68.923 9.846 128 29.538 187.077s59.077 108.308 108.308 147.692c49.231 39.385 118.154 59.077 187.077 59.077s118.154-19.692 167.385-49.231 78.769-88.615 98.462-157.538l128 29.538c-29.538 88.615-68.923 157.538-137.846 216.615s-147.692 78.769-246.154 78.769c-88.615 0-167.385-19.692-236.308-59.077s-128-98.462-167.385-177.231c-39.385-78.769-59.077-167.385-59.077-265.846s19.692-187.077 49.231-265.846c39.385-78.769 88.615-147.692 147.692-187.077 68.923-39.385 157.538-68.923 256-68.923s187.077 29.538 256 88.615c68.923 59.077 118.154 137.846 147.692 246.154l-128 29.538c-9.846-88.615-49.231-147.692-98.462-187.077zM23729.231 408.615h551.385v108.308h-551.385v305.231h590.769v118.154h-718.769v-984.615h738.462v118.154h-610.462zM25147.077 162.462l-512 777.846h-137.846v-984.615h128v777.846l512-777.846h137.846v984.615h-128zM25412.923 822.154h324.923v-866.462h128v866.462h324.923v118.154h-777.846zM26456.615 408.615h541.538v108.308h-541.538v305.231h580.923v118.154h-708.923v-984.615h728.615v118.154h-600.615zM27923.692 221.538c-29.538 49.231-68.923 98.462-108.308 128-19.692 19.692-39.385 29.538-78.769 49.231 98.462 9.846 167.385 39.385 206.769 88.615s68.923 108.308 68.923 177.231c0 59.077-9.846 108.308-39.385 147.692s-59.077 78.769-108.308 98.462-108.308 29.538-196.923 29.538h-433.231v-984.615h128v433.231h147.692c29.538 0 59.077 0 68.923 0 19.692-9.846 39.385-9.846 59.077-29.538 19.692-9.846 39.385-39.385 68.923-68.923s59.077-78.769 98.462-137.846l128-206.769h167.385l-177.231 275.692zM27638.154 507.077h-285.538v324.923h315.077c68.923 0 128-19.692 157.538-49.231s49.231-68.923 49.231-118.154c0-29.538-9.846-59.077-29.538-88.615s-39.385-49.231-78.769-59.077-68.923-9.846-128-9.846z" />
<glyph unicode="&#xe931;" glyph-name="AMG_logo-performance-center-elite" horiz-adv-x="32187" d="M12199.385 881.231c-29.538 19.692-68.923 39.385-118.154 49.231-39.385 9.846-88.615 9.846-147.692 9.846h-374.154v-984.615h128v403.692h256c137.846 0 236.308 29.538 285.538 88.615s78.769 118.154 78.769 206.769c0 49.231-9.846 98.462-29.538 137.846s-39.385 68.923-78.769 88.615zM12120.615 516.923c-39.385-29.538-98.462-49.231-177.231-49.231h-256v354.462h256c59.077 0 98.462 0 118.154-9.846 29.538-9.846 59.077-29.538 78.769-59.077s29.538-68.923 29.538-108.308c9.846-49.231-9.846-98.462-49.231-128zM12593.231 408.615h541.538v108.308h-541.538v305.231h580.923v118.154h-718.769v-984.615h738.462v118.154h-600.615zM13952 349.538c-19.692 19.692-39.385 29.538-78.769 49.231 98.462 9.846 167.385 39.385 206.769 88.615s68.923 108.308 68.923 177.231c0 59.077-9.846 108.308-39.385 147.692s-59.077 78.769-108.308 98.462-108.308 29.538-196.923 29.538h-433.231v-984.615h128v433.231h147.692c29.538 0 59.077 0 68.923 0 19.692-9.846 39.385-9.846 59.077-29.538 19.692-9.846 39.385-39.385 68.923-68.923s59.077-78.769 98.462-137.846l128-206.769h167.385l-167.385 265.846c-49.231 59.077-88.615 108.308-118.154 137.846zM13764.923 507.077h-275.692v324.923h315.077c68.923 0 128-19.692 157.538-49.231s49.231-68.923 49.231-118.154c0-29.538-9.846-59.077-29.538-88.615s-39.385-49.231-78.769-59.077-68.923-9.846-137.846-9.846zM14355.692-44.308h128v443.077h462.769v118.154h-462.769v305.231h541.538v118.154h-669.538zM15832.615 891.077c-68.923 39.385-157.538 68.923-246.154 68.923-137.846 0-256-49.231-344.615-137.846s-128-216.615-128-384c0-88.615 19.692-167.385 59.077-246.154s88.615-137.846 167.385-187.077 157.538-68.923 246.154-68.923c88.615 0 167.385 19.692 236.308 59.077 78.769 39.385 128 98.462 167.385 177.231s59.077 167.385 59.077 265.846c0 98.462-19.692 187.077-59.077 265.846-29.538 88.615-88.615 147.692-157.538 187.077zM15832.615 152.615c-59.077-68.923-147.692-108.308-246.154-108.308s-177.231 29.538-236.308 98.462c-59.077 68.923-98.462 157.538-98.462 285.538 0 147.692 29.538 256 98.462 315.077s147.692 98.462 236.308 98.462c68.923 0 128-19.692 177.231-49.231s88.615-78.769 118.154-137.846c29.538-59.077 39.385-128 39.385-206.769 0-128-29.538-226.462-88.615-295.385zM16817.231 349.538c-19.692 19.692-39.385 29.538-78.769 49.231 98.462 9.846 167.385 39.385 206.769 88.615s68.923 108.308 68.923 177.231c0 59.077-9.846 108.308-39.385 147.692s-59.077 78.769-108.308 98.462-108.308 29.538-196.923 29.538h-433.231v-984.615h128v433.231h147.692c29.538 0 59.077 0 68.923 0 19.692-9.846 39.385-9.846 59.077-29.538 19.692-9.846 39.385-39.385 68.923-68.923s59.077-78.769 98.462-137.846l128-206.769h167.385l-167.385 265.846c-39.385 59.077-78.769 108.308-118.154 137.846zM16640 507.077h-285.538v324.923h315.077c68.923 0 128-19.692 157.538-49.231s49.231-68.923 49.231-118.154c0-29.538-9.846-59.077-29.538-88.615s-39.385-49.231-78.769-59.077-68.923-9.846-128-9.846zM17752.615 251.077c-19.692-68.923-39.385-118.154-49.231-157.538-9.846 29.538-29.538 78.769-49.231 147.692l-236.308 699.077h-196.923v-984.615h128v836.923l285.538-836.923h118.154l285.538 827.077v-827.077h128v984.615h-177.231l-236.308-689.231zM18658.462 940.308l-374.154-984.615h137.846l108.308 295.385h413.538l118.154-295.385h147.692l-403.692 984.615h-147.692zM18569.846 359.385l108.308 285.538c19.692 59.077 39.385 128 49.231 187.077 19.692-49.231 39.385-118.154 68.923-206.769l98.462-275.692h-324.923zM19968 162.462l-512 777.846h-137.846v-984.615h128v777.846l521.846-777.846h128v984.615h-128zM20923.077 113.231c-49.231-39.385-108.308-59.077-187.077-59.077-59.077 0-118.154 19.692-167.385 49.231s-88.615 68.923-118.154 128c-19.692 59.077-39.385 137.846-39.385 216.615 0 68.923 9.846 128 29.538 187.077s59.077 108.308 108.308 147.692c49.231 39.385 118.154 59.077 187.077 59.077s118.154-19.692 167.385-49.231 78.769-88.615 98.462-157.538l128 29.538c-29.538 88.615-68.923 157.538-137.846 216.615s-147.692 78.769-246.154 78.769c-88.615 0-167.385-19.692-236.308-59.077s-128-98.462-167.385-177.231c-39.385-78.769-59.077-167.385-59.077-265.846s19.692-187.077 49.231-265.846c39.385-78.769 88.615-147.692 147.692-187.077 68.923-39.385 157.538-68.923 256-68.923s187.077 29.538 256 88.615c68.923 59.077 118.154 137.846 147.692 246.154l-128 29.538c-9.846-88.615-39.385-147.692-88.615-187.077zM21444.923 408.615h541.538v108.308h-541.538v305.231h580.923v118.154h-718.769v-984.615h738.462v118.154h-600.615zM23207.385 113.231c-49.231-39.385-108.308-59.077-187.077-59.077-59.077 0-118.154 19.692-167.385 49.231s-88.615 68.923-108.308 128c-19.692 59.077-39.385 137.846-39.385 216.615 0 68.923 9.846 128 29.538 187.077s59.077 108.308 108.308 147.692c49.231 39.385 118.154 59.077 187.077 59.077s118.154-19.692 167.385-49.231 78.769-88.615 98.462-157.538l128 29.538c-29.538 88.615-68.923 157.538-137.846 216.615s-147.692 78.769-246.154 78.769c-88.615 0-167.385-19.692-236.308-59.077s-128-98.462-167.385-177.231c-39.385-78.769-59.077-167.385-59.077-265.846s19.692-187.077 49.231-265.846c39.385-78.769 88.615-147.692 147.692-187.077 68.923-39.385 157.538-68.923 256-68.923s187.077 29.538 256 88.615c68.923 59.077 118.154 137.846 147.692 246.154l-128 29.538c-9.846-88.615-39.385-147.692-98.462-187.077zM23739.077 408.615h541.538v108.308h-541.538v305.231h580.923v118.154h-718.769v-984.615h738.462v118.154h-600.615zM25156.923 162.462l-521.846 777.846h-137.846v-984.615h128v777.846l521.846-777.846h128v984.615h-118.154zM25412.923 822.154h324.923v-866.462h128v866.462h334.769v118.154h-787.692zM26456.615 408.615h551.385v108.308h-551.385v305.231h580.923v118.154h-708.923v-984.615h738.462v118.154h-610.462zM27815.385 349.538c-19.692 19.692-39.385 29.538-78.769 49.231 98.462 9.846 167.385 39.385 206.769 88.615s68.923 108.308 68.923 177.231c0 59.077-9.846 108.308-39.385 147.692s-59.077 78.769-108.308 98.462-108.308 29.538-196.923 29.538h-433.231v-984.615h128v433.231h147.692c29.538 0 59.077 0 68.923 0 19.692-9.846 39.385-9.846 59.077-29.538 19.692-9.846 39.385-39.385 68.923-68.923s59.077-78.769 98.462-137.846l128-206.769h167.385l-167.385 265.846c-39.385 59.077-78.769 108.308-118.154 137.846zM27638.154 507.077h-285.538v324.923h315.077c68.923 0 128-19.692 157.538-49.231s49.231-68.923 49.231-118.154c0-29.538-9.846-59.077-29.538-88.615s-39.385-49.231-78.769-59.077-68.923-9.846-128-9.846zM28731.077 408.615h551.385v108.308h-551.385v305.231h590.769v118.154h-718.769v-984.615h738.462v118.154h-610.462zM29627.077 940.308h-128v-984.615h620.308v118.154h-492.308zM30267.077 940.308h128v-984.615h-128v984.615zM30542.769 822.154h324.923v-866.462h128v866.462h324.923v118.154h-777.846zM31586.462 73.846v334.769h541.538v108.308h-541.538v305.231h580.923v118.154h-718.769v-984.615h738.462v118.154zM1634.462 960h-827.077c-29.538 0-68.923-19.692-78.769-39.385l-718.769-945.231c-19.692-19.692-9.846-39.385 19.692-39.385h836.923c29.538 0 59.077 19.692 78.769 39.385l718.769 945.231c9.846 19.692 0 39.385-29.538 39.385zM2274.462 960h-393.846c-29.538 0-59.077-19.692-78.769-39.385l-708.923-945.231c-19.692-19.692-9.846-39.385 19.692-39.385h393.846c29.538 0 59.077 19.692 78.769 39.385l718.769 945.231c9.846 19.692 0 39.385-29.538 39.385zM2825.846 960h-295.385c-29.538 0-59.077-19.692-78.769-39.385l-718.769-945.231c-19.692-19.692-9.846-39.385 19.692-39.385h295.385c29.538 0 59.077 19.692 78.769 39.385l718.769 945.231c19.692 19.692 9.846 39.385-19.692 39.385zM3337.846 960h-206.769c-29.538 0-59.077-19.692-78.769-39.385l-718.769-945.231c-19.692-19.692-9.846-39.385 19.692-39.385h206.769c29.538 0 59.077 19.692 78.769 39.385l718.769 945.231c9.846 19.692 0 39.385-19.692 39.385zM3810.462 960h-147.692c-29.538 0-59.077-19.692-78.769-39.385l-718.769-945.231c-19.692-19.692-9.846-39.385 19.692-39.385h147.692c29.538 0 59.077 19.692 78.769 39.385l718.769 945.231c19.692 19.692 9.846 39.385-19.692 39.385zM5681.231 960h-1545.846c-29.538 0-59.077-19.692-78.769-39.385l-718.769-945.231c-19.692-19.692-9.846-39.385 19.692-39.385h344.615c29.538 0 59.077 19.692 78.769 39.385l118.154 147.692c19.692 19.692 49.231 39.385 78.769 39.385h1319.385c29.538 0 49.231-19.692 49.231-49.231v-128c0-29.538 19.692-49.231 49.231-49.231h275.692c29.538 0 49.231 19.692 49.231 49.231v925.538c9.846 29.538-19.692 49.231-39.385 49.231zM5307.077 448h-1122.462c-29.538 0-39.385 19.692-19.692 39.385l128 177.231c19.692 19.692 49.231 39.385 78.769 39.385h925.538c29.538 0 49.231-19.692 49.231-49.231v-157.538c9.846-29.538-9.846-49.231-39.385-49.231zM8113.231 960h-275.692c-29.538 0-68.923-9.846-88.615-29.538l-669.538-433.231c-19.692-19.692-59.077-19.692-78.769 0l-669.538 433.231c-29.538 9.846-68.923 29.538-98.462 29.538h-275.692c-19.692 0-49.231-29.538-49.231-49.231v-925.538c0-29.538 19.692-49.231 49.231-49.231h275.692c29.538 0 49.231 19.692 49.231 49.231v521.846c0 29.538 19.692 39.385 39.385 19.692l521.846-305.231c19.692-9.846 68.923-29.538 88.615-29.538h196.923c29.538 0 68.923 9.846 88.615 29.538l521.846 305.231c19.692 9.846 39.385 0 39.385-19.692v-521.846c0-29.538 19.692-49.231 49.231-49.231h275.692c29.538 0 49.231 19.692 49.231 49.231v925.538c9.846 29.538-9.846 49.231-39.385 49.231zM10417.231 960h-2018.462c-29.538 0-49.231-19.692-49.231-49.231v-925.538c0-29.538 19.692-49.231 49.231-49.231h2018.462c29.538 0 49.231 19.692 49.231 49.231v512c0 29.538-19.692 49.231-49.231 49.231h-994.462c-29.538 0-49.231-19.692-49.231-49.231v-98.462c0-29.538 19.692-49.231 49.231-49.231h620.308c29.538 0 49.231-19.692 49.231-49.231v-49.231c0-29.538-19.692-49.231-49.231-49.231h-1270.154c-29.538 0-49.231 19.692-49.231 49.231v393.846c0 39.385 19.692 49.231 49.231 49.231h1644.308c29.538 0 49.231 19.692 49.231 49.231v167.385c0 29.538-19.692 49.231-49.231 49.231z" />
<glyph unicode="&#xe932;" glyph-name="icon-warning" horiz-adv-x="1145" d="M645.203 568.715c-4.163-16.65-8.325-41.626-16.65-62.439-4.163-24.976-12.488-49.951-20.813-87.415-8.325-33.301-16.65-79.089-24.976-129.041h-29.138c-8.325 49.951-16.65 95.74-24.976 129.041s-12.488 62.439-20.813 87.415c-4.163 20.813-8.325 41.626-12.488 62.439s-8.325 37.463-8.325 45.789c0 20.813 8.325 37.463 24.976 54.114s33.301 20.813 54.114 20.813c20.813 0 41.626-8.325 54.114-20.813 16.65-16.65 24.976-33.301 24.976-54.114 4.163-16.65 4.163-29.138 0-45.789zM624.39 110.829c-16.65-16.65-33.301-20.813-54.114-20.813s-37.463 8.325-54.114 20.813c-16.65 16.65-24.976 33.301-24.976 54.114s8.325 37.463 24.976 54.114 33.301 20.813 54.114 20.813c20.813 0 37.463-8.325 54.114-20.813 16.65-16.65 24.976-33.301 24.976-54.114s-8.325-37.463-24.976-54.114zM1128.065 114.992l-449.561 778.407c-8.325 12.488-12.488 24.976-24.976 33.301-45.789 45.789-120.715 45.789-166.504 0-8.325-8.325-16.65-16.65-20.813-29.138v0l-445.398-778.407c-8.325-12.488-12.488-20.813-16.65-33.301-16.65-62.439 20.813-124.878 83.252-141.528 12.488-4.163 20.813-4.163 33.301-4.163h899.122c41.626-4.163 87.415 16.65 108.228 58.276 24.976 37.463 20.813 83.252 0 116.553v0z" />
<glyph unicode="&#xe933;" glyph-name="icon-preferred-dealer" d="M622.732 635.478c0-60.55-49.086-109.636-109.636-109.636s-109.636 49.086-109.636 109.636c0 60.55 49.086 109.636 109.636 109.636s109.636-49.086 109.636-109.636zM513.096 960c-175.418 0-317.944-142.527-317.944-317.944 0-118.407 65.782-223.657 162.261-276.283v-427.58l155.683 155.683 157.876-157.876v427.58c96.48 54.818 162.261 157.876 162.261 276.283-2.193 177.61-144.719 320.137-320.137 320.137zM513.096 427.169c-118.407 0-212.694 94.287-212.694 212.694s94.287 212.694 212.694 212.694 212.694-94.287 212.694-212.694-96.48-212.694-212.694-212.694z" />
<glyph unicode="&#xe934;" glyph-name="icon-check" horiz-adv-x="1316" d="M1315.513 787.892l-158.109 172.108-690.49-694.195-301.806 300.571-165.108-165.52 466.914-464.856 0.412 0.823 0.823-0.823 847.363 851.892z" />
<glyph unicode="&#xe935;" glyph-name="list-alt" d="M320 828h576v-120h-576v120zM128 828h128v-120h-128v120zM128 188h128v-120h-128v120zM128 401.4h128v-120h-128v120zM128 614.6h128v-120h-128v120zM320 188h576v-120h-576v120zM320 401.4h576v-120h-576v120zM320 614.6h576v-120h-576v120z" />
<glyph unicode="&#xe936;" glyph-name="paperclip" d="M282.624 148.992c-30.72 0-63.488 12.288-86.016 36.864-47.104 47.104-47.104 124.928 0 174.080l348.16 348.16c63.488 63.488 167.936 63.488 231.424 0s63.488-167.936 0-231.424l-262.144-262.144-28.672 28.672 260.096 260.096c47.104 47.104 47.104 124.928 0 174.080-47.104 47.104-124.928 47.104-174.080 0l-348.16-348.16c-16.384-16.384-24.576-36.864-24.576-57.344 0-22.528 8.192-43.008 24.576-57.344 32.768-32.768 83.968-32.768 116.736 0l260.096 260.096c16.384 16.384 16.384 40.96 0 57.344s-40.96 16.384-57.344 0l-174.080-172.032-28.672 28.672 174.080 174.080c32.768 32.768 83.968 32.768 116.736 0s32.768-83.968 0-116.736l-262.144-260.096c-22.528-24.576-55.296-36.864-86.016-36.864z" />
<glyph unicode="&#xe937;" glyph-name="forward-right-arrow-button" d="M512 704v256l512-512-512-512v256h-512v512z" />
<glyph unicode="&#xe938;" glyph-name="chained-links" d="M840.238 788.593l-125.482 125.482c-29.603 29.618-68.991 45.925-110.866 45.925-41.877 0-81.265-16.307-110.866-45.927l-248.030-247.993c-61.099-61.134-61.099-160.619 0.017-221.753l125.478-125.478c30.558-30.56 70.706-45.846 110.853-45.846 40.162 0 80.322 15.286 110.917 45.846l65.977 65.994-71.595 71.561-0.363-0.361-65.58-65.612c-21.715-21.679-56.968-21.664-78.647-0.017l-125.461 125.478c-21.681 21.681-21.681 56.951-0.017 78.629l248.010 247.991c10.493 10.493 24.464 16.275 39.305 16.275 14.845 0 28.812-5.782 39.307-16.275l125.478-125.482c10.344-10.361 16.292-24.693 16.292-39.322s-5.932-28.944-16.292-39.305l-64.378-64.378 71.578-71.563 64.344 64.361c29.637 29.601 45.961 68.989 45.961 110.883 0 41.879-16.307 81.267-45.942 110.887zM653.489 577.139c-29.618 29.618-68.989 45.927-110.883 45.927-41.892 0-81.265-16.309-110.883-45.927l-64.346-64.366 71.563-71.563 64.344 64.366c10.51 10.493 24.462 16.275 39.322 16.275 14.858 0 28.812-5.784 39.322-16.275l125.463-125.465c21.681-21.679 21.681-56.965 0-78.642l-247.976-247.978c-21.023-20.989-57.624-20.989-78.647 0l-125.461 125.461c-10.495 10.508-16.275 24.462-16.275 39.32 0 14.862 5.78 28.814 16.275 39.326l64.361 64.344-71.561 71.563-64.361-64.346c-29.618-29.622-45.927-68.993-45.927-110.887s16.309-81.263 45.927-110.883l125.461-125.461c29.622-29.62 68.993-45.929 110.887-45.929 41.892 0 81.261 16.309 110.883 45.929l247.976 247.978c61.151 61.134 61.151 160.632 0 221.766l-125.465 125.467z" />
<glyph unicode="&#xe939;" glyph-name="world" d="M937.265 732.879l-15.32-4.857-81.585-7.269-23.045-36.8-16.721 5.313-64.929 58.54-9.42 30.444-12.614 32.464-40.809 36.604-48.143 9.42-1.108-22.034 47.165-46.024 23.077-27.184-25.946-13.559-21.121 6.226-31.65 13.201 1.076 25.522-41.526 17.080-13.788-60.007-41.852-9.485 4.14-33.475 54.531-10.496 9.42 53.488 45.013-6.649 20.926-12.256h33.573l22.979-46.024 60.92-61.8-4.465-24.022-49.12 6.258-84.877-42.862-61.115-73.306-7.953-32.464h-21.936l-40.874 18.84-39.701-18.84 9.876-41.884 17.275 19.915 30.378 0.945-2.119-37.614 25.163-7.366 25.131-28.227 41.037 11.539 46.871-7.399 54.433-14.635 27.184-3.194 46.089-52.315 88.951-52.315-57.53-109.91-60.724-28.227-23.045-62.81-87.876-58.671-9.355-33.833c224.644 54.107 391.758 255.902 391.758 497.169-0.065 105.379-32.008 203.457-86.702 284.846zM570.899 180.429l-37.289 69.134 34.225 71.318-34.225 10.235-38.429 38.592-85.138 19.101-28.26 59.127v-35.105h-12.451l-73.371 99.48v81.715l-53.782 87.452-85.399-15.222h-57.53l-28.944 18.97 36.93 29.27-36.832-8.507c-44.394-75.816-70.275-163.789-70.275-258.021 0-282.695 229.174-511.967 511.902-511.967 21.773 0 43.123 1.923 64.244 4.465l-5.346 62.028c0 0 23.501 92.113 23.501 95.242-0.033 3.162-23.533 82.693-23.533 82.693zM190.354 794.907l90.94 12.679 41.917 22.979 47.165-13.592 75.359 4.172 25.815 40.581 37.647-6.193 91.429 8.572 25.196 27.771 35.528 23.729 50.261-7.562 18.318 2.771c-66.2 31.161-139.865 49.186-217.929 49.186-158.9 0-300.981-72.426-394.789-186.149h0.261l72.882 21.056zM533.643 909.087l52.282 28.781 33.573-19.394-48.599-36.995-46.415-4.661-20.893 13.559 30.052 18.709zM378.785 904.882l23.077-9.615 30.215 9.615 16.46-28.52-69.753-18.318-33.54 19.622c-0.033 0 32.79 21.121 33.54 27.217z" />
<glyph unicode="&#xe93a;" glyph-name="sort-descending" d="M499.973 533.918h283.814c6.936 0 12.557 5.589 12.557 12.515v149.183c0 6.915-5.6 12.515-12.557 12.515h-283.814c-6.915 0-12.536-5.589-12.536-12.515v-149.193c0-6.915 5.611-12.504 12.536-12.504zM499.973 784.483h160.382c6.915 0 12.536 5.611 12.536 12.536v149.161c0 6.936-5.6 12.536-12.536 12.536h-160.382c-6.915 0-12.536-5.589-12.536-12.536v-149.161c0-6.926 5.611-12.536 12.536-12.536zM499.973 235.627h392.206c6.904 0 12.526 5.589 12.526 12.515v149.161c0 6.915-5.6 12.536-12.526 12.536h-392.206c-6.915 0-12.536-5.611-12.536-12.536v-149.161c0-6.915 5.611-12.515 12.536-12.515zM1000.54 111.496h-500.567c-6.915 0-12.536-5.579-12.536-12.547v-149.14c0-6.915 5.611-12.536 12.536-12.536h500.577c6.915 0 12.526 5.611 12.526 12.536v149.161c-0.011 6.947-5.6 12.526-12.536 12.526zM415.571 264.306h-84.964v674.482c0 11.72-9.503 21.212-21.212 21.212h-171.073c-11.709 0-21.212-9.492-21.212-21.212v-674.482h-84.953c-8.177 0-15.612-4.698-19.133-12.070-3.532-7.36-2.524-16.089 2.588-22.453l191.712-285.872c4.030-5.027 10.107-7.912 16.535-7.912s12.494 2.885 16.524 7.912l191.712 285.872c5.112 6.374 6.13 15.092 2.598 22.453-3.521 7.36-10.945 12.070-19.122 12.070z" />
<glyph unicode="&#xe93b;" glyph-name="sort-down" d="M783.787 362.082h-283.814c-6.915 0-12.536-5.579-12.536-12.526v-149.172c0-6.904 5.611-12.515 12.536-12.515h283.814c6.936 0 12.557 5.579 12.557 12.515v149.193c-0.011 6.926-5.621 12.504-12.557 12.504zM660.345 111.517h-160.372c-6.915 0-12.536-5.6-12.536-12.547v-149.151c0-6.926 5.611-12.536 12.536-12.536h160.382c6.915 0 12.536 5.579 12.536 12.536v149.172c-0.011 6.926-5.611 12.526-12.547 12.526zM892.19 660.373h-392.206c-6.915 0-12.536-5.589-12.536-12.515v-149.151c0-6.915 5.611-12.536 12.536-12.536h392.206c6.904 0 12.526 5.611 12.526 12.536v149.161c-0.021 6.915-5.621 12.504-12.526 12.504zM1000.54 958.706h-500.567c-6.915 0-12.536-5.611-12.536-12.536v-149.151c0-6.936 5.611-12.536 12.536-12.536h500.577c6.915 0 12.526 5.589 12.526 12.536v149.161c-0.011 6.915-5.6 12.526-12.536 12.526zM415.571 264.306h-84.964v674.482c0 11.72-9.503 21.212-21.212 21.212h-171.073c-11.709 0-21.212-9.492-21.212-21.212v-674.482h-84.953c-8.177 0-15.612-4.698-19.133-12.070-3.532-7.36-2.524-16.089 2.588-22.453l191.712-285.872c4.030-5.027 10.107-7.912 16.535-7.912s12.494 2.885 16.524 7.912l191.712 285.872c5.112 6.374 6.13 15.092 2.598 22.453-3.521 7.36-10.945 12.070-19.122 12.070z" />
<glyph unicode="&#xe93c;" glyph-name="descendant" d="M992.2 683.4l-240.8 240.8c-15.8 15.8-41.2 15.8-57 0l-240.6-240.8c-15.8-15.8-15.8-41.2 0-57s41.2-15.8 57 0l171.4 171.4v-705.6c0-22.6 18.2-40.8 40.8-40.8s40.8 18.2 40.8 40.8v705.6l171.4-171.4c15.8-15.8 41.2-15.8 57 0 15.8 15.6 15.8 41.2 0 57zM574.2 265.6c-15.8 15.8-41.2 15.8-57 0l-171.4-171.4v705.6c0 22.6-18.2 40.8-40.8 40.8s-40.8-18.2-40.8-40.8v-705.6l-171.4 171.4c-15.8 15.8-41.2 15.8-57 0s-15.8-41.2 0-57l240.8-240.8c15.8-15.8 41.2-15.8 57 0l240.8 240.8c15.6 15.8 15.6 41.4-0.2 57v0z" />
<glyph unicode="&#xe93d;" glyph-name="caret-down-small" d="M1004.992 717.007c-12.658 12.669-27.663 18.998-45 18.998h-895.987c-17.344 0-32.339-6.329-45.007-18.998-12.669-12.683-18.998-27.677-18.998-45.011 0-17.33 6.329-32.325 18.998-44.997l447.995-447.995c12.683-12.669 27.677-19.012 45.007-19.012s32.339 6.343 44.997 19.012l447.995 447.999c12.655 12.669 19.008 27.663 19.008 44.997 0 17.33-6.354 32.325-19.008 45.007z" />
<glyph unicode="&#xe93e;" glyph-name="dark-printer" d="M1003.52 673.28h-983.040c-11.305 0-20.48-9.175-20.48-20.48v-471.040c0-11.305 9.175-20.48 20.48-20.48h123.761l22.528 225.28h669.983l22.548-225.28h144.22c11.305 0 20.48 9.175 20.48 20.48v471.040c0 11.305-9.175 20.48-20.48 20.48zM873.82 499.2c-22.61 0-40.96 18.33-40.96 40.96s18.35 40.96 40.96 40.96 40.96-18.33 40.96-40.96-18.35-40.96-40.96-40.96zM797.553 161.28l-16.384 163.84h-558.817l-34.816-348.16h628.449zM225.28 919.040h552.96v-204.8h-552.96v204.8z" />
<glyph unicode="&#xe93f;" glyph-name="rate-star-button" d="M512 187.733l315.733-230.4-119.467 375.467 315.733 221.867h-384l-128 384-128-384h-384l315.733-221.867-119.467-375.467z" />
<glyph unicode="&#xe940;" glyph-name="barcode" d="M392.976 870.856v-850.197h-35.425v850.197h35.425zM800.362 870.856v-850.197h-35.425v850.197h35.425zM888.924 870.856v-850.197h-35.425v850.197h35.425zM339.839 870.856v-850.197h-35.425v850.197h35.425zM729.512 870.856v-850.197h-141.699v850.197h141.699zM516.963 870.856v-850.197h-70.85v850.197h70.85zM268.989 870.856v-850.197h-70.85v850.197h70.85zM1012.911 870.856v-850.197h-70.85v850.197h70.85zM162.714 870.856v-850.197h-141.699v850.197h141.699z" />
<glyph unicode="&#xe941;" glyph-name="call" d="M1001.042 150.739l-158.141 158.158c-31.499 31.372-83.661 30.419-116.257-2.189l-79.672-79.654c-5.034 2.774-10.244 5.672-15.721 8.746-50.312 27.877-119.173 66.086-191.634 138.601-72.676 72.667-110.921 141.634-138.883 191.978-2.951 5.334-5.778 10.476-8.57 15.36l79.76 79.713c32.646 32.655 33.546 84.803 2.121 116.266l-158.141 158.176c-31.425 31.419-83.611 30.466-116.257-2.189l-44.569-44.825 1.218-1.209c-14.945-19.069-27.433-41.063-36.726-64.78-8.567-22.576-13.9-44.119-16.339-65.707-20.881-173.112 58.226-331.323 272.912-546.013 296.762-296.741 535.913-274.324 546.23-273.23 22.47 2.686 44.005 8.055 65.889 16.554 23.511 9.185 45.49 21.655 64.548 36.568l0.974-0.865 45.152 44.213c32.578 32.649 33.517 84.814 2.106 116.328z" />
<glyph unicode="&#xe942;" glyph-name="chat" d="M920.474 906.752h-816.947c-51.507 0-93.286-41.574-93.286-92.877v-518.451c0-51.302 41.779-92.877 93.286-92.877h155.648v-213.299l238.080 213.299h423.117c51.507 0 93.286 41.574 93.286 92.877v518.451c0.102 51.302-41.677 92.877-93.184 92.877zM261.53 532.378c-23.040 0-41.677 18.534-41.677 41.472s18.739 41.472 41.677 41.472c23.040 0 41.779-18.534 41.779-41.472s-18.739-41.472-41.779-41.472zM428.442 534.118c-23.040 0-41.779 18.637-41.779 41.472 0 22.938 18.739 41.472 41.779 41.472s41.677-18.534 41.677-41.472c0.102-22.835-18.637-41.472-41.677-41.472zM596.275 533.197c-23.040 0-41.779 18.534-41.779 41.472s18.739 41.472 41.779 41.472c23.040 0 41.677-18.534 41.677-41.472 0.102-22.835-18.637-41.472-41.677-41.472zM762.368 532.378c-23.040 0-41.779 18.534-41.779 41.472s18.739 41.472 41.779 41.472c23.040 0 41.779-18.534 41.779-41.472s-18.739-41.472-41.779-41.472z" />
<glyph unicode="&#xe943;" glyph-name="list-menu" d="M975.002-63.988h-926.004c-27.068 0-48.998 21.949-48.998 48.998v925.981c0 27.068 21.93 48.998 48.998 48.998h926.004c27.068 0 48.998-21.953 48.998-48.998v-925.981c0-27.045-21.93-48.998-48.998-48.998zM97.996 34.008h828.007v827.984h-828.007v-827.984zM776.827 661.806h-365.341c-18.033 0-32.665 14.613-32.665 32.665s14.633 32.665 32.665 32.665h365.341c18.052 0 32.685-14.613 32.685-32.665s-14.633-32.665-32.685-32.665zM776.827 400.459h-365.341c-18.033 0-32.665 14.613-32.665 32.665s14.633 32.665 32.665 32.665h365.341c18.052 0 32.685-14.613 32.685-32.665s-14.633-32.665-32.685-32.665zM776.827 139.132h-365.341c-18.033 0-32.665 14.613-32.665 32.665s14.633 32.665 32.665 32.665h365.341c18.052 0 32.685-14.613 32.685-32.665 0-18.048-14.633-32.665-32.685-32.665zM159.997 762.215h135.442v-135.465h-135.442v135.465zM159.997 500.868h135.442v-135.465h-135.442v135.465zM159.997 239.522h135.442v-135.442h-135.442v135.442z" />
<glyph unicode="&#xe944;" glyph-name="envelope" d="M1024 192.005c0-22.449-6.314-43.259-16.43-61.569l-323.319 361.747 319.813 279.808c12.441-19.743 19.935-42.934 19.935-67.996v-511.991zM512.001 426.5l445.010 389.373c-18.261 9.997-38.825 16.128-61.008 16.128h-768.004c-22.21 0-42.78-6.131-60.968-16.128l444.97-389.373zM636.066 450.057l-103.008-90.187c-6.025-5.249-13.528-7.87-21.058-7.87-7.534 0-15.037 2.621-21.062 7.87l-103.031 90.191-327.409-366.371c19.625-12.312 42.624-19.688 67.498-19.688h768.006c24.869 0 47.879 7.376 67.498 19.688l-327.434 366.367zM19.939 771.993c-12.439-19.743-19.939-42.934-19.939-67.998v-511.993c0-22.449 6.285-43.259 16.438-61.569l323.281 361.811-319.78 279.749z" />
<glyph unicode="&#xe945;" glyph-name="profile" d="M908.852 174.836c-10.878 32.64-30.596 65.564-59.678 84.724-55.958 37.144-121.156 56.958-184.198 78.17-15.208 5.328-30.66 11.136-44.558 19.4-12.408 7.372-17.066 22.492-19.948 35.772-1.272 7.024-2.052 14.232-2.456 21.322 45.714 62.534 76.038 164.59 76.038 248.272 0 130.596-73.792 166.99-164.804 166.99-91.030 0-164.806-36.34-164.806-166.936 0-86.676 32.51-193 80.978-254.766-0.442-4.876-1.022-9.752-1.9-14.606-2.888-13.278-7.54-28.116-19.94-35.486-13.914-8.266-29.364-13.512-44.574-18.84-63.042-21.21-128.238-39.914-184.182-77.058-29.098-19.16-48.806-54.318-59.676-86.958-11.194-33.876-15.772-75.834-15.082-109.834h823.864c0.696 33.998-3.892 75.956-15.078 109.834z" />
<glyph unicode="&#xe946;" glyph-name="web-link" d="M375.014 147.571l-51.814-51.456c-44.915-44.518-117.965-44.557-162.854 0-21.581 21.414-33.434 49.856-33.434 80.090s11.866 58.688 33.421 80.102l190.72 189.222c39.526 39.194 113.882 96.909 168.077 43.162 24.87-24.704 65.037-24.538 89.728 0.32 24.704 24.858 24.55 65.037-0.32 89.715-92.122 91.418-228.275 74.522-346.854-43.136l-190.733-189.235c-45.76-45.427-70.95-105.843-70.95-170.15s25.19-124.71 70.963-170.138c47.091-46.72 108.928-70.067 170.79-70.067 61.875 0 123.738 23.347 170.854 70.093l51.853 51.469c24.858 24.678 24.998 64.845 0.294 89.715-24.666 24.845-64.87 24.986-89.741 0.294zM953.011 882.637c-98.944 98.176-237.286 103.501-328.883 12.621l-64.589-64.115c-24.87-24.691-25.024-64.845-0.32-89.715s64.87-25.011 89.741-0.32l64.563 64.077c47.45 47.117 109.581 27.584 150.106-12.621 21.606-21.414 33.472-49.869 33.472-80.102 0-30.246-11.878-58.701-33.446-80.115l-203.482-201.856c-93.043-92.314-136.691-48.986-155.315-30.502-24.87 24.691-65.024 24.538-89.728-0.32s-24.55-65.037 0.32-89.715c42.714-42.394 91.469-63.411 142.579-63.411 62.579 0 128.678 31.514 191.526 93.914l203.482 201.856c45.747 45.427 70.963 105.856 70.963 170.163 0 64.282-25.216 124.71-70.989 170.163z" />
<glyph unicode="&#xe947;" glyph-name="pdf" d="M842.013 370.519c-13.647 13.446-43.914 20.567-89.971 21.172-31.177 0.344-68.701-2.402-108.171-7.928-17.674 10.197-35.887 21.295-50.187 34.658-38.463 35.917-70.57 85.772-90.576 140.594 1.304 5.121 2.413 9.621 3.446 14.214 0 0 21.665 123.059 15.93 164.665-0.789 5.706-1.275 7.361-2.809 11.796l-1.882 4.835c-5.892 13.592-17.447 27.994-35.562 27.208l-10.915 0.344c-20.2 0-36.664-10.332-40.986-25.774-13.137-48.434 0.419-120.891 24.983-214.737l-6.288-15.285c-17.589-42.877-39.631-86.060-59.078-124.157l-2.529-4.956c-20.46-40.040-39.024-74.029-55.853-102.824l-17.376-9.187c-1.265-0.668-31.044-16.418-38.029-20.644-59.255-35.38-98.521-75.544-105.036-107.416-2.074-10.17-0.53-23.184 10.013-29.211l16.806-8.458c7.29-3.652 14.978-5.503 22.854-5.503 42.204 0 91.2 52.573 158.696 170.366 77.929 25.371 166.654 46.458 244.414 58.090 59.259-33.368 132.142-56.542 178.143-56.542 8.168 0 15.208 0.78 20.93 2.292 8.822 2.337 16.259 7.369 20.792 14.196 8.924 13.43 10.735 31.932 8.312 50.874-0.722 5.62-5.213 12.57-10.070 17.316zM211.647 145.952c7.695 21.043 38.16 62.644 83.203 99.556 2.832 2.296 9.807 8.834 16.195 14.903-47.103-75.126-78.647-105.068-99.398-114.459zM478.435 760.314c13.567 0 21.283-34.195 21.924-66.253 0.639-32.060-6.858-54.561-16.159-71.209-7.703 24.649-11.426 63.5-11.426 88.904 0 0-0.566 48.559 5.66 48.559zM398.851 322.506c9.45 16.917 19.283 34.758 29.33 53.677 24.492 46.316 39.959 82.558 51.479 112.347 22.911-41.683 51.445-77.121 84.987-105.514 4.184-3.54 8.617-7.1 13.273-10.65-68.21-13.496-127.164-29.91-179.069-49.861zM828.907 326.348c-4.155-2.598-16.055-4.099-23.71-4.099-24.705 0-55.271 11.295-98.122 29.666 16.464 1.219 31.561 1.837 45.099 1.837 24.78 0 32.12 0.108 56.35-6.073s24.536-18.733 20.383-21.331zM903.434 760.569l-142.863 142.862c-31.114 31.114-92.569 56.569-136.57 56.569h-480c-44.001 0-80.001-36-80.001-80.001v-864.001c0-43.999 36-79.999 80.001-79.999h736c43.999 0 79.999 36 79.999 79.999v608.001c0.002 44.001-25.453 105.458-56.565 136.57zM858.179 715.315c3.132-3.132 6.25-6.975 9.279-11.315h-163.457v163.455c4.341-3.030 8.185-6.15 11.315-9.279l142.863-142.862zM896.001 15.999c0-8.673-7.327-15.999-15.999-15.999h-736.002c-8.673 0-15.999 7.327-15.999 15.999v864.001c0 8.673 7.329 15.999 15.999 15.999h480c4.833 0 10.255-0.611 16.001-1.703v-254.296h254.296c1.092-5.747 1.703-11.167 1.703-15.999v-608.001z" />
<glyph unicode="&#xe948;" glyph-name="movie" d="M761.486 502.98l-297.9 216.361c-20.674 15.017-48.019 17.162-70.789 5.558-22.762-11.602-37.1-34.993-37.1-60.544v-432.722c0-25.553 14.336-48.938 37.1-60.536 9.742-4.962 20.31-7.409 30.853-7.409 14.087 0 28.108 4.374 39.936 12.971l297.9 216.359c17.603 12.779 28.013 33.218 28.013 54.982 0 21.756-10.41 42.203-28.013 54.98zM512.004 960c-282.321 0-511.996-229.685-511.996-512 0-282.311 229.679-512 511.996-512 282.315 0 511.989 229.689 511.989 512-0.002 282.315-229.67 512-511.989 512zM512.004 61.82c-212.938 0-386.18 173.241-386.18 386.18 0 212.942 173.243 386.176 386.18 386.176s386.182-173.234 386.182-386.176c-0.002-212.942-173.245-386.18-386.182-386.18z" />
<glyph unicode="&#xe949;" glyph-name="logout" d="M510.3 22.75h-382.726c-23.474 0-42.524 19.052-42.524 42.524v765.45c0 23.474 19.052 42.524 42.524 42.524h382.726c23.516 0 42.524 19.008 42.524 42.524s-19.008 42.528-42.524 42.528h-382.726c-70.336 0-127.574-57.24-127.574-127.576v-765.448c0-70.336 57.238-127.574 127.574-127.574h382.726c23.516 0 42.524 19.008 42.524 42.524s-19.008 42.524-42.524 42.524zM1011.328 478.278l-258.552 255.15c-16.67 16.5-43.63 16.286-60.13-0.426s-16.33-43.63 0.426-60.13l184.77-182.346h-495.118c-23.516 0-42.524-19.008-42.524-42.524s19.008-42.526 42.524-42.526h495.118l-184.77-182.346c-16.754-16.5-16.882-43.418-0.426-60.13 8.334-8.42 19.306-12.672 30.278-12.672 10.802 0 21.602 4.082 29.852 12.248l258.552 255.15c8.080 7.994 12.672 18.882 12.672 30.278 0 11.392-4.55 22.236-12.672 30.274z" />
<glyph unicode="&#xe94a;" glyph-name="pencil" d="M845.906 607.962c1.098 0.96 2.18 1.95 3.224 2.996l43.544 43.544c25.766 25.766 25.766 67.542 0 93.308l-80.868 80.868c-25.766 25.766-67.542 25.766-93.306 0l-43.544-43.544c-1.046-1.046-2.036-2.128-2.996-3.226l173.946-173.946zM228.634 164.632l86-86-202.634-30.632 30.632 202.634zM698.286 708.93l-460.322-460.318-24.882 24.882 460.32 460.318-24.882 24.882-485.202-485.2 174.176-174.176 485.202 485.202z" />
<glyph unicode="&#xe94b;" glyph-name="cross" d="M1024 98.645l-354.773 350.251 349.867 353.365-157.739 157.739-350.379-354.901-354.56 349.995-156.416-156.416 355.029-351.573-350.123-354.688 156.416-156.416 351.445 354.901 353.493-349.995z" />
</font>
</defs>
</svg>
